<svg xmlns="http://www.w3.org/2000/svg" xmlns:xlink="http://www.w3.org/1999/xlink" viewBox="0 0 575.63 472.19"><defs><style>.cls-1,.cls-13{fill:none;}.cls-2{isolation:isolate;}.cls-3{fill:#b5d3f6;}.cls-4{fill:#8f7efe;}.cls-5,.cls-7{fill:#d27876;}.cls-6{fill:#28234c;}.cls-7{mix-blend-mode:multiply;}.cls-8{fill:#fcf4ee;}.cls-9{fill:#ea9d42;}.cls-10{fill:#f7d8b3;}.cls-11{fill:#6400e3;}.cls-12{fill:#fbf0e2;}.cls-13{stroke:#28234c;stroke-miterlimit:10;}.cls-14{clip-path:url(#clip-path);}</style><clipPath id="clip-path"><rect class="cls-1" x="74.06" y="205.06" width="425.94" height="267.13"/></clipPath></defs><g class="cls-2"><g id="Layer_2" data-name="Layer 2"><g id="OBJECTS"><path class="cls-3" d="M204.3,297.9c22.31,25.33,55.77,22,68.14,1.51,9.94-16.5,7.2-41.56,5.75-50.74-14.88-4.43-27.72-7.67-35.61-9.09-9.44-1.69-28,1.68-49.57,7.66C188.17,258.58,184.59,275.53,204.3,297.9Z"/><path class="cls-4" d="M387.56,299.1c-11.21-16.82-68.15-38.17-109.37-50.43,1.45,9.18,4.19,34.24-5.75,50.74-12.37,20.5-45.83,23.82-68.14-1.51-19.71-22.37-16.13-39.32-11.29-50.66-46.45,12.87-106.8,37.83-119.83,50.34C54.1,315.89,22.82,472.19,22.82,472.19H439.45S402.82,322,387.56,299.1Z"/><path class="cls-5" d="M208.11,219.45s-8.14,39-9.89,43.61,14.54,44.78,44.19,43.61S268,275.28,268,275.28l9.88-40.71Z"/><path class="cls-6" d="M329,169.81c2.53,3.5,7,5.2,11.33,5.22s8.51-1.43,12.45-3.19c4.54-2,9-4.57,12.28-8.29s6.36-10.38,5.55-15.29a20.6,20.6,0,0,0,11.95-8.9,28.09,28.09,0,0,0,4.21-14.46A22.94,22.94,0,0,0,384.68,114c-1.68-3.35-5.24-8.66-8.84-9.71,3-9.65,3.32-20.43-.82-29.65S361.94,57.41,351.84,57c2.11-7.17-.53-15.08-5.1-21a26.37,26.37,0,0,0-12-9.1c-4.8-1.67-11.64-2.49-16,.17A28.3,28.3,0,0,0,300,3.32c-10.13-3.4-23.05.2-30.22,8.12A25.07,25.07,0,0,0,249.45,0c-8.11-.13-15.61,4.88-20.17,11.59-2.41-3-6.11-4.82-9.87-5.79a30,30,0,0,0-22.92,3.33c-6.74,4.17-9.57,12-10.68,19.88-13.44-1.77-27.9,3.82-35.7,14.91s-6.06,26,2.52,36.46a26,26,0,0,0-13.93,21.45c-.44,8.92,5.44,17.67,13,22.47a18.17,18.17,0,0,0,17.61,25.75s-8.34,22.69,10.49,35.56,42.35-.32,42.35-.32"/><path class="cls-5" d="M190.47,128.6c-5.85,41.54,5.09,117.43,53,124.2C294,259.94,322.25,186.51,328.1,145S307.57,70.17,266,64.32,196.33,87.06,190.47,128.6Z"/><path class="cls-7" d="M243,175.7c-1.21,4.81-7.5,7.37-14.05,5.72s-10.88-6.87-9.67-11.68,7.5-7.37,14-5.72S244.2,170.9,243,175.7Z"/><path class="cls-7" d="M307.52,191.56c-1.21,4.8-7.5,7.37-14,5.72s-10.88-6.88-9.67-11.69,7.5-7.37,14.05-5.72S308.73,186.75,307.52,191.56Z"/><path class="cls-6" d="M311.35,160.72a15.42,15.42,0,0,1-6.75,6,12.27,12.27,0,0,1-9.54.34,9.56,9.56,0,0,1-4.08-3,13.43,13.43,0,0,1-2.09-4.29,23.25,23.25,0,0,1-.87-8.9,54.49,54.49,0,0,0,3,8.05,14.19,14.19,0,0,0,2.14,3.31,7.79,7.79,0,0,0,3,1.92,12.37,12.37,0,0,0,7.53.16A29.53,29.53,0,0,0,311.35,160.72Z"/><path class="cls-6" d="M234.39,141.59a29.92,29.92,0,0,0,4.43,7.18,12.31,12.31,0,0,0,6.41,4,7.61,7.61,0,0,0,3.55,0,14.41,14.41,0,0,0,3.6-1.61,52.3,52.3,0,0,0,6.93-5.09,23,23,0,0,1-5.59,7,13.3,13.3,0,0,1-4.08,2.46,9.51,9.51,0,0,1-5.06.3,12.32,12.32,0,0,1-7.82-5.49A15.54,15.54,0,0,1,234.39,141.59Z"/><path class="cls-6" d="M324.25,151.79c-3.73.55-7.48.85-11.25,1.08-1.89.09-3.78.14-5.67.16s-3.78,0-5.68-.11l-5.7-.16a17.3,17.3,0,0,1-6-1.22A12.18,12.18,0,0,1,287,149.8a8.93,8.93,0,0,1-2.27-2.71,7.64,7.64,0,0,1-.91-3.32,4.91,4.91,0,0,1,.93-3.14l.5.15a6.16,6.16,0,0,0,2.44,4.06,7.56,7.56,0,0,0,1.83,1.06,12.5,12.5,0,0,0,2.12.67c1.49.34,3.15.62,5,1s3.6.84,5.42,1.14,3.65.57,5.49.8,3.67.51,5.52.71c3.69.47,7.41.73,11.15,1Z"/><path class="cls-6" d="M227.9,126.11c3.33,1.73,6.63,3.47,10,5,1.68.81,3.37,1.57,5.06,2.32s3.39,1.5,5.09,2.2,3.46,1.31,5.21,1.89,3.31,1.25,4.77,1.75a13.53,13.53,0,0,0,2.15.54,7.39,7.39,0,0,0,2.11.07,6.15,6.15,0,0,0,4.21-2.17l.51.14a4.89,4.89,0,0,1-.86,3.15,7.7,7.7,0,0,1-2.53,2.35,9,9,0,0,1-3.36,1.11,12.45,12.45,0,0,1-3.4-.07,17.13,17.13,0,0,1-5.73-2.12l-4.93-2.86q-2.46-1.41-4.88-2.9c-1.6-1-3.18-2.05-4.73-3.12-3.08-2.19-6.12-4.42-9-6.85Z"/><path class="cls-6" d="M255.3,158.43a10.7,10.7,0,0,1-5,3.35,10.58,10.58,0,0,1-6,.28,33,33,0,0,0,5.67-1.28A32.32,32.32,0,0,0,255.3,158.43Z"/><path class="cls-6" d="M293.86,171a8.87,8.87,0,0,1-8-8.32,15.89,15.89,0,0,0,8,8.32Z"/><path class="cls-6" d="M264.89,148.21a12.53,12.53,0,0,0,4.53-4.44,12.7,12.7,0,0,0,1.79-6.08,7.11,7.11,0,0,1,.24,3.37,9.05,9.05,0,0,1-3.47,5.78A7.11,7.11,0,0,1,264.89,148.21Z"/><path class="cls-6" d="M276.09,147.74a103.17,103.17,0,0,1,1.73,17.36c.08,2.92,0,5.84-.13,8.75s-.42,5.82-.74,8.73a47.2,47.2,0,0,1-1.82,8.74c-.25.73-.5,1.41-.82,2.15a6.66,6.66,0,0,1-1.51,2.24,5.36,5.36,0,0,1-2.49,1.24,19.29,19.29,0,0,1-2.29.35,23.51,23.51,0,0,1-16.83-4.59A27.19,27.19,0,0,0,267.68,195a18.52,18.52,0,0,0,2-.47,2.83,2.83,0,0,0,1.32-.71,8.77,8.77,0,0,0,1.44-3.34,48.43,48.43,0,0,0,1.56-8.26c.36-2.83.64-5.69.88-8.55s.44-5.73.63-8.6C275.81,159.32,276,153.56,276.09,147.74Z"/><path class="cls-7" d="M234,205.59a9.77,9.77,0,0,0-.18,11c4.4,6.61,13.18,4.3,16.85,5a6.18,6.18,0,0,1,2,.63A31.94,31.94,0,0,0,234,205.59Z"/><path class="cls-6" d="M275.75,212.06c-8.05-6.38-12.32-.32-19.71-3.1-3.07-1.15-7-6.24-14.16-7.16a8.28,8.28,0,0,0-7.88,3.79,31.94,31.94,0,0,1,18.66,16.6c1.3.71,2.15,2,10.47,5.51C274.5,232.48,283.8,218.43,275.75,212.06Z"/><path class="cls-6" d="M228.73,208.19a12.26,12.26,0,0,0,1.14,8.3,15.85,15.85,0,0,0,6,6A11.36,11.36,0,0,1,229,217a10.43,10.43,0,0,1-1.19-4.4A8.62,8.62,0,0,1,228.73,208.19Z"/><path class="cls-6" d="M266.17,231.43A19.25,19.25,0,0,0,279.28,226a11.85,11.85,0,0,1-13.11,5.44Z"/><path class="cls-6" d="M198.36,152.72s14.67,9.87,25.07-40.28c11.21,5.34,16.23-6.26,18.42-10.7,3.08,4.79,7.91,9.08,13.21,10a19,19,0,0,0,15.16-4.27c2.21,5.45,6.56,10.61,11.9,11.92a16.81,16.81,0,0,0,15.35-4.21c1.57,3.13,2.8,7.46,5,10.13a14.78,14.78,0,0,0,8.19,5.53,20.19,20.19,0,0,0,5.81.08,7.6,7.6,0,0,0,3.51-.87,28.08,28.08,0,0,0,3.16,12.15,18.18,18.18,0,0,0,8.6,8.34c-.92,5.24-1.75,11.21-2.67,16.46,8.09-8.58,11.4-21.05,14.22-33,1.58-6.68,3.12-13.54,2.45-20.4-1.07-10.95-7.64-20.38-15.13-27.78-22.84-22.6-55.85-31-86.31-25.7-16.73,2.92-33.7,10.37-43.92,25.11-11.73,16.94-12.37,39.8-12.53,61"/><path class="cls-5" d="M170.53,135.17a32.74,32.74,0,0,0,6,26.66,18.32,18.32,0,0,0,6.79,5.81c6.24,2.8,14-.1,18.18-5.24s5.54-12,5.85-18.56c.4-8.51-1.37-18.24-8.77-23C186.65,113.08,173,123.89,170.53,135.17Z"/><path class="cls-7" d="M193.74,162.92a16.6,16.6,0,0,1-5.55-7.2,3.15,3.15,0,0,1-.3-1.77c.22-1.13,1.45-1.75,2.54-2.22L197,148.9a2.8,2.8,0,0,0,1.19-.76,2.72,2.72,0,0,0,.39-1.47c.41-6.51.67-13.6-3.27-19a8.6,8.6,0,0,0-12-2.58,24.18,24.18,0,0,0-6,5.14s-6.16,12,0,22.88S193.74,162.92,193.74,162.92Z"/><path class="cls-6" d="M177.32,130.25a21,21,0,0,1,5.93-6,11.58,11.58,0,0,1,4.18-1.51,8.78,8.78,0,0,1,4.62.52,10.12,10.12,0,0,1,3.77,2.74,16.5,16.5,0,0,1,2.47,3.76,23.36,23.36,0,0,1,2,8.51,63.46,63.46,0,0,1-.22,8.42,6,6,0,0,1-.25,1.38,3,3,0,0,1-1.16,1.53,6.12,6.12,0,0,1-1.19.59l-1,.38c-1.28.51-2.56,1-3.85,1.48l-1.92.72a6.23,6.23,0,0,0-1.51.76,1,1,0,0,0-.5,1,7.1,7.1,0,0,0,.5,1.74,18,18,0,0,0,4.47,6.64,15.62,15.62,0,0,1-5.87-6,8.15,8.15,0,0,1-.89-2.14,2.91,2.91,0,0,1,.09-1.48,3.31,3.31,0,0,1,.79-1.25,6.93,6.93,0,0,1,2-1.33l1.86-.9c1.24-.6,2.48-1.19,3.73-1.76a15.88,15.88,0,0,0,1.58-.77c.09-.1,0,0,0-.09a5,5,0,0,0,0-.67,67.4,67.4,0,0,0,.06-8,21.32,21.32,0,0,0-1.6-7.47,11,11,0,0,0-4.54-5.51,8.6,8.6,0,0,0-7.1.13A26.79,26.79,0,0,0,177.32,130.25Z"/><path class="cls-8" d="M194.47,39.73a17.36,17.36,0,0,0-13.84,5.85,17.06,17.06,0,0,0-3.7,14.34l.14.65-.66-.11a8.93,8.93,0,0,0-5.7,1.16,10.84,10.84,0,0,0-4.13,4.18,14.93,14.93,0,0,0-.66,11.75,4.45,4.45,0,0,1,.29,1.68,2.88,2.88,0,0,1-.72,1.63c-.36.43-.71.78-1,1.18-.15.2-.32.39-.46.6l-.4.64A12.36,12.36,0,0,0,161.87,89a14.25,14.25,0,0,0,.9,6,12.78,12.78,0,0,0,3.52,5,13.27,13.27,0,0,1-5-11.07,13,13,0,0,1,1.68-6.1l.41-.69c.15-.23.32-.43.48-.65.31-.44.68-.84,1-1.21a2.17,2.17,0,0,0,.52-1.19,3.73,3.73,0,0,0-.27-1.36,15.87,15.87,0,0,1,.62-12.47,11.42,11.42,0,0,1,4.52-4.57,9.78,9.78,0,0,1,6.31-1.21l-.52.54a17.33,17.33,0,0,1,4.12-15A17.1,17.1,0,0,1,194.47,39.73Z"/><path class="cls-8" d="M231.86,29.49a18.51,18.51,0,0,1,17-3.22A18.38,18.38,0,0,1,256.46,31,18.81,18.81,0,0,1,261,38.76l-.63-.31A18.43,18.43,0,0,1,268,37.21a20.58,20.58,0,0,1,7.47,1.73,18.25,18.25,0,0,1,9.9,11.23l-.5-.22a7.21,7.21,0,0,1,5.09-.17,25.22,25.22,0,0,1,4.58,2.06,11.45,11.45,0,0,1,5.64,7.92,11.38,11.38,0,0,0-5.86-7.51,25.74,25.74,0,0,0-4.52-1.89,6.6,6.6,0,0,0-4.62.25l-.37.18-.13-.4a17.93,17.93,0,0,0-9.59-10.6A19.66,19.66,0,0,0,268,38.21a17.37,17.37,0,0,0-7.19,1.11l-.49.2-.14-.5a17.9,17.9,0,0,0-4.3-7.43A17.77,17.77,0,0,0,240,26.19,18.73,18.73,0,0,0,231.86,29.49Z"/><path class="cls-8" d="M333.7,70.28a10.81,10.81,0,0,1,7.73,3.4,13.55,13.55,0,0,1,3.82,7.73A16.9,16.9,0,0,1,344,90a24.13,24.13,0,0,1-4.76,7.28L339,96.5a14.5,14.5,0,0,1,7.1,3.78,14.49,14.49,0,0,1-.55,21.6l0-.44a11.39,11.39,0,0,1,1,13.62,11.36,11.36,0,0,0-1.45-13.21l-.22-.22.24-.22a14,14,0,0,0-6.33-24l-.84-.18.59-.61a23.18,23.18,0,0,0,4.65-7,16.78,16.78,0,0,0,1.36-8.18A13.37,13.37,0,0,0,341.13,74,10.86,10.86,0,0,0,333.7,70.28Z"/><path class="cls-8" d="M265.7,78.56a14.94,14.94,0,0,1,7.87-3.27,14.82,14.82,0,0,1,14.78,7.52,15.3,15.3,0,0,1,2.13,8.46l-.72-.44a12.6,12.6,0,0,1,13.42.93,12.28,12.28,0,0,1,4.49,12.41,12.41,12.41,0,0,0-4.91-11.84,12.06,12.06,0,0,0-12.53-.66l-.75.42,0-.87a15.27,15.27,0,0,0-2-7.94,14.64,14.64,0,0,0-13.92-7.47A15.38,15.38,0,0,0,265.7,78.56Z"/><path class="cls-8" d="M198.37,84.91a12.86,12.86,0,0,1,1.54-7A13.58,13.58,0,0,1,205,72.61a13.72,13.72,0,0,1,7.18-1.68,13.1,13.1,0,0,1,7,2.27l-.73.3a9.14,9.14,0,0,1,7.77-7.18,8.77,8.77,0,0,1,5.34,1.16,8.65,8.65,0,0,1,3.59,4,8.77,8.77,0,0,0-3.79-3.6,8.27,8.27,0,0,0-12,5.82l-.13.7-.6-.4a13.38,13.38,0,0,0-6.54-2.1,12.76,12.76,0,0,0-6.72,1.47A13.56,13.56,0,0,0,198.37,84.91Z"/><path class="cls-6" d="M206.77,226.22s12,17.07,30.45,23,37.86-3,37.86-3l-1.69,7.18S251.54,265.4,227,250.85C210.32,241,206.77,226.22,206.77,226.22Z"/><path class="cls-6" d="M104.26,311.81a103.76,103.76,0,0,1,5.48,8.82c1.77,3,3.19,6.17,4.7,9.31A121.25,121.25,0,0,1,121,349.77c.4,1.7.7,3.42,1,5.13.17.85.35,1.71.48,2.57l.35,2.6c.2,1.73.52,3.46.63,5.2l.39,5.23c.12,1.75.07,3.5.11,5.25l0,2.62-.13,2.62c-.1,1.75-.12,3.5-.29,5.24l-.56,5.22c-.07.87-.23,1.74-.38,2.6l-.45,2.58-.45,2.59c-.17.86-.39,1.71-.59,2.56-.41,1.7-.77,3.42-1.23,5.1l-1.53,5-.38,1.25-.47,1.23-.93,2.45c-.62,1.64-1.22,3.29-1.93,4.88-1.37,3.19-2.82,6.31-4,9.48-2.51,6.3-3.38,13.14-4.49,20s-2.24,13.65-3.5,20.46c.59-6.9,1.36-13.77,2-20.66.38-3.43.72-6.87,1.24-10.33a56.18,56.18,0,0,1,2.51-10.25c1.14-3.32,2.51-6.52,3.82-9.7.67-1.58,1.22-3.2,1.79-4.81l.86-2.41.42-1.21.36-1.23,1.43-4.91c.44-1.65.78-3.33,1.17-5,.19-.84.4-1.67.56-2.5l.42-2.53c.25-1.69.62-3.36.78-5.06a128,128,0,0,0,1-20.44,136.68,136.68,0,0,0-2.35-20.36,137.83,137.83,0,0,0-5.63-19.77A137.17,137.17,0,0,0,104.26,311.81Z"/><path class="cls-6" d="M349.39,318.86a351.19,351.19,0,0,1,3.32,38.49l.19,9.67,0,9.67-.29,9.67-.49,9.66-.76,9.64-1,9.63-1.21,9.6c-.46,3.19-1,6.38-1.44,9.56a351,351,0,0,1-8.26,37.74q3.45-19,5.94-38.08.56-4.78,1.15-9.55l1-9.57.86-9.57.68-9.59.56-9.6.39-9.61.24-9.62.09-9.62Q350.37,338.14,349.39,318.86Z"/><path class="cls-5" d="M359.47,292.13c-7.25-35.71-12.66-63-12.66-64.84,0-5.63,22.86-45.35,25.1-55.68s2.7-26.07,1.35-34.16-6.07-18.65-8.09-18.2-1.12,16.63-1.12,16.63-14.38-35-19.1-34.15,7.19,31.46,8.54,38.2,4.27,27,4.27,27-8.09-32.58-11.46-40.67-11.89-23.87-16.18-22,8.1,29.9,8.55,31.92,4,26,4,26-6-22.88-11.43-32.55c-3.86-6.85-7-10.59-9.69-9.24s3.8,15.29,5.46,22.69a147.84,147.84,0,0,1,2.42,17.38s-15.52,27.34-18.89,40.37,2.7,27,2.7,27L313,299.16A83.48,83.48,0,0,0,359.47,292.13Z"/><path class="cls-4" d="M396.55,472.19s-16.33-78.52-30.27-146.66A83.41,83.41,0,0,1,312.81,331l-.62,141.17Z"/><path class="cls-3" d="M366.28,325.53c-2.37-11.58-4.67-22.85-6.81-33.4a83.48,83.48,0,0,1-46.52,7L312.81,331A83.41,83.41,0,0,0,366.28,325.53Z"/><path class="cls-6" d="M362.65,132.51c1.05,2.66,1.93,5.37,2.74,8.1s1.48,5.51,2.08,8.3,1.1,5.6,1.46,8.43c.18,1.42.35,2.83.5,4.25s.23,2.84.28,4.27l-1.54-8.39c-.54-2.79-1.07-5.58-1.67-8.35s-1.22-5.54-1.85-8.31Z"/><path class="cls-6" d="M332.92,164.78a7.54,7.54,0,0,0,6.19,1.11,2.91,2.91,0,0,1-1.52,1,4.08,4.08,0,0,1-1.87.11,4.29,4.29,0,0,1-1.72-.75A2.87,2.87,0,0,1,332.92,164.78Z"/><path class="cls-6" d="M346.87,166.13a9.53,9.53,0,0,0,3.05,1,9.7,9.7,0,0,0,3.2-.12,4,4,0,0,1-6.25-.87Z"/><path class="cls-6" d="M361.09,169.05a28.71,28.71,0,0,0,3.17.18,3.42,3.42,0,0,0,1.34-.41,2.56,2.56,0,0,0,1.07-1.07,1.81,1.81,0,0,1-.6,1.69,2.86,2.86,0,0,1-1.71.79,4,4,0,0,1-1.79-.28A4.9,4.9,0,0,1,361.09,169.05Z"/><path class="cls-6" d="M328.08,149.65c1.11,3.27,2.16,6.71,1.77,10.4a17.64,17.64,0,0,1-1.56,5.22c-.76,1.62-1.53,3.14-2.29,4.71-1.55,3.1-3.1,6.2-4.71,9.27l-4.83,9.16c-.78,1.52-1.53,3.05-2.21,4.6s-1.33,3.11-1.88,4.71a39.06,39.06,0,0,0-2.2,9.78,61,61,0,0,0,.83,10.19,59.34,59.34,0,0,0,2.27,10.09,32.18,32.18,0,0,1-2-4.83c-.55-1.66-1-3.34-1.43-5a54.43,54.43,0,0,1-1.65-10.42c0-.45,0-.92,0-1.38s0-.9.1-1.34c.07-.89.19-1.77.33-2.65a36.76,36.76,0,0,1,1.19-5.21c.51-1.71,1.1-3.38,1.76-5s1.44-3.23,2.22-4.8c3.18-6.24,6.57-12.23,10-18.26.87-1.5,1.77-3,2.59-4.48a16.26,16.26,0,0,0,1.89-4.54C329.06,156.59,328.51,153.09,328.08,149.65Z"/><path class="cls-6" d="M312.81,331q.51,17.64.63,35.29c.1,11.77.09,23.53.06,35.3s-.16,23.53-.37,35.29-.5,23.53-.94,35.29q-.49-17.65-.62-35.3c-.11-11.76-.1-23.53-.07-35.29s.17-23.53.38-35.29S312.38,342.78,312.81,331Z"/><path class="cls-6" d="M366.28,325.53q4.35,18.21,8.33,36.51c2.68,12.19,5.24,24.4,7.78,36.62s5,24.45,7.36,36.71,4.66,24.52,6.8,36.82q-4.35-18.21-8.33-36.51c-2.68-12.19-5.25-24.4-7.79-36.62s-5-24.45-7.35-36.71S368.42,337.83,366.28,325.53Z"/><rect class="cls-9" y="444.09" width="500" height="28.1"/><rect class="cls-10" x="29.06" y="289.92" width="200.01" height="45.06"/><path class="cls-11" d="M28.09,284.68H230a3.33,3.33,0,0,1,3.33,3.33h0a3.34,3.34,0,0,1-3.33,3.34H28.09A3.34,3.34,0,0,1,24.76,288h0A3.33,3.33,0,0,1,28.09,284.68Z"/><path class="cls-11" d="M28.09,331.65H230a3.33,3.33,0,0,1,3.33,3.33h0a3.34,3.34,0,0,1-3.33,3.34H28.09A3.34,3.34,0,0,1,24.76,335h0A3.33,3.33,0,0,1,28.09,331.65Z"/><path class="cls-6" d="M51.68,300c6.81-.2,13.61-.3,20.42-.38s13.62-.07,20.42-.12l20.43.12,10.21.14c3.4.08,6.8.13,10.21.24-3.41.12-6.81.16-10.21.25l-10.21.14-20.43.11c-6.8,0-13.61,0-20.42-.11S58.49,300.17,51.68,300Z"/><path class="cls-6" d="M122,326.36c6.81-.2,13.62-.3,20.43-.38s13.61-.08,20.42-.12l20.42.12,10.21.14c3.41.08,6.81.13,10.21.24-3.4.12-6.8.16-10.21.25l-10.21.14-20.42.11c-6.81,0-13.62,0-20.42-.12S128.84,326.57,122,326.36Z"/><path class="cls-6" d="M66.29,315.32c7.59-.2,15.17-.3,22.76-.38l22.76-.12,22.75.12,11.38.14,11.38.24-11.38.25-11.38.14-22.75.11-22.76-.11C81.46,315.63,73.88,315.53,66.29,315.32Z"/><path class="cls-6" d="M179.43,309.7c2.37-.2,4.75-.3,7.12-.38s4.76-.1,7.13-.12,4.75,0,7.13.12l3.56.14c1.19.08,2.38.13,3.57.24-1.19.12-2.38.17-3.57.25l-3.56.14c-2.38.09-4.75.1-7.13.11s-4.75,0-7.13-.11S181.8,309.91,179.43,309.7Z"/><path class="cls-6" d="M139.72,306.71a108.57,108.57,0,0,1,11.25-.5,108.57,108.57,0,0,1,11.25.5c-3.75.39-7.5.48-11.25.5S143.47,307.1,139.72,306.71Z"/><path class="cls-6" d="M47.75,321.57c3.75-.39,7.5-.48,11.25-.5a108.76,108.76,0,0,1,11.26.5c-3.75.39-7.51.48-11.26.5S51.5,322,47.75,321.57Z"/><path class="cls-6" d="M183.38,320.58c2.81-.2,5.62-.3,8.43-.38s5.63-.1,8.44-.12,5.62,0,8.43.12l4.22.14c1.4.08,2.81.13,4.21.24-1.4.12-2.81.16-4.21.25l-4.22.14c-2.81.09-5.62.1-8.43.11s-5.63,0-8.44-.11S186.19,320.79,183.38,320.58Z"/><path class="cls-6" d="M50.55,306.71a38.65,38.65,0,0,1,6.69-.5,38.65,38.65,0,0,1,6.69.5,40.73,40.73,0,0,1-6.69.5A40.73,40.73,0,0,1,50.55,306.71Z"/><path class="cls-6" d="M187.67,298.46c2.44-.2,4.87-.3,7.31-.38s4.88-.1,7.32-.12,4.87,0,7.31.12l3.66.14c1.22.08,2.44.13,3.66.24-1.22.12-2.44.17-3.66.25l-3.66.14c-2.44.09-4.87.1-7.31.11s-4.88,0-7.32-.11S190.11,298.67,187.67,298.46Z"/><rect class="cls-9" x="8.48" y="338.32" width="210.68" height="32.31"/><circle class="cls-12" cx="26.04" cy="353.69" r="8.09" transform="translate(-242.47 122.01) rotate(-45)"/><path class="cls-11" d="M199.39,362.7h-149c-3.31-3.31-5.16-5.17-8.48-8.48h0l8.48-8.48h149l8.48,8.48h0Z"/><line class="cls-13" x1="219.2" y1="341.57" x2="8.46" y2="341.57"/><line class="cls-13" x1="219.2" y1="367.1" x2="8.46" y2="367.1"/><polygon class="cls-3" points="173.2 370.63 163.76 370.63 20.14 370.63 20.14 444.01 165.24 444.01 174.68 444.01 239.88 444.01 239.88 370.63 173.2 370.63"/><path class="cls-6" d="M48.43,433.36H92.34a8.73,8.73,0,0,1,8.74-8.73V390.41a8.73,8.73,0,0,1-8.74-8.73H48.43a8.73,8.73,0,0,1-8.73,8.73v34.22A8.73,8.73,0,0,1,48.43,433.36Z"/><polygon class="cls-4" points="157.99 444.08 193.42 408.25 156.24 370.63 190.96 370.63 228.14 408.25 192.72 444.08 157.99 444.08"/><polygon class="cls-4" points="77.22 370.63 76.23 370.63 61.14 370.63 61.14 444.01 76.38 444.01 77.38 444.01 84.23 444.01 84.23 370.63 77.22 370.63"/><polyline class="cls-13" points="176.82 444.08 212.25 408.66 175.06 371.48"/><line class="cls-13" x1="26.53" y1="370.63" x2="26.53" y2="444.01"/><line class="cls-13" x1="30.79" y1="370.63" x2="30.79" y2="444.01"/><line class="cls-13" x1="65.11" y1="370.63" x2="65.11" y2="444.01"/><line class="cls-13" x1="81.56" y1="370.63" x2="81.56" y2="444.01"/><line class="cls-13" x1="231.03" y1="370.63" x2="231.03" y2="444.01"/><line class="cls-13" x1="235.29" y1="370.63" x2="235.29" y2="444.01"/><rect class="cls-6" x="111.14" y="391.66" width="54.89" height="3.75"/><rect class="cls-6" x="111.14" y="400.18" width="54.89" height="3.75"/><rect class="cls-6" x="111.14" y="408.7" width="54.89" height="3.75"/><rect class="cls-6" x="111.14" y="417.23" width="54.89" height="3.75"/><g class="cls-14"><path class="cls-11" d="M506.16,430.35H169.84a13.74,13.74,0,0,0-13.74,13.74H506.16Z"/><path class="cls-11" d="M558.36,250.6H342c-6.74,0-12.84,5.12-15.53,13L265.13,444.09h241l60.36-177.58C569.08,259,564.77,250.6,558.36,250.6Z"/><path class="cls-6" d="M570.35,250.6H346.08c-5.3,0-10.09,4-12.21,10.24L271.58,444.09h241L575.18,260C576.7,255.58,574.15,250.6,570.35,250.6Z"/><path class="cls-3" d="M457.21,347.34c-2.46,14.67-16.35,26.56-31,26.56S401.63,362,404.1,347.34s16.35-26.56,31-26.56S459.67,332.68,457.21,347.34Z"/></g><path class="cls-6" d="M491.4,69.14c-3.58-.1-7.15-.22-10.72-.38s-7.13-.35-10.7-.52l-10.68-.63c-3.57-.2-7.12-.48-10.68-.72l2-2.45c1.55,4.57,3.09,9.15,4.56,13.74s3,9.17,4.46,13.77l1.3,4.12L456.72,95l-18.28-4.71-18.24-4.9,2.87-3.09,4.09,12.64c1.38,4.21,2.69,8.44,4,12.67l.82,2.65-2.66-.13c-3.57-.17-7.14-.32-10.71-.53L407.9,109c-3.57-.24-7.14-.45-10.71-.73s-7.13-.57-10.7-.89c3.58-.18,7.15-.33,10.73-.45s7.15-.19,10.73-.3l10.73-.18c3.57-.07,7.15-.07,10.72-.1l-1.84,2.52c-1.54-4.15-3.08-8.31-4.55-12.48l-4.47-12.51L417,79.62l4.38,1.13,18.29,4.7L458,90.33l-2.91,3c-1.41-4.61-2.72-9.26-4.08-13.89s-2.67-9.27-4-13.92l-.78-2.79,2.77.35c3.54.44,7.08.86,10.62,1.34l10.61,1.44c3.53.52,7.07,1,10.6,1.54S487.87,68.54,491.4,69.14Z"/><path class="cls-6" d="M440.43,9.53c-2.63,1-5.27,1.86-7.91,2.75s-5.3,1.74-7.95,2.61l-8,2.5c-2.66.84-5.33,1.62-8,2.42l1-3c2.38,2.91,4.76,5.83,7.11,8.78l7,8.86,2.68,3.39-4.37.48q-7.32.78-14.66,1.48t-14.68,1.31l1.64-3.9,6.37,8.18c2.12,2.73,4.2,5.49,6.28,8.25l1.68,2.22-2.54.78c-2.67.81-5.32,1.65-8,2.42l-8,2.35c-2.69.74-5.37,1.52-8.08,2.24s-5.4,1.43-8.12,2.09c2.55-1.16,5.12-2.26,7.69-3.36s5.16-2.14,7.74-3.21l7.78-3.11c2.59-1,5.2-2,7.8-3l-.86,3c-2.26-2.61-4.53-5.22-6.75-7.86l-6.67-7.94-2.86-3.41,4.49-.49c4.89-.53,9.77-1,14.66-1.5s9.78-.91,14.68-1.32L419.9,37.4l-6.7-9.1c-2.22-3-4.4-6.1-6.58-9.18l-1.69-2.37,2.71-.61c2.72-.61,5.43-1.24,8.16-1.8L424,12.62c2.73-.54,5.46-1.12,8.2-1.62S437.67,10,440.43,9.53Z"/><path class="cls-6" d="M467.47,182.56c-1.89-2.06-3.73-4.16-5.56-6.26s-3.63-4.23-5.45-6.35l-5.36-6.41c-1.8-2.13-3.53-4.31-5.29-6.47l3.14-.19c-1.78,3.32-3.56,6.64-5.39,9.93l-5.51,9.86-2.11,3.77-2.11-3.85c-2.36-4.32-4.67-8.65-7-13s-4.57-8.7-6.82-13.07l4.23,0-5.12,9c-1.71,3-3.47,6-5.22,9l-1.42,2.4-1.68-2.05c-1.77-2.15-3.57-4.29-5.31-6.47l-5.24-6.54c-1.71-2.2-3.46-4.38-5.15-6.61s-3.4-4.44-5-6.7c2,1.91,4.05,3.86,6,5.82s3.95,4,5.93,5.92l5.84,6c2,2,3.86,4,5.78,6.06l-3.1.35c1.55-3.09,3.1-6.18,4.69-9.25l4.79-9.2,2.05-3.94,2.17,4q3.54,6.47,7,13c2.3,4.34,4.59,8.69,6.83,13l-4.21-.08,5.84-9.66c2-3.22,4-6.41,6-9.6l1.55-2.46,1.6,2.27c1.6,2.28,3.22,4.54,4.79,6.84l4.71,6.9c1.54,2.33,3.12,4.63,4.63,7S466,180.18,467.47,182.56Z"/><path class="cls-6" d="M18.31,132.15c3.06-1.73,6.12-3.45,9.2-5.12s6.18-3.32,9.27-5l9.31-4.88c3.1-1.64,6.23-3.22,9.36-4.81l2.48-1.27.22,2.88c.36,4.73.72,9.46,1,14.19s.64,9.46.89,14.19l-3.77-1.86,15.21-10.63L86.8,119.38l3.74-2.56,0,4.48.06,13c0,4.35,0,8.7,0,13.06L88,145.67c3.31-1.17,6.61-2.37,9.94-3.5l10-3.42c3.33-1.1,6.66-2.24,10-3.32s6.7-2.14,10.06-3.17q-4.77,2.25-9.58,4.42c-3.2,1.46-6.43,2.85-9.64,4.28l-9.68,4.17c-3.22,1.4-6.47,2.73-9.71,4.09l-2.45,1-.14-2.77c-.2-4.34-.41-8.69-.55-13l-.47-13,3.76,1.92L74.33,134,59,144.44l-3.58,2.45-.19-4.31c-.21-4.74-.33-9.48-.5-14.22s-.28-9.47-.38-14.21l2.7,1.61c-3.2,1.43-6.39,2.87-9.62,4.24l-9.66,4.17c-3.23,1.35-6.45,2.74-9.71,4.06S21.58,130.87,18.31,132.15Z"/><path class="cls-6" d="M43.77,27c2.79,0,5.58.1,8.37.19s5.57.23,8.36.34l8.34.45c2.79.14,5.56.35,8.34.54l2.77.18-1.3,2.6c-1.68,3.37-3.37,6.74-5.1,10.08l-5.23,10-2.26-3.56q7.35-.51,14.7-.94t14.72-.76l4.52-.2-2.31,3.8-5.37,8.87c-1.8,3-3.64,5.88-5.48,8.81l-1.31-2.83c2.73.59,5.46,1.15,8.18,1.79l8.16,1.88c2.72.67,5.44,1.3,8.14,2s5.42,1.38,8.12,2.14c-2.79-.24-5.58-.53-8.35-.83s-5.55-.65-8.33-1l-8.3-1.08c-2.77-.35-5.53-.78-8.29-1.18L82.24,68l1.31-2.46c1.64-3,3.27-6.09,5-9.11l5-9.06,2.22,3.6q-7.35.52-14.71,1c-4.9.28-9.81.55-14.71.77l-4.39.2,2.13-3.76,5.56-9.83c1.86-3.27,3.77-6.52,5.69-9.76l1.47,2.78c-2.76-.38-5.52-.73-8.28-1.16l-8.26-1.25c-2.75-.46-5.51-.87-8.25-1.36S46.51,27.55,43.77,27Z"/><path class="cls-6" d="M59.25,217.92c1.47-2.37,3-4.72,4.51-7s3.08-4.64,4.63-7L73.1,197c1.57-2.3,3.19-4.57,4.79-6.84l1.6-2.27L81,190.35c2,3.19,4,6.38,6,9.59l5.84,9.67-4.22.08c2.25-4.37,4.54-8.71,6.83-13.06s4.64-8.66,7-13l2.17-4,2,3.95,4.79,9.2c1.59,3.06,3.14,6.16,4.68,9.25l-3.09-.35c1.92-2,3.82-4.07,5.78-6.06l5.84-6c2-2,3.93-4,5.93-5.92s4-3.91,6-5.83c-1.65,2.27-3.34,4.49-5,6.71s-3.44,4.41-5.16,6.61l-5.24,6.53c-1.73,2.19-3.53,4.32-5.3,6.48l-1.69,2-1.41-2.39c-1.75-3-3.51-6-5.22-9l-5.12-9,4.22,0q-3.36,6.56-6.81,13.06t-7,13l-2.11,3.86L88.67,212l-5.51-9.86c-1.83-3.29-3.62-6.61-5.4-9.93l3.15.19c-1.76,2.16-3.5,4.34-5.29,6.47l-5.36,6.41c-1.82,2.12-3.6,4.25-5.45,6.35S61.14,215.86,59.25,217.92Z"/></g></g></g></svg>