<svg width="500" height="500" viewBox="0 0 500 500" fill="none" xmlns="http://www.w3.org/2000/svg">
<path d="M104.924 71.2607V107.919H94.7641L80.8341 91.2657V107.919H68.7891V71.2607H78.9491L92.8791 87.9137V71.2607H104.924Z" fill="#E0E0E0"/>
<path d="M420.277 262.933C420.277 254.584 426.853 248.519 435.833 248.519C444.813 248.519 451.39 254.584 451.39 262.933C451.39 271.282 444.813 277.347 435.833 277.347C426.853 277.347 420.277 271.282 420.277 262.933ZM442.016 262.933C442.016 258.64 439.259 256.041 435.832 256.041C432.405 256.041 429.649 258.64 429.649 262.933C429.649 267.226 432.406 269.826 435.832 269.826C439.258 269.826 442.016 267.226 442.016 262.933Z" fill="#E0E0E0"/>
<path d="M85.4288 331.443C85.4288 337.823 80.5457 341.84 72.8657 341.84H68.8878V348.613H59.5938V321.045H72.8657C80.5457 321.045 85.4288 325.063 85.4288 331.443ZM76.0558 331.443C76.0558 329.434 74.8348 328.213 72.2748 328.213H68.8878V334.672H72.2748C74.8348 334.672 76.0558 333.451 76.0558 331.443Z" fill="#E0E0E0"/>
<path d="M403.915 101.895C408.214 105.802 412.136 110.079 415.992 114.398C417.879 116.605 443.199 147.237 445.014 149.498L447.774 152.871C448.893 154.079 449.368 155.821 449.06 157.585C448.775 159.537 447.117 161.056 445.273 161.054C443.599 161.113 442.064 160.344 441.122 158.975L438.441 155.536C436.633 153.263 411.553 122.405 409.807 120.072C406.401 115.33 402.034 111.36 399.089 106.201C398.405 105.057 399.821 102.621 400.97 101.792C401.92 101.107 403.132 101.149 403.916 101.894L403.915 101.895Z" fill="#E0E0E0"/>
<path d="M400.793 47.6572C412.571 59.8012 415.267 78.1142 407.49 93.1372C405.533 96.9222 402.967 100.359 399.893 103.31C384.262 118.442 359.323 118.038 344.191 102.406C329.059 86.7752 329.463 61.8362 345.095 46.7042C360.725 31.5732 385.66 31.9762 400.793 47.6032V47.6562V47.6572Z" fill="#F0F0F0"/>
<path d="M340.765 42.852C323.284 59.834 322.88 87.772 339.862 105.253C356.844 122.734 384.782 123.138 402.263 106.156C419.707 89.209 420.152 61.344 403.257 43.849C386.327 26.318 358.39 25.83 340.859 42.761L340.765 42.852ZM398.34 102.239C383.095 117.005 358.766 116.617 344 101.372C329.234 86.127 329.622 61.798 344.867 47.032C360.084 32.293 384.358 32.649 399.137 47.827C413.924 63.052 413.569 87.381 398.345 102.168L398.295 102.217L398.341 102.239H398.34Z" fill="#E0E0E0"/>
<path d="M443.921 309.355H263.174C259.942 309.355 257.312 306.725 257.312 303.493V40.2194C257.312 36.9874 259.942 34.3574 263.174 34.3574H443.921C447.152 34.3574 449.783 36.9864 449.783 40.2194V303.493C449.783 306.726 447.152 309.355 443.921 309.355ZM263.174 34.6074C260.079 34.6074 257.562 37.1254 257.562 40.2194V303.493C257.562 306.588 260.08 309.105 263.174 309.105H443.921C447.016 309.105 449.533 306.588 449.533 303.493V40.2194C449.533 37.1254 447.014 34.6074 443.921 34.6074H263.174Z" fill="#E0E0E0"/>
<path d="M235.494 309.355H54.7468C51.5148 309.355 48.8848 306.725 48.8848 303.493V40.2194C48.8848 36.9874 51.5138 34.3574 54.7468 34.3574H235.494C238.726 34.3574 241.356 36.9864 241.356 40.2194V303.493C241.356 306.726 238.726 309.355 235.494 309.355ZM54.7468 34.6074C51.6528 34.6074 49.1348 37.1254 49.1348 40.2194V303.493C49.1348 306.588 51.6528 309.105 54.7468 309.105H235.494C238.589 309.105 241.106 306.588 241.106 303.493V40.2194C241.106 37.1254 238.588 34.6074 235.494 34.6074H54.7468Z" fill="#E0E0E0"/>
<path d="M500 370.425H0V370.675H500V370.425Z" fill="#E0E0E0"/>
<path d="M67.7319 384.689H51.6719V384.939H67.7319V384.689Z" fill="#E0E0E0"/>
<path d="M223.882 381.979H170.352V382.229H223.882V381.979Z" fill="#E0E0E0"/>
<path d="M104.982 393.979H68.7324V394.229H104.982V393.979Z" fill="#E0E0E0"/>
<path d="M421.542 381.85H378.352V382.1H421.542V381.85Z" fill="#E0E0E0"/>
<path d="M436.781 381.85H430.451V382.1H436.781V381.85Z" fill="#E0E0E0"/>
<path d="M370.103 388.079H316.213V388.329H370.103V388.079Z" fill="#E0E0E0"/>
<path d="M58.2022 218.994C55.5152 223.085 53.7092 227.578 52.7472 232.213L45.3652 232.908V247.203L52.7472 247.898C53.7082 252.532 55.5162 257.025 58.2022 261.117L53.4872 266.811L63.5962 276.919L69.2912 272.205C73.3822 274.891 77.8752 276.698 82.5092 277.659L83.2042 285.042H97.4992L98.1942 277.66C102.828 276.697 107.322 274.891 111.413 272.205L117.108 276.919L127.217 266.811L122.503 261.116C125.189 257.025 126.996 252.531 127.957 247.897L135.338 247.202V232.907L127.958 232.211C126.996 227.577 125.188 223.084 122.502 218.993L127.217 213.298L117.108 203.19L111.414 207.905C107.322 205.219 102.829 203.411 98.1952 202.449L97.5002 195.067H83.2042L82.5092 202.449C77.8752 203.411 73.3822 205.217 69.2912 207.904L63.5962 203.189L53.4872 213.298L58.2022 218.993V218.994ZM104.037 226.371C111.594 233.928 111.594 246.182 104.037 253.739C96.4792 261.297 84.2252 261.296 76.6682 253.739C69.1102 246.181 69.1112 233.928 76.6682 226.37C84.2252 218.813 96.4782 218.813 104.036 226.37L104.037 226.371Z" fill="#E0E0E0"/>
<path d="M386.258 358.72C384.765 360.993 383.761 363.49 383.227 366.066L379.125 366.452V374.396L383.227 374.782C383.761 377.357 384.766 379.854 386.258 382.128L383.638 385.292L389.255 390.909L392.42 388.289C394.694 389.782 397.19 390.786 399.766 391.32L400.152 395.423H408.096L408.483 391.321C411.058 390.786 413.555 389.782 415.829 388.289L418.993 390.909L424.611 385.292L421.991 382.127C423.483 379.853 424.487 377.357 425.022 374.781L429.124 374.395V366.451L425.023 366.064C424.488 363.489 423.484 360.992 421.991 358.719L424.611 355.554L418.994 349.937L415.83 352.557C413.556 351.064 411.059 350.06 408.484 349.525L408.098 345.423H400.154L399.768 349.525C397.193 350.06 394.696 351.064 392.423 352.556L389.258 349.936L383.641 355.554L386.261 358.719L386.258 358.72ZM411.729 362.82C415.928 367.02 415.929 373.829 411.729 378.029C407.529 382.229 400.72 382.229 396.52 378.029C392.32 373.829 392.32 367.02 396.52 362.82C400.72 358.621 407.529 358.62 411.729 362.82Z" fill="#E0E0E0"/>
<path d="M257.562 460.844C366.223 460.844 454.31 458.258 454.31 455.068C454.31 451.878 366.223 449.292 257.562 449.292C148.902 449.292 60.8145 451.878 60.8145 455.068C60.8145 458.258 148.902 460.844 257.562 460.844Z" fill="#F5F5F5"/>
<path d="M421.685 118.063C431.317 114.092 442.393 118.568 446.422 128.061C450.452 137.554 445.91 148.469 436.277 152.441C428.841 155.507 420.558 153.523 415.308 148.097L409.633 148.281L411.676 142.721C411.634 142.626 411.581 142.538 411.541 142.442C407.511 132.949 412.053 122.034 421.686 118.063H421.685Z" fill="#407BFF"/>
<path d="M440.787 117.959C440.734 117.959 440.681 117.942 440.636 117.908C435.861 114.265 429.101 113.206 423.411 115.213C423.281 115.259 423.139 115.191 423.093 115.06C423.047 114.93 423.114 114.787 423.245 114.741C429.088 112.679 436.033 113.766 440.938 117.51C441.048 117.593 441.069 117.751 440.986 117.861C440.936 117.925 440.862 117.959 440.787 117.959Z" fill="#407BFF"/>
<path d="M418.226 117.517C418.153 117.517 418.08 117.485 418.031 117.423C417.945 117.315 417.963 117.158 418.07 117.071C418.822 116.47 419.712 116.018 420.643 115.764C420.776 115.727 420.914 115.807 420.95 115.939C420.986 116.072 420.908 116.21 420.774 116.246C419.908 116.482 419.081 116.903 418.382 117.461C418.336 117.498 418.28 117.517 418.226 117.517Z" fill="#407BFF"/>
<path d="M428.375 144.158C427.665 144.158 427.071 143.932 426.594 143.479C426.118 143.027 425.879 142.476 425.879 141.826C425.879 141.176 426.113 140.635 426.581 140.199C427.049 139.764 427.647 139.546 428.375 139.546C429.103 139.546 429.701 139.764 430.169 140.199C430.637 140.635 430.871 141.177 430.871 141.826C430.871 142.475 430.633 143.027 430.156 143.479C429.68 143.932 429.086 144.158 428.375 144.158ZM429.987 137.726H426.763L425.957 126.016H430.793L429.987 137.726Z" fill="white"/>
<path d="M54.6053 163.193C45.4443 156.131 43.6073 142.997 50.5033 133.857C57.3993 124.717 70.4153 123.032 79.5763 130.094C86.6483 135.546 89.3333 144.612 87.0273 152.67L90.3513 158.026L83.8713 159.144C83.8033 159.237 83.7483 159.336 83.6783 159.429C76.7833 168.569 63.7663 170.254 54.6053 163.193Z" fill="#407BFF"/>
<path d="M81.272 126.672C81.219 126.672 81.166 126.655 81.12 126.621C75.81 122.57 68.294 121.394 61.972 123.625C61.842 123.67 61.699 123.603 61.653 123.472C61.607 123.342 61.675 123.199 61.806 123.153C68.282 120.868 75.982 122.072 81.424 126.223C81.533 126.306 81.555 126.464 81.471 126.574C81.422 126.638 81.347 126.672 81.272 126.672Z" fill="#407BFF"/>
<path d="M56.2244 126.182C56.1514 126.182 56.0784 126.15 56.0294 126.088C55.9434 125.98 55.9604 125.823 56.0684 125.736C56.8994 125.071 57.8834 124.571 58.9154 124.29C59.0504 124.255 59.1864 124.333 59.2224 124.466C59.2584 124.599 59.1804 124.737 59.0464 124.773C58.0804 125.036 57.1594 125.504 56.3804 126.127C56.3344 126.164 56.2794 126.182 56.2244 126.182Z" fill="#407BFF"/>
<path d="M75.3322 142.193L72.3008 139.162L60.3714 151.092L63.4028 154.123L75.3322 142.193Z" fill="white"/>
<path d="M63.1415 139.324L60.2188 142.46L72.561 153.962L75.4838 150.826L63.1415 139.324Z" fill="white"/>
<path d="M359.475 75.9092H131.03C127.302 75.9092 124.279 78.9317 124.279 82.6602V397.45C124.279 401.179 127.302 404.201 131.03 404.201H359.475C363.204 404.201 366.226 401.179 366.226 397.45V82.6602C366.226 78.9317 363.204 75.9092 359.475 75.9092Z" fill="#407BFF"/>
<path d="M143.216 84.877H132.551V395.856L356.259 397.62L362.439 390.489L357.024 97.137L143.216 84.877Z" fill="#EBEBEB"/>
<path d="M362.439 390.489H141.244V84.877H132.551V397.62H356.259L362.439 390.489Z" fill="#E0E0E0"/>
<path opacity="0.2" d="M132.551 397.62L141.244 390.489H362.439L356.259 397.62H132.551Z" fill="black"/>
<path d="M381.497 380.457H162.931C141.637 331.301 137.869 206.247 141.244 84.877H358.256C356.484 206.178 360.761 315.101 381.497 380.457Z" fill="white"/>
<path d="M382.181 380.956H162.603L162.472 380.655C137.982 324.122 138.347 171.066 140.744 84.863L140.758 84.377H358.763L358.755 84.884C356.638 229.837 364.016 323.709 381.973 380.304L382.18 380.955L382.181 380.956ZM163.261 379.956H380.815C362.996 323.253 355.663 229.596 357.749 85.377H141.731C139.352 171.433 139.023 323.467 163.26 379.956H163.261Z" fill="#263238"/>
<path d="M179.652 134.051H166.455V122.1H208.042V134.051H194.845V167.815H179.652V134.051Z" fill="#263238"/>
<path d="M220.738 153.588H336.446C337.411 153.588 337.413 152.088 336.446 152.088H220.738C219.773 152.088 219.771 153.588 220.738 153.588Z" fill="#263238"/>
<path d="M170.689 184.879H336.445C337.41 184.879 337.412 183.379 336.445 183.379H170.689C169.724 183.379 169.722 184.879 170.689 184.879Z" fill="#263238"/>
<path d="M170.689 212.221H251.191C252.156 212.221 252.158 210.721 251.191 210.721H170.689C169.724 210.721 169.722 212.221 170.689 212.221Z" fill="#263238"/>
<path d="M173.904 239.563H286.154C287.119 239.563 287.121 238.063 286.154 238.063H173.904C172.939 238.063 172.937 239.563 173.904 239.563Z" fill="#263238"/>
<path d="M177.117 266.906H234.29C235.255 266.906 235.257 265.406 234.29 265.406H177.117C176.152 265.406 176.15 266.906 177.117 266.906Z" fill="#263238"/>
<path d="M244.244 266.906H338.42C339.385 266.906 339.387 265.406 338.42 265.406H244.244C243.279 265.406 243.277 266.906 244.244 266.906Z" fill="#263238"/>
<path d="M180.332 294.249H248.485C249.45 294.249 249.452 292.749 248.485 292.749H180.332C179.367 292.749 179.365 294.249 180.332 294.249Z" fill="#407BFF"/>
<path d="M183.545 321.592H291.64C292.605 321.592 292.607 320.092 291.64 320.092H183.545C182.58 320.092 182.578 321.592 183.545 321.592Z" fill="#263238"/>
<path d="M189.078 351.933H262.209C263.174 351.933 263.176 350.433 262.209 350.433H189.078C188.113 350.433 188.111 351.933 189.078 351.933Z" fill="#263238"/>
<path d="M283.879 133.406C277.175 132.209 270.295 132.373 263.667 133.956C257.768 135.364 251.424 137.791 247.159 142.276C243.341 146.291 241.359 152.647 244.153 157.781C246.721 162.499 252.343 164.266 257.327 164.949C264.154 165.884 271.17 165.6 277.929 164.291C283.735 163.167 290.582 161.504 294.802 157.043C298.284 153.363 299.265 147.98 298.358 143.109C297.417 138.057 294.332 134.245 289.975 131.657C284.567 128.445 278.112 127.646 271.936 128.253C264.243 129.009 256.704 131.322 249.787 134.74C248.922 135.168 249.681 136.462 250.544 136.035C256.226 133.228 262.304 131.249 268.558 130.21C274.063 129.296 279.792 129.192 285.123 131.047C289.315 132.506 293.47 135.216 295.514 139.268C297.609 143.422 297.839 148.808 295.783 153.022C293.328 158.053 287.818 160.172 282.754 161.604C276.599 163.344 270.198 164.136 263.805 163.963C258.659 163.824 252.672 163.411 248.352 160.277C243.628 156.85 243.404 150.539 246.298 145.816C249.663 140.323 256.37 137.52 262.31 135.859C269.188 133.936 276.454 133.599 283.483 134.854C284.427 135.023 284.832 133.577 283.882 133.408L283.879 133.406Z" fill="#407BFF"/>
<path d="M265.643 334.687C254.951 333.079 243.741 334.799 234.162 339.89C230.22 341.985 225.944 346.209 228.203 351.063C230.399 355.782 236.457 356.523 240.939 357.557C252.352 360.191 264.145 362.365 275.857 360.507C280.534 359.765 286.107 358.568 289.784 355.36C293.29 352.301 292.909 347.769 289.871 344.523C286.137 340.534 280.199 338.664 274.955 337.823C269.12 336.888 263.191 337.078 257.311 337.334C256.349 337.376 256.344 338.876 257.311 338.834C266.396 338.439 276.257 338.035 284.529 342.46C287.972 344.302 292.843 348.319 290.138 352.681C287.846 356.376 282.3 357.636 278.379 358.507C268.192 360.77 257.625 359.542 247.52 357.468C244.897 356.93 242.287 356.334 239.68 355.724C237.236 355.151 234.617 354.71 232.427 353.418C230.539 352.304 228.972 350.387 229.111 348.088C229.268 345.473 231.239 343.44 233.331 342.104C237.828 339.232 243.243 337.486 248.451 336.476C253.976 335.405 259.682 335.296 265.246 336.132C266.19 336.274 266.598 334.829 265.645 334.686L265.643 334.687Z" fill="#407BFF"/>
<path d="M304.773 341.279H350.411C351.376 341.279 351.378 339.779 350.411 339.779H304.773C303.808 339.779 303.806 341.279 304.773 341.279Z" fill="#407BFF"/>
<path d="M307.965 345.165H348.497C349.462 345.165 349.464 343.665 348.497 343.665H307.965C307 343.665 306.998 345.165 307.965 345.165Z" fill="#407BFF"/>
<path d="M218.733 70.8926H282.248C286.447 70.8926 289.856 74.3016 289.856 78.5006V95.7166H211.125V78.5006C211.125 74.3016 214.534 70.8926 218.733 70.8926Z" fill="#263238"/>
<path d="M236.172 73.6008L232.498 61.7979H270.767L266.466 74.0809L236.172 73.6008Z" fill="#263238"/>
<path d="M206.404 70.8857H150.824V71.6357H206.404V70.8857Z" fill="#407BFF"/>
<path d="M194.367 195.666C203.002 188.942 211.105 181.56 219.74 174.836C220.501 174.244 219.432 173.189 218.679 173.775C210.044 180.499 201.941 187.881 193.306 194.605C192.545 195.197 193.614 196.252 194.367 195.666Z" fill="#407BFF"/>
<path d="M192.2 175.056C191.951 175.04 192.056 175.015 192.319 175.18C192.6 175.356 192.867 175.554 193.13 175.755C193.881 176.329 194.601 176.946 195.317 177.561C197.56 179.487 199.745 181.483 201.92 183.485C206.526 187.724 211.072 192.03 215.597 196.356C216.626 197.34 217.654 198.325 218.679 199.313C219.374 199.983 220.436 198.924 219.74 198.252C212.091 190.873 204.443 183.425 196.378 176.5C195.537 175.778 194.689 175.058 193.8 174.393C193.334 174.044 192.807 173.594 192.2 173.555C191.236 173.492 191.24 174.992 192.2 175.055V175.056Z" fill="#407BFF"/>
<path d="M259.996 294.249H343.014C343.979 294.249 343.981 292.749 343.014 292.749H259.996C259.031 292.749 259.029 294.249 259.996 294.249Z" fill="#263238"/>
<path d="M304.775 321.592H348.499C349.464 321.592 349.466 320.092 348.499 320.092H304.775C303.81 320.092 303.808 321.592 304.775 321.592Z" fill="#263238"/>
<path d="M301.043 239.563H338.421C339.386 239.563 339.388 238.063 338.421 238.063H301.043C300.078 238.063 300.076 239.563 301.043 239.563Z" fill="#263238"/>
<path d="M260.828 212.221H293.351C294.316 212.221 294.318 210.721 293.351 210.721H260.828C259.863 210.721 259.861 212.221 260.828 212.221Z" fill="#407BFF"/>
<path d="M304.775 212.051H338.422C339.387 212.051 339.389 210.551 338.422 210.551H304.775C303.81 210.551 303.808 212.051 304.775 212.051Z" fill="#263238"/>
<path d="M341.708 253.913C345.42 257.258 347.495 262.192 347.167 267.197C346.846 272.096 344.144 276.717 340.106 279.479C339.314 280.021 340.064 281.321 340.864 280.774C345.267 277.762 348.159 272.898 348.639 267.574C349.133 262.091 346.838 256.52 342.769 252.852C342.054 252.207 340.989 253.265 341.708 253.913Z" fill="#407BFF"/>
<path d="M349.425 276.832C347.997 277.436 346.57 278.041 345.142 278.645L343.001 279.55C342.449 279.784 341.844 280.121 341.235 280.161C340.705 280.197 340.659 279.815 340.701 279.366C340.763 278.688 340.958 278.006 341.093 277.339C341.403 275.8 341.714 274.259 342.024 272.72C342.214 271.777 340.768 271.375 340.578 272.322C340.211 274.144 339.843 275.965 339.476 277.787C339.209 279.11 338.783 281.082 340.533 281.582C341.205 281.774 341.932 281.6 342.564 281.349C343.386 281.023 344.194 280.661 345.009 280.316C346.734 279.586 348.459 278.857 350.184 278.128C350.56 277.969 350.635 277.421 350.453 277.102C350.232 276.713 349.798 276.675 349.427 276.832H349.425Z" fill="#407BFF"/>
<path d="M147.678 70.8857H139.033V71.6357H147.678V70.8857Z" fill="#407BFF"/>
<path d="M440.626 356.434C435.072 349.808 435.194 340.56 440.898 335.779C446.602 330.998 455.729 332.494 461.283 339.12C466.837 345.746 466.715 354.994 461.011 359.775C455.307 364.556 446.18 363.06 440.626 356.434Z" fill="#407BFF"/>
<path d="M288.39 174.857L280.24 145.577L309.031 157.556L460.535 338.305L439.894 355.606L288.39 174.857Z" fill="#407BFF"/>
<path d="M287.846 148.729C287.204 151.666 285.397 153.205 282.393 153.325L288.39 174.857C288.39 174.857 294.067 178.014 293.751 170.895C293.751 170.895 299.95 172.991 299.637 165.962C299.637 165.962 305.021 167.256 304.771 161.658C304.771 161.658 309.252 162.523 309.031 157.556L287.846 148.729Z" fill="#EF8274"/>
<path opacity="0.3" d="M299.727 165.926L452.339 345.597L457.144 341.569C457.721 340.704 304.862 161.623 304.862 161.623C305.111 167.22 299.728 165.927 299.728 165.927L299.727 165.926Z" fill="white"/>
<path opacity="0.3" d="M293.818 170.944C293.993 174.87 292.345 175.669 290.832 175.597L442.377 354.012L447.182 349.984C447.731 349.161 309.183 186.775 295.919 171.232C294.776 171.266 293.818 170.944 293.818 170.944Z" fill="white"/>
<path d="M441.25 358.312L463.113 339.986L460.156 336.459L438.293 354.785L441.25 358.312Z" fill="#263238"/>
<path d="M404.103 425.443L404.123 444.376L394.592 445.059L391.242 427.272C395.601 424.368 399.891 423.675 404.102 425.442L404.103 425.443Z" fill="#FFB463"/>
<path d="M403.792 442.277C404.73 444.776 404.791 455 404.791 455L384.588 455.022C383.388 451.325 385.245 448.801 387.601 448.466C388.614 448.323 389.805 447.285 390.673 446.377C390.679 446.259 391.914 440.58 392.678 440.309C392.678 440.309 393.204 439.718 393.652 440.308C394.1 440.897 394.489 442.817 394.489 442.817C397.643 438.906 400.733 439.428 403.791 442.278L403.792 442.277Z" fill="#263238"/>
<path d="M404.036 445.244C401.753 444.404 399.304 444.723 397.313 446.12C396.965 446.365 396.634 445.793 396.98 445.551C399.1 444.063 401.78 443.714 404.211 444.609C404.606 444.754 404.435 445.392 404.036 445.245V445.244Z" fill="white"/>
<path d="M384.65 453.526L404.556 453.504C404.738 453.504 404.886 453.356 404.886 453.174C404.886 452.992 404.738 452.845 404.556 452.845L384.65 452.867C384.468 452.867 384.32 453.015 384.32 453.197C384.32 453.379 384.468 453.526 384.65 453.526Z" fill="white"/>
<path d="M362.622 422.975L362.645 444.344L353.474 445.042L348.963 425.04C352.645 422.307 356.921 420.968 362.622 422.975Z" fill="#FFB463"/>
<path d="M363.007 442.321C363.945 444.82 364.006 455.043 364.006 455.043L340.796 455.068C339.596 451.371 342.104 449.179 344.46 448.844C345.473 448.702 349.02 447.327 349.889 446.42C349.895 446.302 351.13 440.623 351.894 440.352C351.894 440.352 352.42 439.761 352.868 440.352C353.316 440.942 353.705 442.861 353.705 442.861C356.859 438.95 359.949 439.472 363.007 442.322V442.321Z" fill="#263238"/>
<path d="M362.888 445.29C360.605 444.45 358.156 444.769 356.165 446.165C355.817 446.41 355.486 445.838 355.832 445.595C357.952 444.107 360.632 443.758 363.063 444.653C363.458 444.799 363.287 445.436 362.888 445.289V445.29Z" fill="white"/>
<path d="M340.795 453.574L363.77 453.549C363.952 453.549 364.1 453.401 364.1 453.219C364.1 453.037 363.952 452.89 363.77 452.89L340.795 452.915C340.613 452.915 340.465 453.063 340.465 453.245C340.465 453.427 340.613 453.574 340.795 453.574Z" fill="white"/>
<path d="M405.92 435.957L387.166 437.07C382.959 421.863 378.8 367.336 378.37 350.966C377.856 331.406 371.577 282.315 377.129 272.1C382.682 261.885 407.798 270.02 407.798 270.02C407.798 270.02 404.668 329.794 405.92 348.857C407.004 365.379 408.682 413.946 405.92 435.956V435.957Z" fill="#263238"/>
<path d="M368.464 435.957L349.872 437.07C347.609 420.236 338.515 358.928 339.262 347.184C340.174 332.839 350.943 270.747 354.947 265.96C358.951 261.172 388.268 273.582 388.268 273.582C388.268 273.582 376.219 326.976 366.719 350.07C364.746 354.867 369.99 415.482 368.464 435.957Z" fill="#263238"/>
<g opacity="0.3">
<path d="M381.146 309.313C381.502 308.441 381.859 307.569 382.189 306.682C383.956 301.937 385.293 296.998 386.354 291.96C389.412 291.596 392.433 290.849 395.377 289.724C395.75 289.582 395.59 288.871 395.215 289.014C390.559 290.792 385.721 291.617 380.839 291.465C380.446 291.453 380.447 292.189 380.839 292.201C382.468 292.252 384.092 292.184 385.708 292.021C384.644 297.026 383.312 301.937 381.537 306.645C379.76 311.359 377.604 315.844 375.378 320.265C375.173 320.672 375.701 321.041 375.904 320.637C377.544 317.38 379.14 314.084 380.58 310.692C380.713 314.738 381.116 327.241 381.569 343.806C382.351 372.392 388.36 418.871 390.039 431.406H390.657C389.004 419.069 382.962 372.421 382.178 343.781C381.642 324.2 381.176 310.284 381.144 309.314L381.146 309.313Z" fill="white"/>
<path d="M403.37 348.346C397.963 347.992 392.549 348.168 387.166 348.872C386.779 348.923 386.777 349.659 387.166 349.608C392.549 348.904 397.964 348.728 403.37 349.082C403.763 349.108 403.76 348.371 403.37 348.346Z" fill="white"/>
<path d="M342.6 348.41C343.02 339.436 352.274 301.343 352.367 300.96C352.414 300.765 352.322 300.56 352.161 300.503C352 300.446 351.83 300.557 351.783 300.752C351.401 302.322 342.415 339.31 341.992 348.368C341.628 356.159 351.276 428.188 351.687 431.251C351.711 431.432 351.841 431.56 351.987 431.56C352.003 431.56 352.02 431.559 352.036 431.555C352.202 431.522 352.315 431.333 352.288 431.132C352.187 430.383 342.239 356.12 342.6 348.409V348.41Z" fill="white"/>
<path d="M347.858 297.016C354.829 293.838 357.083 284.601 358.743 276.702C358.84 276.242 358.252 276.047 358.155 276.506C356.557 284.108 354.436 293.233 347.696 296.306C347.332 296.472 347.491 297.184 347.858 297.016Z" fill="white"/>
<path d="M363.464 349.053C358.933 348.709 354.402 348.364 349.871 348.02C349.479 347.99 349.481 348.727 349.871 348.756C354.402 349.1 358.933 349.445 363.464 349.789C363.856 349.819 363.854 349.082 363.464 349.053Z" fill="white"/>
</g>
<path d="M370.373 150.633C369.921 150.526 369.445 151.026 369.302 151.716C369.159 152.406 369.409 153.025 369.861 153.132C370.313 153.239 370.789 152.739 370.932 152.049C371.122 151.359 370.825 150.74 370.373 150.633Z" fill="#263238"/>
<path d="M369.1 159.761C367.903 159.825 366.739 159.354 365.922 158.476C367.654 156.945 369.168 155.182 370.421 153.239L369.1 159.761Z" fill="#F98412"/>
<path d="M373.921 148.585C373.223 147.793 372.188 147.381 371.136 147.478C370.911 147.507 370.701 147.356 370.659 147.133C370.623 146.906 370.778 146.694 371.004 146.657C372.347 146.502 373.681 147.013 374.576 148.026C374.735 148.188 374.735 148.447 374.576 148.609C374.498 148.682 374.396 148.724 374.289 148.728C374.149 148.75 374.009 148.696 373.921 148.585Z" fill="#263238"/>
<path d="M378.468 172.188C379.706 177.163 379.896 182.448 372.755 184.15C372.755 184.15 365.911 190.637 379.004 190.637C390.895 190.637 392.645 184.15 392.645 184.15C388.17 179.889 389.42 168.164 390.669 161.773L378.468 172.188Z" fill="#FFB463"/>
<path d="M394.556 149.778C393.299 143.366 387.082 139.187 380.669 140.444C371.671 142.134 367.957 154.501 368.231 162.5C368.529 171.38 378.217 177.402 386.002 172.153C391.192 168.665 392.084 163.654 394.334 155.263C394.837 153.477 394.913 151.598 394.556 149.778Z" fill="#FFB463"/>
<path d="M399.855 148.764C401.607 147.723 401.802 143.392 399.724 140.812C399.968 142.335 399.827 143.565 399.513 144.557C398.775 142.016 396.389 139.317 393.928 138.824C387.977 137.634 383.406 132.278 381.49 129.397C380.574 132.528 383.168 135.503 383.168 135.503C381.323 135.455 376.217 133.075 375.276 130.885C374.695 133.176 374.996 135.603 376.121 137.682C373.74 137.165 371.252 137.727 369.324 139.217C370.92 139.123 372.472 139.763 373.538 140.955C372.267 141.265 370.94 141.265 369.67 140.955C371.195 143.357 373.519 145.07 376.728 145.742C373.771 147.71 375.431 152.494 376.169 155.262C372.884 159.773 377.716 163.13 378.895 166.784C379.8 169.688 386.906 171.39 390.226 169.867C391.964 169.082 392.142 167.141 394.797 164.118C396.933 161.685 400.681 156.905 399.855 151.31C400.358 151.889 400.915 152.694 401.486 153.834C401.572 151.787 400.834 149.5 399.855 148.764Z" fill="#263238"/>
<path d="M376.706 150.859C374.195 151.597 372.838 155.227 372.695 157.548C372.528 160.095 374.23 161.785 376.504 160.095C378.236 158.793 379.491 156.956 380.075 154.87C380.718 152.359 379.218 150.121 376.706 150.859Z" fill="#FFB463"/>
<path d="M372.805 183.866C372.805 183.866 375.879 182.608 374.486 180.144C379.009 178.823 389.789 178.94 392.169 179.642C394.347 180.285 396.246 182.675 395.282 184.449L372.805 183.866Z" fill="#263238"/>
<path opacity="0.8" d="M372.805 183.866C372.805 183.866 375.879 182.608 374.486 180.144C379.009 178.823 389.789 178.94 392.169 179.642C394.347 180.285 396.246 182.675 395.282 184.449L372.805 183.866Z" fill="white"/>
<path d="M409.564 217.486C409.564 217.486 416.54 229.74 416.41 230.3L395.941 244.412L398.087 251.058C398.087 251.058 425.271 241.948 427.79 233.197C430.309 224.446 419.438 208.272 419.438 208.272L409.564 217.486Z" fill="#FFB463"/>
<path d="M400.472 243.797C400.472 243.797 398.948 241.29 396.585 240.743C394.222 240.196 392.48 239.13 390.695 238.845C388.91 238.56 390.481 240.426 391.518 241.25C392.555 242.074 393.722 243.018 392.977 243.697C392.233 244.376 383.773 246.254 382.848 247.313C381.923 248.372 383.386 248.496 383.386 248.496C383.386 248.496 381.344 249.008 381.326 249.872C381.321 250.096 381.675 250.626 382.642 250.539C384.818 250.343 389.364 249.695 389.364 249.695C389.102 249.727 383.549 250.926 382.74 251.215C381.684 251.592 381.377 252.308 381.616 252.914C381.955 253.776 388.892 252.523 389.221 252.675C389.221 252.675 385.203 253.262 384.788 254.383C384.372 255.503 386.921 255.271 389.13 254.64C391.155 254.061 395.279 253.456 397.28 252.668C399.746 251.697 401.184 250.491 401.311 248.009C401.438 245.526 400.472 243.8 400.472 243.8V243.797Z" fill="#FFB463"/>
<path opacity="0.3" d="M383.643 248.499C383.585 248.499 383.534 248.459 383.521 248.401C383.506 248.334 383.548 248.267 383.616 248.252C385.255 247.885 386.935 247.588 388.611 247.37C388.69 247.36 388.743 247.41 388.752 247.478C388.761 247.546 388.713 247.609 388.645 247.618C386.976 247.835 385.303 248.131 383.671 248.496C383.662 248.498 383.652 248.499 383.644 248.499H383.643Z" fill="black"/>
<path opacity="0.3" d="M390.79 252.622C390.745 252.622 390.702 252.598 390.68 252.556C389.655 250.613 389.211 248.34 389.433 246.156C389.439 246.088 389.497 246.039 389.57 246.044C389.638 246.051 389.688 246.112 389.681 246.181C389.465 248.317 389.898 250.539 390.901 252.438C390.933 252.5 390.91 252.575 390.849 252.607C390.83 252.617 390.81 252.622 390.79 252.622Z" fill="black"/>
<path opacity="0.3" d="M397.404 246.996C396.724 246.996 396.039 246.823 395.449 246.493C394.653 246.048 394.009 245.306 393.68 244.457C393.655 244.393 393.687 244.32 393.751 244.295C393.817 244.27 393.889 244.303 393.912 244.367C394.22 245.162 394.824 245.858 395.569 246.275C396.315 246.692 397.223 246.842 398.064 246.686C398.131 246.673 398.196 246.718 398.21 246.786C398.223 246.854 398.178 246.919 398.109 246.932C397.878 246.974 397.641 246.996 397.404 246.996Z" fill="black"/>
<path d="M398.06 205.326C399.523 211.38 402.533 216.95 406.797 221.49L423.247 208.944C423.247 208.944 412.825 186.653 404.623 184.772C396.243 182.844 395.251 194.352 398.06 205.326Z" fill="#263238"/>
<path opacity="0.8" d="M398.06 205.326C399.523 211.38 402.533 216.95 406.797 221.49L423.247 208.944C423.247 208.944 412.825 186.653 404.623 184.772C396.243 182.844 395.251 194.352 398.06 205.326Z" fill="white"/>
<path d="M403.478 184.392C411.81 186.463 410.62 198.607 410.62 210.378C410.62 228.427 410.798 258.673 409.989 276.028C409.97 277.311 406.615 278.675 405.443 278.881C395.397 280.27 367.556 280.618 358.32 278.624C357.244 278.358 349.116 276.747 349.049 275.557C361.293 255.596 353.678 202.12 354.309 195.688C354.976 189.024 357.178 187.005 359.463 185.885C368.39 181.485 397.362 182.836 403.48 184.393L403.478 184.392Z" fill="#263238"/>
<path opacity="0.8" d="M403.478 184.392C411.81 186.463 410.62 198.607 410.62 210.378C410.62 228.427 410.798 258.673 409.989 276.028C409.97 277.311 406.615 278.675 405.443 278.881C395.397 280.27 367.556 280.618 358.32 278.624C357.244 278.358 349.116 276.747 349.049 275.557C361.293 255.596 353.678 202.12 354.309 195.688C354.976 189.024 357.178 187.005 359.463 185.885C368.39 181.485 397.362 182.836 403.48 184.393L403.478 184.392Z" fill="white"/>
<path d="M355.484 198.612C355.055 200.659 354.591 202.897 354.091 205.075C353.591 207.253 353.044 209.408 352.496 211.55C351.441 215.742 350.138 219.868 348.592 223.905C347.903 225.691 347.063 227.416 346.081 229.059C345.739 229.648 345.34 230.202 344.891 230.713L344.57 231.046L344.225 231.367C344.046 231.569 343.999 231.7 343.713 231.819C343.222 231.927 342.71 231.877 342.249 231.676C341.475 231.374 340.743 230.974 340.071 230.486C339.654 230.236 339.25 229.927 338.881 229.641C338.748 229.538 338.605 229.423 338.463 229.308C337.522 224.317 331.442 222.297 331.442 222.297L326.098 219.84L326.157 228.963L327.811 231.141L332.52 233.467C332.582 233.629 332.646 233.789 332.715 233.95C332.989 234.593 333.322 235.224 333.667 235.854C334.438 237.178 335.401 238.382 336.524 239.425C337.88 240.71 339.507 241.674 341.285 242.246C343.346 242.875 345.538 242.932 347.629 242.413C348.13 242.295 348.623 242.143 349.105 241.961C349.573 241.787 350.03 241.584 350.474 241.354C351.361 240.873 352.191 240.294 352.95 239.628C354.179 238.568 355.282 237.37 356.235 236.057C357.814 233.837 359.173 231.469 360.294 228.987C362.341 224.463 364.032 219.787 365.353 215.001C366.02 212.668 366.591 210.371 367.127 207.99C367.663 205.609 368.151 203.36 368.555 200.848L355.486 198.61L355.484 198.612Z" fill="#FFB463"/>
<path d="M352.543 193.673C349.586 200.763 347.43 208.161 346.115 215.729L364.933 225.561C364.933 225.561 381.847 209.421 374.705 195.137C370.622 186.912 358.029 181.496 352.542 193.673H352.543Z" fill="#263238"/>
<path opacity="0.8" d="M352.543 193.673C349.586 200.763 347.43 208.161 346.115 215.729L364.933 225.561C364.933 225.561 381.847 209.421 374.705 195.137C370.622 186.912 358.029 181.496 352.542 193.673H352.543Z" fill="white"/>
<path d="M120.081 423.656L117.219 445.877H110.487L108.758 424.068L120.081 423.656Z" fill="#EF8274"/>
<path d="M120.037 441.175H117.029C116.348 441.175 115.719 441.519 115.316 442.069C113.581 444.438 112.277 443.543 110.39 441.315C109.19 441.175 108.866 442.552 108.769 442.922L106.52 451.103C106.325 451.786 106.721 452.498 107.404 452.694C107.525 452.729 107.651 452.745 107.778 452.743H131.614C135.405 452.743 136.191 448.923 134.629 448.569C127.607 447.017 122.634 444.951 120.463 442.908C120.061 442.55 120.474 442.283 120.037 441.175Z" fill="#263238"/>
<path d="M126.181 443.451C126.498 443.223 126.687 442.859 126.692 442.469C126.719 442.26 126.623 442.054 126.447 441.939C125.504 441.271 121.743 443.029 121.32 443.236C121.273 443.253 121.236 443.29 121.219 443.337C121.188 443.424 121.233 443.519 121.32 443.551C122.244 443.77 123.189 443.892 124.139 443.914C124.852 443.982 125.567 443.82 126.182 443.452L126.181 443.451ZM126.21 442.223C126.287 442.271 126.326 442.36 126.308 442.449C126.292 442.73 126.156 442.991 125.935 443.166C125.081 443.804 123.018 443.529 121.908 443.323C123.47 442.636 125.689 441.86 126.21 442.223Z" fill="#407BFF"/>
<path d="M121.448 443.589C122.577 443.118 124.944 441.261 124.817 440.279C124.797 440.073 124.65 439.827 124.139 439.758C122.077 439.522 121.193 443.225 121.193 443.382C121.173 443.445 121.192 443.515 121.242 443.559C121.28 443.57 121.321 443.57 121.36 443.559L121.448 443.589ZM124.07 440.063C124.453 440.102 124.453 440.24 124.453 440.289C124.561 440.888 122.842 442.43 121.615 443.078C121.87 442.214 122.626 440.053 123.933 440.053L124.07 440.063Z" fill="#407BFF"/>
<path d="M89.3011 422.499L82.7411 444.8L76.0781 444.411L77.4861 420.21L89.3011 422.499Z" fill="#EF8274"/>
<path d="M86.0766 441.53H83.0676C82.3866 441.53 81.7576 441.874 81.3546 442.424C79.6196 444.793 78.3156 443.898 76.4286 441.67C75.2286 441.53 74.9056 442.907 74.8086 443.277L72.5596 451.458C72.3646 452.141 72.7596 452.853 73.4426 453.049C73.5636 453.084 73.6896 453.1 73.8166 453.098H97.6526C101.444 453.098 102.23 449.278 100.668 448.924C93.6456 447.372 88.6736 445.306 86.5026 443.263C86.1006 442.905 86.5146 442.638 86.0766 441.53Z" fill="#263238"/>
<path d="M92.2208 443.806C92.5378 443.578 92.7268 443.214 92.7318 442.824C92.7578 442.615 92.6628 442.409 92.4858 442.294C91.5428 441.626 87.7818 443.384 87.3588 443.59C87.3118 443.607 87.2748 443.644 87.2578 443.691C87.2268 443.778 87.2718 443.874 87.3588 443.905C88.2828 444.124 89.2278 444.246 90.1778 444.268C90.8908 444.336 91.6058 444.174 92.2208 443.807V443.806ZM92.2508 442.578C92.3278 442.626 92.3668 442.715 92.3488 442.804C92.3328 443.085 92.1968 443.347 91.9758 443.521C91.1218 444.159 89.0588 443.884 87.9488 443.678C89.5098 442.991 91.7298 442.215 92.2508 442.578Z" fill="#407BFF"/>
<path d="M87.4894 443.944C88.6184 443.473 90.9854 441.616 90.8584 440.634C90.8384 440.428 90.6914 440.182 90.1804 440.114C88.1184 439.878 87.2344 443.581 87.2344 443.738C87.2144 443.801 87.2334 443.871 87.2834 443.915C87.3214 443.926 87.3624 443.926 87.4014 443.915L87.4894 443.944ZM90.1114 440.418C90.4944 440.457 90.4944 440.595 90.4944 440.644C90.6024 441.243 88.8834 442.785 87.6564 443.433C87.9114 442.569 88.6684 440.408 89.9744 440.408L90.1114 440.418Z" fill="#407BFF"/>
<path d="M123.805 257.418C123.805 257.418 131.899 273.686 124.114 303.6C116.329 333.514 89.0428 438.2 89.0428 438.2L72.5098 436.214C72.5098 436.214 73.9318 398.518 86.2618 368.376C86.2618 368.376 93.1558 309.497 92.0448 307.72C90.0298 299.294 87.9498 290.377 91.4298 277.612C92.7908 272.149 94.7148 266.738 97.0858 261.632C99.3758 257.053 98.6998 255.324 98.6998 255.324L123.806 257.419L123.805 257.418Z" fill="#407BFF"/>
<path opacity="0.5" d="M123.805 257.418C123.805 257.418 131.899 273.686 124.114 303.6C116.329 333.514 89.0428 438.2 89.0428 438.2L72.5098 436.214C72.5098 436.214 73.9318 398.518 86.2618 368.376C86.2618 368.376 93.1558 309.497 92.0448 307.72C90.0298 299.294 87.9498 290.377 91.4298 277.612C92.7908 272.149 94.7148 266.738 97.0858 261.632C99.3758 257.053 98.6998 255.324 98.6998 255.324L123.806 257.419L123.805 257.418Z" fill="black"/>
<path opacity="0.5" d="M103.818 298.28C103.818 298.28 109.96 310.107 112.743 312.075C115.113 313.751 114.17 333.411 114.327 338.971C114.339 339.388 114.355 341.07 114.355 341.07L111.846 350.701C112.038 350.15 112.298 333.397 110.297 315.786C109.623 309.855 103.819 305.038 103.819 298.279L103.818 298.28Z" fill="black"/>
<path d="M134.464 254.923C134.722 256.934 135.269 258.896 136.09 260.75C138.826 267.699 141.814 289.553 141.15 300.612C139.885 323.537 141.938 330.112 134.865 372.664C132.198 388.708 126.131 409.667 121.162 438.836H105.602C105.602 438.836 106.314 402.305 113.515 370.148C113.515 370.148 116.045 324.837 112.279 313.022C109.646 304.802 102.228 296.846 104.128 279.468C106.028 262.09 110.642 256.148 110.642 256.148L134.465 254.923H134.464Z" fill="#407BFF"/>
<path opacity="0.5" d="M134.464 254.923C134.722 256.934 135.269 258.896 136.09 260.75C138.826 267.699 141.814 289.553 141.15 300.612C141.222 314.331 140.871 344.269 134.865 372.664C127.659 406.731 121.162 438.836 121.162 438.836H105.602C105.602 438.836 106.314 402.305 113.515 370.148C113.515 370.148 116.045 324.837 112.279 313.022C109.646 304.802 102.228 296.846 104.128 279.468C106.028 262.09 110.642 256.148 110.642 256.148L134.465 254.923H134.464Z" fill="black"/>
<path d="M82.7745 217.43C82.7745 217.43 69.3685 244.997 74.9665 247.264C80.5645 249.531 99.4315 250.801 99.4315 250.801L107.662 258.677L112.424 255.575L111.222 247.561L100.404 245.271L85.9575 240.783C84.7585 240.381 84.1125 239.083 84.5145 237.884C84.5345 237.823 84.5585 237.762 84.5835 237.703L91.5665 222.385L82.7745 217.428V217.43Z" fill="#EF8274"/>
<path d="M118.581 170.905C118.501 170.181 118.824 169.541 119.309 169.5C119.793 169.459 120.231 170.002 120.309 170.737C120.387 171.472 120.066 172.101 119.581 172.142C119.097 172.183 118.648 171.638 118.581 170.905Z" fill="#263238"/>
<path d="M118.312 171.95L123.029 176.281C121.988 177.391 120.484 177.946 118.971 177.778L118.312 171.951V171.95Z" fill="#D7504D"/>
<path d="M117.119 169.318C117.26 169.298 117.384 169.212 117.451 169.087C117.928 168.1 118.848 167.4 119.927 167.203C120.159 167.177 120.327 166.968 120.301 166.735C120.281 166.498 120.074 166.321 119.837 166.338C118.47 166.567 117.297 167.439 116.686 168.683C116.572 168.884 116.64 169.14 116.839 169.257C116.919 169.317 117.021 169.34 117.119 169.319V169.318Z" fill="#263238"/>
<path d="M93.4148 174.227C95.4738 183.281 96.1528 187.159 101.544 191.098C109.398 194.721 120.351 192.513 121.025 183.005C121.643 174.463 118.175 161.122 108.605 158.902C101.788 157.315 94.9758 161.555 93.3888 168.372C92.9398 170.299 92.9488 172.304 93.4148 174.227Z" fill="#EF8274"/>
<path opacity="0.2" d="M111.074 188.719C111.074 188.719 116.972 191.051 120.349 186.142C118.76 190.289 114.7 192.379 110.213 192.694L108.922 191.393L110.11 189.361L111.074 188.719Z" fill="black"/>
<path d="M97.4453 200.705C97.4453 200.705 103.204 199.058 101.187 188.279C101.187 188.279 106.162 184.841 110.239 187.406C114.316 189.971 108.96 198.609 113.878 200.964C113.878 200.964 110.518 204.213 97.4453 200.705Z" fill="#EF8274"/>
<path d="M112.634 175.425C111.511 173.866 114.679 171.244 113.878 169.497C114.009 164.901 113.127 165.302 113.27 160.397C113.413 155.492 107.969 157.52 107.969 157.52C107.969 157.52 96.2642 154.035 92.4722 166.162C86.8752 172.181 87.2172 181.598 93.2362 187.195C95.9892 189.755 99.6091 191.178 103.368 191.179L104.189 191.14C107.568 190.672 110.264 188.084 110.869 184.727L112.634 175.425Z" fill="#263238"/>
<path d="M95.0878 169.55C95.4008 166.687 95.0708 164.302 92.2078 163.989C89.3448 163.676 88.7588 165.978 88.4458 168.841C88.1328 171.704 88.2348 174.06 91.0998 174.362C93.9648 174.664 94.7638 172.411 95.0878 169.55Z" fill="#407BFF"/>
<path d="M110.205 174.434C111.816 175.437 112.958 177.044 113.374 178.895C113.918 181.318 111.679 182.465 109.39 181.672C107.352 180.971 104.64 178.836 105.108 176.407C105.448 174.657 107.142 173.513 108.893 173.853C109.368 173.945 109.817 174.143 110.205 174.433V174.434Z" fill="#EF8274"/>
<path d="M112.542 156.523C111.552 157.509 110.471 159.003 111.125 160.294C111.493 161.034 112.332 161.416 112.815 162.096C113.276 162.896 113.469 163.823 113.366 164.741C113.329 168.082 113.022 171.414 112.448 174.706C115.398 171.209 118.546 167.515 119.443 163.012C119.751 161.674 119.716 160.279 119.341 158.959C118.937 157.629 117.936 156.565 116.634 156.08C115.336 155.662 112.543 156.524 112.543 156.524L112.542 156.523Z" fill="#263238"/>
<path d="M138.839 214.707L150.53 225.861C151.373 226.672 152.714 226.646 153.525 225.803C153.558 225.769 153.589 225.734 153.619 225.698L168.296 208.376L174.215 199.039L175.579 198.036L184.396 193.123C184.795 192.901 185.298 193.027 185.544 193.412C185.807 193.823 185.677 194.37 185.258 194.619L180.131 197.671L181.056 200.326C182.19 202.842 181.319 205.81 179.005 207.314L171.821 211.985C171.821 211.985 162.044 234.296 155.505 238.178C150.313 241.264 131.182 221.191 131.182 221.191L138.839 214.705V214.707Z" fill="#EF8274"/>
<path d="M86.7815 207.437C86.5145 206.633 87.1815 204.902 86.3775 205.17C86.1185 205.256 84.6315 206.765 84.4515 206.971C83.0545 208.528 80.7365 211.605 78.3325 217.924L75.8945 224.437L88.3275 233L93.0095 225.868L86.7815 207.437Z" fill="#407BFF"/>
<path opacity="0.2" d="M85.4297 215.083L86.7917 213.332L89.4587 215.347L93.0077 225.868L88.3257 233L85.9447 231.363C86.6777 224.643 85.4297 215.084 85.4297 215.084V215.083Z" fill="black"/>
<path d="M134.246 257.269C120.05 260.028 103.771 258.895 97.8066 258.334C96.4556 258.197 98.9516 242.307 84.6186 213.515C83.1576 210.796 83.7706 207.428 86.0956 205.398C95.8496 197.327 113.571 197.636 121.7 198.289C124.576 198.491 127.192 200.024 128.775 202.433C131.604 207.226 133.511 212.507 134.396 218.002C135.353 223.229 135.9 228.523 136.033 233.835C136.411 246.405 134.887 257.143 134.246 257.269Z" fill="#407BFF"/>
<path opacity="0.2" d="M136.031 233.835C131.452 232.965 125.018 216.079 125.018 216.079L134.394 218.002C135.351 223.229 135.898 228.523 136.031 233.835Z" fill="black"/>
<path d="M123.92 198.771C127.457 199.847 135.242 203.35 147.446 214.867L136.092 230.003C132.38 226.023 127.581 221.577 125.02 216.081C122.699 211.21 121.525 205.873 121.586 200.477C121.6 199.478 122.42 198.679 123.419 198.693C123.589 198.695 123.757 198.722 123.92 198.771Z" fill="#407BFF"/>
<path d="M92.0472 168.82L91.9452 166.225C88.2432 163.263 82.2922 163.663 79.0202 167.095C76.8742 169.345 75.9522 172.489 75.4462 175.557C74.9402 178.625 74.7722 181.771 73.8102 184.727C72.8472 187.684 70.9072 190.528 67.9922 191.609C65.8212 192.414 63.3392 192.167 61.2392 193.143C58.0612 194.62 56.7072 199.059 58.5202 202.058C60.2192 204.869 64.3302 205.804 67.1322 204.16C66.2222 205.048 66.3682 206.899 67.4102 207.792C68.6292 208.836 70.4392 208.819 71.9962 208.429C75.6292 207.518 78.7602 204.799 80.1702 201.329C80.6222 202.574 82.0782 203.239 83.3982 203.128C84.7182 203.017 85.9062 202.286 86.9312 201.448C91.4252 197.774 93.6082 191.858 94.0052 186.067C94.4032 180.276 93.2222 174.506 92.0482 168.821L92.0472 168.82Z" fill="#263238"/>
</svg>
