<svg width="500" height="500" viewBox="0 0 500 500" fill="none" xmlns="http://www.w3.org/2000/svg">
<g clip-path="url(#clip0_544_825)">
<path d="M444.709 349.139H263.999C262.445 349.137 260.956 348.519 259.858 347.42C258.76 346.322 258.141 344.833 258.139 343.279V79.9994C258.144 78.4478 258.763 76.9614 259.861 75.8651C260.96 74.7689 262.447 74.152 263.999 74.1494H444.709C446.26 74.152 447.748 74.7689 448.846 75.8651C449.944 76.9614 450.563 78.4478 450.569 79.9994V343.279C450.566 344.833 449.948 346.322 448.849 347.42C447.751 348.519 446.262 349.137 444.709 349.139ZM263.999 74.3994C263.259 74.3941 262.526 74.535 261.842 74.814C261.157 75.0929 260.535 75.5044 260.009 76.0248C259.484 76.5452 259.067 77.1643 258.782 77.8464C258.497 78.5285 258.35 79.2602 258.349 79.9994V343.279C258.349 344.767 258.94 346.194 259.992 347.246C261.044 348.298 262.471 348.889 263.959 348.889H444.709C446.197 348.889 447.623 348.298 448.676 347.246C449.728 346.194 450.319 344.767 450.319 343.279V79.9994C450.319 78.5115 449.728 77.0846 448.676 76.0325C447.623 74.9805 446.197 74.3894 444.709 74.3894L263.999 74.3994Z" fill="#F0F0F0"/>
<path d="M236.28 349.14H55.5299C53.9766 349.137 52.4876 348.519 51.3892 347.42C50.2908 346.322 49.6726 344.833 49.6699 343.28V79.9996C49.6726 78.4463 50.2908 76.9573 51.3892 75.8589C52.4876 74.7605 53.9766 74.1423 55.5299 74.1396H236.28C237.833 74.1423 239.322 74.7605 240.421 75.8589C241.519 76.9573 242.137 78.4463 242.14 79.9996V343.28C242.137 344.833 241.519 346.322 240.421 347.42C239.322 348.519 237.833 349.137 236.28 349.14ZM55.5299 74.3997C54.0438 74.3996 52.6184 74.9893 51.5666 76.0392C50.5148 77.0892 49.9226 78.5135 49.9199 79.9996V343.28C49.9199 344.768 50.511 346.194 51.5631 347.247C52.6151 348.299 54.0421 348.89 55.5299 348.89H236.28C237.768 348.89 239.195 348.299 240.247 347.247C241.299 346.194 241.89 344.768 241.89 343.28V79.9996C241.89 78.5118 241.299 77.0849 240.247 76.0328C239.195 74.9807 237.768 74.3896 236.28 74.3896L55.5299 74.3997Z" fill="#F0F0F0"/>
<path d="M500.789 410.21H0.789062V410.46H500.789V410.21Z" fill="#E0E0E0"/>
<path d="M231.449 84.7295H133.549V182.629H231.449V84.7295Z" fill="#E6E6E6"/>
<path d="M226.488 177.679V89.6895H138.508V177.679H226.488Z" fill="#FAFAFA"/>
<path d="M176.6 157.689C176.6 157.689 192.76 124.569 226.49 123.899V177.669H182.49L176.6 157.689Z" fill="#F0F0F0"/>
<path d="M138.51 148.39C138.51 148.39 153.04 140.78 167.8 146.39C186.34 153.39 197.1 177.69 197.1 177.69H138.51V148.39Z" fill="#F5F5F5"/>
<path d="M171.155 132.905C179.617 131.539 185.369 123.572 184.003 115.11C182.637 106.648 174.67 100.896 166.208 102.262C157.746 103.628 151.994 111.595 153.36 120.057C154.726 128.519 162.693 134.271 171.155 132.905Z" fill="white"/>
<path d="M354.519 84.2197H268.629V250.49H354.519V84.2197Z" fill="#E6E6E6"/>
<path d="M349.559 245.54V89.1797H273.579V245.54H349.559Z" fill="#FAFAFA"/>
<path d="M315.351 139.162C316.193 130.632 309.961 123.035 301.431 122.192C292.901 121.35 285.303 127.582 284.461 136.112C283.618 144.642 289.85 152.24 298.38 153.082C306.91 153.924 314.508 147.692 315.351 139.162Z" fill="white"/>
<path d="M287.789 245.539C287.789 245.539 306.999 153.079 349.559 144.779V245.539H287.789Z" fill="#F0F0F0"/>
<path d="M273.578 190.67C273.578 190.67 283.368 181.23 298.878 186.87C328.018 197.47 344.278 245.54 344.278 245.54H273.578V190.67Z" fill="#F5F5F5"/>
<path d="M68.45 359.13C68.45 359.13 61.22 361.19 53.25 350.86C47.48 343.39 37.25 327.45 23.25 327.17C23.25 327.17 39.96 319.93 54.7 327.31C69.44 334.69 77.31 353.77 68.5 359.13" fill="#F5F5F5"/>
<path d="M72.7596 389.07C72.6966 389.067 72.6346 389.052 72.5774 389.026C72.5201 388.999 72.4687 388.962 72.4259 388.915C72.3832 388.869 72.3501 388.814 72.3284 388.755C72.3067 388.696 72.2969 388.633 72.2996 388.57C72.5041 381.404 71.9983 374.236 70.7896 367.17C68.9996 356.76 64.6496 343 54.4496 336.7C54.3425 336.632 54.2666 336.524 54.2385 336.401C54.2104 336.277 54.2324 336.147 54.2996 336.04C54.3323 335.987 54.3751 335.941 54.4255 335.905C54.4759 335.869 54.533 335.843 54.5934 335.829C54.6538 335.815 54.7164 335.814 54.7775 335.824C54.8387 335.834 54.8972 335.857 54.9496 335.89C59.5996 338.77 63.4596 343.35 66.4096 349.5C68.96 355.066 70.7429 360.953 71.7096 367C72.9247 374.132 73.4371 381.367 73.2396 388.6C73.2346 388.724 73.1821 388.843 73.0928 388.93C73.0036 389.017 72.8845 389.067 72.7596 389.07Z" fill="#E0E0E0"/>
<path d="M73.9296 336.37C73.9296 336.37 81.2496 334.66 83.1896 321.75C84.5996 312.42 85.7696 293.53 97.9396 286.46C97.9396 286.46 79.8196 288.25 70.5196 301.85C61.2196 315.45 63.6196 335.97 73.9296 336.37Z" fill="#F5F5F5"/>
<path d="M83.9997 389.91C83.9021 389.91 83.8067 389.881 83.7263 389.825C83.6459 389.77 83.5843 389.691 83.5497 389.6C80.1439 379.831 77.3387 369.862 75.1497 359.75C73.2244 351.124 72.0103 342.355 71.5197 333.53C71.0997 323.81 72.0597 315.75 74.3997 309.53C74.416 309.464 74.4461 309.402 74.4881 309.349C74.5301 309.295 74.5829 309.251 74.6432 309.22C74.7035 309.188 74.7698 309.17 74.8376 309.166C74.9055 309.162 74.9735 309.172 75.037 309.197C75.1006 309.221 75.1582 309.258 75.2062 309.307C75.2541 309.355 75.2913 309.413 75.3152 309.476C75.339 309.54 75.3491 309.608 75.3447 309.676C75.3404 309.744 75.3216 309.81 75.2897 309.87C70.0997 323.63 72.8597 344.46 76.0897 359.52C78.2645 369.589 81.0564 379.514 84.4497 389.24C84.4915 389.359 84.4844 389.491 84.4301 389.605C84.3758 389.719 84.2787 389.807 84.1597 389.85C84.1107 389.88 84.0564 389.901 83.9997 389.91Z" fill="#E0E0E0"/>
<path d="M86.7292 342.69C86.7292 342.69 94.1792 343.69 100.609 332.35C105.259 324.14 113.109 306.92 127.009 304.66C127.009 304.66 109.449 299.86 95.8892 309.24C82.3292 318.62 77.2492 338.63 86.7292 342.69Z" fill="#F5F5F5"/>
<path d="M87.8687 389.91C87.7587 389.91 87.6519 389.872 87.5664 389.803C87.4808 389.734 87.4216 389.638 87.3987 389.53C85.7838 380.383 84.9375 371.118 84.8687 361.83C84.7335 353.899 85.5017 345.978 87.1587 338.22C89.1587 329.64 92.3487 322.78 96.7587 317.82C96.7986 317.766 96.8493 317.722 96.9074 317.689C96.9656 317.656 97.03 317.636 97.0964 317.629C97.1629 317.623 97.23 317.63 97.2934 317.651C97.3569 317.672 97.4152 317.706 97.4648 317.75C97.5144 317.795 97.5542 317.85 97.5815 317.911C97.6088 317.972 97.6231 318.038 97.6235 318.104C97.6238 318.171 97.6102 318.237 97.5836 318.298C97.5569 318.36 97.5178 318.415 97.4687 318.46C87.7187 329.46 85.7487 348.09 85.8187 361.83C85.8806 371.055 86.7236 380.258 88.3387 389.34C88.3622 389.465 88.3354 389.593 88.2642 389.698C88.193 389.803 88.0832 389.876 87.9587 389.9L87.8687 389.91Z" fill="#E0E0E0"/>
<path d="M99.519 360.069C99.519 360.069 106.619 362.539 115.189 352.689C121.369 345.569 132.489 330.249 146.559 330.799C146.559 330.799 130.299 322.599 115.149 329.099C99.999 335.599 91.039 354.199 99.519 360.099" fill="#F5F5F5"/>
<path d="M92.6087 389.909C92.4857 389.909 92.3677 389.861 92.2798 389.775C92.192 389.689 92.1413 389.572 92.1387 389.449C92.1488 382.926 92.9514 376.429 94.5287 370.099C95.9325 364.167 98.1254 358.449 101.049 353.099C104.329 347.077 108.84 341.813 114.289 337.649C114.392 337.577 114.519 337.546 114.644 337.565C114.769 337.584 114.881 337.65 114.959 337.749C115.035 337.85 115.068 337.977 115.052 338.103C115.035 338.228 114.969 338.342 114.869 338.419C103.129 347.229 97.8687 360.619 95.4587 370.299C93.9064 376.545 93.1107 382.954 93.0887 389.389C93.0914 389.515 93.0447 389.637 92.9587 389.728C92.8727 389.82 92.7542 389.874 92.6287 389.879L92.6087 389.909Z" fill="#E0E0E0"/>
<path d="M109.618 388.76L102.848 410.11H66.1081L59.3281 388.76H109.618Z" fill="#E0E0E0"/>
<path d="M118.3 240.069H119.88V238.489H76.9996C75.6337 238.489 74.3238 239.032 73.358 239.998C72.3922 240.963 71.8496 242.273 71.8496 243.639C71.8496 245.005 72.3922 246.315 73.358 247.281C74.3238 248.247 75.6337 248.789 76.9996 248.789H119.88V247.209H118.3V240.069Z" fill="#F0F0F0"/>
<path d="M118.3 240.069V247.209H78.9998C78.0653 247.196 77.1742 246.813 76.5218 246.144C75.8694 245.475 75.5091 244.574 75.5198 243.639C75.5098 242.701 75.8689 241.796 76.5198 241.119C76.8402 240.785 77.2253 240.52 77.6517 240.339C78.0781 240.159 78.5368 240.067 78.9998 240.069H118.3Z" fill="white"/>
<path d="M118.299 241.88V243H79.9992C79.8551 243 79.7167 242.943 79.6138 242.842C79.5109 242.741 79.4518 242.604 79.4492 242.46C79.4518 242.316 79.5109 242.178 79.6138 242.077C79.7167 241.976 79.8551 241.92 79.9992 241.92L118.299 241.88Z" fill="#F0F0F0"/>
<path d="M118.299 244.569V245.659H79.9992C79.8534 245.659 79.7135 245.601 79.6103 245.498C79.5072 245.395 79.4492 245.255 79.4492 245.109C79.4518 244.965 79.5109 244.828 79.6138 244.727C79.7167 244.626 79.8551 244.569 79.9992 244.569H118.299Z" fill="#F0F0F0"/>
<path d="M111.829 229.769H113.419V228.189H70.5289C69.163 228.189 67.8531 228.732 66.8873 229.698C65.9215 230.664 65.3789 231.974 65.3789 233.339C65.3789 234.705 65.9215 236.015 66.8873 236.981C67.8531 237.947 69.163 238.489 70.5289 238.489H113.419V236.899H111.829V229.769Z" fill="#E0E0E0"/>
<path d="M111.828 229.77V236.9H72.4784C72.0158 236.896 71.5584 236.8 71.1328 236.619C70.7071 236.438 70.3215 236.174 69.9981 235.843C69.6746 235.512 69.4198 235.121 69.2483 234.691C69.0767 234.261 68.9918 233.802 68.9984 233.34C68.9933 232.399 69.3515 231.492 69.9984 230.81C70.3224 230.489 70.7065 230.236 71.1287 230.064C71.5508 229.893 72.0027 229.806 72.4584 229.81L111.828 229.77Z" fill="white"/>
<path d="M111.829 231.569V232.669H73.499C73.3549 232.667 73.2175 232.608 73.1165 232.505C73.0155 232.402 72.959 232.263 72.959 232.119C72.959 231.975 73.0155 231.837 73.1165 231.734C73.2175 231.631 73.3549 231.572 73.499 231.569H111.829Z" fill="#F0F0F0"/>
<path d="M111.829 234.26V235.35H73.499C73.3558 235.35 73.2184 235.293 73.1171 235.192C73.0159 235.09 72.959 234.953 72.959 234.81C72.959 234.666 73.0155 234.527 73.1165 234.424C73.2175 234.321 73.3549 234.262 73.499 234.26H111.829Z" fill="#F0F0F0"/>
<path d="M165.189 248.81H60.1895V255.8H165.189V248.81Z" fill="#E6E6E6"/>
<path d="M79.8489 262.89V255.8H71.1289L74.3289 262.89H79.8489Z" fill="#E0E0E0"/>
<path d="M143.459 262.89V255.8H152.189L148.989 262.89H143.459Z" fill="#E0E0E0"/>
<path d="M84.8781 89.6895H57.3281V99.9995H84.8781V89.6895Z" fill="#F5F5F5"/>
<path d="M116.23 89.6895H88.6797V99.9995H116.23V89.6895Z" fill="#F5F5F5"/>
<path d="M100.47 103.189H72.9199V113.499H100.47V103.189Z" fill="#F5F5F5"/>
<path d="M413.249 221.35H385.699V231.66H413.249V221.35Z" fill="#F5F5F5"/>
<path d="M444.599 221.35H417.049V231.66H444.599V221.35Z" fill="#F5F5F5"/>
<path d="M428.839 234.85H401.289V245.16H428.839V234.85Z" fill="#F5F5F5"/>
<path d="M438.029 84.7295H410.479V95.0395H438.029V84.7295Z" fill="#F5F5F5"/>
<path d="M422.269 98.2295H394.719V108.539H422.269V98.2295Z" fill="#F5F5F5"/>
<path d="M464.6 444.33H51.9395C51.5894 444.331 51.2424 444.264 50.9185 444.13C50.5947 443.997 50.3002 443.802 50.0522 443.554C49.8041 443.307 49.6073 443.014 49.473 442.69C49.3387 442.367 49.2695 442.02 49.2696 441.67C49.2682 441.319 49.3364 440.971 49.4701 440.647C49.6038 440.322 49.8004 440.027 50.0486 439.779C50.2968 439.531 50.5917 439.334 50.9162 439.201C51.2408 439.067 51.5885 438.999 51.9395 439H464.6C465.308 439 465.987 439.281 466.488 439.782C466.988 440.283 467.27 440.962 467.27 441.67C467.267 442.376 466.984 443.053 466.484 443.552C465.984 444.05 465.306 444.33 464.6 444.33Z" fill="#263238"/>
<path opacity="0.9" d="M464.6 444.33H51.9395C51.5894 444.331 51.2424 444.264 50.9185 444.13C50.5947 443.997 50.3002 443.802 50.0522 443.554C49.8041 443.307 49.6073 443.014 49.473 442.69C49.3387 442.367 49.2695 442.02 49.2696 441.67C49.2682 441.319 49.3364 440.971 49.4701 440.647C49.6038 440.322 49.8004 440.027 50.0486 439.779C50.2968 439.531 50.5917 439.334 50.9162 439.201C51.2408 439.067 51.5885 438.999 51.9395 439H464.6C465.308 439 465.987 439.281 466.488 439.782C466.988 440.283 467.27 440.962 467.27 441.67C467.267 442.376 466.984 443.053 466.484 443.552C465.984 444.05 465.306 444.33 464.6 444.33Z" fill="white"/>
<path d="M461.079 444.36H55.459C55.5316 445.844 56.1888 447.239 57.2869 448.24C58.385 449.24 59.8347 449.766 61.319 449.7H455.219C456.703 449.766 458.153 449.24 459.251 448.24C460.349 447.239 461.006 445.844 461.079 444.36Z" fill="#263238"/>
<path opacity="0.8" d="M461.079 444.36H55.459C55.5316 445.844 56.1888 447.239 57.2869 448.24C58.385 449.24 59.8347 449.766 61.319 449.7H455.219C456.703 449.766 458.153 449.24 459.251 448.24C460.349 447.239 461.006 445.844 461.079 444.36Z" fill="white"/>
<path d="M399.58 159.93V160.35C399.527 160.348 399.475 160.336 399.426 160.314C399.378 160.292 399.335 160.261 399.299 160.221C399.264 160.182 399.237 160.136 399.22 160.086C399.202 160.036 399.196 159.982 399.2 159.93C399.21 159.815 399.263 159.708 399.348 159.63C399.433 159.552 399.544 159.509 399.66 159.51C401.531 159.509 403.393 159.243 405.19 158.72C405.242 158.703 405.298 158.697 405.353 158.702C405.407 158.707 405.461 158.723 405.509 158.749C405.558 158.775 405.601 158.811 405.635 158.854C405.67 158.897 405.695 158.947 405.71 159C405.727 159.052 405.733 159.107 405.728 159.162C405.723 159.217 405.706 159.271 405.68 159.319C405.654 159.368 405.619 159.41 405.575 159.445C405.532 159.479 405.483 159.505 405.43 159.52C403.556 160.071 401.613 160.35 399.66 160.35L399.58 159.93ZM393.82 159.5C391.948 158.941 390.166 158.116 388.53 157.05C388.483 157.02 388.443 156.982 388.411 156.937C388.379 156.891 388.357 156.84 388.345 156.787C388.332 156.733 388.331 156.677 388.341 156.623C388.35 156.568 388.37 156.516 388.4 156.47C388.463 156.376 388.56 156.312 388.67 156.289C388.781 156.267 388.895 156.288 388.99 156.35C390.56 157.369 392.267 158.16 394.06 158.7C394.166 158.732 394.254 158.805 394.307 158.902C394.359 158.999 394.371 159.114 394.34 159.22C394.313 159.305 394.26 159.38 394.188 159.434C394.116 159.488 394.029 159.518 393.94 159.52L393.82 159.5ZM410.15 157C410.119 156.953 410.098 156.901 410.087 156.847C410.077 156.792 410.078 156.736 410.09 156.682C410.102 156.627 410.126 156.576 410.158 156.531C410.191 156.486 410.232 156.448 410.28 156.42C411.851 155.404 413.272 154.172 414.5 152.76C414.538 152.72 414.584 152.688 414.635 152.667C414.685 152.645 414.74 152.634 414.795 152.634C414.85 152.634 414.904 152.645 414.955 152.667C415.006 152.688 415.052 152.72 415.09 152.76C415.129 152.798 415.161 152.844 415.182 152.894C415.204 152.945 415.215 153 415.215 153.055C415.215 153.11 415.204 153.164 415.182 153.215C415.161 153.266 415.129 153.311 415.09 153.35C413.812 154.825 412.33 156.112 410.69 157.17C410.62 157.209 410.54 157.23 410.46 157.23C410.393 157.221 410.329 157.195 410.275 157.154C410.221 157.114 410.178 157.061 410.15 157ZM384.15 153.25C382.876 151.77 381.819 150.117 381.01 148.34C380.986 148.289 380.973 148.234 380.971 148.179C380.969 148.123 380.978 148.068 380.998 148.016C381.017 147.964 381.047 147.916 381.085 147.875C381.123 147.835 381.169 147.802 381.22 147.78C381.321 147.736 381.435 147.733 381.538 147.772C381.641 147.811 381.724 147.89 381.77 147.99C382.542 149.694 383.552 151.279 384.77 152.7C384.821 152.761 384.854 152.835 384.864 152.914C384.875 152.993 384.863 153.074 384.829 153.146C384.796 153.219 384.742 153.28 384.675 153.323C384.608 153.366 384.53 153.389 384.45 153.39C384.389 153.385 384.33 153.367 384.277 153.338C384.223 153.309 384.176 153.268 384.14 153.22L384.15 153.25ZM417.75 148.62C417.699 148.597 417.653 148.564 417.615 148.524C417.577 148.483 417.547 148.436 417.528 148.384C417.508 148.331 417.499 148.276 417.501 148.22C417.503 148.165 417.516 148.11 417.54 148.06C418.319 146.361 418.851 144.559 419.12 142.71C419.137 142.599 419.197 142.499 419.287 142.432C419.376 142.365 419.489 142.335 419.6 142.35C419.654 142.357 419.706 142.375 419.753 142.403C419.8 142.43 419.841 142.467 419.874 142.511C419.906 142.555 419.93 142.605 419.943 142.658C419.956 142.711 419.958 142.766 419.95 142.82C419.674 144.753 419.118 146.636 418.3 148.41C418.268 148.484 418.215 148.548 418.148 148.592C418.08 148.637 418.001 148.66 417.92 148.66C417.854 148.655 417.791 148.63 417.74 148.59L417.75 148.62ZM379.38 142.74C379.1 140.81 379.1 138.85 379.38 136.92C379.385 136.863 379.401 136.807 379.428 136.757C379.455 136.707 379.492 136.662 379.537 136.627C379.582 136.591 379.634 136.565 379.689 136.55C379.744 136.535 379.802 136.532 379.858 136.54C379.915 136.548 379.969 136.568 380.018 136.598C380.067 136.628 380.109 136.667 380.142 136.714C380.175 136.761 380.198 136.814 380.209 136.87C380.221 136.926 380.221 136.984 380.21 137.04C380.07 137.983 380 138.936 380 139.89C380.003 140.806 380.067 141.721 380.19 142.63C380.2 142.684 380.198 142.739 380.186 142.793C380.173 142.846 380.15 142.897 380.117 142.941C380.084 142.985 380.043 143.022 379.995 143.049C379.947 143.076 379.894 143.094 379.84 143.1H379.78C379.675 143.097 379.575 143.056 379.499 142.984C379.423 142.912 379.377 142.814 379.37 142.71L379.38 142.74ZM419.13 137.12C418.864 135.264 418.336 133.456 417.56 131.75C417.536 131.7 417.523 131.647 417.52 131.593C417.518 131.538 417.526 131.484 417.544 131.433C417.563 131.381 417.592 131.334 417.629 131.294C417.666 131.254 417.71 131.222 417.76 131.2C417.81 131.176 417.864 131.162 417.919 131.16C417.974 131.157 418.029 131.165 418.081 131.183C418.133 131.202 418.181 131.231 418.222 131.268C418.263 131.305 418.296 131.35 418.32 131.4C419.143 133.177 419.709 135.063 420 137C420.014 137.11 419.984 137.221 419.917 137.309C419.849 137.397 419.75 137.455 419.64 137.47H419.58C419.525 137.475 419.469 137.47 419.416 137.453C419.363 137.437 419.313 137.411 419.271 137.375C419.228 137.34 419.192 137.297 419.167 137.248C419.141 137.199 419.125 137.145 419.12 137.09L419.13 137.12ZM381.27 131.89C381.219 131.867 381.173 131.834 381.135 131.794C381.097 131.753 381.067 131.706 381.048 131.654C381.028 131.601 381.019 131.546 381.021 131.49C381.023 131.435 381.036 131.38 381.06 131.33C381.877 129.556 382.945 127.91 384.23 126.44C384.308 126.362 384.414 126.319 384.525 126.319C384.635 126.319 384.741 126.362 384.82 126.44C384.859 126.478 384.891 126.524 384.912 126.574C384.934 126.625 384.945 126.68 384.945 126.735C384.945 126.79 384.934 126.844 384.912 126.895C384.891 126.946 384.859 126.991 384.82 127.03C383.607 128.446 382.597 130.024 381.82 131.72C381.788 131.794 381.735 131.858 381.668 131.902C381.6 131.947 381.521 131.97 381.44 131.97C381.372 131.947 381.311 131.909 381.26 131.86L381.27 131.89ZM414.53 127C413.302 125.585 411.881 124.349 410.31 123.33C410.255 123.304 410.207 123.268 410.168 123.222C410.129 123.177 410.1 123.123 410.083 123.066C410.067 123.008 410.062 122.948 410.071 122.888C410.08 122.829 410.101 122.772 410.133 122.722C410.166 122.671 410.209 122.628 410.259 122.596C410.31 122.563 410.366 122.542 410.426 122.533C410.485 122.524 410.546 122.529 410.603 122.545C410.661 122.562 410.714 122.591 410.76 122.63C412.4 123.688 413.882 124.974 415.16 126.45C415.237 126.528 415.281 126.634 415.281 126.745C415.281 126.855 415.237 126.961 415.16 127.04C415.083 127.109 414.983 127.148 414.88 127.15C414.814 127.156 414.747 127.145 414.686 127.119C414.625 127.093 414.571 127.052 414.53 127ZM388.53 123.16C388.473 123.065 388.454 122.952 388.478 122.844C388.503 122.735 388.568 122.641 388.66 122.58C390.302 121.528 392.087 120.716 393.96 120.17C394.014 120.147 394.073 120.136 394.132 120.137C394.19 120.138 394.248 120.152 394.302 120.177C394.355 120.202 394.402 120.238 394.441 120.283C394.479 120.327 394.508 120.38 394.525 120.436C394.542 120.493 394.547 120.552 394.539 120.61C394.532 120.669 394.512 120.725 394.481 120.775C394.451 120.826 394.41 120.869 394.361 120.902C394.313 120.936 394.258 120.959 394.2 120.97C392.403 121.501 390.689 122.282 389.11 123.29C389.044 123.332 388.968 123.356 388.89 123.36C388.815 123.367 388.739 123.355 388.67 123.323C388.601 123.292 388.543 123.242 388.5 123.18L388.53 123.16ZM405.23 121C403.434 120.47 401.572 120.197 399.7 120.19C399.588 120.19 399.482 120.145 399.403 120.067C399.324 119.988 399.28 119.881 399.28 119.77C399.28 119.658 399.324 119.551 399.403 119.473C399.482 119.394 399.588 119.35 399.7 119.35C401.653 119.356 403.596 119.639 405.47 120.19C405.565 120.22 405.646 120.283 405.698 120.367C405.751 120.452 405.772 120.552 405.758 120.65C405.743 120.749 405.694 120.839 405.62 120.905C405.545 120.971 405.449 121.008 405.35 121.01L405.23 121Z" fill="#407BFF"/>
<path d="M399.659 156.569C408.888 156.569 416.369 149.088 416.369 139.859C416.369 130.631 408.888 123.149 399.659 123.149C390.431 123.149 382.949 130.631 382.949 139.859C382.949 149.088 390.431 156.569 399.659 156.569Z" fill="#407BFF"/>
<path d="M395.998 147.11C395.848 147.105 395.701 147.07 395.565 147.006C395.429 146.943 395.308 146.852 395.208 146.74L390.208 141.16C390.026 140.937 389.937 140.653 389.958 140.366C389.98 140.079 390.111 139.812 390.324 139.619C390.538 139.426 390.817 139.323 391.104 139.331C391.392 139.338 391.665 139.456 391.868 139.66L396.138 144.39L406.828 134C407.043 133.794 407.331 133.682 407.628 133.689C407.925 133.695 408.208 133.82 408.413 134.035C408.619 134.249 408.731 134.537 408.724 134.834C408.718 135.132 408.593 135.414 408.378 135.62L396.768 146.8C396.56 146.997 396.285 147.108 395.998 147.11Z" fill="white"/>
<path d="M400.169 186.06V183.92C400.187 183.79 400.251 183.672 400.349 183.586C400.447 183.5 400.574 183.453 400.704 183.453C400.835 183.453 400.961 183.5 401.059 183.586C401.157 183.672 401.221 183.79 401.239 183.92V186.06C401.25 186.136 401.243 186.214 401.221 186.288C401.199 186.361 401.162 186.43 401.111 186.488C401.06 186.546 400.998 186.593 400.928 186.624C400.857 186.656 400.781 186.673 400.704 186.673C400.627 186.673 400.551 186.656 400.481 186.624C400.41 186.593 400.348 186.546 400.297 186.488C400.246 186.43 400.209 186.361 400.187 186.288C400.165 186.214 400.159 186.136 400.169 186.06ZM400.169 179.65V177.51C400.187 177.38 400.251 177.262 400.349 177.176C400.447 177.09 400.574 177.043 400.704 177.043C400.835 177.043 400.961 177.09 401.059 177.176C401.157 177.262 401.221 177.38 401.239 177.51V179.65C401.221 179.779 401.157 179.897 401.059 179.983C400.961 180.069 400.835 180.116 400.704 180.116C400.574 180.116 400.447 180.069 400.349 179.983C400.251 179.897 400.187 179.779 400.169 179.65ZM400.169 173.23V171.1C400.159 171.023 400.165 170.945 400.187 170.872C400.209 170.798 400.246 170.729 400.297 170.671C400.348 170.613 400.41 170.567 400.481 170.535C400.551 170.503 400.627 170.486 400.704 170.486C400.781 170.486 400.857 170.503 400.928 170.535C400.998 170.567 401.06 170.613 401.111 170.671C401.162 170.729 401.199 170.798 401.221 170.872C401.243 170.945 401.25 171.023 401.239 171.1V173.23C401.25 173.306 401.243 173.384 401.221 173.458C401.199 173.531 401.162 173.6 401.111 173.658C401.06 173.716 400.998 173.763 400.928 173.794C400.857 173.826 400.781 173.843 400.704 173.843C400.627 173.843 400.551 173.826 400.481 173.794C400.41 173.763 400.348 173.716 400.297 173.658C400.246 173.6 400.209 173.531 400.187 173.458C400.165 173.384 400.159 173.306 400.169 173.23ZM400.169 166.82V164.68C400.187 164.55 400.251 164.432 400.349 164.346C400.447 164.26 400.574 164.213 400.704 164.213C400.835 164.213 400.961 164.26 401.059 164.346C401.157 164.432 401.221 164.55 401.239 164.68V166.82C401.25 166.896 401.243 166.974 401.221 167.048C401.199 167.121 401.162 167.19 401.111 167.248C401.06 167.306 400.998 167.353 400.928 167.384C400.857 167.416 400.781 167.433 400.704 167.433C400.627 167.433 400.551 167.416 400.481 167.384C400.41 167.353 400.348 167.306 400.297 167.248C400.246 167.19 400.209 167.121 400.187 167.048C400.165 166.974 400.159 166.896 400.169 166.82Z" fill="#407BFF"/>
<path d="M399.639 191.94H400.709C400.849 191.94 400.984 191.884 401.083 191.785C401.183 191.685 401.239 191.55 401.239 191.41V190.34C401.249 190.263 401.243 190.186 401.221 190.112C401.199 190.038 401.161 189.97 401.111 189.912C401.06 189.853 400.997 189.807 400.927 189.775C400.857 189.743 400.781 189.727 400.704 189.727C400.627 189.727 400.55 189.743 400.48 189.775C400.41 189.807 400.347 189.853 400.297 189.912C400.246 189.97 400.208 190.038 400.186 190.112C400.164 190.186 400.158 190.263 400.169 190.34V190.87H399.639C399.562 190.859 399.485 190.865 399.411 190.888C399.337 190.91 399.269 190.947 399.21 190.998C399.152 191.049 399.106 191.111 399.074 191.181C399.042 191.252 399.025 191.328 399.025 191.405C399.025 191.482 399.042 191.558 399.074 191.628C399.106 191.699 399.152 191.761 399.21 191.812C399.269 191.863 399.337 191.9 399.411 191.922C399.485 191.944 399.562 191.95 399.639 191.94Z" fill="#407BFF"/>
<path d="M374.789 191.409C374.789 191.266 374.846 191.129 374.947 191.027C375.048 190.926 375.186 190.869 375.329 190.869H377.329C377.458 190.887 377.577 190.951 377.663 191.049C377.748 191.148 377.796 191.274 377.796 191.404C377.796 191.535 377.748 191.661 377.663 191.759C377.577 191.858 377.458 191.922 377.329 191.939H375.329C375.188 191.939 375.052 191.884 374.951 191.785C374.85 191.686 374.792 191.551 374.789 191.409ZM380.869 191.409C380.869 191.266 380.926 191.129 381.027 191.027C381.128 190.926 381.266 190.869 381.409 190.869H383.409C383.485 190.859 383.563 190.865 383.637 190.887C383.711 190.909 383.779 190.947 383.837 190.997C383.895 191.048 383.942 191.111 383.974 191.181C384.006 191.251 384.022 191.327 384.022 191.404C384.022 191.481 384.006 191.558 383.974 191.628C383.942 191.698 383.895 191.761 383.837 191.811C383.779 191.862 383.711 191.9 383.637 191.922C383.563 191.944 383.485 191.95 383.409 191.939H381.409C381.268 191.939 381.132 191.884 381.031 191.785C380.93 191.686 380.872 191.551 380.869 191.409ZM386.949 191.409C386.949 191.268 387.005 191.132 387.104 191.031C387.203 190.93 387.338 190.872 387.479 190.869H389.479C389.608 190.887 389.727 190.951 389.813 191.049C389.898 191.148 389.946 191.274 389.946 191.404C389.946 191.535 389.898 191.661 389.813 191.759C389.727 191.858 389.608 191.922 389.479 191.939H387.479C387.347 191.927 387.225 191.865 387.136 191.767C387.047 191.669 386.998 191.542 386.999 191.409H386.949ZM393.029 191.409C393.029 191.268 393.085 191.132 393.184 191.031C393.283 190.93 393.418 190.872 393.559 190.869H395.559C395.688 190.887 395.807 190.951 395.893 191.049C395.978 191.148 396.026 191.274 396.026 191.404C396.026 191.535 395.978 191.661 395.893 191.759C395.807 191.858 395.688 191.922 395.559 191.939H393.559C393.487 191.943 393.415 191.933 393.347 191.908C393.279 191.883 393.217 191.845 393.165 191.795C393.112 191.745 393.071 191.686 393.042 191.619C393.014 191.553 392.999 191.481 392.999 191.409H393.029Z" fill="#407BFF"/>
<path d="M97.1494 160.35C95.1962 160.352 93.2529 160.072 91.3794 159.52C91.2733 159.487 91.1839 159.415 91.1298 159.318C91.0758 159.221 91.0613 159.107 91.0894 159C91.1218 158.894 91.1945 158.805 91.2919 158.753C91.3892 158.701 91.5033 158.689 91.6094 158.72C93.4094 159.244 95.2747 159.51 97.1494 159.51C97.2648 159.509 97.3761 159.552 97.4613 159.63C97.5465 159.708 97.5994 159.815 97.6094 159.93C97.6135 159.983 97.6068 160.036 97.5896 160.086C97.5725 160.136 97.5453 160.182 97.5098 160.222C97.4742 160.261 97.431 160.293 97.3828 160.315C97.3346 160.337 97.2824 160.349 97.2294 160.35V159.93L97.1494 160.35ZM102.869 159.52C102.77 159.518 102.674 159.481 102.6 159.415C102.525 159.349 102.476 159.259 102.462 159.161C102.447 159.062 102.468 158.962 102.521 158.878C102.574 158.793 102.655 158.73 102.749 158.7C104.542 158.16 106.249 157.369 107.819 156.35C107.912 156.289 108.025 156.268 108.134 156.29C108.243 156.313 108.338 156.377 108.399 156.47C108.431 156.515 108.453 156.567 108.464 156.621C108.475 156.675 108.474 156.731 108.463 156.785C108.452 156.84 108.43 156.891 108.398 156.936C108.367 156.982 108.326 157.02 108.279 157.05C106.646 158.115 104.868 158.94 102.999 159.5L102.869 159.52ZM86.3094 157.16C86.2288 157.16 86.1495 157.14 86.0794 157.1C84.4388 156.042 82.9573 154.756 81.6794 153.28C81.6398 153.242 81.6083 153.196 81.5868 153.145C81.5652 153.094 81.5541 153.04 81.5541 152.985C81.5541 152.93 81.5652 152.875 81.5868 152.825C81.6083 152.774 81.6398 152.728 81.6794 152.69C81.7176 152.65 81.7635 152.619 81.8142 152.597C81.8648 152.576 81.9193 152.565 81.9744 152.565C82.0295 152.565 82.084 152.576 82.1347 152.597C82.1853 152.619 82.2312 152.65 82.2694 152.69C83.4971 154.102 84.9177 155.334 86.4894 156.35C86.5361 156.379 86.5764 156.418 86.6082 156.463C86.64 156.508 86.6626 156.559 86.6746 156.613C86.6867 156.667 86.6881 156.722 86.6786 156.777C86.6691 156.831 86.649 156.883 86.6194 156.93C86.5906 156.991 86.5472 157.044 86.4932 157.084C86.4391 157.124 86.376 157.15 86.3094 157.16ZM112.309 153.36C112.21 153.362 112.113 153.326 112.039 153.26C112 153.222 111.968 153.176 111.947 153.125C111.925 153.074 111.914 153.02 111.914 152.965C111.914 152.91 111.925 152.855 111.947 152.805C111.968 152.754 112 152.708 112.039 152.67C113.257 151.25 114.267 149.664 115.039 147.96C115.085 147.86 115.169 147.782 115.271 147.742C115.374 147.703 115.488 147.706 115.589 147.75C115.64 147.773 115.686 147.805 115.724 147.846C115.762 147.886 115.792 147.934 115.812 147.986C115.831 148.038 115.84 148.094 115.838 148.149C115.836 148.205 115.823 148.259 115.799 148.31C114.991 150.087 113.933 151.74 112.659 153.22C112.62 153.263 112.572 153.298 112.519 153.322C112.466 153.346 112.408 153.359 112.349 153.36H112.309ZM78.8994 148.63C78.817 148.631 78.7362 148.608 78.6668 148.563C78.5975 148.519 78.5427 148.455 78.5094 148.38C77.694 146.606 77.1416 144.723 76.8694 142.79C76.8609 142.736 76.8633 142.681 76.8764 142.628C76.8895 142.575 76.913 142.525 76.9456 142.481C76.9782 142.437 77.0192 142.401 77.0662 142.373C77.1132 142.345 77.1653 142.327 77.2194 142.32C77.3306 142.305 77.4429 142.335 77.5326 142.402C77.6222 142.47 77.6821 142.569 77.6994 142.68C77.9666 144.52 78.4988 146.312 79.2794 148C79.3239 148.102 79.3269 148.218 79.2877 148.322C79.2485 148.427 79.1702 148.512 79.0694 148.56C79.0193 148.597 78.9609 148.621 78.8994 148.63ZM116.999 143.07C116.889 143.055 116.79 142.997 116.723 142.909C116.655 142.821 116.625 142.71 116.639 142.6C116.767 141.692 116.831 140.777 116.829 139.86C116.828 138.906 116.761 137.954 116.629 137.01C116.619 136.955 116.621 136.899 116.633 136.845C116.645 136.791 116.669 136.74 116.701 136.695C116.734 136.65 116.776 136.612 116.824 136.584C116.871 136.555 116.924 136.537 116.979 136.53C117.091 136.515 117.203 136.545 117.293 136.612C117.382 136.68 117.442 136.779 117.459 136.89C117.726 138.821 117.726 140.779 117.459 142.71C117.444 142.818 117.388 142.916 117.302 142.983C117.216 143.05 117.108 143.081 116.999 143.07ZM77.2594 137.45H77.1994C77.0895 137.435 76.99 137.377 76.9225 137.289C76.8551 137.201 76.8252 137.09 76.8394 136.98C77.113 135.044 77.6654 133.158 78.4794 131.38C78.5316 131.289 78.6159 131.22 78.7159 131.189C78.8159 131.157 78.9242 131.163 79.0196 131.207C79.1149 131.251 79.1904 131.329 79.2311 131.426C79.2718 131.523 79.2747 131.631 79.2394 131.73C78.4591 133.434 77.9302 135.243 77.6694 137.1C77.6537 137.194 77.6065 137.28 77.5357 137.343C77.4648 137.407 77.3745 137.444 77.2794 137.45H77.2594ZM115.359 131.9C115.278 131.9 115.199 131.877 115.132 131.832C115.064 131.788 115.011 131.724 114.979 131.65C114.202 129.955 113.193 128.376 111.979 126.96C111.94 126.922 111.908 126.876 111.887 126.825C111.865 126.774 111.854 126.72 111.854 126.665C111.854 126.61 111.865 126.555 111.887 126.505C111.908 126.454 111.94 126.408 111.979 126.37C112.058 126.292 112.164 126.249 112.274 126.249C112.385 126.249 112.491 126.292 112.569 126.37C113.851 127.842 114.918 129.489 115.739 131.26C115.763 131.31 115.776 131.365 115.778 131.421C115.78 131.476 115.771 131.532 115.752 131.584C115.732 131.636 115.702 131.684 115.664 131.724C115.626 131.765 115.58 131.797 115.529 131.82C115.485 131.855 115.434 131.883 115.379 131.9H115.359ZM81.9994 127.17C81.8959 127.168 81.7965 127.129 81.7194 127.06C81.6418 126.981 81.5984 126.875 81.5984 126.765C81.5984 126.654 81.6418 126.548 81.7194 126.47C82.9623 125.004 84.4028 123.719 85.9994 122.65C86.0452 122.615 86.0978 122.589 86.1539 122.575C86.21 122.561 86.2683 122.559 86.3254 122.568C86.3824 122.578 86.4368 122.599 86.4853 122.631C86.5337 122.662 86.5751 122.704 86.6068 122.752C86.6386 122.8 86.66 122.855 86.6698 122.911C86.6796 122.968 86.6775 123.027 86.6636 123.083C86.6498 123.139 86.6245 123.192 86.5894 123.238C86.5542 123.284 86.51 123.322 86.4594 123.35C84.9032 124.366 83.4964 125.595 82.2794 127C82.2474 127.046 82.2059 127.086 82.1576 127.115C82.1093 127.144 82.0554 127.163 81.9994 127.17ZM107.999 123.38C107.918 123.376 107.839 123.352 107.769 123.31C106.193 122.302 104.483 121.521 102.689 120.99C102.636 120.975 102.586 120.95 102.543 120.915C102.5 120.881 102.463 120.838 102.436 120.79C102.409 120.742 102.392 120.689 102.386 120.634C102.38 120.579 102.384 120.523 102.399 120.47C102.432 120.364 102.505 120.275 102.602 120.223C102.699 120.171 102.813 120.159 102.919 120.19C104.795 120.736 106.583 121.548 108.229 122.6C108.322 122.661 108.387 122.756 108.409 122.865C108.432 122.974 108.41 123.087 108.349 123.18C108.313 123.241 108.262 123.291 108.201 123.326C108.139 123.361 108.07 123.379 107.999 123.38ZM91.4594 121C91.3681 121 91.2791 120.971 91.2054 120.917C91.1316 120.863 91.077 120.787 91.0494 120.7C91.0342 120.647 91.0296 120.591 91.0359 120.536C91.0423 120.481 91.0594 120.428 91.0863 120.38C91.1133 120.331 91.1495 120.289 91.1929 120.254C91.2364 120.22 91.2861 120.195 91.3394 120.18C93.2102 119.63 95.1494 119.347 97.0994 119.34C97.2108 119.34 97.3176 119.384 97.3964 119.463C97.4752 119.542 97.5194 119.648 97.5194 119.76C97.5194 119.871 97.4752 119.978 97.3964 120.057C97.3176 120.136 97.2108 120.18 97.0994 120.18C95.2303 120.187 93.3717 120.459 91.5794 120.99L91.4594 121Z" fill="#407BFF"/>
<path d="M97.1495 156.569C106.378 156.569 113.859 149.088 113.859 139.859C113.859 130.631 106.378 123.149 97.1495 123.149C87.9208 123.149 80.4395 130.631 80.4395 139.859C80.4395 149.088 87.9208 156.569 97.1495 156.569Z" fill="#407BFF"/>
<path d="M94.2395 147.11C94.0895 147.105 93.9421 147.07 93.8062 147.006C93.6704 146.943 93.549 146.852 93.4495 146.74L88.4495 141.16C88.2506 140.938 88.1478 140.647 88.1637 140.349C88.1797 140.052 88.313 139.773 88.5345 139.575C88.7559 139.376 89.0473 139.273 89.3446 139.289C89.6418 139.305 89.9206 139.438 90.1195 139.66L94.3795 144.39L105.079 134C105.294 133.794 105.582 133.682 105.879 133.689C106.176 133.695 106.459 133.82 106.664 134.035C106.87 134.249 106.982 134.537 106.975 134.834C106.969 135.132 106.844 135.414 106.629 135.62L94.9995 146.8C94.794 146.994 94.5227 147.105 94.2395 147.11Z" fill="white"/>
<path d="M96.0986 186.6C95.9554 186.6 95.818 186.543 95.7168 186.441C95.6155 186.34 95.5586 186.203 95.5586 186.06V183.92C95.5586 183.776 95.6155 183.639 95.7168 183.538C95.818 183.437 95.9554 183.38 96.0986 183.38C96.2418 183.38 96.3792 183.437 96.4804 183.538C96.5817 183.639 96.6386 183.776 96.6386 183.92V186.06C96.6386 186.203 96.5817 186.34 96.4804 186.441C96.3792 186.543 96.2418 186.6 96.0986 186.6ZM96.0986 180.18C95.9571 180.18 95.8212 180.124 95.7203 180.025C95.6193 179.926 95.5612 179.791 95.5586 179.65V177.51C95.5586 177.366 95.6155 177.229 95.7168 177.128C95.818 177.027 95.9554 176.97 96.0986 176.97C96.2418 176.97 96.3792 177.027 96.4804 177.128C96.5817 177.229 96.6386 177.366 96.6386 177.51V179.65C96.636 179.791 96.5779 179.926 96.4769 180.025C96.376 180.124 96.2401 180.18 96.0986 180.18ZM96.0986 173.77C95.9554 173.77 95.818 173.713 95.7168 173.611C95.6155 173.51 95.5586 173.373 95.5586 173.23V171.1C95.5586 170.956 95.6155 170.819 95.7168 170.718C95.818 170.617 95.9554 170.56 96.0986 170.56C96.2418 170.56 96.3792 170.617 96.4804 170.718C96.5817 170.819 96.6386 170.956 96.6386 171.1V173.23C96.6386 173.301 96.6246 173.371 96.5975 173.436C96.5704 173.502 96.5306 173.561 96.4804 173.611C96.4303 173.662 96.3708 173.701 96.3052 173.729C96.2397 173.756 96.1695 173.77 96.0986 173.77ZM96.0986 167.36C95.9554 167.36 95.818 167.303 95.7168 167.201C95.6155 167.1 95.5586 166.963 95.5586 166.82V164.68C95.5586 164.536 95.6155 164.399 95.7168 164.298C95.818 164.197 95.9554 164.14 96.0986 164.14C96.2418 164.14 96.3792 164.197 96.4804 164.298C96.5817 164.399 96.6386 164.536 96.6386 164.68V166.82C96.6386 166.963 96.5817 167.1 96.4804 167.201C96.3792 167.303 96.2418 167.36 96.0986 167.36Z" fill="#407BFF"/>
<path d="M97.1686 191.94H96.0986C95.9571 191.94 95.8212 191.884 95.7203 191.785C95.6193 191.686 95.5612 191.551 95.5586 191.41V190.34C95.5586 190.197 95.6155 190.059 95.7168 189.958C95.818 189.857 95.9554 189.8 96.0986 189.8C96.2418 189.8 96.3792 189.857 96.4804 189.958C96.5817 190.059 96.6386 190.197 96.6386 190.34V190.87H97.1686C97.245 190.859 97.3227 190.865 97.3966 190.887C97.4705 190.91 97.5388 190.947 97.5969 190.998C97.655 191.049 97.7016 191.111 97.7335 191.181C97.7654 191.251 97.7819 191.328 97.7819 191.405C97.7819 191.482 97.7654 191.558 97.7335 191.628C97.7016 191.699 97.655 191.761 97.5969 191.812C97.5388 191.862 97.4705 191.9 97.3966 191.922C97.3227 191.944 97.245 191.95 97.1686 191.94Z" fill="#407BFF"/>
<path d="M121.48 191.94H119.48C119.351 191.923 119.232 191.859 119.146 191.76C119.06 191.662 119.013 191.536 119.013 191.405C119.013 191.275 119.06 191.149 119.146 191.05C119.232 190.952 119.351 190.888 119.48 190.87H121.48C121.609 190.888 121.728 190.952 121.814 191.05C121.899 191.149 121.947 191.275 121.947 191.405C121.947 191.536 121.899 191.662 121.814 191.76C121.728 191.859 121.609 191.923 121.48 191.94ZM115.4 191.94H113.4C113.323 191.951 113.246 191.945 113.172 191.923C113.098 191.901 113.03 191.863 112.972 191.812C112.913 191.761 112.867 191.699 112.835 191.629C112.803 191.559 112.787 191.482 112.787 191.405C112.787 191.328 112.803 191.252 112.835 191.182C112.867 191.112 112.913 191.049 112.972 190.998C113.03 190.948 113.098 190.91 113.172 190.888C113.246 190.866 113.323 190.86 113.4 190.87H115.4C115.476 190.86 115.554 190.866 115.628 190.888C115.702 190.91 115.77 190.948 115.828 190.998C115.886 191.049 115.933 191.112 115.965 191.182C115.997 191.252 116.013 191.328 116.013 191.405C116.013 191.482 115.997 191.559 115.965 191.629C115.933 191.699 115.886 191.761 115.828 191.812C115.77 191.863 115.702 191.901 115.628 191.923C115.554 191.945 115.476 191.951 115.4 191.94ZM109.32 191.94H107.32C107.243 191.951 107.166 191.945 107.092 191.923C107.018 191.901 106.95 191.863 106.892 191.812C106.833 191.761 106.787 191.699 106.755 191.629C106.723 191.559 106.707 191.482 106.707 191.405C106.707 191.328 106.723 191.252 106.755 191.182C106.787 191.112 106.833 191.049 106.892 190.998C106.95 190.948 107.018 190.91 107.092 190.888C107.166 190.866 107.243 190.86 107.32 190.87H109.32C109.396 190.86 109.474 190.866 109.548 190.888C109.622 190.91 109.69 190.948 109.748 190.998C109.806 191.049 109.853 191.112 109.885 191.182C109.917 191.252 109.933 191.328 109.933 191.405C109.933 191.482 109.917 191.559 109.885 191.629C109.853 191.699 109.806 191.761 109.748 191.812C109.69 191.863 109.622 191.901 109.548 191.923C109.474 191.945 109.396 191.951 109.32 191.94ZM103.25 191.94H101.25C101.121 191.923 101.002 191.859 100.916 191.76C100.83 191.662 100.783 191.536 100.783 191.405C100.783 191.275 100.83 191.149 100.916 191.05C101.002 190.952 101.121 190.888 101.25 190.87H103.25C103.379 190.888 103.498 190.952 103.584 191.05C103.669 191.149 103.717 191.275 103.717 191.405C103.717 191.536 103.669 191.662 103.584 191.76C103.498 191.859 103.379 191.923 103.25 191.94Z" fill="#407BFF"/>
<path d="M295.359 384.45L289.279 438.97H348.249L349.969 431.91L353.599 438.97L407.799 439.42L405.779 387.49L295.359 384.45Z" fill="#263238"/>
<path d="M386.29 222.14C363.99 219.39 332.37 219.64 311.37 223.3C306.175 224.229 301.436 226.854 297.892 230.764C294.349 234.674 292.203 239.649 291.79 244.91C289.19 276.91 287.41 330.28 293.52 386.63C342.92 403.2 408.82 390.26 408.82 390.26C408.35 374.1 404.28 340.26 404.55 319.94C404.91 293.2 407.29 276.52 407.04 249.23C406.91 235.84 399.57 223.78 386.29 222.14Z" fill="#407BFF"/>
<path opacity="0.2" d="M386.29 222.14C363.99 219.39 332.37 219.64 311.37 223.3C306.175 224.229 301.436 226.854 297.892 230.764C294.349 234.674 292.203 239.649 291.79 244.91C289.19 276.91 287.41 330.28 293.52 386.63C342.92 403.2 408.82 390.26 408.82 390.26C408.35 374.1 404.28 340.26 404.55 319.94C404.91 293.2 407.29 276.52 407.04 249.23C406.91 235.84 399.57 223.78 386.29 222.14Z" fill="white"/>
<path d="M328.509 265.08C326.749 260.68 331.509 256.43 335.789 258.53C337.103 259.172 338.332 259.975 339.449 260.92C336.929 259 332.959 255.92 334.029 254.6C336.029 252.16 349.139 260.24 354.799 264.46C350.989 259.71 351.619 251.6 353.849 254.69C356.429 258.32 360.099 262.56 365.429 269.18C372.849 278.35 366.199 287.27 366.199 287.27C359.759 292.91 349.099 289.27 343.699 285.27C338.299 281.27 327.289 273 328.499 269.66C328.989 268.35 332.379 270.66 334.559 272.25C332.102 270.35 330.06 267.968 328.559 265.25L328.509 265.08Z" fill="#CE7A63"/>
<path d="M350.819 277.93C350.759 277.99 350.679 278.04 350.619 278.09L350.829 277.94C353.059 276.42 356.329 274.42 356.749 275.7C356.757 275.726 356.757 275.754 356.749 275.78C356.836 276.213 356.791 276.663 356.619 277.07C355.559 280 349.839 284.46 345.019 287.94C343.559 289.01 342.189 289.94 341.019 290.78C335.499 294.69 323.769 297.59 319.609 291.88C319.609 291.88 311.699 285.88 319.409 276.88C322.749 272.98 325.859 267.09 328.069 264.5C329.499 262.82 330.729 261.35 331.779 259.96C332.229 259.37 332.619 259.21 332.899 259.37C332.993 259.422 333.076 259.492 333.143 259.576C333.21 259.66 333.26 259.756 333.289 259.86C333.524 260.623 333.592 261.428 333.489 262.22C333.36 263.805 332.965 265.357 332.319 266.81C331.867 267.853 331.264 268.823 330.529 269.69L331.449 269.06L332.249 268.53C335.576 266.352 339.029 264.372 342.589 262.6C343.984 261.902 345.416 261.281 346.879 260.74C349.219 259.92 350.999 259.67 351.589 260.47C352.009 261.03 351.589 261.86 350.769 262.75C349.73 263.816 348.591 264.781 347.369 265.63C348.118 265.149 348.9 264.721 349.709 264.35C350.917 263.785 352.298 263.713 353.559 264.15C353.84 264.415 354.023 264.768 354.079 265.15C354.15 266.015 353.901 266.876 353.379 267.57C354.859 266.87 356.059 266.82 356.789 267.46C356.875 267.53 356.953 267.61 357.019 267.7C357.365 268.843 357.283 270.073 356.789 271.16C356.789 271.23 356.739 271.29 356.719 271.36C356.555 271.706 356.368 272.04 356.159 272.36C355.869 272.79 355.529 273.24 355.159 273.7L354.719 274.22C354.669 274.3 354.599 274.36 354.539 274.44C353.407 275.713 352.162 276.881 350.819 277.93Z" fill="#CE7A63"/>
<g opacity="0.2">
<path d="M331.839 269.35C331.799 269.351 331.758 269.343 331.722 269.326C331.685 269.308 331.654 269.282 331.629 269.25C331.569 269.2 331.469 269.05 331.629 268.82C332.199 267.91 334.209 261.59 333.629 260.07C333.559 259.89 333.489 259.87 333.459 259.86C332.459 259.61 329.929 262.57 328.549 264.51C328.529 264.539 328.504 264.563 328.474 264.582C328.445 264.6 328.412 264.613 328.377 264.619C328.342 264.624 328.307 264.623 328.273 264.614C328.239 264.606 328.207 264.591 328.179 264.57C328.15 264.549 328.125 264.523 328.107 264.492C328.088 264.462 328.075 264.428 328.07 264.392C328.064 264.357 328.066 264.321 328.074 264.286C328.083 264.251 328.098 264.219 328.119 264.19C328.749 263.31 331.979 258.92 333.599 259.34C333.723 259.38 333.836 259.448 333.928 259.541C334.021 259.633 334.089 259.746 334.129 259.87C334.749 261.45 333.129 266.8 332.339 268.61C333.099 268.22 334.579 267.34 336.129 266.42C339.029 264.7 343.009 262.34 346.619 260.53C346.651 260.513 346.685 260.502 346.72 260.499C346.756 260.496 346.792 260.501 346.825 260.512C346.859 260.523 346.89 260.541 346.917 260.565C346.943 260.589 346.964 260.617 346.979 260.65C347.008 260.714 347.012 260.786 346.99 260.853C346.967 260.92 346.921 260.976 346.859 261.01C343.259 262.81 339.299 265.16 336.399 266.88C332.999 268.86 332.169 269.35 331.839 269.35Z" fill="black"/>
</g>
<g opacity="0.2">
<path d="M357.449 275.89C357.879 277.8 353.049 282.67 345.449 288.01C345.4 288.025 345.348 288.025 345.299 288.01C345.255 288.01 345.211 288 345.172 287.981C345.132 287.962 345.097 287.934 345.069 287.9C345.03 287.841 345.016 287.77 345.029 287.701C345.042 287.632 345.081 287.57 345.139 287.53C352.389 282.46 355.729 278.87 356.669 277.03C356.882 276.72 356.985 276.346 356.959 275.97C356.93 275.879 356.874 275.799 356.799 275.74C356.721 275.71 356.641 275.686 356.559 275.67C354.559 275.36 351.259 277.92 351.219 277.94C351.168 277.985 351.102 278.01 351.034 278.01C350.966 278.01 350.9 277.985 350.849 277.94C350.803 277.893 350.777 277.83 350.777 277.765C350.777 277.7 350.803 277.637 350.849 277.59C350.849 277.59 355.409 273.15 356.429 270.92C357.079 269.5 357.109 268.34 356.519 267.82C355.929 267.3 354.339 267.53 352.619 268.63L346.529 272.94C346.48 272.954 346.428 272.954 346.379 272.94C346.334 272.943 346.29 272.934 346.249 272.915C346.209 272.896 346.175 272.867 346.149 272.83C346.109 272.773 346.093 272.702 346.104 272.633C346.115 272.564 346.153 272.502 346.209 272.46L352.329 268.14C352.569 267.86 353.849 266.33 353.629 265.14C353.574 264.914 353.466 264.706 353.312 264.531C353.159 264.357 352.966 264.223 352.749 264.14C351.479 263.53 348.859 264.87 346.799 266.2C346.009 266.8 345.209 267.38 344.479 267.88C344.421 267.918 344.351 267.932 344.282 267.921C344.214 267.91 344.152 267.874 344.109 267.82C344.064 267.769 344.039 267.703 344.039 267.635C344.039 267.567 344.064 267.501 344.109 267.45C344.209 267.37 345.179 266.6 346.469 265.76C348.519 264.23 350.469 262.7 350.469 262.68C350.517 262.636 350.579 262.612 350.644 262.612C350.709 262.612 350.771 262.636 350.819 262.68C350.869 262.731 350.897 262.799 350.897 262.87C350.897 262.941 350.869 263.009 350.819 263.06C350.819 263.06 350.339 263.45 349.629 263.99C350.131 263.713 350.682 263.537 351.252 263.474C351.822 263.41 352.398 263.46 352.949 263.62C353.194 263.731 353.42 263.879 353.619 264.06C353.9 264.325 354.083 264.678 354.139 265.06C354.21 265.925 353.961 266.786 353.439 267.48C354.919 266.78 356.119 266.73 356.849 267.37C356.936 267.44 357.013 267.52 357.079 267.61C357.649 268.35 357.579 269.61 356.909 271.08C356.714 271.487 356.483 271.875 356.219 272.24C355.929 272.67 355.589 273.12 355.219 273.58L354.779 274.1C354.729 274.18 354.659 274.24 354.599 274.32C354.049 274.96 353.469 275.6 352.939 276.14C354.035 275.447 355.313 275.099 356.609 275.14C356.812 275.156 357.004 275.238 357.155 275.373C357.307 275.509 357.41 275.69 357.449 275.89Z" fill="black"/>
</g>
<path d="M331.209 135.54C331.209 135.54 308.689 126.21 299.839 131.77C292.839 136.15 298.039 144.22 298.039 144.22C298.039 144.22 284.609 145.27 285.039 153.77C285.379 160.98 292.639 161.04 292.639 161.04C292.639 161.04 288.269 169.48 293.639 171.11C299.009 172.74 304.589 161.62 304.589 161.62L331.209 135.54Z" fill="#263238"/>
<path d="M356.439 177C356.439 177 362.619 185.11 361.569 187.49C359.989 191.05 355.159 187.31 355.159 187.31C355.159 187.31 359.599 192.83 355.559 195.77C351.519 198.71 348.129 184.91 348.129 184.91L356.439 177Z" fill="#263238"/>
<path d="M321.249 137C325.688 135.634 330.36 135.195 334.976 135.711C339.591 136.227 344.052 137.687 348.079 140C353.349 143.11 357.819 147.68 357.359 154.16C356.279 169.27 350.709 194.35 350.709 194.35L300.889 167.09C300.889 167.09 298.149 154.54 303.949 146.31C306.999 142.05 314.609 139 321.249 137Z" fill="#263238"/>
<path d="M327.389 212C327.419 212.058 327.446 212.118 327.469 212.18L330.239 220.72C330.745 223.854 330.728 227.051 330.189 230.18C328.429 232.9 327.849 238.87 334.619 238.53C343.169 238.11 358.159 224.77 358.519 220.97C353.929 209.51 349.869 196.03 349.899 184.84L340.729 195.92L327.389 212Z" fill="#CE7A63"/>
<g opacity="0.2">
<path d="M327.469 212.19L330.239 220.73C335.449 217.99 340.759 212.43 341.729 206.67C342.399 202.51 340.339 198.77 338.669 198.67L327.469 212.19Z" fill="black"/>
</g>
<path d="M304.848 195.22C305.458 197.08 306.128 198.9 306.848 200.7C313.128 216.57 333.148 216.94 344.898 204.35C345.967 203.206 346.944 201.979 347.818 200.68C355.138 189.88 352.718 182.02 350.538 163.99C350.078 159.799 348.554 155.795 346.111 152.359C343.668 148.922 340.387 146.167 336.58 144.354C332.773 142.542 328.566 141.733 324.358 142.003C320.151 142.274 316.082 143.615 312.538 145.9C297.858 155.23 298.728 176.66 304.848 195.22Z" fill="#CE7A63"/>
<path d="M324.539 171.76C322.906 171.944 321.26 171.559 319.879 170.67C319.742 170.601 319.623 170.502 319.531 170.38C319.438 170.258 319.375 170.116 319.346 169.966C319.317 169.816 319.323 169.661 319.363 169.513C319.404 169.366 319.477 169.229 319.578 169.115C319.68 169 319.806 168.91 319.947 168.852C320.089 168.793 320.242 168.768 320.395 168.779C320.547 168.789 320.696 168.834 320.828 168.91C320.961 168.987 321.074 169.093 321.159 169.22C321.939 169.91 325.439 170.22 327.339 169.01C327.549 168.939 327.776 168.94 327.986 169.012C328.195 169.084 328.374 169.224 328.496 169.41C328.617 169.595 328.673 169.815 328.656 170.036C328.638 170.257 328.548 170.466 328.399 170.63C327.229 171.329 325.901 171.718 324.539 171.76Z" fill="#263238"/>
<path d="M306.139 175C307.688 174.444 308.99 173.361 309.819 171.94C309.912 171.818 309.976 171.675 310.005 171.524C310.034 171.373 310.028 171.218 309.987 171.069C309.946 170.921 309.871 170.784 309.769 170.67C309.666 170.555 309.539 170.466 309.396 170.408C309.253 170.351 309.099 170.327 308.946 170.339C308.793 170.351 308.644 170.398 308.512 170.476C308.38 170.555 308.267 170.663 308.184 170.792C308.1 170.921 308.047 171.068 308.029 171.22C307.629 172.22 304.659 174.07 302.409 173.8C302.155 173.777 301.901 173.852 301.7 174.01C301.499 174.168 301.367 174.397 301.329 174.65C301.309 174.903 301.385 175.154 301.543 175.353C301.701 175.552 301.928 175.683 302.179 175.72C303.539 175.826 304.904 175.578 306.139 175Z" fill="#263238"/>
<path d="M316.88 197.64C316.58 197.64 316.4 197.64 316.39 197.64C316.319 197.637 316.25 197.621 316.186 197.591C316.122 197.561 316.065 197.519 316.017 197.467C315.97 197.415 315.933 197.354 315.909 197.287C315.886 197.221 315.876 197.15 315.88 197.08C315.882 197.008 315.899 196.937 315.929 196.872C315.96 196.807 316.002 196.748 316.055 196.7C316.109 196.651 316.171 196.614 316.239 196.59C316.306 196.566 316.378 196.556 316.45 196.56C316.74 196.56 323.87 196.83 324.56 188.72C324.558 188.644 324.572 188.569 324.601 188.499C324.631 188.429 324.674 188.366 324.73 188.314C324.785 188.262 324.85 188.222 324.922 188.197C324.993 188.172 325.069 188.163 325.145 188.169C325.22 188.175 325.294 188.197 325.36 188.234C325.427 188.271 325.484 188.321 325.53 188.381C325.576 188.442 325.608 188.511 325.626 188.585C325.643 188.659 325.644 188.735 325.63 188.81C325 196.68 318.7 197.55 316.88 197.64Z" fill="#263238"/>
<path d="M350.839 165.63C350.839 165.63 345.399 166.18 345.419 170.86C345.439 175.54 345.949 176.14 345.949 176.14L339.569 177.82C339.569 177.82 340.429 159.91 335.749 160.38C331.069 160.85 335.749 152.58 332.849 151.57C326.049 149.18 307.849 149.96 301.469 161.26C301.469 161.26 302.749 150.38 311.059 144.12C319.369 137.86 336.629 135.73 344.059 143.87C351.489 152.01 350.839 165.63 350.839 165.63Z" fill="#263238"/>
<path d="M360.39 174.44C359.91 178.971 357.656 183.127 354.12 186C349.4 189.78 344.68 186.13 344.01 180.44C343.42 175.31 345.15 167.17 350.84 165.61C356.53 164.05 360.92 168.85 360.39 174.42" fill="#CE7A63"/>
<path d="M325.739 177.49C325.999 178.9 325.459 180.17 324.539 180.34C323.619 180.51 322.669 179.51 322.409 178.11C322.149 176.71 322.689 175.42 323.609 175.26C324.529 175.1 325.479 176.09 325.739 177.49Z" fill="#263238"/>
<path d="M310.3 180.14C310.56 181.55 310.02 182.82 309.11 182.99C308.2 183.16 307.23 182.16 306.97 180.75C306.71 179.34 307.25 178.07 308.17 177.9C309.09 177.73 310.04 178.74 310.3 180.14Z" fill="#263238"/>
<path d="M314.8 177.18C314.8 177.18 311.19 186.98 310.97 189.43C310.82 191.11 316.12 190.82 316.12 190.82L314.8 177.18Z" fill="#BA4D3C"/>
<path d="M410.648 249.06C413.378 255.52 415.729 261.86 418.059 268.34C419.185 271.58 420.295 274.833 421.389 278.1C422.459 281.37 423.478 284.66 424.488 287.97C426.488 294.6 428.289 301.33 429.889 308.28C430.649 311.78 431.349 315.33 431.889 319.05C432.169 320.91 432.419 322.83 432.599 324.85C432.679 325.85 432.789 326.85 432.809 328V329.65C432.809 330.24 432.809 330.88 432.759 331.48V332.4V332.91C432.759 333.3 432.689 333.69 432.629 334.08C432.462 335.166 432.16 336.228 431.729 337.24C431.448 337.896 431.114 338.528 430.729 339.13C429.437 341.157 427.6 342.779 425.428 343.81C423.557 344.699 421.5 345.131 419.428 345.07C419.118 345.07 418.829 345.07 418.529 345.02H418.099L417.738 344.97L417.039 344.86L416.469 344.73C415.848 344.59 415.237 344.413 414.639 344.2C413.82 343.92 413.022 343.586 412.249 343.2C411.146 342.644 410.075 342.03 409.039 341.36C408.119 340.77 407.279 340.2 406.479 339.62C403.299 337.33 400.559 335.07 397.879 332.75C392.549 328.12 387.529 323.44 382.639 318.63C372.849 309.04 363.499 299.24 354.479 288.95L363.589 279.26L395.529 303.66C400.859 307.66 406.158 311.66 411.458 315.28C414.108 317.08 416.749 318.88 419.199 320.28C419.799 320.63 420.389 320.95 420.919 321.22C421.317 321.431 421.732 321.612 422.159 321.76C422.259 321.76 422.309 321.76 422.159 321.69C421.963 321.605 421.758 321.541 421.548 321.5L421.289 321.44L420.898 321.37L420.419 321.31C420.225 321.299 420.032 321.299 419.839 321.31C418.205 321.26 416.582 321.603 415.108 322.31C414.511 322.594 413.939 322.928 413.398 323.31C412.817 323.733 412.275 324.209 411.779 324.73C411.306 325.236 410.881 325.785 410.509 326.37C410.182 326.879 409.898 327.414 409.659 327.97C409.309 328.789 409.064 329.649 408.928 330.53C408.88 330.811 408.847 331.095 408.828 331.38V331.6V331.25L408.768 330.55L408.659 329.69C408.609 329.15 408.469 328.44 408.379 327.81C408.149 326.49 407.869 325.07 407.529 323.62C406.859 320.72 406.029 317.71 405.129 314.67C403.379 308.57 401.269 302.39 399.129 296.19C396.989 289.99 394.759 283.78 392.479 277.57L385.678 259L410.648 249.06Z" fill="#CE7A63"/>
<path d="M391.559 223.44C391.559 223.44 404.189 223.65 412.249 240.84C418.999 255.35 426.999 283.08 426.999 283.08L389.999 288.73C389.999 288.73 378.999 259.9 377.719 245.04C376.439 230.18 382.179 225 391.559 223.44Z" fill="#407BFF"/>
<path d="M329.999 290.93C322.559 299.93 314.839 308.61 306.869 317.15C302.869 321.43 298.869 325.64 294.609 329.81C293.049 331.35 291.469 332.9 289.829 334.44C289.259 334.98 288.679 335.5 288.089 336.04C286.949 337.04 285.779 338.11 284.509 339.18C283.869 339.7 283.209 340.25 282.509 340.81C281.632 341.48 280.721 342.105 279.779 342.68C278.874 343.228 277.916 343.683 276.919 344.04L276.619 344.14L276.219 344.27C275.924 344.36 275.623 344.433 275.319 344.49C274.267 344.731 273.187 344.826 272.109 344.77C271.674 344.748 271.24 344.702 270.809 344.63C270.529 344.595 270.252 344.542 269.979 344.47C269.669 344.4 269.369 344.32 269.059 344.23C267.598 343.75 266.24 342.996 265.059 342.01C264.383 341.444 263.772 340.803 263.239 340.1C262.939 339.7 262.749 339.39 262.639 339.23L262.249 338.56C261.868 337.869 261.563 337.138 261.339 336.38C261.219 336.03 261.179 335.85 261.119 335.63L260.999 335C260.919 334.58 260.899 334.35 260.849 334C260.799 333.65 260.799 333.51 260.779 333.26V332.65C260.779 331.91 260.779 331.46 260.779 331C260.779 330.14 260.899 329.53 260.969 329C261.259 326.81 261.619 325.26 261.969 323.64C262.669 320.49 263.429 317.59 264.219 314.64C265.799 308.86 267.529 303.26 269.299 297.64C272.899 286.5 276.739 275.57 281.139 264.74L290.359 268.22C289.809 279.62 289.439 292.41 289.429 306.22C298.229 299.1 312.179 288.81 321.139 281.8L329.999 290.93Z" fill="#CE7A63"/>
<path d="M305.199 225.29C301.448 227.108 298.237 229.875 295.885 233.317C293.533 236.758 292.121 240.755 291.789 244.91C290.789 257.41 289.879 273.19 289.529 291.11L267.709 281.57C267.709 281.57 274.239 267.89 284.549 246.78C292.999 229.46 304.729 225.34 305.199 225.29Z" fill="#407BFF"/>
<path d="M134.002 368.439C134.002 368.439 134.632 384.229 131.432 392.499C133.352 395.849 199.842 407.079 229.202 382.349L225.862 362.859L134.002 368.439Z" fill="#263238"/>
<path d="M249.381 438.999L229.241 380.439C229.241 380.439 201.991 400.439 133.051 386.339C133.051 386.339 119.641 407.749 117.051 427.339C116.521 431.399 116.221 435.339 116.051 439.039L249.381 438.999Z" fill="#263238"/>
<path d="M172.29 138.76C172.29 138.76 203.71 126.58 214.38 152.34C223.48 174.34 205.58 188.63 208.77 209.82C211.96 231.01 214.9 239.73 197.89 252.82C186.44 261.66 168.23 226.82 168.23 226.82L172.29 138.76Z" fill="#263238"/>
<path d="M179.86 136.73C179.86 136.73 151.4 127.92 142.21 158.15C135.05 181.68 140.88 194.94 125.35 201.83C109.82 208.72 104.35 238.77 140.26 235.31C176.17 231.85 174.69 220.16 192.94 231.2C211.19 242.24 192 135.21 179.86 136.73Z" fill="#263238"/>
<path d="M220.48 322L220.39 322.09C220.55 325.04 220.75 328.09 220.99 331.17C221.868 342.149 223.573 353.047 226.09 363.77C227.71 370.77 189.34 379.66 161.39 380.26C145.87 380.6 133.58 378.38 133.06 371.92C132.377 365.224 130.997 358.618 128.94 352.21C127.59 347.68 125.94 342.96 124.2 338.14C123.92 337.38 123.64 336.62 123.35 335.85C122.484 333.536 121.584 331.203 120.65 328.85C118.74 323.97 116.65 319.06 114.65 314.22C113.89 312.4 113.15 310.62 112.43 308.84C102.04 283.54 94.4303 262.11 103.09 247.91C104.78 245.14 107.74 242.34 111.37 239.62C125.98 228.69 151.68 219.18 151.68 219.18L176.87 219.31C176.87 219.31 187.09 223.51 195.87 227.73C206.33 232.73 213.5 238.84 216.41 246.24C217.252 248.436 217.888 250.706 218.31 253.02C218.31 253.02 227.25 277.92 231.23 290.51C233.93 299.05 231.23 306.97 227.51 313.08C225.515 316.312 223.157 319.305 220.48 322Z" fill="#407BFF"/>
<path opacity="0.2" d="M227.58 313.08C225.568 316.344 223.186 319.364 220.48 322.08L204.67 293.21L227.58 313.08Z" fill="black"/>
<path opacity="0.2" d="M168.852 297.069C157.132 317.779 144.402 337.009 128.942 352.249C127.592 347.719 125.942 342.999 124.202 338.179C123.922 337.419 123.642 336.659 123.352 335.889L168.852 297.069Z" fill="black"/>
<path d="M245.651 307.19C245.381 307.07 245.091 306.92 244.771 306.75H244.941C245.282 306.841 245.616 306.954 245.941 307.09C246.291 307.26 246.361 307.33 246.361 307.36C246.361 307.39 246.001 307.34 245.651 307.19Z" fill="#407BFF"/>
<path d="M255.481 318.26C255.481 318.58 255.481 319.1 255.391 319.51C255.242 320.722 254.932 321.909 254.471 323.04C254.341 323.34 254.141 323.78 253.931 324.16C253.721 324.54 253.491 324.93 253.251 325.3C252.677 326.133 252.005 326.895 251.251 327.57C250.521 328.245 249.712 328.829 248.841 329.31C248.084 329.722 247.286 330.057 246.461 330.31L245.891 330.48L245.411 330.59C245.091 330.66 244.771 330.72 244.411 330.77C243.887 330.841 243.36 330.884 242.831 330.9C241.597 330.923 240.365 330.774 239.171 330.46C238.538 330.296 237.916 330.089 237.311 329.84C236.59 329.554 235.888 329.22 235.211 328.84C234.337 328.328 233.493 327.767 232.681 327.16C231.991 326.64 231.371 326.16 230.791 325.66C229.631 324.66 228.601 323.76 227.591 322.82C225.591 320.97 223.781 319.07 221.981 317.2C220.181 315.33 218.451 313.44 216.771 311.52C213.371 307.7 203.621 294.24 200.441 290.18L205.661 285.12L205.231 284.53L200.931 278.59L196.681 272.59C193.891 268.59 191.041 264.54 188.441 260.5L214.451 242C217.601 246 220.451 250.12 223.271 254.28C224.661 256.37 226.071 258.45 227.441 260.56L231.441 266.94C236.721 275.53 241.801 284.26 246.441 293.53C248.933 298.372 251.16 303.346 253.111 308.43C253.371 309.18 253.631 309.85 253.901 310.66L254.301 311.9L254.501 312.55C254.621 312.92 254.751 313.34 254.881 313.84C255.053 314.481 255.184 315.132 255.271 315.79C255.346 316.277 255.392 316.768 255.411 317.26C255.481 317.58 255.491 317.92 255.481 318.26Z" fill="#407BFF"/>
<path opacity="0.2" d="M213.17 277.2L241 302C241 302 229.5 285.66 213.17 277.2Z" fill="black"/>
<path d="M167.832 235.26C168.212 235.37 168.592 235.45 168.962 235.53C175.092 236.7 179.872 230.66 177.892 224.74C177.132 222.27 177.132 219.629 177.892 217.16C178.618 214.612 179.649 212.161 180.962 209.86L178.132 205.81L163.102 187.3C162.412 198.6 159.252 214.73 149.852 219.98C149.852 219.98 151.852 226.85 163.132 233.45C164.638 234.199 166.212 234.805 167.832 235.26Z" fill="#FF8B7B"/>
<g opacity="0.2">
<path d="M177.912 217.16C178.638 214.612 179.669 212.161 180.982 209.86L178.152 205.81L168.852 203.71C168.852 203.71 171.442 213.63 177.912 217.16Z" fill="black"/>
</g>
<path d="M160.062 167.23C158.902 185.8 158.772 190.58 166.732 201.17C178.732 217.09 200.592 217.43 207.172 199.56C213.102 183.48 214.002 155.81 197.172 146.3C180.622 136.92 161.172 148.66 160.022 167.23" fill="#FF8B7B"/>
<path d="M196 144.87C196 144.87 200.8 160.119 181.59 161.679C162.38 163.239 168.14 176.469 160.93 174.899C153.72 173.329 154.93 156.72 165.93 148.23C173.61 142.35 182.74 137.78 196 144.87Z" fill="#263238"/>
<path d="M196.401 195.26C195.007 195.273 193.643 194.85 192.501 194.05C190.59 192.686 189.287 190.63 188.871 188.32C188.871 188.193 188.922 188.07 189.012 187.98C189.102 187.89 189.224 187.84 189.351 187.84C189.478 187.842 189.598 187.894 189.688 187.983C189.777 188.073 189.829 188.193 189.831 188.32C190.257 190.305 191.4 192.064 193.041 193.26C193.945 193.859 194.987 194.218 196.069 194.302C197.15 194.386 198.235 194.193 199.221 193.74C199.34 193.695 199.473 193.699 199.589 193.751C199.705 193.804 199.796 193.901 199.841 194.02C199.886 194.139 199.882 194.272 199.829 194.388C199.777 194.504 199.68 194.595 199.561 194.64C198.554 195.035 197.483 195.245 196.401 195.26Z" fill="#263238"/>
<path d="M187.21 174.46C187.03 175.96 187.67 177.27 188.65 177.4C189.63 177.53 190.58 176.4 190.76 174.9C190.94 173.4 190.3 172.08 189.32 171.96C188.34 171.84 187.39 172.96 187.21 174.46Z" fill="#263238"/>
<path d="M202.812 176.779C202.632 178.279 203.272 179.599 204.262 179.719C205.252 179.839 206.182 178.719 206.372 177.219C206.562 175.719 205.912 174.399 204.922 174.279C203.932 174.159 203.002 175.279 202.812 176.779Z" fill="#263238"/>
<path d="M204.48 174.31L208.21 173.72C208.21 173.72 206.02 176.31 204.48 174.31Z" fill="#263238"/>
<path d="M200.381 177C200.381 177 202.481 181.29 204.861 185.09C205.047 185.376 205.166 185.701 205.208 186.04C205.25 186.379 205.215 186.723 205.106 187.046C204.996 187.37 204.814 187.664 204.575 187.907C204.335 188.15 204.043 188.336 203.721 188.45C202.143 188.962 200.513 189.297 198.861 189.45L200.381 177Z" fill="#FF5652"/>
<path d="M182.87 166.219C182.967 166.148 183.077 166.098 183.195 166.072C183.312 166.047 183.433 166.046 183.55 166.069C184.641 166.307 185.772 166.283 186.851 166C187.93 165.717 188.927 165.182 189.76 164.439C189.838 164.345 189.935 164.268 190.044 164.213C190.154 164.158 190.273 164.126 190.395 164.119C190.517 164.112 190.64 164.13 190.755 164.172C190.869 164.215 190.974 164.281 191.062 164.365C191.151 164.45 191.22 164.552 191.267 164.665C191.314 164.778 191.338 164.9 191.336 165.022C191.334 165.145 191.306 165.265 191.255 165.377C191.205 165.488 191.131 165.588 191.04 165.669C190.003 166.625 188.752 167.319 187.391 167.691C186.03 168.063 184.6 168.104 183.22 167.809C182.997 167.766 182.799 167.637 182.669 167.45C182.538 167.264 182.485 167.034 182.52 166.809C182.56 166.587 182.686 166.39 182.87 166.259" fill="#263238"/>
<path d="M211.791 169.36C211.922 169.547 211.986 169.773 211.971 170C211.958 170.118 211.921 170.232 211.863 170.335C211.805 170.438 211.728 170.529 211.635 170.603C211.542 170.676 211.436 170.73 211.322 170.763C211.208 170.795 211.089 170.804 210.971 170.79C209.565 170.672 208.209 170.218 207.015 169.466C205.821 168.714 204.825 167.687 204.111 166.47C204.048 166.366 204.007 166.249 203.99 166.128C203.974 166.007 203.983 165.884 204.016 165.766C204.049 165.649 204.107 165.539 204.184 165.445C204.262 165.35 204.358 165.273 204.466 165.217C204.575 165.161 204.694 165.129 204.816 165.121C204.938 165.113 205.06 165.131 205.175 165.172C205.29 165.214 205.395 165.279 205.484 165.363C205.573 165.446 205.643 165.548 205.691 165.66C206.269 166.616 207.067 167.42 208.018 168.004C208.97 168.589 210.048 168.937 211.161 169.02C211.28 169.034 211.395 169.071 211.5 169.129C211.605 169.188 211.697 169.266 211.771 169.36" fill="#263238"/>
<path d="M188.881 171.999L192.611 171.399C192.611 171.399 190.411 173.989 188.881 171.999Z" fill="#263238"/>
<path d="M150.261 175.879C150.755 177.499 151.585 178.995 152.699 180.271C153.812 181.546 155.183 182.571 156.721 183.279C160.721 184.929 163.271 180.679 162.721 175.979C162.191 171.749 159.491 165.789 155.271 166.179C151.051 166.569 148.911 171.609 150.271 175.879" fill="#FF8B7B"/>
<path d="M173 265.23C171.26 260.88 176 256.68 180.21 258.76C181.508 259.391 182.721 260.184 183.82 261.12C181.33 259.22 177.41 256.2 178.47 254.87C180.39 252.45 193.4 260.44 199 264.62C195.24 259.92 195.85 251.9 198.07 254.96C200.62 258.55 204.25 262.74 209.51 269.28C215.34 276.48 211.36 283.63 209.51 286.28C209.072 286.908 208.543 287.468 207.94 287.94C199.11 294.78 193.27 289.09 188.07 285.16C182.87 281.23 171.84 273.16 173.07 269.77C173.55 268.48 176.91 270.77 179.07 272.33C176.647 270.461 174.635 268.112 173.16 265.43C173.102 265.368 173.048 265.301 173 265.23Z" fill="#FF8B7B"/>
<path d="M195.05 277.94C194.99 278 194.91 278.05 194.85 278.1L195.06 277.95C197.26 276.45 200.49 274.47 200.92 275.73C200.924 275.76 200.924 275.79 200.92 275.82C201.008 276.247 200.963 276.69 200.79 277.09C199.79 279.98 194.08 284.39 189.32 287.84C187.88 288.9 186.52 289.84 185.39 290.65C179.93 294.52 171.39 299.24 164.67 290.92C164.67 290.92 156.79 282.98 164.41 274.13C167.71 270.27 170.41 267.25 172.59 264.69C174 263.04 175.21 261.58 176.25 260.21C176.69 259.62 177.08 259.46 177.35 259.62C177.536 259.727 177.673 259.903 177.73 260.11C177.969 260.862 178.041 261.657 177.94 262.44C177.81 264.011 177.418 265.549 176.78 266.99C176.332 268.018 175.735 268.974 175.01 269.83L175.92 269.21L176.71 268.69C180.021 266.519 183.457 264.545 187 262.78C188.379 262.089 189.794 261.475 191.24 260.94C193.55 260.12 195.32 259.88 195.9 260.68C196.31 261.23 195.9 262.05 195.08 262.93C194.05 263.981 192.925 264.935 191.72 265.78C192.464 265.304 193.239 264.88 194.04 264.51C195.234 263.956 196.595 263.884 197.84 264.31C198.114 264.559 198.294 264.894 198.35 265.26C198.425 266.118 198.179 266.973 197.66 267.66C199.13 266.97 200.32 266.91 201.04 267.54C201.125 267.616 201.202 267.699 201.27 267.79C201.611 268.92 201.529 270.135 201.04 271.21C201.04 271.27 201.04 271.33 200.97 271.4C200.805 271.743 200.621 272.076 200.42 272.4C200.13 272.82 199.79 273.27 199.42 273.71L198.98 274.23C198.926 274.308 198.866 274.382 198.8 274.45C197.659 275.725 196.404 276.893 195.05 277.94Z" fill="#FF8B7B"/>
<g opacity="0.2">
<path d="M176.271 269.46C176.23 269.459 176.189 269.448 176.153 269.429C176.116 269.41 176.085 269.383 176.061 269.35C176.01 269.292 175.982 269.217 175.982 269.14C175.982 269.063 176.01 268.988 176.061 268.93C176.641 268.03 178.621 261.78 178.061 260.28C177.991 260.1 177.911 260.08 177.891 260.07C176.891 259.82 174.401 262.75 173.041 264.66C173.024 264.695 173 264.727 172.97 264.752C172.94 264.778 172.905 264.796 172.867 264.807C172.83 264.817 172.79 264.82 172.751 264.813C172.713 264.807 172.676 264.792 172.643 264.77C172.611 264.748 172.584 264.719 172.564 264.685C172.543 264.651 172.531 264.614 172.527 264.575C172.523 264.536 172.527 264.496 172.54 264.459C172.553 264.422 172.573 264.388 172.601 264.36C173.231 263.48 176.431 259.14 178.021 259.56C178.146 259.594 178.261 259.66 178.353 259.751C178.446 259.842 178.514 259.955 178.551 260.08C179.161 261.64 177.551 266.93 176.781 268.72C177.531 268.34 178.991 267.47 180.521 266.56C183.401 264.85 187.331 262.56 190.901 260.73C190.931 260.714 190.965 260.705 190.999 260.703C191.034 260.701 191.068 260.705 191.101 260.717C191.133 260.728 191.163 260.745 191.189 260.768C191.215 260.791 191.236 260.819 191.251 260.85C191.268 260.88 191.278 260.913 191.282 260.947C191.286 260.981 191.282 261.016 191.272 261.049C191.262 261.082 191.245 261.112 191.222 261.138C191.199 261.164 191.172 261.185 191.141 261.2C187.581 262.98 183.661 265.32 180.791 267.02C177.461 269 176.601 269.46 176.271 269.46Z" fill="black"/>
</g>
<g opacity="0.2">
<path d="M201.612 275.93C202.022 277.74 197.612 282.21 190.702 287.21L190.252 286.88C196.832 282.18 199.922 278.88 200.812 277.09C201.011 276.795 201.113 276.445 201.102 276.09C201.07 276.003 201.015 275.927 200.942 275.87L200.702 275.79C198.762 275.49 195.462 278.02 195.422 278.04C195.372 278.084 195.308 278.109 195.242 278.109C195.175 278.109 195.111 278.084 195.062 278.04C195.018 277.992 194.994 277.93 194.994 277.865C194.994 277.8 195.018 277.738 195.062 277.69C195.062 277.69 199.582 273.3 200.592 271.09C201.222 269.69 201.262 268.54 200.672 268.03C200.082 267.52 198.522 267.75 196.822 268.83L190.822 273.09C190.778 273.121 190.726 273.139 190.672 273.14C190.629 273.139 190.587 273.129 190.549 273.11C190.511 273.091 190.478 273.064 190.452 273.03C190.431 273.002 190.416 272.97 190.407 272.936C190.399 272.902 190.397 272.867 190.403 272.832C190.409 272.797 190.421 272.764 190.44 272.735C190.458 272.705 190.483 272.68 190.512 272.66L196.562 268.39C196.792 268.11 198.072 266.6 197.842 265.45C197.791 265.224 197.684 265.015 197.533 264.84C197.381 264.666 197.188 264.532 196.972 264.45C195.722 263.85 193.132 265.18 191.092 266.45C190.312 267.04 189.512 267.61 188.792 268.11C188.735 268.147 188.667 268.161 188.6 268.15C188.533 268.139 188.473 268.103 188.432 268.05C188.385 268.001 188.359 267.937 188.359 267.87C188.359 267.803 188.385 267.738 188.432 267.69C189.179 267.093 189.957 266.536 190.762 266.02C192.762 264.5 194.692 263.02 194.762 263.02C194.784 262.997 194.811 262.98 194.84 262.968C194.869 262.955 194.9 262.949 194.932 262.949C194.963 262.949 194.995 262.955 195.024 262.968C195.053 262.98 195.079 262.997 195.102 263.02C195.128 263.043 195.148 263.072 195.162 263.104C195.176 263.136 195.184 263.17 195.184 263.205C195.184 263.24 195.176 263.274 195.162 263.306C195.148 263.338 195.128 263.366 195.102 263.39C195.102 263.39 194.632 263.78 193.932 264.32C194.428 264.043 194.975 263.867 195.54 263.804C196.104 263.74 196.676 263.79 197.222 263.95C197.461 264.056 197.68 264.202 197.872 264.38C198.145 264.629 198.325 264.964 198.382 265.33C198.457 266.188 198.211 267.043 197.692 267.73C199.162 267.04 200.352 266.98 201.072 267.61C201.156 267.686 201.233 267.769 201.302 267.86C201.862 268.59 201.802 269.81 201.132 271.29C200.935 271.69 200.707 272.074 200.452 272.44C200.162 272.86 199.822 273.31 199.452 273.75L199.012 274.27C198.958 274.348 198.898 274.422 198.832 274.49C198.292 275.12 197.722 275.75 197.202 276.29C198.281 275.6 199.542 275.252 200.822 275.29C201.001 275.31 201.171 275.38 201.311 275.494C201.451 275.607 201.555 275.759 201.612 275.93Z" fill="black"/>
</g>
<path d="M171.161 296.86C161.871 308.22 152.161 318.94 141.741 329.39C136.551 334.63 131.171 339.7 125.331 344.7C122.259 347.347 119.037 349.814 115.681 352.09C113.583 353.517 111.365 354.758 109.051 355.8C108.311 356.12 107.511 356.43 106.561 356.74C105.381 357.119 104.17 357.39 102.941 357.55C100.779 357.839 98.5821 357.706 96.4709 357.16C95.6878 356.958 94.922 356.693 94.1809 356.37C93.3193 355.992 92.4956 355.533 91.7209 355L91.1209 354.59L90.8309 354.37C90.6209 354.21 90.2809 353.92 90.0209 353.69C89.4734 353.197 88.9652 352.662 88.5009 352.09C88.1785 351.696 87.8781 351.286 87.6009 350.86C86.8935 349.775 86.3257 348.606 85.9109 347.38L85.7309 346.79L85.5909 346.31L85.4709 345.82L85.3809 345.45L85.2409 344.74L85.1509 344.15L85.0309 343.15L84.9609 342.35C84.8909 341.35 84.8809 340.6 84.8809 339.91C84.8809 338.54 84.9509 337.39 85.0209 336.3C85.1609 334.12 85.3509 332.15 85.5609 330.21C85.9909 326.34 86.4909 322.65 87.0309 318.97C88.2009 311.66 89.4009 304.46 90.8209 297.32C93.5809 283 96.6709 269 100.401 254.89L130.351 262.13C127.351 276.01 124.031 289.95 120.761 303.76C119.561 309 118.281 314.22 117.101 319.4C120.311 317.08 123.531 314.67 126.751 312.26C138.001 303.75 149.201 294.79 160.431 286L171.161 296.86Z" fill="#407BFF"/>
<path opacity="0.2" d="M128 269.35L118.9 318.08L156.9 289.08C156.9 289.08 128.55 309.08 124.66 308.52C122.18 308.17 128 269.35 128 269.35Z" fill="black"/>
</g>
<defs>
<clipPath id="clip0_544_825">
<rect width="500" height="500" fill="white"/>
</clipPath>
</defs>
</svg>
