<svg width="500" height="500" viewBox="0 0 500 500" fill="none" xmlns="http://www.w3.org/2000/svg">
<g clip-path="url(#clip0_544_1126)">
<path d="M445.794 327.227H265.048C261.816 327.227 259.186 324.597 259.186 321.365V58.0915C259.186 54.8595 261.816 52.2295 265.048 52.2295H445.794C449.026 52.2295 451.656 54.8585 451.656 58.0915V321.364C451.656 324.597 449.026 327.226 445.794 327.226V327.227ZM265.048 52.4795C261.953 52.4795 259.436 54.9975 259.436 58.0915V321.364C259.436 324.459 261.954 326.976 265.048 326.976H445.794C448.889 326.976 451.406 324.459 451.406 321.364V58.0915C451.406 54.9975 448.888 52.4795 445.794 52.4795H265.048Z" fill="#E0E0E0"/>
<path d="M237.365 327.227H56.6179C53.3859 327.227 50.7559 324.597 50.7559 321.365V58.0915C50.7559 54.8595 53.3849 52.2295 56.6179 52.2295H237.365C240.597 52.2295 243.227 54.8585 243.227 58.0915V321.364C243.227 324.597 240.597 327.226 237.365 327.226V327.227ZM56.6179 52.4795C53.5239 52.4795 51.0059 54.9975 51.0059 58.0915V321.364C51.0059 324.459 53.5239 326.976 56.6179 326.976H237.365C240.46 326.976 242.977 324.459 242.977 321.364V58.0915C242.977 54.9975 240.459 52.4795 237.365 52.4795H56.6179Z" fill="#E0E0E0"/>
<path d="M501.871 388.297H1.87109V388.547H501.871V388.297Z" fill="#E0E0E0"/>
<path d="M69.6049 402.562H53.5449V402.812H69.6049V402.562Z" fill="#E0E0E0"/>
<path d="M225.755 399.852H172.225V400.102H225.755V399.852Z" fill="#E0E0E0"/>
<path d="M106.854 411.852H70.6035V412.102H106.854V411.852Z" fill="#E0E0E0"/>
<path d="M423.415 399.722H380.225V399.972H423.415V399.722Z" fill="#E0E0E0"/>
<path d="M438.654 399.722H432.324V399.972H438.654V399.722Z" fill="#E0E0E0"/>
<path d="M371.974 405.951H318.084V406.201H371.974V405.951Z" fill="#E0E0E0"/>
<path d="M343.431 235.618H400.395V139.717H343.431V235.618Z" fill="#E6E6E6"/>
<path d="M336.94 235.618H398.846V139.717H336.94V235.618Z" fill="#F0F0F0"/>
<path d="M393.658 230.869V144.466H342.124V230.869H393.658Z" fill="white"/>
<path d="M380.433 165.63H355.35C355.075 165.63 354.852 166.007 354.852 166.471V208.865C354.852 209.33 355.075 209.706 355.35 209.706H380.433C380.708 209.706 380.931 209.329 380.931 208.865V166.471C380.931 166.007 380.708 165.63 380.433 165.63ZM355.847 208.023V167.312L379.935 208.023H355.847Z" fill="#F0F0F0"/>
<path d="M99.0928 92.5126L64.0123 99.4148C62.1092 99.7892 60.87 101.636 61.2444 103.539L70.4986 150.573C70.873 152.476 72.7194 153.715 74.6225 153.341L109.703 146.439C111.606 146.064 112.845 144.218 112.471 142.315L103.217 95.2805C102.842 93.3773 100.996 92.1381 99.0928 92.5126Z" fill="#E6E6E6"/>
<path d="M72.3842 109.969L95.342 105.452C96.3026 105.263 97.2361 105.889 97.4251 106.85L97.4446 106.949C97.6338 107.911 97.0073 108.844 96.0457 109.033L73.0879 113.55C72.1273 113.739 71.1937 113.113 71.0047 112.152L70.9852 112.053C70.7962 111.093 71.4228 110.159 72.3834 109.97L72.3842 109.969Z" fill="#F0F0F0"/>
<path d="M74.1859 119.129L97.1438 114.612C98.1054 114.423 99.0389 115.05 99.2281 116.011L99.2474 116.109C99.4364 117.07 98.81 118.004 97.8484 118.193L74.8916 122.71C73.93 122.9 72.9965 122.273 72.8073 121.311L72.7878 121.212C72.5988 120.252 73.2254 119.318 74.1859 119.129Z" fill="#F0F0F0"/>
<path d="M75.9897 128.291L98.9485 123.774C99.9091 123.585 100.843 124.211 101.032 125.172L101.051 125.271C101.24 126.233 100.614 127.166 99.6521 127.355L76.6953 131.872C75.7337 132.061 74.799 131.434 74.6098 130.473L74.5903 130.373C74.4013 129.413 75.0281 128.48 75.9877 128.292L75.9897 128.291Z" fill="#F0F0F0"/>
<path d="M77.7916 137.452L88.2422 135.396C89.2038 135.207 90.1375 135.835 90.3265 136.795L90.346 136.894C90.535 137.855 89.9083 138.787 88.9487 138.976L78.498 141.032C77.5364 141.222 76.6018 140.594 76.4126 139.633L76.3931 139.534C76.2041 138.573 76.8308 137.64 77.7904 137.452L77.7916 137.452Z" fill="#F0F0F0"/>
<path d="M185.145 228.045C183.119 231.13 181.757 234.518 181.031 238.013L175.465 238.537V249.317L181.031 249.841C181.756 253.335 183.119 256.723 185.144 259.809L181.589 264.103L189.211 271.725L193.505 268.17C196.59 270.196 199.978 271.558 203.472 272.283L203.996 277.85H214.775L215.299 272.284C218.794 271.558 222.182 270.196 225.267 268.17L229.561 271.725L237.184 264.103L233.629 259.809C235.654 256.724 237.017 253.336 237.742 249.841L243.308 249.317V238.537L237.743 238.012C237.018 234.518 235.655 231.13 233.629 228.045L237.184 223.751L229.562 216.129L225.268 219.684C222.182 217.658 218.794 216.295 215.3 215.57L214.776 210.004H203.996L203.472 215.571C199.978 216.297 196.59 217.659 193.505 219.684L189.211 216.129L181.589 223.752L185.144 228.046L185.145 228.045ZM219.707 233.608C225.405 239.307 225.406 248.547 219.707 254.245C214.008 259.944 204.768 259.944 199.069 254.245C193.37 248.546 193.371 239.307 199.069 233.608C204.768 227.91 214.008 227.91 219.707 233.608Z" fill="#EBEBEB"/>
<path d="M166.649 286.97C165.54 288.658 164.795 290.513 164.397 292.426L161.35 292.713V298.613L164.397 298.9C164.794 300.813 165.54 302.667 166.649 304.356L164.703 306.706L168.875 310.878L171.225 308.932C172.914 310.041 174.768 310.786 176.681 311.183L176.968 314.23H182.868L183.155 311.183C185.068 310.786 186.922 310.04 188.611 308.931L190.961 310.877L195.133 306.705L193.187 304.354C194.295 302.665 195.041 300.811 195.438 298.898L198.484 298.611V292.711L195.438 292.424C195.041 290.511 194.295 288.657 193.186 286.968L195.132 284.617L190.96 280.445L188.61 282.391C186.921 281.282 185.067 280.536 183.154 280.139L182.867 277.092H176.967L176.68 280.139C174.767 280.536 172.913 281.282 171.224 282.391L168.873 280.445L164.701 284.617L166.647 286.968L166.649 286.97ZM185.567 290.015C188.686 293.134 188.686 298.192 185.567 301.311C182.448 304.431 177.39 304.43 174.271 301.311C171.152 298.192 171.152 293.134 174.271 290.015C177.39 286.896 182.448 286.896 185.567 290.015Z" fill="#F5F5F5"/>
<path d="M412.539 319.14C410.513 322.225 409.151 325.613 408.425 329.108L402.859 329.632V340.412L408.425 340.936C409.15 344.43 410.513 347.818 412.538 350.904L408.983 355.198L416.605 362.82L420.899 359.265C423.984 361.29 427.372 362.653 430.866 363.378L431.39 368.945H442.169L442.693 363.379C446.188 362.653 449.576 361.291 452.661 359.265L456.955 362.82L464.578 355.198L461.023 350.904C463.048 347.819 464.411 344.431 465.136 340.936L470.702 340.412V329.632L465.137 329.107C464.412 325.613 463.049 322.225 461.023 319.14L464.578 314.846L456.956 307.224L452.662 310.779C449.576 308.754 446.188 307.39 442.695 306.665L442.171 301.098H431.391L430.867 306.665C427.373 307.391 423.985 308.753 420.9 310.778L416.606 307.223L408.984 314.846L412.539 319.14ZM447.101 324.703C452.799 330.402 452.8 339.642 447.101 345.34C441.402 351.039 432.162 351.039 426.463 345.34C420.764 339.641 420.765 330.402 426.463 324.703C432.162 319.005 441.402 319.004 447.101 324.703Z" fill="#EBEBEB"/>
<path d="M374.604 78.1777C372.578 81.2627 371.216 84.6507 370.49 88.1457L364.924 88.6697V99.4497L370.49 99.9737C371.215 103.468 372.578 106.856 374.604 109.942L371.049 114.236L378.671 121.858L382.965 118.303C386.05 120.328 389.438 121.691 392.932 122.416L393.456 127.983H404.235L404.759 122.417C408.254 121.691 411.642 120.329 414.727 118.303L419.021 121.858L426.644 114.236L423.089 109.942C425.114 106.857 426.477 103.469 427.202 99.9747L432.768 99.4507V88.6707L427.203 88.1457C426.478 84.6517 425.115 81.2637 423.089 78.1787L426.644 73.8847L419.022 66.2627L414.728 69.8177C411.642 67.7917 408.254 66.4287 404.761 65.7037L404.236 60.1377H393.456L392.932 65.7047C389.438 66.4307 386.05 67.7927 382.965 69.8177L378.671 66.2627L371.049 73.8857L374.604 78.1797V78.1777ZM409.166 83.7407C414.864 89.4397 414.865 98.6797 409.166 104.378C403.467 110.077 394.227 110.077 388.528 104.378C382.829 98.6787 382.83 89.4397 388.528 83.7407C394.227 78.0427 403.467 78.0427 409.166 83.7407Z" fill="#F5F5F5"/>
<path d="M325.826 53.6818C324.464 55.7558 323.548 58.0338 323.06 60.3828L319.318 60.7348V67.9818L323.06 68.3338C323.547 70.6828 324.463 72.9608 325.825 75.0348L323.435 77.9218L328.56 83.0468L331.447 80.6568C333.521 82.0188 335.799 82.9348 338.148 83.4218L338.5 87.1648H345.747L346.1 83.4228C348.449 82.9348 350.727 82.0188 352.802 80.6568L355.689 83.0468L360.814 77.9218L358.424 75.0348C359.786 72.9608 360.702 70.6828 361.189 68.3338L364.931 67.9818V60.7348L361.189 60.3818C360.701 58.0328 359.785 55.7548 358.423 53.6808L360.813 50.7938L355.688 45.6698L352.801 48.0598C350.727 46.6978 348.449 45.7818 346.1 45.2938L345.747 41.5518H338.5L338.148 45.2948C335.799 45.7828 333.521 46.6978 331.447 48.0598L328.56 45.6698L323.435 50.7948L325.825 53.6818H325.826ZM349.062 57.4218C352.893 61.2528 352.893 67.4648 349.062 71.2958C345.231 75.1278 339.019 75.1268 335.187 71.2958C331.355 67.4648 331.356 61.2528 335.187 57.4208C339.018 53.5898 345.23 53.5898 349.061 57.4208L349.062 57.4218Z" fill="#F5F5F5"/>
<path d="M308.663 102.478C307.663 104 306.991 105.672 306.633 107.396L303.887 107.655V112.974L306.633 113.233C306.991 114.957 307.663 116.629 308.663 118.151L306.909 120.27L310.67 124.031L312.789 122.277C314.311 123.276 315.983 123.949 317.707 124.306L317.965 127.053H323.284L323.543 124.307C325.267 123.949 326.939 123.277 328.461 122.277L330.58 124.031L334.341 120.27L332.587 118.151C333.586 116.629 334.258 114.957 334.616 113.233L337.362 112.974V107.655L334.616 107.396C334.258 105.672 333.586 104 332.586 102.478L334.34 100.359L330.579 96.5982L328.46 98.3522C326.938 97.3532 325.266 96.6802 323.542 96.3222L323.283 93.5752H317.964L317.706 96.3222C315.982 96.6802 314.31 97.3522 312.788 98.3522L310.669 96.5982L306.908 100.359L308.662 102.478H308.663ZM325.716 105.223C328.527 108.035 328.528 112.594 325.716 115.405C322.904 118.216 318.345 118.217 315.533 115.405C312.721 112.593 312.721 108.035 315.533 105.222C318.345 102.411 322.903 102.41 325.715 105.222L325.716 105.223Z" fill="#F5F5F5"/>
<path d="M51.0003 291.013C48.9743 294.098 47.6123 297.486 46.8863 300.981L41.3203 301.505V312.285L46.8863 312.809C47.6113 316.303 48.9743 319.691 50.9993 322.777L47.4443 327.071L55.0663 334.693L59.3603 331.138C62.4453 333.163 65.8333 334.526 69.3273 335.251L69.8513 340.818H80.6303L81.1553 335.252C84.6503 334.526 88.0383 333.164 91.1233 331.138L95.4173 334.693L103.04 327.071L99.4853 322.777C101.51 319.692 102.873 316.304 103.598 312.809L109.164 312.285V301.505L103.599 300.98C102.874 297.486 101.511 294.098 99.4853 291.013L103.04 286.719L95.4183 279.097L91.1243 282.652C88.0383 280.627 84.6503 279.263 81.1563 278.538L80.6323 272.971H69.8523L69.3283 278.538C65.8343 279.264 62.4463 280.626 59.3613 282.651L55.0673 279.096L47.4453 286.719L51.0003 291.013ZM85.5623 296.576C91.2603 302.275 91.2613 311.515 85.5623 317.213C79.8633 322.912 70.6233 322.912 64.9243 317.213C59.2253 311.514 59.2263 302.275 64.9243 296.575C70.6233 290.877 79.8623 290.876 85.5613 296.575L85.5623 296.576Z" fill="#E0E0E0"/>
<path d="M373.584 360.796C372.339 362.692 371.501 364.775 371.055 366.923L367.633 367.245V373.871L371.055 374.193C371.501 376.341 372.338 378.423 373.584 380.32L371.398 382.959L376.084 387.645L378.724 385.46C380.62 386.705 382.703 387.543 384.851 387.988L385.173 391.41H391.799L392.121 387.989C394.269 387.543 396.352 386.705 398.248 385.46L400.887 387.645L405.573 382.959L403.388 380.319C404.633 378.423 405.47 376.34 405.916 374.192L409.337 373.87V367.244L405.916 366.921C405.47 364.773 404.632 362.691 403.387 360.794L405.572 358.154L400.886 353.469L398.247 355.654C396.35 354.409 394.268 353.571 392.12 353.125L391.798 349.703H385.172L384.85 353.125C382.702 353.571 380.62 354.408 378.723 355.654L376.083 353.469L371.397 358.155L373.583 360.794L373.584 360.796ZM394.829 364.216C398.331 367.719 398.332 373.399 394.829 376.902C391.326 380.405 385.646 380.405 382.143 376.902C378.64 373.399 378.64 367.72 382.143 364.216C385.646 360.713 391.325 360.713 394.829 364.216Z" fill="#E0E0E0"/>
<path d="M458.457 240.376L436.671 237.775C434.745 237.545 432.997 238.92 432.767 240.846L429.188 270.823C428.958 272.749 430.333 274.496 432.259 274.726L454.045 277.328C455.971 277.558 457.719 276.183 457.949 274.257L461.528 244.28C461.758 242.354 460.383 240.606 458.457 240.376Z" fill="#E6E6E6"/>
<path d="M454.143 250.509L438.479 248.639C437.801 248.558 437.318 247.943 437.399 247.266C437.48 246.588 438.095 246.105 438.772 246.185L454.436 248.055C455.114 248.136 455.597 248.751 455.516 249.428C455.435 250.106 454.82 250.589 454.143 250.509Z" fill="#F0F0F0"/>
<path d="M453.393 256.787L437.729 254.917C437.051 254.836 436.568 254.221 436.649 253.544C436.73 252.866 437.345 252.383 438.022 252.463L453.686 254.333C454.364 254.414 454.847 255.029 454.766 255.706C454.685 256.383 454.07 256.868 453.393 256.787Z" fill="#F0F0F0"/>
<path d="M452.645 263.064L436.981 261.194C436.303 261.113 435.82 260.498 435.901 259.821C435.982 259.143 436.597 258.66 437.274 258.741L452.938 260.611C453.616 260.692 454.099 261.307 454.018 261.984C453.937 262.662 453.322 263.145 452.645 263.064Z" fill="#F0F0F0"/>
<path d="M443.324 268.318L436.231 267.471C435.553 267.39 435.07 266.775 435.151 266.098C435.232 265.42 435.847 264.937 436.524 265.017L443.617 265.864C444.295 265.945 444.778 266.56 444.697 267.237C444.616 267.915 444.001 268.398 443.324 268.317V268.318Z" fill="#F0F0F0"/>
<path d="M458.875 454.394C458.875 457.781 365.358 460.526 250 460.526C134.642 460.526 41.125 457.781 41.125 454.394C41.125 451.007 134.641 448.262 250 448.262C365.359 448.262 458.875 451.008 458.875 454.394Z" fill="#F5F5F5"/>
<path d="M199.379 439.321L198.394 447.628V447.63L198.33 448.169C198.144 449.732 196.819 450.909 195.245 450.909H174.503C172.925 450.909 171.597 449.726 171.417 448.157L171.338 447.474L171.267 446.861L171.021 444.721L170.945 444.073L170.897 443.649L170.833 443.098L170.263 438.151L170.201 437.61L169.075 427.827V427.825L169.009 427.262L168.482 422.69C168.482 421.072 201.351 421.072 201.351 422.69L200.965 425.939L200.903 426.466L200.195 432.429L200.133 432.946L199.672 436.838L199.607 437.396L199.435 438.846L199.378 439.319L199.379 439.321Z" fill="#263238"/>
<path d="M170.115 423.316C170.115 423.744 176.828 424.091 185.109 424.091C193.39 424.091 200.103 423.744 200.103 423.316C200.103 422.888 193.39 422.541 185.109 422.541C176.828 422.541 170.115 422.888 170.115 423.316Z" fill="black"/>
<path d="M184.112 410.677C184.112 410.677 188.722 411.399 194.926 404.015L190.723 404.399L196.824 401.522C203.237 391.898 201.935 375.337 201.935 375.337C201.935 375.337 197.212 379.277 192.812 385.671L191.719 391.607L191.151 388.244C187.776 393.82 183.698 402.977 184.113 410.677H184.112Z" fill="#407BFF"/>
<path d="M183.581 395.953C183.581 395.953 178.928 395.603 174.575 386.997L178.579 388.331L173.297 384.136C169.253 373.301 174.305 357.476 174.305 357.476C174.305 357.476 178.003 362.391 180.825 369.621L180.533 375.65L181.855 372.506C183.867 378.706 185.744 388.552 183.58 395.954L183.581 395.953Z" fill="#407BFF"/>
<path d="M184.546 418.515C184.546 418.515 180.017 419.637 173.191 412.823L177.412 412.838L171.083 410.504C163.854 401.476 163.705 384.866 163.705 384.866C163.705 384.866 168.754 388.378 173.696 394.363L175.303 400.18L175.575 396.78C179.424 402.04 184.286 410.805 184.545 418.513L184.546 418.515Z" fill="#407BFF"/>
<path d="M185.74 423.473H184.385C182.192 407.891 183.562 394.685 185.136 386.239C186.905 376.749 189.241 371.198 189.339 370.967C189.484 370.626 189.879 370.467 190.22 370.612C190.561 370.757 190.72 371.151 190.575 371.493C190.551 371.549 188.198 377.139 186.456 386.485C184.894 394.866 183.536 407.989 185.741 423.473H185.74Z" fill="#263238"/>
<path d="M188.371 378.676C188.371 378.676 184.597 375.932 185.42 366.322L188.124 369.563L185.837 363.217C188.094 351.874 200.712 341.07 200.712 341.07C200.712 341.07 201.273 347.195 199.872 354.829L196.454 359.803L199.231 357.823C197.682 364.154 194.102 373.516 188.369 378.675L188.371 378.676Z" fill="#407BFF"/>
<path d="M290.806 213.582C297.298 206.923 307.959 206.787 314.618 213.279C321.277 219.771 321.413 230.432 314.921 237.092C309.909 242.233 302.418 243.469 296.196 240.786L291.609 242.916L291.318 237.58C291.25 237.516 291.176 237.461 291.108 237.395C284.449 230.903 284.313 220.242 290.805 213.583L290.806 213.582Z" fill="#407BFF"/>
<path d="M313.607 209.786C313.553 209.786 313.5 209.769 313.454 209.734C309.208 206.446 303.196 205.492 298.141 207.302C298.014 207.347 297.868 207.281 297.822 207.151C297.775 207.021 297.843 206.878 297.973 206.831C303.183 204.965 309.382 205.948 313.761 209.338C313.87 209.422 313.89 209.58 313.805 209.689C313.756 209.753 313.682 209.786 313.608 209.786H313.607Z" fill="#407BFF"/>
<path d="M293.511 209.386C293.439 209.386 293.366 209.354 293.317 209.294C293.23 209.187 293.247 209.029 293.354 208.942C294.025 208.397 294.821 207.986 295.656 207.755C295.793 207.716 295.927 207.797 295.964 207.929C296 208.062 295.923 208.2 295.789 208.237C295.02 208.45 294.287 208.828 293.669 209.33C293.623 209.368 293.567 209.386 293.512 209.386H293.511Z" fill="#407BFF"/>
<path d="M302.551 233.439C301.918 233.439 301.389 233.235 300.965 232.825C300.541 232.416 300.328 231.918 300.328 231.331C300.328 230.744 300.536 230.254 300.953 229.861C301.37 229.467 301.903 229.27 302.551 229.27C303.199 229.27 303.732 229.467 304.149 229.861C304.566 230.255 304.774 230.745 304.774 231.331C304.774 231.917 304.562 232.416 304.137 232.825C303.713 233.234 303.184 233.439 302.551 233.439ZM303.987 227.626H301.115L300.397 217.043H304.704L303.986 227.626H303.987Z" fill="white"/>
<path d="M242.275 315.84C242.275 315.84 244.861 367.7 256.03 376.628H244.085C244.085 376.628 233.433 358.961 232.639 315.84H242.275Z" fill="#263238"/>
<path d="M237.831 372.33H290.794C293.274 372.33 295.287 374.343 295.287 376.823V380.925H233.338V376.823C233.338 374.343 235.351 372.33 237.831 372.33Z" fill="#407BFF"/>
<path d="M235.492 435.111L259.373 433.029V401.666H267.77V433.021L291.736 435.111C293.847 435.319 295.457 437.094 295.457 439.216V442.397H231.771V439.216C231.771 437.095 233.381 435.319 235.492 435.111Z" fill="#263238"/>
<path d="M287.727 446.343C287.727 449.374 290.184 451.832 293.216 451.832C296.248 451.832 298.705 449.375 298.705 446.343C298.705 443.311 296.247 440.854 293.216 440.854C290.185 440.854 287.727 443.312 287.727 446.343Z" fill="#263238"/>
<path d="M239.503 446.343C239.503 449.374 237.046 451.832 234.014 451.832C230.982 451.832 228.525 449.375 228.525 446.343C228.525 443.311 230.983 440.854 234.014 440.854C237.045 440.854 239.503 443.312 239.503 446.343Z" fill="#263238"/>
<path d="M265.501 404.577H261.642C259.592 404.577 257.928 402.913 257.928 400.863V377.881H269.215V400.863C269.215 402.913 267.551 404.577 265.501 404.577Z" fill="#263238"/>
<path d="M295.838 376.627H232.789C231.791 376.627 230.982 377.436 230.982 378.434V379.117C230.982 380.115 231.791 380.924 232.789 380.924H295.838C296.836 380.924 297.645 380.115 297.645 379.117V378.434C297.645 377.436 296.836 376.627 295.838 376.627Z" fill="#263238"/>
<path d="M227.075 327.193H246.21C251.816 327.193 255.864 322.156 255.252 315.943L254.435 307.649C253.823 301.436 248.783 296.399 243.178 296.399H224.043C218.437 296.399 214.389 301.436 215.001 307.649L215.817 315.943C216.429 322.156 221.469 327.193 227.075 327.193Z" fill="#407BFF"/>
<path opacity="0.2" d="M231.152 296.398L237.311 327.193H243.126L238.476 296.398H231.152Z" fill="black"/>
<path opacity="0.2" d="M233.098 327.193L233.364 330.904H243.49L243.127 327.193H233.098Z" fill="black"/>
<path d="M275.689 291.467C275.91 292.017 282.228 323.702 288.105 325.658C293.982 327.614 316.352 326.334 316.352 326.334L317.421 320.156L296.042 314.053L290.316 289.095L275.688 291.467H275.689Z" fill="#FAAC6D"/>
<path d="M277.027 273.638C277.027 273.638 285.366 274.043 287.751 280.632C289.859 286.458 296.042 303.582 296.042 303.582L282.437 307.569L277.027 273.637V273.638Z" fill="#407BFF"/>
<path d="M317.422 320.156L323.831 319.748C324.538 319.703 325.238 319.915 325.801 320.346L332.814 325.709C332.814 325.709 332.149 326.603 331.039 326.243L332.222 327.737C332.222 327.737 331.29 328.634 330.094 327.76C328.897 326.887 326.407 325.708 326.407 325.708L329.412 329.044C329.412 329.044 329.342 330.144 327.821 329.522C326.299 328.9 323.712 326.287 323.712 326.287C323.712 326.287 317.225 327.662 315.783 326.863C314.341 326.063 313.523 322.135 313.523 322.135L317.422 320.156Z" fill="#FAAC6D"/>
<path opacity="0.3" d="M317.852 325.603C316.648 325.603 315.761 325.325 315.21 324.771C314.588 324.146 314.643 323.407 314.645 323.375C314.651 323.31 314.706 323.261 314.77 323.261H314.78C314.849 323.267 314.9 323.327 314.895 323.396C314.895 323.403 314.849 324.058 315.392 324.599C315.996 325.2 317.064 325.447 318.559 325.323C320.755 325.145 321.588 324.83 322.197 324.599C322.704 324.407 323.067 324.263 323.91 324.307C324.234 324.323 324.583 324.347 324.937 324.371C326.247 324.461 327.731 324.564 328.133 324.207C328.192 324.155 328.221 324.098 328.224 324.026C328.26 323.271 328.28 322.855 325.421 322.459C322.547 322.06 319.913 321.734 319.887 321.731C319.819 321.722 319.77 321.661 319.779 321.591C319.788 321.524 319.838 321.468 319.919 321.483C319.945 321.486 322.58 321.811 325.457 322.211C328.409 322.621 328.519 323.094 328.475 324.038C328.468 324.178 328.41 324.297 328.3 324.393C327.82 324.82 326.345 324.718 324.921 324.62C324.568 324.596 324.221 324.571 323.899 324.557C323.112 324.513 322.784 324.644 322.286 324.832C321.665 325.068 320.812 325.391 318.58 325.572C318.326 325.593 318.084 325.602 317.853 325.602L317.852 325.603Z" fill="black"/>
<path opacity="0.3" d="M287.417 306.111C287.417 306.111 284.783 289.21 284.783 289.624C284.783 290.038 290.177 305.302 290.182 305.3C290.187 305.298 287.416 306.111 287.416 306.111H287.417Z" fill="black"/>
<path opacity="0.3" d="M274.271 315.848L292.523 319.121C292.523 319.121 301.1 318.437 302.606 319.121C304.112 319.805 311.921 326.74 311.778 326.542L308.229 326.656C301.731 326.956 292.33 326.534 292.157 326.603C291.929 326.694 274.27 315.653 274.27 315.653" fill="black"/>
<path d="M331.113 422.448L337.381 442.856L346.674 442.05L343.088 419.121L331.113 422.448Z" fill="#FAAC6D"/>
<path d="M338.995 440.103C340.231 441.249 341.826 441.294 343.036 440.349L343.288 438.632C343.507 437.154 344.382 436.212 345.972 436.414C346.751 436.512 347.817 437.375 348.462 438.788C349.618 441.322 351.417 442.419 351.417 442.419C351.417 442.419 358.511 445.946 361.056 446.726C362.575 447.191 364.605 447.893 365.694 449.519C366.005 449.984 366.285 450.534 366.529 451.184C366.729 451.717 366.724 452.923 366.724 452.949L348.746 452.94C348.746 452.94 346.912 451.87 346.133 451.898C344.747 451.948 344.126 453.155 344.126 453.155L337.589 453.201C337.589 453.201 337.463 452.192 337.283 450.724H337.281C337.2 450.062 337.108 449.308 337.009 448.511C336.588 445.093 335.926 440.785 335.815 439.817C335.62 438.121 338.995 440.102 338.995 440.102V440.103Z" fill="#263238"/>
<path d="M355.239 444.155C355.158 444.082 355.034 444.075 354.94 444.134C354.512 444.403 354.153 444.781 353.912 445.253C353.784 445.502 354.176 445.739 354.304 445.487C354.519 445.067 354.832 444.733 355.206 444.497C355.331 444.418 355.35 444.255 355.242 444.158L355.239 444.155Z" fill="#407BFF"/>
<path d="M353.852 443.408C353.771 443.335 353.647 443.328 353.553 443.387C353.125 443.656 352.767 444.034 352.525 444.506C352.398 444.755 352.789 444.992 352.918 444.74C353.133 444.32 353.446 443.986 353.82 443.75C353.945 443.671 353.964 443.508 353.856 443.41L353.853 443.407L353.852 443.408Z" fill="#407BFF"/>
<path d="M352.422 442.712C352.341 442.639 352.217 442.632 352.123 442.691C351.695 442.96 351.337 443.338 351.095 443.81C350.968 444.059 351.359 444.296 351.488 444.044C351.703 443.624 352.016 443.29 352.39 443.055C352.515 442.976 352.534 442.813 352.426 442.715L352.422 442.712Z" fill="#407BFF"/>
<path opacity="0.2" d="M366.167 450.409C366.294 450.667 366.415 450.939 366.527 451.237C366.727 451.771 366.722 452.976 366.722 453.002L348.744 452.993C348.744 452.993 346.91 451.923 346.131 451.951C344.745 452.001 344.124 453.208 344.124 453.208L337.587 453.254C337.587 453.254 337.461 452.245 337.281 450.777H337.279L337.234 450.408H366.167V450.409Z" fill="white"/>
<path d="M352.152 443.166L352.131 442.931C352.077 442.314 352.022 441.676 352.079 441.035C352.143 440.308 352.35 439.695 352.69 439.214C352.854 438.984 353.119 438.715 353.464 438.715C353.478 438.715 353.491 438.715 353.506 438.715C353.881 438.738 354.137 439.077 354.25 439.387C354.452 439.933 354.399 440.592 354.104 441.197C353.817 441.783 352.676 442.739 352.333 443.017L352.15 443.166H352.152ZM353.466 438.964C353.212 438.964 352.999 439.208 352.893 439.358C352.579 439.803 352.388 440.375 352.327 441.056C352.279 441.596 352.314 442.141 352.359 442.672C353 442.136 353.689 441.478 353.88 441.087C354.145 440.544 354.194 439.955 354.016 439.473C353.933 439.248 353.746 438.981 353.491 438.965H353.467L353.466 438.964Z" fill="#407BFF"/>
<path d="M352.386 443.084L352.157 443.043C351.723 442.959 350.269 442.654 349.737 442.27C349.193 441.876 348.837 441.32 348.757 440.741C348.712 440.415 348.778 439.996 349.099 439.799C349.342 439.649 349.682 439.667 350.053 439.856C350.582 440.121 351.052 440.564 351.449 441.174C351.797 441.705 352.05 442.296 352.294 442.868L352.387 443.085L352.386 443.084ZM349.473 439.947C349.387 439.947 349.303 439.965 349.229 440.01C349.01 440.145 348.971 440.469 349.004 440.705C349.074 441.217 349.395 441.712 349.883 442.065C350.238 442.323 351.155 442.579 351.971 442.749C351.759 442.256 351.533 441.757 351.24 441.309C350.867 440.736 350.429 440.322 349.941 440.077C349.828 440.02 349.647 439.947 349.473 439.947Z" fill="#407BFF"/>
<path d="M368.242 420.144L380.491 437.629L389.084 434L378.61 413.291L368.242 420.144Z" fill="#FAAC6D"/>
<path d="M383.874 447.408L390.079 445.351C390.079 445.351 390.298 444.011 391.602 443.536C392.334 443.27 394.409 443.722 394.409 443.722L411.516 438.193C411.508 438.168 411.141 437.02 410.787 436.573C410.355 436.03 409.919 435.593 409.48 435.246C407.944 434.035 405.796 433.992 404.207 434.018C401.545 434.06 393.71 432.889 393.71 432.889C393.71 432.889 391.66 432.399 389.78 430.345C388.731 429.199 387.451 428.706 386.68 428.853C385.106 429.15 384.563 430.316 384.81 431.789L385.099 433.5C384.239 434.772 382.708 435.22 381.179 434.51C381.179 434.51 377.358 433.666 378.066 435.219C378.47 436.105 380.427 440 381.88 443.123C382.219 443.851 382.539 444.54 382.82 445.144H382.822C383.446 446.485 383.876 447.406 383.876 447.406L383.874 447.408Z" fill="#263238"/>
<path d="M397.881 433.366C397.782 433.322 397.661 433.353 397.59 433.438C397.266 433.826 397.041 434.295 396.956 434.819C396.911 435.095 397.357 435.2 397.402 434.921C397.477 434.455 397.672 434.041 397.956 433.702C398.051 433.589 398.019 433.427 397.886 433.368L397.882 433.366H397.881Z" fill="#407BFF"/>
<path d="M396.331 433.082C396.232 433.038 396.111 433.069 396.04 433.154C395.716 433.542 395.491 434.012 395.406 434.536C395.361 434.812 395.807 434.917 395.852 434.638C395.927 434.172 396.122 433.758 396.406 433.419C396.501 433.306 396.469 433.144 396.335 433.085L396.331 433.083V433.082Z" fill="#407BFF"/>
<path d="M394.756 432.86C394.656 432.816 394.536 432.847 394.465 432.932C394.14 433.32 393.916 433.79 393.831 434.313C393.786 434.589 394.232 434.694 394.277 434.415C394.352 433.949 394.547 433.535 394.831 433.196C394.926 433.082 394.894 432.921 394.76 432.862L394.756 432.86Z" fill="#407BFF"/>
<path opacity="0.2" d="M410.189 435.898C410.389 436.104 410.589 436.326 410.787 436.575C411.141 437.021 411.508 438.169 411.516 438.195L394.409 443.724C394.409 443.724 392.335 443.271 391.602 443.538C390.298 444.012 390.079 445.353 390.079 445.353L383.874 447.41C383.874 447.41 383.444 446.489 382.82 445.148H382.818C382.769 445.043 382.713 444.922 382.662 444.811L410.188 435.899L410.189 435.898Z" fill="white"/>
<path d="M394.637 433.374L394.545 433.157L394.66 433.108L394.543 433.152C394.302 432.58 394.052 431.989 393.911 431.369C393.749 430.66 393.756 430.014 393.932 429.448C394.056 429.052 394.278 428.794 394.555 428.722C394.92 428.634 395.267 428.872 395.471 429.132C395.831 429.59 395.984 430.234 395.889 430.898C395.796 431.548 395.004 432.806 394.764 433.176L394.636 433.373L394.637 433.374ZM394.716 428.952C394.684 428.952 394.651 428.956 394.618 428.965C394.36 429.03 394.227 429.343 394.171 429.523C394.008 430.045 394.003 430.648 394.155 431.314C394.273 431.836 394.475 432.346 394.682 432.841C395.126 432.135 395.579 431.298 395.641 430.863C395.726 430.266 395.592 429.692 395.274 429.287C395.146 429.123 394.932 428.952 394.715 428.952H394.716Z" fill="#407BFF"/>
<path d="M393.006 433.365C392.64 433.365 392.295 433.34 392.065 433.265C391.426 433.058 390.915 432.637 390.662 432.113C390.518 431.815 390.452 431.396 390.696 431.111C390.934 430.831 391.334 430.827 391.621 430.87C392.205 430.96 392.789 431.237 393.356 431.694C393.85 432.093 394.271 432.577 394.678 433.044L394.833 433.222L394.604 433.256C394.327 433.29 393.635 433.365 393.005 433.365H393.006ZM391.367 431.1C391.196 431.1 391.002 431.136 390.885 431.273C390.72 431.467 390.782 431.789 390.885 432.003C391.11 432.468 391.567 432.841 392.141 433.026C392.559 433.162 393.509 433.122 394.337 433.034C393.983 432.63 393.615 432.224 393.198 431.888C392.665 431.458 392.121 431.199 391.582 431.117C391.521 431.107 391.446 431.099 391.366 431.099L391.367 431.1Z" fill="#407BFF"/>
<path d="M289.447 344.299C289.447 344.299 343.182 352.984 351.671 360.111C360.893 367.853 388.544 423.81 388.544 423.81L370.86 431.562C370.86 431.562 346.164 386.882 341.8 383.856C337.436 380.83 282.438 368.26 282.438 368.26L289.445 344.299H289.447Z" fill="#263238"/>
<path opacity="0.4" d="M289.682 345.184L292.737 349.961L324.914 351.397C317.49 349.459 305.548 347.223 292.138 344.688L289.682 345.185V345.184Z" fill="black"/>
<path opacity="0.4" d="M340.633 355.316C340.633 355.316 342.459 359.355 343.525 364.436C344.205 367.677 348.644 393.303 348.42 392.96C348.196 392.617 339.236 381.863 339.236 381.863L334.275 353.461L340.634 355.316H340.633Z" fill="black"/>
<path d="M354.571 431.295L345.106 387.933L339.09 360.372C338.057 355.639 334.052 352.137 329.223 351.746L292.402 350.182L288.392 338.743L244.334 344.757C244.334 344.757 244.959 364.028 250.341 371.095C254.553 376.627 313.298 377.343 317.657 378.775L333.033 433.454L354.571 431.294V431.295Z" fill="#263238"/>
<path d="M293.533 344.987L285.094 291.346L277.48 273.678L269.017 272.942L257.285 272.652L244.678 273.318L239.615 293.317C239.615 293.317 241.478 321.323 241.604 322.776C241.759 324.557 243.64 355.12 243.64 355.12C264.499 356.49 294.099 346.499 293.533 344.987Z" fill="#407BFF"/>
<path opacity="0.2" d="M255.324 341.321C255.222 341.321 255.127 341.259 255.09 341.158C255.042 341.028 255.109 340.885 255.237 340.837C264.522 337.401 272.609 330.94 278.008 322.64C278.084 322.525 278.24 322.494 278.355 322.567C278.47 322.643 278.503 322.797 278.428 322.914C272.969 331.303 264.795 337.835 255.41 341.307C255.382 341.318 255.352 341.323 255.323 341.323L255.324 341.321Z" fill="black"/>
<path d="M255.167 272.63C255.167 272.63 255.954 266.982 252.648 257.19C252.648 257.179 253.16 256.925 253.16 256.914C252.704 255.545 252.226 254.281 251.78 253.188C251.77 253.156 251.77 253.145 251.77 253.145L265.699 260.938C265.519 264.123 266.923 270.201 267.715 272.759C267.715 272.759 270.664 278.385 264.439 278.861C259.89 279.209 255.168 272.629 255.168 272.629L255.167 272.63Z" fill="#FAAC6D"/>
<path d="M254.842 233.376C252.055 235.533 248.59 241.536 253.728 242.372C258.866 243.209 259.633 229.669 254.842 233.376Z" fill="#263238"/>
<path opacity="0.2" d="M255.08 267.873C255.08 267.873 262.593 265.872 262.501 261.172L254.564 264.609L255.08 267.873Z" fill="black"/>
<path d="M272.074 250.895C267.567 258.286 265.174 262.545 259.255 264.387C250.351 267.158 242.932 258.87 245.147 250.257C247.141 242.505 254.176 231.721 263.237 232.713C272.164 233.69 276.581 243.504 272.074 250.895Z" fill="#FAAC6D"/>
<path d="M278.909 241.582C280.085 236.818 275.867 231.619 271.783 232.212C271.173 232.301 273.897 235.204 273.591 234.866L270.544 241.193C271.05 241.332 271.66 242.332 271.377 243.984C271.377 243.984 265.98 251.478 267.506 256.623C277.782 257.178 283.639 246.349 278.909 241.582Z" fill="#263238"/>
<path d="M271.724 258.857C270.074 260.501 267.819 261.219 265.906 261.17C263.028 261.097 262.411 258.3 263.899 256.007C265.238 253.944 268.35 251.495 270.907 252.68C273.427 253.848 273.611 256.976 271.724 258.856V258.857Z" fill="#FAAC6D"/>
<path d="M259.976 247.321C259.563 248.103 258.815 248.513 258.306 248.238C257.797 247.963 257.719 247.105 258.133 246.324C258.546 245.542 259.294 245.132 259.803 245.407C260.312 245.682 260.39 246.539 259.977 247.321H259.976Z" fill="#263238"/>
<path d="M252.228 243.421C251.815 244.203 251.068 244.613 250.558 244.338C250.049 244.063 249.971 243.205 250.384 242.424C250.797 241.642 251.545 241.232 252.054 241.507C252.563 241.783 252.641 242.64 252.228 243.421Z" fill="#263238"/>
<path d="M254.952 244.306C254.952 244.306 250.425 246.882 248.795 248.044C249.364 249.602 251.477 250.139 251.477 250.139L254.951 244.305L254.952 244.306Z" fill="#E97F3F"/>
<path d="M261.128 242.165C261.264 242.212 261.373 242.329 261.402 242.483C261.75 244.303 263.15 244.908 263.164 244.914C263.375 245.002 263.476 245.245 263.39 245.457C263.304 245.668 263.062 245.768 262.853 245.681C262.779 245.65 261.024 244.893 260.593 242.635C260.55 242.41 260.696 242.193 260.92 242.151C260.992 242.137 261.063 242.144 261.129 242.167L261.128 242.165Z" fill="#263238"/>
<path d="M250.621 237.936C250.573 237.874 250.541 237.798 250.535 237.713C250.517 237.484 250.686 237.283 250.913 237.264C253.187 237.072 254.351 238.578 254.412 238.638C254.55 238.819 254.517 239.081 254.338 239.221C254.159 239.361 253.902 239.329 253.762 239.151C253.716 239.086 252.805 237.938 250.979 238.092C250.836 238.104 250.704 238.041 250.622 237.935L250.621 237.936Z" fill="#263238"/>
<path d="M251 227.169C252.239 225.299 255.106 224.622 256.878 225.997C256.791 224.402 258.12 222.861 259.71 222.713C261.3 222.565 262.891 223.833 263.1 225.416C263.692 224.213 265.394 223.86 266.586 224.475C267.777 225.09 268.464 226.422 268.64 227.751C268.748 228.566 268.706 229.442 269.133 230.145C269.801 231.246 271.272 231.442 272.493 231.85C274.545 232.536 276.267 234.15 277.083 236.155C277.899 238.159 277.795 240.517 276.806 242.442C277.78 243.203 277.952 244.318 278.293 245.506L271.801 243.921C271.435 240.019 265.797 240.547 263.125 240.453C261.205 240.386 259.551 239.745 258.313 239.17C257.075 238.594 256.891 237.432 257.404 236.167C255.162 236.101 252.879 235.198 251.482 233.444C250.085 231.689 249.76 229.039 250.998 227.169H251Z" fill="#263238"/>
<path d="M282.834 242.061C282.803 242.061 282.772 242.055 282.741 242.043C281.663 241.611 280.048 241.536 278.523 241.848C278.392 241.875 278.256 241.788 278.228 241.653C278.201 241.518 278.288 241.385 278.423 241.358C280.057 241.024 281.741 241.105 282.926 241.58C283.054 241.631 283.116 241.777 283.066 241.905C283.027 242.003 282.933 242.061 282.834 242.061Z" fill="#263238"/>
<path d="M278.658 241.83C278.577 241.83 278.497 241.79 278.449 241.717C278.373 241.601 278.405 241.446 278.521 241.371C279.878 240.48 280.892 239.068 281.301 237.497C281.336 237.364 281.469 237.279 281.607 237.318C281.74 237.353 281.82 237.489 281.786 237.623C281.346 239.312 280.256 240.831 278.795 241.789C278.753 241.817 278.705 241.83 278.658 241.83Z" fill="#263238"/>
<path d="M250.067 255.558C250.17 254.486 250.658 253.424 251.597 252.895C252.536 252.366 253.729 252.357 254.71 252.803C255.691 253.248 256.453 254.12 256.84 255.125C257.032 255.626 257.133 256.205 256.901 256.689C256.635 257.246 255.985 257.536 255.368 257.547C254.751 257.558 254.156 257.341 253.58 257.12C253.004 256.899 252.416 256.669 251.799 256.652C251.504 256.644 251.199 256.684 250.92 256.586C250.92 256.586 249.999 256.276 250.068 255.557L250.067 255.558Z" fill="#263238"/>
<path d="M256.296 254.122C256.036 254.074 251.986 253.309 251.835 253.169C251.705 253.048 251.829 252.822 251.875 252.748C252.017 252.684 252.158 252.616 252.308 252.574C252.347 252.563 252.391 252.553 252.434 252.543C253.192 252.362 254.016 252.437 254.729 252.761C255.371 253.053 255.885 253.548 256.296 254.123V254.122Z" fill="white"/>
<path d="M252.673 255.577C254.344 255.501 256.571 257.068 256.596 257.085C256.273 257.38 255.814 257.539 255.368 257.547C254.751 257.558 254.156 257.341 253.579 257.12C253.003 256.899 252.415 256.669 251.798 256.652C251.503 256.644 251.197 256.684 250.919 256.586C250.919 256.586 250.698 256.51 250.48 256.35C250.804 256.079 251.504 255.63 252.673 255.577Z" fill="#FD504E"/>
<path opacity="0.2" d="M266.399 256.517C266.35 256.517 266.301 256.503 266.258 256.473C266.144 256.396 266.114 256.24 266.193 256.126C266.641 255.47 267.255 254.94 267.968 254.596C268.454 254.361 269.191 254.117 269.947 254.312C270.696 254.499 271.27 255.109 271.344 255.796C271.359 255.933 271.259 256.056 271.121 256.071C270.987 256.082 270.861 255.986 270.846 255.848C270.795 255.373 270.367 254.93 269.825 254.795C269.216 254.645 268.596 254.846 268.184 255.045C267.549 255.352 267.002 255.823 266.603 256.406C266.555 256.477 266.476 256.515 266.397 256.515L266.399 256.517Z" fill="black"/>
<path d="M237.14 291.364C237.361 291.914 248.688 322.947 254.564 324.903C260.441 326.859 292.602 326.657 292.602 326.657L294.388 320.205L262.501 313.297L251.768 288.991L237.139 291.363L237.14 291.364Z" fill="#FAAC6D"/>
<path d="M246.747 273.209C246.747 273.209 238.231 272.652 236.169 280.395C235.081 284.48 237.135 309.427 238.293 309.491C239.451 309.555 262.501 306.518 262.501 306.518L246.747 273.209Z" fill="#407BFF"/>
<path d="M291.854 319.743L300.822 319.544C301.599 319.494 302.694 319.827 303.312 320.3L309.327 325.299C309.327 325.299 309.315 326.878 308.096 326.483L308.584 327.119C308.584 327.119 308.224 328.52 306.402 327.735C304.907 327.091 303.194 325.477 303.194 325.477L305.658 327.966C305.658 327.966 305.433 329.444 303.762 328.761C302.091 328.078 300.047 326.532 300.047 326.532C300.047 326.532 292.921 328.043 291.337 327.164C289.753 326.285 288.855 321.97 288.855 321.97L291.854 319.743Z" fill="#FAAC6D"/>
<path d="M303.499 325.831C303.467 325.831 303.434 325.818 303.409 325.793C303.391 325.774 301.61 323.938 300.796 323.564C300.426 323.396 298.852 323.535 298.277 323.604C298.207 323.617 298.146 323.563 298.138 323.495C298.13 323.427 298.179 323.364 298.247 323.356C298.466 323.33 300.399 323.107 300.898 323.337C301.755 323.729 303.513 325.541 303.587 325.618C303.635 325.668 303.634 325.747 303.584 325.795C303.56 325.818 303.528 325.83 303.497 325.83L303.499 325.831Z" fill="#E97F3F"/>
<path d="M308.098 326.607C308.087 326.607 308.077 326.607 308.067 326.603C308.021 326.591 307.988 326.555 307.977 326.513C307.634 326.079 302.974 321.631 302.139 321.454C301.245 321.266 298.09 321.454 298.059 321.457H298.051C297.986 321.457 297.93 321.406 297.926 321.34C297.922 321.271 297.975 321.212 298.043 321.207C298.174 321.199 301.264 321.014 302.189 321.21C303.122 321.406 308.131 326.148 308.221 326.439C308.235 326.483 308.223 326.535 308.192 326.567C308.169 326.592 308.132 326.606 308.097 326.606L308.098 326.607Z" fill="#E97F3F"/>
<path opacity="0.3" d="M240.543 309.27L263.429 306.402L259.306 294.999C259.306 294.999 265.764 307.334 264.937 307.92C264.11 308.506 240.802 311.796 240.802 311.796L240.543 309.27Z" fill="black"/>
<path d="M329.371 309.419C329.168 311.977 330.794 314.053 333.008 314.053H403.175C405.4 314.053 407.366 311.977 407.569 309.419L411.737 257.781C411.782 257.249 411.748 256.742 411.647 256.275C411.252 254.457 409.862 253.146 408.1 253.146H337.934C335.708 253.146 333.744 255.224 333.54 257.781L329.372 309.419H329.371Z" fill="#263238"/>
<path opacity="0.7" d="M329.371 309.419C329.168 311.977 330.794 314.053 333.008 314.053H403.175C405.4 314.053 407.366 311.977 407.569 309.419L411.737 257.781C411.782 257.249 411.748 256.742 411.647 256.275C411.252 254.457 409.862 253.146 408.1 253.146H337.934C335.708 253.146 333.744 255.224 333.54 257.781L329.372 309.419H329.371Z" fill="white"/>
<path d="M333.256 314.054H403.174C405.399 314.054 407.365 311.977 407.568 309.419L411.736 257.781C411.781 257.249 411.747 256.742 411.646 256.275H341.728C339.514 256.275 337.549 258.352 337.334 260.911L333.166 312.549C333.121 313.082 333.155 313.588 333.256 314.055V314.054Z" fill="#263238"/>
<path opacity="0.5" d="M333.256 314.054H403.174C405.399 314.054 407.365 311.977 407.568 309.419L411.736 257.781C411.781 257.249 411.747 256.742 411.646 256.275H341.728C339.514 256.275 337.549 258.352 337.334 260.911L333.166 312.549C333.121 313.082 333.155 313.588 333.256 314.055V314.054Z" fill="white"/>
<path d="M380.307 302.013L366.202 302.076L368.865 327.698H355.076V330.69L392.393 330.779V327.827L383.4 327.655L380.307 302.013Z" fill="#263238"/>
<path opacity="0.3" d="M366.203 302.075C366.244 302.454 363.08 314.054 363.08 314.054H367.49L366.203 302.075Z" fill="black"/>
<path opacity="0.3" d="M381.761 314.055L380.309 302.013L383.953 314.055H381.761Z" fill="black"/>
<path d="M398.299 450.045H402.594V331.923H398.299V450.045Z" fill="#263238"/>
<path opacity="0.3" d="M398.299 450.045H402.594V331.923H398.299V450.045Z" fill="white"/>
<path d="M429.166 450.045H433.461V331.923H429.166V450.045Z" fill="#263238"/>
<path opacity="0.3" d="M429.166 450.045H433.461V331.923H429.166V450.045Z" fill="white"/>
<path opacity="0.2" d="M433.462 339.393V347.016L429.168 345.1V338.744L433.462 339.393Z" fill="black"/>
<path opacity="0.2" d="M402.592 339.393V347.016L398.297 345.1V338.744L402.592 339.393Z" fill="black"/>
<path d="M306.793 450.045H311.088V331.923H306.793V450.045Z" fill="#263238"/>
<path opacity="0.3" d="M306.793 450.045H311.088V331.923H306.793V450.045Z" fill="white"/>
<path opacity="0.2" d="M311.088 339.393V347.016L306.793 345.1V338.744L311.088 339.393Z" fill="black"/>
<path d="M267.365 450.045H271.66V331.923H267.365V450.045Z" fill="#263238"/>
<path opacity="0.3" d="M267.365 450.045H271.66V331.923H267.365V450.045Z" fill="white"/>
<path opacity="0.2" d="M271.66 339.311V346.935L267.365 345.018V338.662L271.66 339.311Z" fill="black"/>
<path d="M262.018 339.393H439.029V330.65H262.018V339.393Z" fill="#263238"/>
<path opacity="0.3" d="M262.017 339.393H303.541V330.65H262.017V339.393Z" fill="black"/>
<path opacity="0.6" d="M380.307 302.013L366.202 302.076L368.865 327.698H355.076V330.69L392.393 330.779V327.827L383.4 327.655L380.307 302.013Z" fill="white"/>
<path opacity="0.3" d="M355.076 330.689V327.697H374.253V330.778L355.076 330.689Z" fill="black"/>
<path d="M339.235 328.129H293.07V330.659H339.235V328.129Z" fill="#263238"/>
<path opacity="0.5" d="M339.235 328.129H293.07V330.659H339.235V328.129Z" fill="white"/>
<path opacity="0.3" d="M308.971 328.129H293.07V330.659H308.971V328.129Z" fill="black"/>
<path d="M204.989 123.128C209.028 116.4 218.598 94.7888 216.713 84.7228C215.121 76.2178 210.533 73.0768 207.358 71.9138C206.358 69.9998 203.669 66.9718 196.493 65.6398C189.03 64.2548 176.386 66.9718 168.307 79.4748C160.228 91.9778 161.616 94.0508 143.934 97.1648C135.979 98.5658 126.878 109.208 129.763 117.671C132.648 126.135 140.223 127.371 141.185 127.564L180.656 149.07C180.656 149.07 186.467 157.664 195.717 155.246C214.737 150.273 200.95 129.856 204.99 123.128H204.989Z" fill="#263238"/>
<path d="M180.128 104.71L180.125 104.704C179.155 102.57 176.64 101.627 174.507 102.597C173.718 102.931 173.051 103.501 172.598 104.229C172.496 104.387 172.405 104.553 172.327 104.724C169.937 110.788 171.049 114.508 166.656 115.967L179.25 129.719C178.047 127.792 178.495 121.524 179.871 118.92C180.002 118.704 180.165 118.472 180.253 118.227C180.372 118.006 180.554 117.795 180.643 117.55C181.733 115.701 183.231 113.419 185.034 110.402C185.072 110.297 185.106 110.204 185.14 110.11L180.128 104.708V104.71Z" fill="#FDBBB5"/>
<path opacity="0.2" d="M185.468 110.27C185.415 110.365 185.378 110.467 185.358 110.573C183.555 113.589 182.058 115.872 180.967 117.72C180.821 117.936 180.69 118.162 180.577 118.397C180.448 118.639 180.336 118.889 180.24 119.146C176.393 115.104 173.876 109.98 173.029 104.463C173.472 103.744 174.115 103.169 174.88 102.81C177.003 101.82 179.527 102.733 180.526 104.853L185.467 110.269L185.468 110.27Z" fill="black"/>
<path d="M180.711 81.2468C174.67 91.7558 171.889 96.0547 173.406 104.667C175.705 117.612 189.487 122.875 198.501 114.431C206.542 106.783 215.104 90.9437 208.212 80.2687C201.32 69.5937 186.768 70.7298 180.711 81.2468Z" fill="#FDBBB5"/>
<path opacity="0.2" d="M176.651 91.0879C176.605 91.0879 176.559 91.0759 176.518 91.0489C176.401 90.9759 176.366 90.8209 176.44 90.7039C177.025 89.7739 177.223 88.6249 176.981 87.5529C176.74 86.4809 176.069 85.5289 175.141 84.9389C175.024 84.8649 174.99 84.7099 175.064 84.5939C175.138 84.4779 175.293 84.4439 175.409 84.5169C176.449 85.1759 177.199 86.2429 177.47 87.4429C177.741 88.6429 177.52 89.9289 176.864 90.9699C176.817 91.0449 176.736 91.0869 176.653 91.0869L176.651 91.0879Z" fill="black"/>
<path d="M194.167 69.7115C191.014 72.4505 188.07 70.4485 184.334 72.3175C180.598 74.1855 176.983 77.6555 177.369 81.8065C177.607 82.9845 172.971 84.5115 173.078 85.7095C172.982 89.0405 174.34 90.8065 172.558 93.6195C170.91 96.2435 168.864 99.2775 170.142 101.982C171.204 104.246 171.092 106.886 169.842 109.052C169.459 109.733 165.587 110.186 165.08 110.78C164.36 111.651 166.655 113.364 168.776 113.852C169.586 114.038 170.313 114.472 171.046 114.08C171.165 114.014 171.28 113.941 171.389 113.861C174.995 111.642 177.425 107.93 178.017 103.736C178.336 101.357 178.537 98.9765 178.856 96.5975C179.048 94.1845 181.226 92.7305 182.736 90.8395C186.425 86.7635 223.897 82.5725 198.795 68.4055C198.749 68.2195 198.632 68.0585 198.469 67.9575C197.684 67.5475 196.743 67.5715 195.979 68.0205C195.314 68.5155 194.706 69.0835 194.167 69.7135V69.7115Z" fill="#263238"/>
<path d="M201.268 100.937C200.582 101.985 200.542 103.227 201.179 103.712C201.816 104.196 202.89 103.739 203.577 102.691C204.263 101.643 204.303 100.401 203.666 99.9168C203.029 99.4328 201.956 99.8898 201.269 100.938L201.268 100.937Z" fill="#263238"/>
<path d="M192.543 90.9611C192.625 91.0941 192.758 91.1912 192.92 91.2182C195.449 91.6312 196.268 93.6771 196.277 93.7011C196.398 94.0051 196.733 94.1461 197.03 94.0061C197.326 93.8651 197.468 93.5012 197.349 93.1922C197.307 93.0852 196.281 90.5151 193.142 90.0031C192.829 89.9521 192.526 90.1831 192.464 90.5181C192.435 90.6801 192.466 90.8361 192.543 90.9611Z" fill="#263238"/>
<path d="M208.765 96.0691C208.889 96.1081 209.025 96.0941 209.148 96.0181C209.4 95.8601 209.497 95.4961 209.364 95.2061C208.03 92.2971 205.657 92.0441 205.555 92.0361C205.271 92.0101 205.019 92.2551 204.993 92.5851C204.966 92.9141 205.175 93.2021 205.459 93.2301C205.552 93.2381 207.389 93.4651 208.449 95.7781C208.518 95.9281 208.634 96.0281 208.765 96.0691Z" fill="#263238"/>
<path d="M198.971 98.5293C198.971 98.5293 197.829 103.348 197.896 106.919C197.908 107.543 197.292 107.994 196.692 107.824C195.147 107.386 194.016 105.943 194.016 105.943L198.971 98.5293Z" fill="#D7504D"/>
<path d="M203.416 99.7695L206.07 100.882C206.07 100.882 203.603 101.671 203.416 99.7695Z" fill="#263238"/>
<path d="M193.494 97.5504C193.465 97.5504 193.436 97.5474 193.407 97.5404C193.205 97.4924 193.081 97.2904 193.129 97.0884C193.306 96.3484 193.014 95.5014 192.419 95.0284C191.824 94.5534 190.935 94.4604 190.252 94.7984C190.066 94.8914 189.841 94.8144 189.75 94.6294C189.658 94.4444 189.734 94.2194 189.919 94.1274C190.867 93.6574 192.059 93.7844 192.886 94.4424C193.713 95.1004 194.104 96.2344 193.858 97.2634C193.817 97.4354 193.663 97.5504 193.494 97.5504Z" fill="#263238"/>
<path d="M191.14 109.034C190.981 109.034 190.834 108.933 190.783 108.774C190.238 107.085 188.936 105.666 187.3 104.978C187.109 104.897 187.02 104.678 187.1 104.487C187.181 104.296 187.403 104.207 187.591 104.287C189.425 105.059 190.885 106.65 191.497 108.544C191.56 108.741 191.453 108.953 191.255 109.016C191.216 109.028 191.178 109.034 191.14 109.034Z" fill="#263238"/>
<path d="M93.2891 431.677L94.6001 433.429L97.1091 432.287L98.8441 440.061L109.82 454.765C109.82 454.765 113.895 455.334 110.525 446.922C110.372 446.539 110.247 446.116 110.161 445.645C109.109 440.594 111.004 430.831 111.004 430.831L104.982 422.763C104.982 422.763 104.371 422.785 103.336 422.977C100.918 423.431 96.0881 424.712 93.2891 431.677Z" fill="#407BFF"/>
<path opacity="0.2" d="M93.2891 431.677L94.6001 433.429L97.1091 432.287L98.8441 440.061L109.82 454.765C109.82 454.765 113.895 455.334 110.525 446.922C110.372 446.539 110.247 446.116 110.161 445.645C109.109 440.594 111.004 430.831 111.004 430.831L104.982 422.763C104.982 422.763 104.371 422.785 103.336 422.977C100.918 423.431 96.0881 424.712 93.2891 431.677Z" fill="black"/>
<path d="M103.335 422.976L103.311 422.994C105.283 423.166 103.732 431.938 104.623 436.824C105.424 441.183 107.392 445.271 110.161 445.644C109.109 440.593 112.304 428.968 112.304 428.968L107.461 422.48C107.461 422.48 104.372 422.784 103.336 422.975L103.335 422.976Z" fill="#D7504D"/>
<path d="M106.968 453.889L109.143 453.842L109.693 451.122L116.958 454.255L135.2 453.889C135.2 453.889 138.042 450.89 129.307 448.72C128.91 448.621 128.496 448.476 128.067 448.27C123.39 446.173 116.65 438.906 116.65 438.906L106.641 439.107C106.641 439.107 106.302 439.62 105.85 440.579C104.801 442.822 103.005 447.521 106.968 453.889Z" fill="#407BFF"/>
<path d="M105.85 440.579V440.609C107.142 439.097 113.288 445.502 117.738 447.634C121.712 449.531 126.149 450.315 128.068 448.27C123.391 446.173 115.833 436.259 115.833 436.259L107.796 436.666C107.796 436.666 106.302 439.619 105.85 440.579Z" fill="#FDBBB5"/>
<path d="M124.634 352.356C129.324 338.566 135.133 324.978 142.219 313.934C110.643 228.861 110.808 190.513 110.808 190.513L146.759 189.762L150.877 204.013C150.877 204.013 160.576 239.501 163.606 259.923L172.023 305.294L172.026 305.422C172.725 314.865 170.829 324.296 166.524 332.699C161.821 341.881 153.396 352.838 148.851 362.723C142.872 375.769 137.244 388.839 132.448 400.528C127.394 412.848 123.296 423.608 120.755 431.077C118.214 431.417 110.435 426.949 108.139 422.804C108.139 422.804 112.864 386.968 124.634 352.356Z" fill="#263238"/>
<path opacity="0.2" d="M134.86 293.32L121.607 253.859C121.759 251.22 126.989 240.561 131.747 236.303C131.747 236.303 140.153 260.241 134.86 293.321V293.32Z" fill="black"/>
<path opacity="0.2" d="M132.447 400.527C127.393 412.847 123.295 423.607 120.755 431.076C118.214 431.416 110.435 426.948 108.139 422.803C108.139 422.803 112.864 386.967 124.634 352.355C127.45 366.492 130.642 384.362 132.447 400.527Z" fill="black"/>
<path d="M137.695 190.755C137.695 190.755 125.913 285.665 124.748 307.003C124.748 307.003 118.371 410.528 120.408 436.475L101.574 437.77C101.574 437.77 87.3208 359.744 92.7238 309.38C93.1488 302.82 86.4508 260.226 85.1858 243.229C82.1418 202.339 98.5208 190.759 98.5208 190.759L137.696 190.755H137.695Z" fill="#263238"/>
<path d="M112.656 181.01C118.178 169.76 126.23 147.893 132.14 123.385C134.061 115.415 144.222 113.546 144.222 113.546C144.222 113.546 151.252 115.199 152.21 115.642C153.263 116.122 154.336 116.635 155.4 117.161C163.408 121.146 169.929 124.466 176.493 128.971C178.142 130.107 179.808 131.313 181.446 132.501C181.967 132.895 185.542 135.135 186.049 135.52C186.049 135.52 188.9 152.882 184.54 161.28C182.094 165.966 183.098 169.229 176.324 179.877C171.845 187.182 160.064 194.641 153.343 204.654L112.656 181.01Z" fill="white"/>
<path d="M189.178 135.323C192.901 141.123 194.121 148.171 192.605 154.894C189.886 166.954 182.495 183.512 182.495 183.512L208.297 178.209L213.652 192.935C213.652 192.935 169.776 210.386 166.329 209.38C156.136 206.406 163.525 183.331 163.525 183.331L188.76 134.674L189.177 135.324L189.178 135.323Z" fill="#407BFF"/>
<path d="M179.107 124.914C179.107 124.914 182.948 150.742 178.938 165.271C176.301 174.825 152.565 194.285 149.33 200.826C149.33 200.826 157.644 226.669 160.94 245.406L168.913 242.352L158.791 204.778C158.791 204.778 182.284 177.122 185.61 168.655C188.935 160.188 188.762 134.673 188.762 134.673L183.764 131.156L179.107 124.914Z" fill="#407BFF"/>
<path d="M170.84 179.402C170.84 179.402 177.474 173.824 180.96 167.079C184.446 160.335 187.27 155.439 187.27 155.439L183.208 145.554L188.184 139.515C188.184 139.515 185.957 135.192 184.014 130.967C182.686 128.081 179.668 123.102 178.98 122.929C178.98 122.929 183.372 158.06 177.583 167.84C172 177.273 170.841 179.403 170.841 179.403L170.84 179.402Z" fill="#407BFF"/>
<path opacity="0.3" d="M170.84 179.402C170.84 179.402 177.474 173.824 180.96 167.079C184.446 160.335 187.27 155.439 187.27 155.439L183.208 145.554L188.184 139.515C188.184 139.515 185.957 135.192 184.014 130.967C182.686 128.081 179.668 123.102 178.98 122.929C178.98 122.929 183.372 158.06 177.583 167.84C172 177.273 170.841 179.403 170.841 179.403L170.84 179.402Z" fill="black"/>
<path opacity="0.3" d="M161.156 201.961L178.17 179.545L162.103 206.098C162.103 206.098 161.325 203.825 161.156 201.961Z" fill="black"/>
<path d="M179.881 132.134L179.031 122.141L174.129 124.814L170.099 115.03L165.063 114.502L162.316 127.033C162.316 127.033 168.97 136.012 169.439 136.296C169.908 136.58 179.88 132.134 179.88 132.134H179.881Z" fill="white"/>
<path opacity="0.3" d="M179.919 132.6L174.76 136.46L172.717 128.239L165.591 132.124L161.92 126.407L164.817 134.182L172.014 129.555L174.546 138.67" fill="black"/>
<path opacity="0.2" d="M366.148 140.152C365.92 138.979 365.513 137.874 364.971 136.823C363.705 152.373 336.688 171.436 301.256 180.964C265.824 190.492 234.453 187.128 227.575 173.768C227.475 174.991 227.516 176.195 227.743 177.368C230.866 193.458 264.381 198.17 302.6 187.893C340.819 177.616 369.27 156.242 366.146 140.152H366.148Z" fill="white"/>
<path d="M108.137 231.967L78.1484 218.067C85.3784 200.494 102.259 176.417 115.286 169.999C115.286 169.999 118.158 162.29 121.42 151.105C123.016 145.668 124.728 139.91 126.31 134.817C128.575 127.468 130.579 121.454 131.537 119.677C134.514 114.114 146.222 109.522 146.222 109.522L165.064 114.5C165.064 114.5 159.076 130.257 147.697 153.189C135.923 176.919 108.137 231.966 108.137 231.966V231.967Z" fill="#407BFF"/>
<path opacity="0.3" d="M111.109 172.624L131.563 185.447L134.132 180.329L142.123 161.758L138.864 158.555L142.655 135.535L115.286 169.999C115.286 169.999 112.968 171.126 111.898 172.046" fill="black"/>
<path d="M165.064 114.85C165.064 114.85 163.816 131.385 142.123 161.76L145.326 132.421L152.965 128.5L154.037 115.179C154.037 115.179 161.638 114.972 165.064 114.503V114.85Z" fill="#407BFF"/>
<path opacity="0.3" d="M165.064 114.85C165.064 114.85 163.933 129.405 144.086 159.323L145.326 132.422L152.965 128.501L154.037 115.18C154.037 115.18 161.638 114.973 165.064 114.504V114.85Z" fill="black"/>
<path d="M80.8038 203.611C80.7098 203.611 80.6158 203.585 80.5318 203.53C80.3008 203.379 80.2348 203.069 80.3858 202.838C80.4968 202.668 91.5398 185.787 99.1438 178.58C99.3448 178.39 99.6618 178.398 99.8508 178.599C100.041 178.799 100.033 179.116 99.8318 179.306C92.3138 186.432 81.3338 203.216 81.2238 203.385C81.1278 203.532 80.9678 203.612 80.8048 203.612L80.8038 203.611Z" fill="#407BFF"/>
<path d="M101.707 177.301C101.572 177.301 101.438 177.247 101.34 177.14C101.152 176.937 101.165 176.621 101.368 176.433L104.351 173.68C104.553 173.493 104.87 173.504 105.057 173.708C105.245 173.911 105.232 174.227 105.029 174.415L102.046 177.168C101.95 177.256 101.829 177.301 101.707 177.301Z" fill="#407BFF"/>
<path d="M131.427 198.405L225.985 168.319L230.192 181.541L135.634 211.627C132.271 212.697 128.672 210.835 127.602 207.473L127.273 206.438C126.203 203.075 128.064 199.475 131.427 198.405Z" fill="#263238"/>
<g opacity="0.2">
<path d="M131.427 198.405L225.985 168.319L230.192 181.541L135.634 211.627C132.271 212.697 128.672 210.835 127.602 207.473L127.273 206.438C126.203 203.075 128.064 199.475 131.427 198.405Z" fill="white"/>
</g>
<path d="M366.148 140.152C365.92 138.979 365.513 137.874 364.971 136.823C363.705 152.373 336.688 171.436 301.256 180.964C265.824 190.492 234.453 187.128 227.575 173.768C227.475 174.991 227.516 176.195 227.743 177.368C230.866 193.458 264.381 198.17 302.6 187.893C340.819 177.616 369.27 156.242 366.146 140.152H366.148Z" fill="#263238"/>
<path d="M291.3 129.484C326.732 119.956 358.102 123.32 364.981 136.68C365.08 135.457 363.43 130.954 363.203 129.781C360.08 113.691 325.358 109.068 287.138 119.345C248.919 129.622 220.468 150.996 223.592 167.086C223.82 168.259 227.045 172.574 227.586 173.625C228.852 158.075 255.869 139.012 291.301 129.484H291.3Z" fill="#263238"/>
<path d="M221.552 183.921C221.552 183.921 216.678 178.08 214.327 177.769C211.976 177.458 213.145 180.634 213.145 180.634C213.145 180.634 211.644 177.218 210.107 177.659C208.263 178.189 209.503 181.511 209.503 181.511C209.503 181.511 208.163 178.772 206.823 179.256C205.432 179.758 206.565 183.608 206.565 183.608C206.565 183.608 205.257 181.858 204.515 182.722C203.774 183.586 206.021 191.803 208.291 193.718C210.561 195.633 221.002 192.367 223.134 191.186C225.266 190.005 226.298 187.094 226.091 182.862L221.552 183.921Z" fill="#FDBBB5"/>
<path opacity="0.2" d="M212.977 180.697L212.983 180.711L215.885 186.541C215.924 186.619 216.028 186.649 216.118 186.607C216.208 186.565 216.249 186.464 216.21 186.389L213.308 180.559C213.269 180.481 213.164 180.451 213.075 180.493C212.991 180.533 212.949 180.622 212.977 180.697Z" fill="black"/>
<path opacity="0.2" d="M209.399 181.747V181.751L211.743 187.573C211.776 187.654 211.877 187.69 211.969 187.654C212.062 187.617 212.099 187.54 212.077 187.441L209.735 181.619C209.702 181.538 209.601 181.502 209.509 181.538C209.418 181.574 209.37 181.667 209.399 181.747Z" fill="black"/>
<path opacity="0.2" d="M206.471 183.873L208.088 188.249C208.118 188.331 208.218 188.37 208.311 188.335C208.404 188.301 208.455 188.207 208.425 188.125L206.808 183.749C206.778 183.667 206.677 183.629 206.585 183.663C206.492 183.697 206.441 183.792 206.472 183.874L206.471 183.873Z" fill="black"/>
<path d="M278.443 172.865C278.34 172.865 278.238 172.823 278.164 172.74C278.025 172.586 278.039 172.348 278.193 172.21L313.505 140.638C313.659 140.501 313.897 140.513 314.034 140.668C314.173 140.822 314.159 141.06 314.005 141.198L278.693 172.77C278.622 172.834 278.532 172.865 278.443 172.865Z" fill="#263238"/>
<path d="M292.633 168.925C292.529 168.925 292.425 168.882 292.351 168.797C292.214 168.641 292.231 168.404 292.386 168.268L308.74 153.959C308.896 153.823 309.133 153.838 309.269 153.994C309.406 154.15 309.389 154.387 309.234 154.523L292.88 168.832C292.809 168.894 292.721 168.925 292.633 168.925Z" fill="#263238"/>
<path d="M289.172 154.081C289.068 154.081 288.964 154.038 288.89 153.953C288.753 153.797 288.77 153.56 288.925 153.424L305.279 139.116C305.435 138.981 305.672 138.996 305.808 139.151C305.945 139.307 305.928 139.544 305.773 139.68L289.419 153.988C289.348 154.05 289.26 154.081 289.172 154.081Z" fill="#263238"/>
<path d="M184.082 182.632L171.944 179.36L165.374 187.386C162.973 193.591 175.343 195.231 175.343 195.231L176.691 197.948C177.786 200.154 182.769 201.471 184.395 199.603L187.881 194.414C188.727 193.443 188.569 190.496 188.118 189.296L186.402 184.74C186.012 183.703 185.149 182.919 184.081 182.631L184.082 182.632Z" fill="#FDBBB5"/>
<path d="M136.814 159.066L145.71 123.197L146.223 109.508C146.223 109.508 132.125 104.197 125.408 119.978C118.872 135.335 111.445 163.409 115.287 169.962C119.129 176.515 165.064 191.772 165.064 191.772L173.086 179.503L136.814 159.067V159.066Z" fill="#407BFF"/>
<g opacity="0.4">
<path d="M361.67 145.045C361.446 143.89 361.044 142.802 360.512 141.767C359.266 157.075 332.669 175.842 297.788 185.221C262.907 194.6 232.024 191.29 225.253 178.137C225.155 179.341 225.195 180.526 225.419 181.681C228.494 197.521 261.487 202.16 299.112 192.043C336.737 181.926 364.745 160.885 361.67 145.045Z" fill="white"/>
</g>
</g>
<defs>
<clipPath id="clip0_544_1126">
<rect width="500" height="500" fill="white"/>
</clipPath>
</defs>
</svg>
