<svg width="500" height="500" viewBox="0 0 500 500" fill="none" xmlns="http://www.w3.org/2000/svg">
<path d="M500 382.4H0V382.65H500V382.4Z" fill="#EBEBEB"/>
<path d="M78.4609 391.92H52.4609V392.17H78.4609V391.92Z" fill="#EBEBEB"/>
<path d="M200.43 389.21H146.33V389.46H200.43V389.21Z" fill="#EBEBEB"/>
<path d="M105.781 401.21H79.4609V401.46H105.781V401.21Z" fill="#EBEBEB"/>
<path d="M449.9 399.53H430.67V399.78H449.9V399.53Z" fill="#EBEBEB"/>
<path d="M421.761 399.53H391.471V399.78H421.761V399.53Z" fill="#EBEBEB"/>
<path d="M312.79 395.31H258.23V395.56H312.79V395.31Z" fill="#EBEBEB"/>
<path d="M237.001 337.8H43.9109C42.3983 337.797 40.9485 337.195 39.8798 336.124C38.8112 335.053 38.2109 333.603 38.2109 332.09V60.66C38.2241 59.156 38.8301 57.718 39.8974 56.6582C40.9646 55.5985 42.4069 55.0026 43.9109 55H237.001C238.515 55 239.968 55.6016 241.039 56.6724C242.109 57.7433 242.711 59.1956 242.711 60.71V332.09C242.711 333.604 242.109 335.057 241.039 336.128C239.968 337.198 238.515 337.8 237.001 337.8ZM43.9109 55.2C42.4646 55.2026 41.0784 55.7791 40.0566 56.8027C39.0348 57.8264 38.4609 59.2136 38.4609 60.66V332.09C38.4609 333.536 39.0348 334.924 40.0566 335.947C41.0784 336.971 42.4646 337.547 43.9109 337.55H237.001C238.448 337.547 239.835 336.971 240.859 335.948C241.882 334.924 242.458 333.537 242.461 332.09V60.66C242.458 59.2127 241.882 57.8255 240.859 56.8021C239.835 55.7787 238.448 55.2026 237.001 55.2H43.9109Z" fill="#EBEBEB"/>
<path d="M453.31 337.8H260.21C258.696 337.797 257.246 337.195 256.175 336.125C255.105 335.054 254.503 333.604 254.5 332.09V60.66C254.516 59.1551 255.124 57.7171 256.193 56.6576C257.262 55.5981 258.705 55.0025 260.21 55H453.31C454.812 55.0052 456.252 55.6022 457.317 56.6617C458.382 57.7212 458.987 59.1578 459 60.66V332.09C459 333.601 458.401 335.05 457.335 336.121C456.268 337.191 454.821 337.795 453.31 337.8ZM260.21 55.2C258.763 55.2026 257.375 55.7787 256.352 56.8021C255.329 57.8255 254.753 59.2127 254.75 60.66V332.09C254.753 333.537 255.329 334.924 256.352 335.948C257.375 336.971 258.763 337.547 260.21 337.55H453.31C454.757 337.547 456.145 336.971 457.168 335.948C458.191 334.924 458.767 333.537 458.77 332.09V60.66C458.767 59.2127 458.191 57.8255 457.168 56.8021C456.145 55.7787 454.757 55.2026 453.31 55.2H260.21Z" fill="#EBEBEB"/>
<path d="M188.84 280.93C188.35 280.93 187.84 280.93 187.37 280.99C176.99 281.82 168.59 291.71 167.93 303.88C167.783 306.565 168.012 309.258 168.61 311.88C170.902 322.389 172.002 333.124 171.89 343.88V375.29C171.89 377.57 173.47 379.42 175.41 379.42H311.53V280.93H188.84Z" fill="#F0F0F0"/>
<path d="M332.48 305.49C332.48 291.35 322.29 280.01 310.06 280.99C299.68 281.82 291.28 291.71 290.62 303.88C290.469 306.565 290.694 309.257 291.29 311.88C293.585 322.389 294.688 333.123 294.58 343.88V375.29C294.58 377.57 296.15 379.42 298.1 379.42H325C326.94 379.42 328.52 377.57 328.52 375.29V342C328.438 331.908 329.525 321.841 331.76 312C332.252 309.865 332.493 307.68 332.48 305.49Z" fill="#FAFAFA"/>
<path d="M282.659 323.72H142.699V379.41H282.659V323.72Z" fill="#F5F5F5"/>
<path d="M96.7598 257H244C246.255 257 248.487 257.444 250.571 258.307C252.654 259.17 254.546 260.435 256.141 262.029C257.735 263.623 259 265.516 259.863 267.599C260.726 269.682 261.17 271.915 261.17 274.17V333.17H79.5898V274.17C79.5898 271.915 80.034 269.682 80.8968 267.599C81.7597 265.516 83.0244 263.623 84.6188 262.029C86.2132 260.435 88.106 259.17 90.1892 258.307C92.2723 257.444 94.5051 257 96.7598 257Z" fill="#E6E6E6"/>
<path d="M109.249 257H248.429C252.919 257 257.226 258.784 260.401 261.959C263.576 265.134 265.359 269.44 265.359 273.93V333.15H92.3594V273.92C92.362 269.439 94.1414 265.141 97.3074 261.969C100.473 258.798 104.768 257.011 109.249 257Z" fill="#F5F5F5"/>
<path d="M147.42 321.72H282.6C283.576 321.72 284.512 322.107 285.202 322.798C285.893 323.488 286.28 324.424 286.28 325.4V331.33C286.278 332.304 285.889 333.237 285.199 333.925C284.509 334.613 283.575 335 282.6 335H147.42C147.129 335 146.849 334.884 146.642 334.678C146.436 334.471 146.32 334.191 146.32 333.9V322.82C146.32 322.528 146.436 322.248 146.642 322.042C146.849 321.836 147.129 321.72 147.42 321.72Z" fill="#EBEBEB"/>
<path d="M71 379.41H312.58V379.64C312.58 380.372 312.289 381.074 311.772 381.592C311.254 382.109 310.552 382.4 309.82 382.4H73.77C73.4067 382.401 73.0467 382.331 72.7107 382.193C72.3747 382.055 72.0693 381.852 71.8119 381.595C71.5546 381.339 71.3504 381.034 71.211 380.699C71.0717 380.363 71 380.003 71 379.64V379.41Z" fill="#E6E6E6"/>
<path d="M72.0608 280.93C71.5675 280.93 71.0775 280.95 70.5908 280.99C60.2108 281.82 51.8108 291.71 51.1508 303.88C51.0034 306.565 51.2322 309.258 51.8308 311.88C54.1228 322.389 55.223 333.124 55.1108 343.88V375.29C55.1108 377.57 56.6908 379.42 58.6308 379.42H143.701V280.93H72.0608Z" fill="#F0F0F0"/>
<path d="M164.649 305.49C164.649 291.35 154.469 280.01 142.229 280.99C131.849 281.82 123.449 291.71 122.789 303.88C122.639 306.565 122.864 309.257 123.459 311.88C125.76 322.388 126.863 333.123 126.749 343.88V375.29C126.749 377.57 128.319 379.42 130.269 379.42H157.129C159.069 379.42 160.649 377.57 160.649 375.29V342C160.568 331.908 161.655 321.841 163.889 312C164.395 309.867 164.65 307.682 164.649 305.49Z" fill="#FAFAFA"/>
<path d="M61.8791 192.24L440.289 192.24V77.8502L61.8791 77.8502V192.24Z" fill="#EBEBEB"/>
<path d="M71.8793 183.46L430.279 183.46V86.64L71.8793 86.64V183.46Z" fill="#FAFAFA"/>
<path d="M277.039 183.46H305.619L278.699 86.6396H250.119L277.039 183.46Z" fill="white"/>
<path d="M311.209 183.46H339.799L312.879 86.6396H284.289L311.209 183.46Z" fill="white"/>
<path d="M218.57 183.46H232.87L205.95 86.6396H191.66L218.57 183.46Z" fill="white"/>
<path d="M244.35 183.46H257.82V86.64H244.35V183.46Z" fill="#EBEBEB"/>
<path d="M244.34 86.6396H241.34V183.46H244.34V86.6396Z" fill="#E0E0E0"/>
<path d="M61.8807 77.8604H59.7207V192.25H61.8807V77.8604Z" fill="#E0E0E0"/>
<path d="M436.481 376.83C438.916 376.822 441.249 375.851 442.97 374.129C444.692 372.407 445.663 370.074 445.671 367.64V277.71C445.663 275.275 444.692 272.942 442.97 271.22C441.249 269.498 438.916 268.527 436.481 268.52C434.047 268.527 431.715 269.499 429.995 271.221C428.275 272.943 427.306 275.276 427.301 277.71V367.64C427.306 370.074 428.275 372.406 429.995 374.129C431.715 375.851 434.047 376.822 436.481 376.83Z" fill="#F5F5F5"/>
<path d="M431.22 373.21C432.866 373.207 434.444 372.552 435.608 371.388C436.772 370.224 437.427 368.646 437.43 367V278.35C437.427 276.703 436.772 275.125 435.608 273.961C434.444 272.797 432.866 272.142 431.22 272.14C429.575 272.145 428 272.801 426.838 273.965C425.676 275.129 425.022 276.705 425.02 278.35V367C425.022 368.644 425.676 370.221 426.838 371.384C428 372.548 429.575 373.204 431.22 373.21Z" fill="#EBEBEB"/>
<path d="M423.139 376.83C425.573 376.822 427.905 375.851 429.625 374.129C431.345 372.406 432.314 370.074 432.319 367.64V277.71C432.314 275.276 431.345 272.943 429.625 271.221C427.905 269.499 425.573 268.527 423.139 268.52C420.704 268.527 418.371 269.498 416.65 271.22C414.928 272.942 413.957 275.275 413.949 277.71V367.64C413.957 370.074 414.928 372.407 416.65 374.129C418.371 375.851 420.704 376.822 423.139 376.83Z" fill="#F5F5F5"/>
<path d="M417.88 373.21C419.525 373.204 421.102 372.548 422.265 371.385C423.429 370.221 424.085 368.645 424.09 367V278.35C424.085 276.704 423.429 275.128 422.265 273.964C421.102 272.801 419.525 272.145 417.88 272.14C416.235 272.145 414.658 272.801 413.495 273.964C412.331 275.128 411.675 276.704 411.67 278.35V367C411.675 368.645 412.331 370.221 413.495 371.385C414.658 372.548 416.235 373.204 417.88 373.21Z" fill="#EBEBEB"/>
<path d="M409.799 376.83C412.233 376.822 414.565 375.851 416.285 374.129C418.006 372.406 418.974 370.074 418.979 367.64V277.71C418.974 275.276 418.006 272.943 416.285 271.221C414.565 269.499 412.233 268.527 409.799 268.52C407.364 268.527 405.032 269.498 403.31 271.22C401.588 272.942 400.617 275.275 400.609 277.71V367.64C400.617 370.074 401.588 372.407 403.31 374.129C405.032 375.851 407.364 376.822 409.799 376.83Z" fill="#F5F5F5"/>
<path d="M404.54 373.21C406.185 373.204 407.76 372.548 408.922 371.384C410.084 370.221 410.737 368.644 410.74 367V278.35C410.737 276.705 410.084 275.129 408.922 273.965C407.76 272.801 406.185 272.145 404.54 272.14C402.894 272.142 401.316 272.797 400.152 273.961C398.988 275.125 398.333 276.703 398.33 278.35V367C398.333 368.646 398.988 370.224 400.152 371.388C401.316 372.552 402.894 373.207 404.54 373.21Z" fill="#EBEBEB"/>
<path d="M387.271 367.64C387.271 372.716 391.383 376.83 396.456 376.83C401.528 376.83 405.641 372.716 405.641 367.64V277.72C405.641 272.645 401.528 268.53 396.456 268.53C391.383 268.53 387.271 272.645 387.271 277.72V367.64Z" fill="#F5F5F5"/>
<path d="M391.19 373.21C392.836 373.207 394.414 372.552 395.578 371.388C396.742 370.224 397.398 368.646 397.4 367V278.35C397.398 276.703 396.742 275.125 395.578 273.961C394.414 272.797 392.836 272.142 391.19 272.14C389.546 272.145 387.97 272.801 386.809 273.965C385.647 275.129 384.993 276.705 384.99 278.35V367C384.993 368.644 385.647 370.221 386.809 371.384C387.97 372.548 389.546 373.204 391.19 373.21Z" fill="#EBEBEB"/>
<path d="M383.11 376.83C385.545 376.822 387.878 375.851 389.599 374.129C391.321 372.407 392.292 370.074 392.3 367.64V277.71C392.292 275.275 391.321 272.942 389.599 271.22C387.878 269.498 385.545 268.527 383.11 268.52C380.675 268.527 378.342 269.498 376.62 271.22C374.899 272.942 373.928 275.275 373.92 277.71V367.64C373.928 370.074 374.899 372.407 376.62 374.129C378.342 375.851 380.675 376.822 383.11 376.83Z" fill="#F5F5F5"/>
<path d="M377.851 373.21C379.497 373.207 381.075 372.552 382.239 371.388C383.403 370.224 384.058 368.646 384.061 367V278.35C384.058 276.703 383.403 275.125 382.239 273.961C381.075 272.797 379.497 272.142 377.851 272.14C376.205 272.145 374.629 272.801 373.465 273.964C372.302 275.128 371.646 276.704 371.641 278.35V367C371.646 368.645 372.302 370.221 373.465 371.385C374.629 372.548 376.205 373.204 377.851 373.21Z" fill="#EBEBEB"/>
<path d="M369.77 376.83C372.204 376.822 374.536 375.851 376.256 374.129C377.976 372.406 378.945 370.074 378.95 367.64V277.71C378.945 275.276 377.976 272.943 376.256 271.221C374.536 269.499 372.204 268.527 369.77 268.52C367.335 268.527 365.002 269.498 363.281 271.22C361.559 272.942 360.588 275.275 360.58 277.71V367.64C360.588 370.074 361.559 372.407 363.281 374.129C365.002 375.851 367.335 376.822 369.77 376.83Z" fill="#F5F5F5"/>
<path d="M364.511 373.21C366.156 373.204 367.733 372.548 368.896 371.385C370.06 370.221 370.716 368.645 370.721 367V278.35C370.716 276.704 370.06 275.128 368.896 273.964C367.733 272.801 366.156 272.145 364.511 272.14C362.865 272.142 361.287 272.797 360.123 273.961C358.959 275.125 358.303 276.703 358.301 278.35V367C358.303 368.646 358.959 370.224 360.123 371.388C361.287 372.552 362.865 373.207 364.511 373.21Z" fill="#EBEBEB"/>
<path d="M356.42 376.83C358.855 376.822 361.188 375.851 362.91 374.129C364.632 372.407 365.602 370.074 365.61 367.64V277.71C365.602 275.275 364.632 272.942 362.91 271.22C361.188 269.498 358.855 268.527 356.42 268.52C353.986 268.527 351.654 269.499 349.934 271.221C348.214 272.943 347.246 275.276 347.24 277.71V367.64C347.246 370.074 348.214 372.406 349.934 374.129C351.654 375.851 353.986 376.822 356.42 376.83Z" fill="#F5F5F5"/>
<path d="M345.16 364.79H372.1C372.631 364.79 373.139 364.579 373.514 364.204C373.889 363.829 374.1 363.32 374.1 362.79C374.1 362.26 373.889 361.751 373.514 361.376C373.139 361.001 372.631 360.79 372.1 360.79H345.16C344.63 360.79 344.121 361.001 343.746 361.376C343.371 361.751 343.16 362.26 343.16 362.79C343.16 363.32 343.371 363.829 343.746 364.204C344.121 364.579 344.63 364.79 345.16 364.79Z" fill="#F5F5F5"/>
<path d="M345.16 287.29H372.1C372.631 287.29 373.139 287.079 373.514 286.704C373.889 286.329 374.1 285.82 374.1 285.29C374.1 284.76 373.889 284.251 373.514 283.876C373.139 283.501 372.631 283.29 372.1 283.29H345.16C344.63 283.29 344.121 283.501 343.746 283.876C343.371 284.251 343.16 284.76 343.16 285.29C343.16 285.82 343.371 286.329 343.746 286.704C344.121 287.079 344.63 287.29 345.16 287.29Z" fill="#F5F5F5"/>
<path d="M249.999 427.56C357.082 427.56 443.889 422.492 443.889 416.24C443.889 409.988 357.082 404.92 249.999 404.92C142.917 404.92 56.1094 409.988 56.1094 416.24C56.1094 422.492 142.917 427.56 249.999 427.56Z" fill="#F5F5F5"/>
<path d="M403.64 359.66H289.12C287.681 359.667 286.256 359.382 284.932 358.821C283.607 358.261 282.41 357.437 281.413 356.4C280.416 355.363 279.64 354.134 279.133 352.788C278.625 351.442 278.396 350.007 278.46 348.57L286.87 131.17C287.012 128.203 288.283 125.402 290.423 123.34C292.562 121.279 295.409 120.112 298.38 120.08H412.9C414.338 120.073 415.763 120.359 417.088 120.919C418.413 121.48 419.61 122.303 420.606 123.341C421.603 124.378 422.379 125.606 422.887 126.952C423.394 128.298 423.623 129.733 423.56 131.17L415.15 348.57C415.007 351.538 413.736 354.339 411.596 356.4C409.457 358.462 406.611 359.628 403.64 359.66Z" fill="#407BFF"/>
<path d="M423.485 204.515L422.785 222.481L423.884 222.524L424.584 204.558L423.485 204.515Z" fill="#407BFF"/>
<path d="M424.056 190.528L423.766 197.952L424.865 197.995L425.155 190.571L424.056 190.528Z" fill="#407BFF"/>
<path opacity="0.8" d="M403.64 359.66H289.12C287.681 359.667 286.256 359.382 284.932 358.821C283.607 358.261 282.41 357.437 281.413 356.4C280.416 355.363 279.64 354.134 279.133 352.788C278.625 351.442 278.396 350.007 278.46 348.57L286.87 131.17C287.012 128.203 288.283 125.402 290.423 123.34C292.562 121.279 295.409 120.112 298.38 120.08H412.9C414.338 120.073 415.763 120.359 417.088 120.919C418.413 121.48 419.61 122.303 420.606 123.341C421.603 124.378 422.379 125.606 422.887 126.952C423.394 128.298 423.623 129.733 423.56 131.17L415.15 348.57C415.007 351.538 413.736 354.339 411.596 356.4C409.457 358.462 406.611 359.628 403.64 359.66Z" fill="white"/>
<path d="M392.679 355.25H291.679C290.418 355.255 289.169 355.005 288.008 354.513C286.847 354.022 285.798 353.3 284.923 352.391C284.049 351.483 283.369 350.406 282.923 349.227C282.477 348.047 282.275 346.79 282.329 345.53L290.199 141.93C290.326 139.328 291.443 136.872 293.32 135.066C295.197 133.259 297.694 132.238 300.299 132.21H401.299C402.56 132.203 403.81 132.453 404.971 132.944C406.133 133.435 407.183 134.157 408.058 135.066C408.932 135.975 409.613 137.052 410.058 138.232C410.503 139.412 410.704 140.67 410.649 141.93L402.779 345.53C402.649 348.132 401.532 350.586 399.655 352.392C397.779 354.198 395.283 355.22 392.679 355.25Z" fill="#407BFF"/>
<path opacity="0.8" d="M347.36 343.721C350.033 341.099 350.156 336.889 347.634 334.319C345.113 331.748 340.902 331.79 338.229 334.412C335.556 337.034 335.433 341.244 337.955 343.815C340.476 346.385 344.687 346.343 347.36 343.721Z" fill="white"/>
<path d="M344.59 292.75C339.256 292.786 333.971 291.735 329.057 289.661C324.143 287.588 319.703 284.535 316.007 280.689C312.311 276.844 309.437 272.286 307.56 267.293C305.683 262.3 304.843 256.978 305.09 251.65L306.44 216.6H306.37C305.975 216.598 305.58 216.565 305.19 216.5L303.83 251.65C303.577 257.14 304.445 262.624 306.38 267.768C308.316 272.912 311.278 277.609 315.087 281.571C318.896 285.533 323.471 288.678 328.535 290.815C333.598 292.952 339.044 294.036 344.54 294C356.188 293.948 367.339 289.272 375.54 281C375.242 280.698 374.98 280.362 374.76 280C370.82 284.01 366.126 287.201 360.949 289.389C355.771 291.577 350.211 292.719 344.59 292.75Z" fill="white"/>
<path d="M349.429 167.44C327.999 167.44 309.629 183.44 306.049 204.13C306.315 204.115 306.582 204.115 306.849 204.13C307.009 204.13 307.159 204.13 307.319 204.13C310.859 184.13 328.649 168.71 349.379 168.71C354.713 168.673 359.999 169.723 364.915 171.796C369.83 173.869 374.272 176.922 377.969 180.767C381.666 184.613 384.54 189.172 386.418 194.165C388.295 199.158 389.136 204.482 388.889 209.81L387.269 251.67C387.006 258.208 385.222 264.594 382.059 270.32C382.456 270.436 382.836 270.604 383.189 270.82C386.429 264.938 388.253 258.381 388.519 251.67L390.139 209.81C390.396 204.318 389.531 198.831 387.597 193.684C385.664 188.537 382.702 183.838 378.893 179.873C375.083 175.909 370.506 172.761 365.441 170.624C360.375 168.486 354.927 167.403 349.429 167.44Z" fill="white"/>
<path d="M349.099 176C355.838 175.984 362.437 177.918 368.099 181.57C368.279 181.183 368.496 180.814 368.749 180.47C362.891 176.71 356.071 174.723 349.109 174.75C341.232 174.776 333.553 177.219 327.109 181.75C327.33 182.104 327.515 182.479 327.659 182.87C333.924 178.42 341.414 176.019 349.099 176Z" fill="white"/>
<path d="M310.4 255.67C310.09 253.528 309.976 251.363 310.06 249.2L311.49 212.2C311.802 204.573 314.448 197.225 319.07 191.15C318.712 190.97 318.377 190.748 318.07 190.49C313.31 196.759 310.588 204.336 310.27 212.2L308.84 249.2C308.753 251.463 308.873 253.729 309.2 255.97C309.589 255.831 309.991 255.731 310.4 255.67Z" fill="white"/>
<path d="M377.769 188.771C377.467 189.079 377.131 189.354 376.769 189.59C381.726 196.072 384.246 204.089 383.889 212.241L382.459 249.241C382.002 258.938 377.851 268.093 370.857 274.827C363.863 281.56 354.557 285.362 344.849 285.451C337.142 285.486 329.641 282.964 323.519 278.281C323.161 278.559 322.772 278.793 322.359 278.981C328.752 284.016 336.662 286.737 344.799 286.701C354.843 286.609 364.471 282.677 371.707 275.711C378.942 268.745 383.237 259.273 383.709 249.241L385.139 212.241C385.515 203.794 382.906 195.486 377.769 188.771Z" fill="white"/>
<path d="M315.809 226.91L316.279 214.69C316.674 206.302 320.265 198.384 326.314 192.56C332.363 186.736 340.412 183.447 348.809 183.37C355.877 183.318 362.736 185.773 368.166 190.298C373.596 194.824 377.246 201.128 378.469 208.09C378.878 208.017 379.293 207.98 379.709 207.98C378.466 200.707 374.678 194.113 369.021 189.376C363.364 184.638 356.207 182.067 348.829 182.12C340.096 182.197 331.724 185.616 325.432 191.673C319.141 197.73 315.407 205.966 314.999 214.69L314.549 227C314.838 226.964 315.128 226.944 315.419 226.94L315.809 226.91Z" fill="white"/>
<path d="M358.19 275.26C354.103 277.103 349.673 278.06 345.19 278.07C341.119 278.108 337.082 277.316 333.327 275.741C329.572 274.166 326.178 271.841 323.352 268.91C320.526 265.978 318.328 262.501 316.892 258.691C315.456 254.881 314.812 250.818 315 246.75L315.29 239.39H314.9C314.612 239.391 314.325 239.371 314.04 239.33L313.75 246.73C313.555 250.953 314.221 255.171 315.709 259.128C317.197 263.085 319.475 266.697 322.405 269.745C325.334 272.792 328.854 275.211 332.749 276.854C336.644 278.497 340.833 279.329 345.06 279.3C349.805 279.295 354.494 278.272 358.81 276.3C358.564 275.979 358.356 275.63 358.19 275.26Z" fill="white"/>
<path d="M379.23 220.5C379.05 220.5 378.87 220.5 378.7 220.5L377.7 246.78C377.358 254.767 374.082 262.347 368.5 268.07C368.75 268.412 368.962 268.781 369.13 269.17C375.087 263.196 378.59 255.208 378.95 246.78L379.95 220.49C379.72 220.48 379.48 220.5 379.23 220.5Z" fill="white"/>
<path d="M359.74 191.85C356.232 190.267 352.427 189.452 348.58 189.46C341.157 189.526 334.041 192.431 328.693 197.578C323.344 202.726 320.169 209.725 319.82 217.14L318.77 244.29C318.713 245.891 318.793 247.493 319.01 249.08C319.374 248.748 319.773 248.456 320.2 248.21C320.039 246.91 319.978 245.599 320.02 244.29L321.07 217.14C321.404 210.06 324.436 203.377 329.542 198.462C334.648 193.548 341.442 190.774 348.53 190.71C352.169 190.715 355.766 191.496 359.08 193C359.262 192.596 359.483 192.211 359.74 191.85Z" fill="white"/>
<path d="M369.36 199.32C369.117 199.68 368.839 200.015 368.53 200.32C372.291 205.098 374.211 211.067 373.94 217.14L372.89 244.29C372.562 251.165 369.689 257.673 364.831 262.548C359.972 267.423 353.474 270.318 346.6 270.67C346.47 271.118 346.292 271.55 346.07 271.96C353.375 271.733 360.324 268.757 365.529 263.627C370.733 258.497 373.809 251.591 374.14 244.29L375.19 217.14C375.477 210.689 373.405 204.355 369.36 199.32Z" fill="white"/>
<path d="M343.289 198.63C343.309 198.192 343.37 197.757 343.469 197.33C340.276 198.023 337.259 199.368 334.609 201.28C334.995 201.477 335.352 201.726 335.669 202.02C337.973 200.421 340.559 199.27 343.289 198.63Z" fill="white"/>
<path d="M367.119 247.43C365.712 252.023 362.88 256.049 359.032 258.926C355.185 261.802 350.522 263.38 345.719 263.43C342.918 263.45 340.143 262.898 337.563 261.809C334.982 260.719 332.651 259.115 330.712 257.095C328.773 255.074 327.266 252.679 326.284 250.056C325.301 247.433 324.864 244.638 324.999 241.84L325.859 219.59C325.966 216.961 326.549 214.372 327.579 211.95C327.222 211.661 326.906 211.325 326.639 210.95C325.428 213.666 324.75 216.589 324.639 219.56L323.779 241.81C323.643 244.766 324.11 247.719 325.153 250.488C326.195 253.258 327.79 255.786 329.841 257.919C331.891 260.052 334.355 261.746 337.081 262.896C339.808 264.046 342.74 264.63 345.699 264.61C350.786 264.553 355.724 262.88 359.799 259.833C363.873 256.786 366.875 252.524 368.369 247.66C367.946 247.622 367.528 247.545 367.119 247.43Z" fill="white"/>
<path d="M368.999 219.59L368.819 224.21C369.149 224.151 369.484 224.118 369.819 224.11H370.089L370.259 219.56C370.456 214.837 369.109 210.178 366.423 206.288C363.736 202.398 359.856 199.488 355.369 198C355.409 198.446 355.409 198.894 355.369 199.34C359.507 200.815 363.063 203.578 365.517 207.222C367.97 210.866 369.19 215.201 368.999 219.59Z" fill="white"/>
<path d="M347.999 204.131C343.196 204.176 338.593 206.059 335.135 209.391C331.676 212.723 329.624 217.253 329.399 222.051L329.209 226.991C329.627 227.018 330.042 227.082 330.449 227.181L330.649 222.051C330.859 217.581 332.775 213.361 336.003 210.262C339.231 207.162 343.524 205.419 347.999 205.391C350.16 205.379 352.3 205.807 354.29 206.648C356.28 207.49 358.079 208.728 359.575 210.286C361.072 211.844 362.236 213.691 362.996 215.714C363.757 217.736 364.098 219.892 363.999 222.051L363.329 239.391C363.141 243.294 361.653 247.023 359.102 249.984C356.55 252.945 353.082 254.968 349.249 255.731C349.294 256.149 349.294 256.572 349.249 256.991C353.413 256.21 357.192 254.049 359.976 250.855C362.759 247.661 364.385 243.622 364.589 239.391L365.259 222.051C365.366 219.724 364.999 217.401 364.178 215.222C363.357 213.043 362.1 211.054 360.485 209.376C358.87 207.699 356.929 206.369 354.782 205.467C352.636 204.565 350.328 204.11 347.999 204.131Z" fill="white"/>
<path d="M336.32 218.831C336.58 218.815 336.841 218.815 337.1 218.831C338.177 216.975 339.72 215.433 341.575 214.356C343.431 213.279 345.535 212.705 347.68 212.691C348.989 212.691 350.287 212.914 351.52 213.351C351.66 212.951 351.838 212.566 352.05 212.201C350.666 211.694 349.204 211.433 347.73 211.431C345.248 211.457 342.819 212.158 340.705 213.46C338.591 214.762 336.871 216.615 335.73 218.821C335.927 218.814 336.124 218.817 336.32 218.831Z" fill="white"/>
<path d="M358.52 236.94C358.455 238.371 358.136 239.779 357.58 241.1C357.969 241.244 358.337 241.443 358.67 241.69C359.325 240.187 359.698 238.577 359.77 236.94L360.25 224.5C360.288 223.339 360.17 222.179 359.9 221.05C359.523 221.249 359.123 221.404 358.71 221.51C358.94 222.492 359.037 223.501 359 224.51L358.52 236.94Z" fill="white"/>
<path d="M349 248.38C348.103 248.597 347.184 248.708 346.26 248.71C344.737 248.713 343.23 248.407 341.829 247.81C340.427 247.213 339.162 246.337 338.109 245.237C337.056 244.136 336.238 242.834 335.704 241.407C335.169 239.981 334.93 238.461 335 236.94L335.22 231.31C334.801 231.274 334.385 231.197 333.98 231.08L333.75 236.94C333.676 238.627 333.945 240.311 334.542 241.89C335.138 243.469 336.05 244.911 337.221 246.127C338.392 247.343 339.798 248.308 341.354 248.963C342.909 249.619 344.582 249.951 346.27 249.94C347.318 249.936 348.362 249.809 349.38 249.56C349.22 249.179 349.092 248.784 349 248.38Z" fill="white"/>
<path d="M347.439 218.81C345.251 218.836 343.157 219.7 341.587 221.223C340.017 222.747 339.091 224.814 338.999 227L338.709 234.54C338.682 235.243 338.752 235.946 338.919 236.63C339.237 236.246 339.607 235.91 340.019 235.63C339.969 235.272 339.949 234.911 339.959 234.55L340.249 227.01C340.338 225.166 341.129 223.425 342.461 222.146C343.792 220.867 345.562 220.145 347.409 220.13C348.299 220.128 349.18 220.306 349.999 220.654C350.818 221.002 351.558 221.513 352.174 222.155C352.79 222.797 353.269 223.557 353.583 224.39C353.896 225.223 354.038 226.111 353.999 227L353.709 234.54C353.644 235.877 353.209 237.17 352.454 238.275C351.698 239.38 350.651 240.254 349.429 240.8C349.407 241.272 349.34 241.741 349.229 242.2C350.84 241.642 352.247 240.614 353.269 239.249C354.29 237.883 354.879 236.243 354.959 234.54L355.259 227C355.315 225.941 355.153 224.881 354.785 223.887C354.417 222.893 353.849 221.984 353.116 221.217C352.384 220.45 351.503 219.841 350.526 219.427C349.55 219.013 348.499 218.803 347.439 218.81Z" fill="white"/>
<path d="M368.471 128.9H333.371C333.111 128.901 332.853 128.848 332.614 128.747C332.375 128.646 332.158 128.498 331.977 128.311C331.796 128.125 331.655 127.904 331.561 127.661C331.467 127.419 331.423 127.16 331.431 126.9C331.461 126.363 331.695 125.857 332.085 125.485C332.475 125.114 332.992 124.905 333.531 124.9H368.621C368.881 124.899 369.14 124.95 369.38 125.051C369.621 125.151 369.839 125.299 370.021 125.486C370.203 125.673 370.345 125.894 370.44 126.137C370.534 126.38 370.579 126.64 370.571 126.9C370.538 127.437 370.303 127.942 369.914 128.313C369.524 128.684 369.009 128.894 368.471 128.9Z" fill="#407BFF"/>
<path opacity="0.2" d="M313.571 164C311.495 164.163 309.412 164.209 307.331 164.14C306.595 163.982 305.84 163.935 305.091 164H304.861C298.99 163.57 293.181 162.521 287.531 160.87C286.951 160.7 286.351 160.5 285.741 160.29L280.881 286.16L313.361 264.49C314.829 263.526 316.048 262.228 316.917 260.701C317.786 259.175 318.281 257.465 318.361 255.71L321.621 171.56C321.667 170.512 321.487 169.467 321.092 168.496C320.696 167.524 320.096 166.65 319.332 165.932C318.567 165.214 317.657 164.67 316.662 164.336C315.668 164.003 314.614 163.888 313.571 164Z" fill="black"/>
<path d="M305.74 154.61C303.668 154.776 301.588 154.826 299.51 154.76C298.774 154.604 298.02 154.553 297.27 154.61H297.03C291.162 154.184 285.356 153.134 279.71 151.48C272.63 149.279 266.106 145.582 260.58 140.64C259.238 139.347 257.444 138.629 255.58 138.64H247.1C245.199 138.654 243.37 139.365 241.96 140.64C236.094 145.567 229.291 149.255 221.96 151.48C216.231 153.127 210.346 154.176 204.4 154.61H204.16C203.407 154.553 202.649 154.604 201.91 154.76C199.835 154.826 197.759 154.776 195.69 154.61C194.625 154.528 193.554 154.661 192.54 155C191.527 155.34 190.592 155.878 189.79 156.585C188.989 157.291 188.337 158.151 187.873 159.114C187.409 160.077 187.143 161.123 187.09 162.19L183.83 246.35C183.756 248.054 184.109 249.749 184.859 251.281C185.608 252.813 186.729 254.133 188.12 255.12L235.27 288.28C237.007 289.498 239.079 290.148 241.2 290.14H249.67C251.836 290.132 253.951 289.485 255.75 288.28L305.46 255.12C306.924 254.154 308.14 252.856 309.008 251.332C309.877 249.809 310.374 248.102 310.46 246.35L313.71 162.19C313.753 161.149 313.573 160.111 313.182 159.146C312.791 158.181 312.199 157.31 311.444 156.592C310.689 155.875 309.79 155.327 308.806 154.985C307.823 154.643 306.777 154.515 305.74 154.61Z" fill="#407BFF"/>
<path opacity="0.8" d="M305.74 154.61C303.668 154.776 301.588 154.826 299.51 154.76C298.774 154.604 298.02 154.553 297.27 154.61H297.03C291.162 154.184 285.356 153.134 279.71 151.48C272.63 149.279 266.106 145.582 260.58 140.64C259.238 139.347 257.444 138.629 255.58 138.64H247.1C245.199 138.654 243.37 139.365 241.96 140.64C236.094 145.567 229.291 149.255 221.96 151.48C216.231 153.127 210.346 154.176 204.4 154.61H204.16C203.407 154.553 202.649 154.604 201.91 154.76C199.835 154.826 197.759 154.776 195.69 154.61C194.625 154.528 193.554 154.661 192.54 155C191.527 155.34 190.592 155.878 189.79 156.585C188.989 157.291 188.337 158.151 187.873 159.114C187.409 160.077 187.143 161.123 187.09 162.19L183.83 246.35C183.756 248.054 184.109 249.749 184.859 251.281C185.608 252.813 186.729 254.133 188.12 255.12L235.27 288.28C237.007 289.498 239.079 290.148 241.2 290.14H249.67C251.836 290.132 253.951 289.485 255.75 288.28L305.46 255.12C306.924 254.154 308.14 252.856 309.008 251.332C309.877 249.809 310.374 248.102 310.46 246.35L313.71 162.19C313.753 161.149 313.573 160.111 313.182 159.146C312.791 158.181 312.199 157.31 311.444 156.592C310.689 155.875 309.79 155.327 308.806 154.985C307.823 154.643 306.777 154.515 305.74 154.61Z" fill="white"/>
<path d="M189.34 246.19L192.45 165.72C192.519 164.245 193.15 162.852 194.214 161.827C195.277 160.802 196.693 160.224 198.17 160.21H200C207.913 160.112 215.775 158.934 223.37 156.71C230.593 154.521 237.367 151.056 243.37 146.48C244.358 145.674 245.595 145.234 246.87 145.234C248.145 145.234 249.381 145.674 250.37 146.48C256.067 151.085 262.59 154.561 269.59 156.72C277.093 158.955 284.871 160.133 292.7 160.22H294.39C295.118 160.214 295.84 160.356 296.512 160.639C297.183 160.921 297.789 161.338 298.294 161.863C298.799 162.388 299.191 163.011 299.446 163.693C299.702 164.375 299.815 165.102 299.78 165.83L296.67 246.2C296.628 247.105 296.374 247.988 295.927 248.777C295.481 249.566 294.855 250.238 294.1 250.74L244.7 283.74C243.783 284.365 242.699 284.699 241.59 284.699C240.48 284.699 239.396 284.365 238.48 283.74L191.62 250.74C190.887 250.235 190.294 249.553 189.895 248.758C189.497 247.962 189.306 247.079 189.34 246.19Z" fill="#407BFF"/>
<path opacity="0.2" d="M203.07 241.94L205.71 173.53C212.78 172.97 219.775 171.701 226.59 169.74C233.543 167.649 240.17 164.599 246.28 160.68C252.134 164.618 258.536 167.671 265.28 169.74C271.995 171.709 278.895 172.979 285.87 173.53L283.22 241.94L242.08 269.38L203.07 241.94Z" fill="white"/>
<path opacity="0.2" d="M216.9 234.79L218.81 185.38C222.47 184.69 226.16 183.82 229.81 182.77C235.28 181.158 240.582 179.022 245.64 176.39C250.531 179.031 255.678 181.168 261 182.77C264.614 183.816 268.224 184.686 271.83 185.38L269.92 234.79L242.72 253L216.9 234.79Z" fill="white"/>
<path d="M126.14 157.64C124.27 161.52 122.38 165.5 120.56 169.42C119.653 171.42 118.78 173.38 117.94 175.3C117.156 177.137 116.468 179.012 115.88 180.92C115.468 182.744 115.28 184.611 115.32 186.48C115.32 188.58 115.32 190.76 115.32 192.93L115.65 206.11L111.03 206.79C109.873 202.437 108.936 198.028 108.22 193.58C107.88 191.34 107.54 189.09 107.36 186.76C107.26 185.6 107.18 184.42 107.16 183.18C107.16 182.55 107.16 181.92 107.16 181.18C107.16 180.84 107.21 180.48 107.27 180.08C107.33 179.68 107.39 179.4 107.45 179.08C107.946 176.702 108.614 174.362 109.45 172.08C110.22 169.9 111.06 167.77 111.93 165.68C113.68 161.49 115.56 157.45 117.66 153.4L126.14 157.64Z" fill="#FF8B7B"/>
<path d="M119.001 207.93L115.161 203.51L110.821 203.73C108.821 208.48 113.171 211.51 113.171 211.51L113.941 214.11C114.02 214.369 114.156 214.607 114.338 214.809C114.519 215.01 114.743 215.168 114.993 215.273C115.243 215.378 115.513 215.427 115.784 215.416C116.055 215.405 116.32 215.335 116.561 215.21L119.001 214C119.34 213.833 119.626 213.574 119.824 213.252C120.022 212.93 120.125 212.558 120.121 212.18V210.69C120.08 209.668 119.684 208.692 119.001 207.93Z" fill="#FF8B7B"/>
<path d="M106.781 405.47C106.044 405.141 105.349 404.724 104.711 404.23C104.677 404.205 104.652 404.171 104.638 404.132C104.623 404.093 104.621 404.05 104.631 404.01C104.642 403.967 104.664 403.929 104.696 403.899C104.728 403.869 104.768 403.848 104.811 403.84C105.181 403.77 108.451 403.17 109.231 404.03C109.317 404.128 109.375 404.248 109.399 404.376C109.424 404.504 109.414 404.637 109.371 404.76C109.329 404.972 109.233 405.169 109.093 405.334C108.953 405.498 108.773 405.624 108.571 405.7C107.966 405.844 107.33 405.762 106.781 405.47ZM105.401 404.18C106.721 405.09 107.841 405.51 108.401 405.29C108.534 405.236 108.65 405.148 108.739 405.036C108.829 404.924 108.888 404.791 108.911 404.65C108.944 404.603 108.961 404.547 108.961 404.49C108.961 404.433 108.944 404.377 108.911 404.33C108.491 403.87 106.711 404 105.401 404.18Z" fill="#407BFF"/>
<path d="M104.751 404.26L104.661 404.19C104.644 404.156 104.635 404.119 104.635 404.08C104.635 404.042 104.644 404.004 104.661 403.97C104.661 403.87 105.801 401.41 107.071 400.97C107.233 400.903 107.408 400.876 107.583 400.892C107.757 400.908 107.925 400.965 108.071 401.06C108.228 401.13 108.355 401.252 108.432 401.405C108.508 401.558 108.529 401.733 108.491 401.9C108.251 402.95 105.921 404.15 104.921 404.27C104.894 404.281 104.865 404.285 104.835 404.283C104.806 404.282 104.778 404.274 104.751 404.26ZM107.751 401.39C107.584 401.326 107.399 401.326 107.231 401.39C106.471 401.65 105.681 402.95 105.231 403.75C106.311 403.44 107.871 402.45 108.011 401.82C108.011 401.71 108.011 401.58 107.791 401.44L107.751 401.39Z" fill="#407BFF"/>
<path d="M141.3 121.62C142.13 127.1 144 139.05 140.01 142.62C140.01 142.62 141.25 148.19 151.4 148.39C162.57 148.61 156.99 142.95 156.99 142.95C150.99 141.38 151.32 136.87 152.58 132.65L141.3 121.62Z" fill="#FF8B7B"/>
<path d="M164.16 112.54L163.98 112.45C163.901 112.368 163.857 112.259 163.857 112.145C163.857 112.032 163.901 111.922 163.98 111.84C164.413 111.291 164.969 110.852 165.603 110.558C166.237 110.265 166.932 110.125 167.63 110.15C167.687 110.157 167.742 110.174 167.792 110.202C167.841 110.229 167.885 110.266 167.921 110.311C167.956 110.356 167.982 110.407 167.998 110.462C168.013 110.517 168.017 110.574 168.01 110.63C167.995 110.746 167.936 110.852 167.844 110.925C167.753 110.997 167.637 111.032 167.52 111.02C166.968 111.011 166.422 111.129 165.924 111.367C165.426 111.605 164.99 111.955 164.65 112.39C164.592 112.46 164.515 112.511 164.428 112.538C164.341 112.565 164.248 112.566 164.16 112.54Z" fill="#263238"/>
<path d="M166.241 117.93C166.67 119.682 167.344 121.365 168.241 122.93C167.839 123.164 167.39 123.307 166.927 123.348C166.464 123.39 165.998 123.329 165.561 123.17L166.241 117.93Z" fill="#FF5652"/>
<path d="M165.73 116.59C165.64 117.33 165.96 117.97 166.44 118.02C166.92 118.07 167.38 117.5 167.44 116.76C167.5 116.02 167.21 115.38 166.73 115.33C166.25 115.28 165.82 115.85 165.73 116.59Z" fill="#263238"/>
<path d="M166.551 115.35L168.381 115.01C168.381 115.01 167.301 116.31 166.551 115.35Z" fill="#263238"/>
<path d="M174.64 409.13L184.38 406.05L183.43 386.21L173.68 389.28L174.64 409.13Z" fill="#FF8B7B"/>
<path d="M94.6914 402.04L103.461 404.52L110.811 384.21L102.031 381.73L94.6914 402.04Z" fill="#FF8B7B"/>
<path d="M104.581 402.77L95.1806 398.77C95.0167 398.701 94.8336 398.693 94.6647 398.748C94.4958 398.803 94.3524 398.917 94.2606 399.07L89.8506 406.22C89.7437 406.398 89.6761 406.597 89.6522 406.803C89.6284 407.009 89.6489 407.218 89.7123 407.416C89.7757 407.614 89.8806 407.796 90.02 407.95C90.1594 408.104 90.33 408.227 90.5206 408.31C93.8306 409.63 95.5206 410.1 99.6206 411.85C102.161 412.92 104.151 416.18 109.741 416.18C113.521 416.18 114.241 412.76 112.741 412.26C105.741 410.02 107.171 406.69 105.741 403.86C105.496 403.37 105.085 402.983 104.581 402.77Z" fill="#263238"/>
<path d="M187.86 407.42C187.034 407.397 186.213 407.287 185.41 407.09C185.368 407.078 185.33 407.055 185.3 407.024C185.27 406.992 185.249 406.953 185.24 406.91C185.232 406.868 185.237 406.826 185.253 406.787C185.269 406.748 185.295 406.714 185.33 406.69C185.64 406.49 188.33 404.69 189.46 405.17C189.583 405.224 189.689 405.308 189.77 405.415C189.85 405.522 189.902 405.647 189.92 405.78C189.97 405.985 189.966 406.2 189.908 406.404C189.85 406.607 189.741 406.792 189.59 406.94C189.091 407.304 188.476 407.475 187.86 407.42ZM186.02 406.78C187.63 407.1 188.84 407.04 189.29 406.62C189.388 406.519 189.459 406.393 189.494 406.257C189.529 406.12 189.528 405.976 189.49 405.84C189.485 405.781 189.464 405.724 189.431 405.675C189.398 405.626 189.353 405.587 189.3 405.56C188.72 405.3 187.14 406.09 186 406.78H186.02Z" fill="#407BFF"/>
<path d="M185.46 407.09H185.35C185.317 407.074 185.289 407.048 185.269 407.016C185.25 406.984 185.24 406.948 185.24 406.91C185.24 406.79 185.16 404.14 186.13 403.26C186.25 403.144 186.396 403.057 186.556 403.007C186.715 402.957 186.885 402.944 187.05 402.97C187.223 402.976 187.39 403.037 187.525 403.145C187.66 403.254 187.757 403.403 187.8 403.57C188.04 404.57 186.43 406.57 185.57 407.1C185.533 407.107 185.495 407.104 185.46 407.09ZM186.91 403.36C186.732 403.363 186.561 403.431 186.43 403.55C185.85 404.08 185.7 405.55 185.67 406.45C186.53 405.75 187.52 404.26 187.37 403.63C187.37 403.53 187.29 403.4 187.01 403.37L186.91 403.36Z" fill="#407BFF"/>
<path d="M184.651 405.81H174.311C174.133 405.804 173.96 405.866 173.827 405.983C173.693 406.1 173.609 406.263 173.591 406.44L172.681 414.62C172.667 414.83 172.697 415.04 172.767 415.238C172.838 415.436 172.948 415.617 173.092 415.771C173.235 415.924 173.408 416.047 173.601 416.131C173.793 416.215 174.001 416.259 174.211 416.26C177.821 416.2 179.551 415.99 184.101 415.99C186.901 415.99 190.991 416.28 194.861 416.28C198.731 416.28 198.801 412.46 197.181 412.11C189.921 410.56 188.711 408.42 186.181 406.38C185.75 406.023 185.211 405.822 184.651 405.81Z" fill="#263238"/>
<path opacity="0.2" d="M183.42 386.21L183.94 396.84L174.17 399.52L173.68 389.29L183.42 386.21Z" fill="black"/>
<path opacity="0.2" d="M102.03 381.74L110.8 384.22L107.02 394.68L98.2402 392.2L102.03 381.74Z" fill="black"/>
<path d="M122.001 143.78C118.161 144.68 113.941 158.51 113.941 158.51L124.651 169.84C124.651 169.84 133.751 156.77 131.961 152.05C130.071 147.13 126.491 142.72 122.001 143.78Z" fill="#407BFF"/>
<path opacity="0.2" d="M122.001 143.78C118.161 144.68 113.941 158.51 113.941 158.51L124.651 169.84C124.651 169.84 133.751 156.77 131.961 152.05C130.071 147.13 126.491 142.72 122.001 143.78Z" fill="black"/>
<path opacity="0.4" d="M127.93 152.45C129.93 150.65 131.19 151.15 132.07 152.55C132.91 156.62 127.22 165.84 125.07 169.12C124.16 165.27 123.52 156.54 127.93 152.45Z" fill="black"/>
<path d="M171.001 147C171.531 151 171.201 163.29 163.441 200.47L126.051 199.74C127.361 184.55 127.801 175.17 121.941 143.82C127.226 142.848 132.573 142.257 137.941 142.05C143.609 141.756 149.29 141.866 154.941 142.38C160.351 142.98 166.281 144.16 168.941 144.73C169.478 144.848 169.964 145.13 170.333 145.537C170.702 145.944 170.936 146.455 171.001 147Z" fill="#407BFF"/>
<path opacity="0.2" d="M171.001 147C171.531 151 171.201 163.29 163.441 200.47L126.051 199.74C127.361 184.55 127.801 175.17 121.941 143.82C127.226 142.848 132.573 142.257 137.941 142.05C143.609 141.756 149.29 141.866 154.941 142.38C160.351 142.98 166.281 144.16 168.941 144.73C169.478 144.848 169.964 145.13 170.333 145.537C170.702 145.944 170.936 146.455 171.001 147Z" fill="black"/>
<path d="M141.291 111.7C140.751 120.85 140.291 124.7 144.341 129.82C150.341 137.5 161.661 135.82 164.911 126.99C167.831 118.99 168.221 105.37 159.801 100.91C151.381 96.4499 141.821 102.55 141.291 111.7Z" fill="#FF8B7B"/>
<path d="M153.59 200.24C153.59 200.24 148.16 267 141 302.43C135.22 331.08 109 392.99 109 392.99L97.5898 388.17C97.5898 388.17 110.8 318.05 119.73 301C129.73 242.19 113.54 222.14 126.07 199.74L153.59 200.24Z" fill="#263238"/>
<path opacity="0.4" d="M143.42 236.75C139.33 254.14 141.98 269.93 144.75 280.35C146.39 269.18 147.87 257.15 149.13 245.88C147.4 242.64 145.23 239.58 143.42 236.75Z" fill="black"/>
<path d="M163.46 200.43C163.46 200.43 177.66 265.62 179.46 293.49C181.36 322.49 185.17 391.19 185.17 391.19L172.65 394.55C172.65 394.55 158.57 323.74 159.65 302.43C152.65 272.19 128.24 199.78 128.24 199.78L163.46 200.43Z" fill="#263238"/>
<path d="M187.06 394.37L170.8 397.11L169.24 391.31L186.65 388.35L187.06 394.37Z" fill="#407BFF"/>
<path d="M111.05 393.56L95.8203 389.25L96.6703 383.6L112.95 387.61L111.05 393.56Z" fill="#407BFF"/>
<path d="M125.611 197.5L123.771 200.81C123.631 201.06 123.931 201.33 124.361 201.34L163.571 202.11C163.911 202.11 164.201 201.96 164.231 201.75L164.721 198.41C164.721 198.18 164.471 197.98 164.101 197.97L126.231 197.23C126.113 197.216 125.993 197.234 125.885 197.281C125.776 197.329 125.681 197.404 125.611 197.5Z" fill="white"/>
<path d="M130.5 201.83H129.5C129.3 201.83 129.15 201.71 129.17 201.59L129.84 197.25C129.84 197.13 130.04 197.03 130.24 197.03H131.24C131.44 197.03 131.59 197.14 131.57 197.27L130.9 201.6C130.89 201.73 130.71 201.83 130.5 201.83Z" fill="#263238"/>
<path d="M155.09 202.31H154.09C153.89 202.31 153.74 202.2 153.76 202.07L154.43 197.74C154.43 197.61 154.63 197.51 154.84 197.51H155.84C156.04 197.51 156.19 197.62 156.17 197.75L155.5 202.08C155.47 202.21 155.29 202.31 155.09 202.31Z" fill="#263238"/>
<path d="M173.071 151.71C174.901 155.6 176.941 159.64 179.071 163.47C181.093 167.267 183.396 170.907 185.961 174.36C186.281 174.77 186.601 175.19 186.861 175.49C187.121 175.79 187.451 176.15 187.791 176.49C188.491 177.172 189.232 177.81 190.011 178.4C191.689 179.667 193.449 180.819 195.281 181.85C199.116 184.014 203.072 185.954 207.131 187.66L205.911 192.16C201.202 191.367 196.592 190.07 192.161 188.29C189.855 187.376 187.628 186.276 185.501 185C184.383 184.322 183.31 183.57 182.291 182.75C181.761 182.33 181.291 181.86 180.741 181.37C180.191 180.88 179.741 180.37 179.381 179.93C178.521 179 177.761 178.05 176.981 177.1C176.201 176.15 175.501 175.16 174.821 174.17C173.421 172.17 172.161 170.17 170.941 168.17C168.509 164.107 166.341 159.892 164.451 155.55L173.071 151.71Z" fill="#FF8B7B"/>
<path d="M168.38 144.55C177.14 146.46 179.26 160.23 179.26 160.23L170.63 170.29C170.63 170.29 156.92 157.29 157.63 150.22C158.1 145 163.6 143.51 168.38 144.55Z" fill="#407BFF"/>
<path opacity="0.2" d="M168.38 144.55C177.14 146.46 179.26 160.23 179.26 160.23L170.63 170.29C170.63 170.29 156.92 157.29 157.63 150.22C158.1 145 163.6 143.51 168.38 144.55Z" fill="black"/>
<path d="M217.261 191.2L214.831 188.33C214.831 188.33 206.991 186.5 203.521 188.2L202.451 191.43L211.211 195.97L213.041 196.83C213.476 197.034 213.971 197.075 214.433 196.944C214.896 196.814 215.297 196.521 215.561 196.12L217.321 193.64C217.582 193.284 217.717 192.851 217.707 192.41C217.696 191.968 217.539 191.543 217.261 191.2Z" fill="#FF8B7B"/>
<path d="M166.86 162.25C168.39 158.17 169.24 153.25 168.86 150.9C168.34 155.08 165.16 160.8 161.97 165.05C156.239 167.341 150.063 168.304 143.906 167.867C137.749 167.431 131.771 165.606 126.42 162.53C123.79 157.21 121.61 148.9 122.99 143.94C121.3 146.46 120.05 153.35 120.85 158.21C118.16 155.46 116.59 152.37 116.58 149.33C116.58 134.72 134.19 135.61 134.43 124.95C134.67 114.29 130.33 92.5004 152.07 97.1504C166.31 96.4804 163.33 109.04 161.01 116.68C158.9 123.73 180.44 150.79 166.86 162.25Z" fill="#263238"/>
<path d="M152.111 97.15C161.011 92.4 170.111 99.88 165.451 107.71C161.341 107.53 158.011 110.14 161.231 115.36C151.681 109.34 145.831 97.68 152.111 97.15Z" fill="#263238"/>
<path d="M161.47 114C162.438 115.668 162.845 117.603 162.63 119.52C162.35 121.98 160.43 121.98 159.08 120.52C157.73 119.06 156.61 116.03 157.39 114.15C157.546 113.744 157.818 113.393 158.172 113.14C158.525 112.887 158.946 112.744 159.38 112.728C159.815 112.712 160.245 112.824 160.616 113.05C160.987 113.276 161.284 113.606 161.47 114Z" fill="#FF8B7B"/>
</svg>
