<svg xmlns="http://www.w3.org/2000/svg" viewBox="0 0 465.66 482.15"><defs><style>.cls-1{isolation:isolate;}.cls-2{fill:#28234c;}.cls-3,.cls-4{fill:#d27876;}.cls-4{mix-blend-mode:multiply;}.cls-5{fill:#fcf4ee;}.cls-6{fill:#8f7efe;}.cls-7{fill:none;stroke:#28234c;stroke-miterlimit:10;stroke-width:2px;}</style></defs><g class="cls-1"><g id="Layer_2" data-name="Layer 2"><g id="OBJECTS"><path class="cls-2" d="M167.44,107.43a23.88,23.88,0,0,1-6.8-26.53c-2.59.5-5.26-1.08-6.67-3.31a14.1,14.1,0,0,1-1.75-7.6c.05-14.38,10.16-27.3,22.73-34.28-4.35.85-8.95,1.69-13.14.24a3.77,3.77,0,0,1-2.23-1.59c-.86-1.63.57-3.52,2-4.7A30,30,0,0,1,183,22.94,36.3,36.3,0,0,1,199.44.87c1.11-.64,2.67-1.16,3.54-.22a2.89,2.89,0,0,1,.39,2.4,27.21,27.21,0,0,1-2.45,7.86C228-1.68,259.58-2.6,288.68,4.21c5.19,1.22,10.71,2.93,13.89,7.21s2.18,11.82-2.94,13.3C313,29.23,327.16,36,333,48.88a6.81,6.81,0,0,1,.8,4.3c-.48,2.08-2.53,3.37-4.44,4.32a58.63,58.63,0,0,1-13.41,4.74,78.24,78.24,0,0,1,8.87,21.7c1.23,5.09,1.95,10.43.83,15.53-2.07,9.42-9.86,16.35-17.31,22.48"/><path class="cls-3" d="M294,108.73c-.95,31.67-15.5,79.48-59.73,78.15S178.33,137,179.28,105.3A57.37,57.37,0,1,1,294,108.73Z"/><path class="cls-4" d="M213.75,128.59c-.11,3.74-4.34,6.65-9.44,6.5s-9.14-3.31-9-7.05,4.33-6.66,9.43-6.5S213.86,124.85,213.75,128.59Z"/><path class="cls-4" d="M258.16,129.92c-.11,3.74,3.93,6.9,9,7.05s9.32-2.76,9.43-6.5-3.93-6.9-9-7S258.27,126.18,258.16,129.92Z"/><path class="cls-2" d="M242.39,99.26A86.73,86.73,0,0,1,245,109.43a104.19,104.19,0,0,1,1.52,10.42c.33,3.49.49,7,.48,10.52s-.19,7-.53,10.52l-.07.73-.68,0a38.22,38.22,0,0,1-8.5-.43,65.06,65.06,0,0,1-8.21-1.86c2.79.3,5.56.63,8.32.78a43.19,43.19,0,0,0,8.21-.18l-.75.78c.18-3.46.25-6.93.24-10.39s-.14-6.92-.36-10.38-.52-6.91-.91-10.37S242.9,102.72,242.39,99.26Z"/><path class="cls-2" d="M197.35,85.81a25.91,25.91,0,0,0,9.91,2.69,24.52,24.52,0,0,0,5-.15,22.74,22.74,0,0,0,4.8-1.08,19.22,19.22,0,0,0,4.32-2.17l4-2.62a77.51,77.51,0,0,0,8-6.29l.44.23a17.12,17.12,0,0,1-10.22,13.09,32.2,32.2,0,0,1-5.54,1.63,26.46,26.46,0,0,1-5.66.53,27.12,27.12,0,0,1-5.56-.7,25.35,25.35,0,0,1-9.79-4.73Z"/><path class="cls-2" d="M284.19,91.8a25.25,25.25,0,0,1-10.29,3.51,27.57,27.57,0,0,1-5.6,0,26.89,26.89,0,0,1-5.55-1.22,33.1,33.1,0,0,1-5.31-2.29,16.23,16.23,0,0,1-4.46-3.7,16.53,16.53,0,0,1-4.1-10.53l.47-.18a79.19,79.19,0,0,0,7.21,7.22l3.65,3.09a19.9,19.9,0,0,0,4,2.68,23,23,0,0,0,4.63,1.65,24,24,0,0,0,4.95.75A26,26,0,0,0,284,91.35Z"/><path class="cls-2" d="M209.28,108a9.81,9.81,0,0,1,2.74-6.67,8.2,8.2,0,0,1,7.44-2.19,9.16,9.16,0,0,1,3.69,1.58,8.6,8.6,0,0,1,2.51,3.07,10.5,10.5,0,0,1,.58,7.18,18,18,0,0,0-2.61-6,8,8,0,0,0-2.1-1.93c-.21-.1-.4-.22-.6-.34s-.44-.16-.65-.25a7.58,7.58,0,0,0-1.36-.38,6.92,6.92,0,0,0-5.38,1A15.65,15.65,0,0,0,209.28,108Z"/><path class="cls-2" d="M270,111.75a15.5,15.5,0,0,0-3.33-5.55,6.91,6.91,0,0,0-5.11-2,8.12,8.12,0,0,0-1.41.13c-.22,0-.46.07-.68.14s-.43.16-.65.22a8,8,0,0,0-2.41,1.53,18,18,0,0,0-3.62,5.42,10.46,10.46,0,0,1,1.84-7,8.59,8.59,0,0,1,3-2.58,8.94,8.94,0,0,1,3.9-.9,8.24,8.24,0,0,1,6.95,3.46A9.85,9.85,0,0,1,270,111.75Z"/><path class="cls-4" d="M224.17,152.86a7.09,7.09,0,0,0,.46,2.45,12.5,12.5,0,0,0,7.55,7.46,12.79,12.79,0,0,0,8.59-.12A27.48,27.48,0,0,0,224.17,152.86Z"/><path class="cls-2" d="M246.64,150a3.27,3.27,0,0,0-2.94-.35c-1,.31-3.75,4.19-8,4.06s-5.89-4.68-8.43-4.54a3.36,3.36,0,0,0-2.87,2.38,4.23,4.23,0,0,0-.2,1.32,27.48,27.48,0,0,1,16.6,9.79,11.26,11.26,0,0,0,2.17-1.08,10.3,10.3,0,0,0,4.73-9.13A3.33,3.33,0,0,0,246.64,150Z"/><path class="cls-2" d="M174,119.05a45.91,45.91,0,0,0,15.29-21.57,70.37,70.37,0,0,0,3.5-26.43A86.16,86.16,0,0,0,202,78.9c2.12,1.64,4.51,3.24,7.19,3.25a1.45,1.45,0,0,0,1.14-.38,1.6,1.6,0,0,0,.17-1.33c-1-5.8-3.46-11.23-5.89-16.59,3.57,5.48,9.31,9.11,15,12.29,12.49,6.93,26.19,12.59,40.48,12.58a2.23,2.23,0,0,0,1.77-.54,2.13,2.13,0,0,0,.32-1.59,13.69,13.69,0,0,0-4.05-8.48c.78,1.48,2.55,2.11,4.17,2.55a74.66,74.66,0,0,0,24.9,2.41c-2.71,14.36,1.92,29.31,11.25,40.54-.6-10.22,4.5-22.31,3.61-32.51a44.53,44.53,0,0,0-3.58-12.83c-6.15-15.08-15.46-29.76-29.81-37.49-16.73-9-37.66-6.91-55,.83A70.32,70.32,0,0,0,193.27,55C178.08,69.75,172.42,92.48,175,113.49"/><path class="cls-3" d="M156.59,118.49A24.74,24.74,0,0,0,167,136.3a13.78,13.78,0,0,0,6.21,2.62c5.14.58,10-3.28,11.89-7.95s1.23-9.88-.06-14.69c-1.66-6.22-5.17-12.82-11.59-14.57C163.12,98.89,155.8,109.8,156.59,118.49Z"/><path class="cls-4" d="M179.66,133.13a12.62,12.62,0,0,1-5.65-3.9,2.47,2.47,0,0,1-.62-1.21c-.1-.86.64-1.59,1.32-2.18l4.11-3.55a2.17,2.17,0,0,0,.68-.83,2,2,0,0,0-.06-1.14c-1.2-4.78-2.64-9.95-6.71-12.91a6.51,6.51,0,0,0-9.22.89,18.48,18.48,0,0,0-3.16,5.09s-1.68,10.06,5.27,16.46S179.66,133.13,179.66,133.13Z"/><path class="cls-2" d="M160.34,113.39a16,16,0,0,1,2.9-5.64,8.81,8.81,0,0,1,2.66-2,6.73,6.73,0,0,1,3.45-.69,7.66,7.66,0,0,1,3.34,1.12,12.71,12.71,0,0,1,2.65,2.13,17.61,17.61,0,0,1,3.41,5.65,47.06,47.06,0,0,1,1.78,6.12,4.83,4.83,0,0,1,.14,1,2.31,2.31,0,0,1-.49,1.37,9.58,9.58,0,0,1-1.32,1.19q-1.2,1-2.43,2a13.56,13.56,0,0,0-2.13,1.86.76.76,0,0,0-.13.8,5,5,0,0,0,.75,1.14,13.62,13.62,0,0,0,4.74,3.75,11.82,11.82,0,0,1-5.6-3,6.09,6.09,0,0,1-1.12-1.33,2.13,2.13,0,0,1-.28-1.09,2.37,2.37,0,0,1,.28-1.08,5,5,0,0,1,1.14-1.42l1.13-1.07c.76-.72,1.51-1.43,2.28-2.12a11.45,11.45,0,0,0,1-.92c0-.09,0,0,0-.08s-.05-.24-.12-.49a52.74,52.74,0,0,0-1.8-5.79,16.09,16.09,0,0,0-2.87-5,8.24,8.24,0,0,0-4.53-2.92,6.54,6.54,0,0,0-5.08,1.72A20.69,20.69,0,0,0,160.34,113.39Z"/><path class="cls-3" d="M315.82,123.26a24.75,24.75,0,0,1-11.48,17.15,13.9,13.9,0,0,1-6.37,2.24c-5.16.27-9.82-3.87-11.38-8.64s-.65-9.94.93-14.67c2-6.1,5.93-12.48,12.44-13.84C310.47,103.3,317.12,114.63,315.82,123.26Z"/><path class="cls-4" d="M291.91,136.49a12.56,12.56,0,0,0,5.87-3.56,2.41,2.41,0,0,0,.7-1.17c.14-.85-.55-1.62-1.19-2.25l-3.89-3.79a2.21,2.21,0,0,1-.63-.87,2,2,0,0,1,.13-1.13c1.48-4.71,3.23-9.78,7.47-12.49a6.51,6.51,0,0,1,9.15,1.44,18.56,18.56,0,0,1,2.85,5.27s1.07,10.14-6.24,16.12S291.91,136.49,291.91,136.49Z"/><path class="cls-2" d="M312.37,117.94a20,20,0,0,0-3.42-5,6.45,6.45,0,0,0-5-2,8.29,8.29,0,0,0-4.7,2.64,16,16,0,0,0-3.16,4.83A49.77,49.77,0,0,0,294,124a2.43,2.43,0,0,0-.14.48c0,.08,0,0,0,.07a10.35,10.35,0,0,0,.9,1c.73.74,1.44,1.5,2.15,2.26L298,129a5.25,5.25,0,0,1,1.05,1.49,2.39,2.39,0,0,1,.22,1.09,2.16,2.16,0,0,1-.35,1.07,6.08,6.08,0,0,1-1.2,1.26,11.78,11.78,0,0,1-5.77,2.62,13.61,13.61,0,0,0,5-3.46,5.44,5.44,0,0,0,.82-1.09.77.77,0,0,0-.08-.81,13.16,13.16,0,0,0-2-2c-.78-.69-1.55-1.38-2.31-2.09a10.06,10.06,0,0,1-1.25-1.27,2.3,2.3,0,0,1-.4-1.4,4.25,4.25,0,0,1,.2-1,46.81,46.81,0,0,1,2.14-6,17.67,17.67,0,0,1,3.75-5.44,12.42,12.42,0,0,1,2.77-2,7.68,7.68,0,0,1,3.39-.91,6.66,6.66,0,0,1,3.4.89,9.15,9.15,0,0,1,2.54,2.2A15.83,15.83,0,0,1,312.37,117.94Z"/><path class="cls-5" d="M190.82,30.77A153.48,153.48,0,0,0,201.72,44,64.33,64.33,0,0,0,214.78,54.9a26.65,26.65,0,0,0,7.68,3.46c1.32.29,2.9.68,3.64-.22a2,2,0,0,0,.33-1.68,6.46,6.46,0,0,0-.66-1.89,19.81,19.81,0,0,0-1.12-1.77L223.46,51l-2.38-3.57-4.76-7.13-2.43-3.63,3.16,3a105.93,105.93,0,0,0,8.61,7.65c1.47,1.23,3,2.34,4.57,3.5s3.13,2.23,4.77,3.23a111,111,0,0,0,10,5.72,113.9,113.9,0,0,0,10.56,4.61,108.4,108.4,0,0,0,22.27,5.85,66.13,66.13,0,0,0,11.5.81,36.21,36.21,0,0,0,11.33-2,36.43,36.43,0,0,1-11.32,2.28,62.27,62.27,0,0,1-11.58-.56,108.47,108.47,0,0,1-22.5-5.59,115.47,115.47,0,0,1-10.67-4.6,110.61,110.61,0,0,1-10.11-5.72,105,105,0,0,1-18.11-14.51l.73-.59L221.84,47l2.36,3.58,1.18,1.79a17.8,17.8,0,0,1,1.16,1.86,7.4,7.4,0,0,1,.74,2.15,4,4,0,0,1,0,1.2,2.53,2.53,0,0,1-.55,1.17,2.74,2.74,0,0,1-2.28.83,13.7,13.7,0,0,1-2.19-.39,27.58,27.58,0,0,1-7.85-3.65,62.58,62.58,0,0,1-13-11.23A154.44,154.44,0,0,1,190.82,30.77Z"/><path class="cls-5" d="M299.91,78.2A21.59,21.59,0,0,0,303.26,100a14.86,14.86,0,0,1-3.76-4.6,17.66,17.66,0,0,1-1.9-5.7,18,18,0,0,1,.1-6A15,15,0,0,1,299.91,78.2Z"/><path class="cls-5" d="M310.88,78.42a53.87,53.87,0,0,0,5.87,22.09,30.52,30.52,0,0,1-5.87-22.09Z"/><path class="cls-5" d="M178.18,45.89a37.36,37.36,0,0,0-3.64,2.24,34.35,34.35,0,0,0-3.3,2.7,30.58,30.58,0,0,0-5.33,6.56,28.21,28.21,0,0,0-2,3.73c-.53,1.3-1.2,2.64-1,3.84a1,1,0,0,0,1,1,6,6,0,0,0,1.9-.39,30.87,30.87,0,0,0,4-1.45l1.19-.52-.58,1.16a38,38,0,0,0-2.26,5.59,24.85,24.85,0,0,0-1.09,5.9,17.65,17.65,0,0,0,.72,6,13.79,13.79,0,0,0,2.93,5.27,13.27,13.27,0,0,1-3.32-5.14,16.85,16.85,0,0,1-1-6.1,22.64,22.64,0,0,1,.94-6.12,37.59,37.59,0,0,1,2.25-5.76l.62.63a34.44,34.44,0,0,1-4.07,1.55,6.58,6.58,0,0,1-2.28.41,2,2,0,0,1-1.26-.59,2.33,2.33,0,0,1-.57-1.22,5.16,5.16,0,0,1,.3-2.33c.27-.69.51-1.36.83-2a28.65,28.65,0,0,1,2.06-3.82,30.82,30.82,0,0,1,5.7-6.51A28.72,28.72,0,0,1,178.18,45.89Z"/><path class="cls-5" d="M216.68,18.9A89.34,89.34,0,0,0,241.5,36.17c4.56,2.08,9.47,3.75,14.46,3.47A15.51,15.51,0,0,0,259.6,39l.87-.28.85-.36a3,3,0,0,0,1.36-.89c.25-.36.18-.75-.16-1.2A10.88,10.88,0,0,0,261.24,35,16.27,16.27,0,0,0,258.17,33l.45-.89A145,145,0,0,0,272.8,38a119.93,119.93,0,0,0,14.76,4.2,84.2,84.2,0,0,0,30.56,1.18,72.57,72.57,0,0,1-15.36,1.3,91.11,91.11,0,0,1-15.36-1.73,108.94,108.94,0,0,1-14.91-4.09A142,142,0,0,1,258.19,33l.44-.89a16.92,16.92,0,0,1,3.24,2.19,11.1,11.1,0,0,1,1.42,1.41,2.23,2.23,0,0,1,.48,1.09,1.71,1.71,0,0,1-.31,1.23,3.84,3.84,0,0,1-1.76,1.21l-.9.38-.94.29a16.24,16.24,0,0,1-3.85.65c-5.23.24-10.26-1.48-14.84-3.69A83.79,83.79,0,0,1,216.68,18.9Z"/><path class="cls-5" d="M236,11.72c3.88-.18,7.78-.16,11.67,0s7.77.43,11.65.78,7.73.9,11.57,1.55q2.88.5,5.74,1.05c1.9.42,3.81.81,5.69,1.29l-5.77-.81q-2.88-.41-5.77-.77c-3.85-.49-7.7-1-11.56-1.32s-7.72-.72-11.59-1S239.91,12,236,11.72Z"/><path class="cls-5" d="M186.73,52c-.91,2.57-1.75,5.15-2.46,7.75S183,65,182.49,67.67s-.82,5.33-1.08,8l-.16,2-.1,2-.08,2c0,.68,0,1.36,0,2-.18-1.35-.27-2.71-.36-4.07s0-2.73,0-4.1a56.5,56.5,0,0,1,2.89-16.09A48.87,48.87,0,0,1,186.73,52Z"/><polygon class="cls-2" points="127.27 430.15 328.22 430.15 339.59 482.15 115.89 482.15 127.27 430.15"/><polygon class="cls-2" points="427.12 223.68 401.38 203 392.21 227.5 427.12 223.68"/><path class="cls-3" d="M389,200.08s3.59-23.66,9.09-31.16,23.25-25.5,25.25-23.75,2.7,3.66,2.29,6.78a32,32,0,0,1-2,6.9c7.11-7.45,12.3-17.08,16.37-26.54,1.61-3.72,5.12-10.58,6.42-10.16s1,3.84.7,5.82a56.58,56.58,0,0,1-4.83,15.44c4-7.29,8.24-14.38,12.22-21.67a17.49,17.49,0,0,1,3-4.35c.37-.36.94-.71,1.37-.43a1.14,1.14,0,0,1,.41.65,12.62,12.62,0,0,1,.07,6.08,63.34,63.34,0,0,1-4.13,14.12c2.54-4.59,5.2-9.31,7.74-13.91.45-.81,1.44-1.75,2.15-1.14a1.53,1.53,0,0,1,.41,1c.65,4.68-1,9.35-2.82,13.73s-3.74,8.75-5.83,13a32.45,32.45,0,0,0,3-4.28c1-1.5,3-4.23,4.22-3.31s0,5.34-.64,7.94c-2.46,10.6-9.32,24.34-16.37,32.62-2,2.36-11.3,9.15-13.7,10.32-3.54,1.71-5.72,2-10.73,4.88s-6.55,23.2-7.31,26.13l-19.9,1Z"/><path class="cls-2" d="M458.49,149.09c-2.68,4.53-5.36,9-8.27,13.44a44.28,44.28,0,0,1-5,6.26,29,29,0,0,1-6.39,4.9c-4.67,2.64-9.71,4.26-14.34,6.59a33.18,33.18,0,0,0-6.5,4.21,18.26,18.26,0,0,0-4.77,6.1,17.24,17.24,0,0,1,4.27-6.64,30.62,30.62,0,0,1,6.45-4.7c4.65-2.6,9.67-4.29,14.15-6.87a28.06,28.06,0,0,0,6.13-4.59,49.3,49.3,0,0,0,5-5.93c1.54-2.1,3-4.27,4.57-6.4S456.9,151.19,458.49,149.09Z"/><path class="cls-2" d="M423.46,157.59a21.59,21.59,0,0,1-2.66,5.93,28.05,28.05,0,0,1-4.47,4.74,21.85,21.85,0,0,0-4,4.67,23.33,23.33,0,0,0-2.56,5.75,14.33,14.33,0,0,1,1.54-6.32,16.4,16.4,0,0,1,1.77-2.81,23.43,23.43,0,0,1,2.27-2.39,48.34,48.34,0,0,0,4.55-4.34A57.93,57.93,0,0,0,423.46,157.59Z"/><path class="cls-2" d="M446.31,135.8a51.49,51.49,0,0,1-2.68,6.62c-1,2.16-2.17,4.24-3.39,6.28s-2.56,4-4,5.92a52.16,52.16,0,0,1-4.63,5.44C432.8,158,434,156,435.28,154l3.68-6,3.64-6.06C443.82,139.85,445,137.81,446.31,135.8Z"/><path class="cls-2" d="M456.19,135.66a70.69,70.69,0,0,1-3.84,7.63c-1.41,2.47-3,4.87-4.58,7.21s-3.36,4.61-5.2,6.78a71.85,71.85,0,0,1-5.86,6.23c1.62-2.36,3.28-4.65,4.93-6.95s3.29-4.59,4.9-6.92,3.22-4.64,4.82-7S454.53,138,456.19,135.66Z"/><path class="cls-6" d="M231.61,206.32l-12.7,252.77s57.85,14.54,92.35,9.33,31.3-11,31.3-11S327.68,378.39,328.33,368s0-46.37,0-46.37,32.4,77.18,60.39,62.86,38.4-160.78,38.4-160.78-19.32-1.83-27.39-8.07A33.29,33.29,0,0,1,389,200.08L368,270S350,209.18,331.05,201.9,231.61,206.32,231.61,206.32Z"/><path class="cls-2" d="M425.21,246.12a58.78,58.78,0,0,1-13.21,1,31.66,31.66,0,0,1-12.91-3.61,38.82,38.82,0,0,1-10.55-8.23,42.4,42.4,0,0,1-7.31-11,68,68,0,0,0,8.43,9.95,47.28,47.28,0,0,0,4.93,4.15,38.26,38.26,0,0,0,5.43,3.4c.92.53,1.91.93,2.88,1.38s2,.78,3,1.08a33.81,33.81,0,0,0,6.25,1.37A122.55,122.55,0,0,0,425.21,246.12Z"/><path class="cls-2" d="M387,221.83a2.67,2.67,0,1,0,2.67-2.66A2.67,2.67,0,0,0,387,221.83Z"/><path class="cls-2" d="M376.54,242.73c-1.64,7.71-3.57,15.34-5.6,23-1,3.8-2.08,7.58-3.12,11.38l-3.28,11.33-3.44,11.28c-1.2,3.75-2.35,7.51-3.6,11.24-2.45,7.48-5,14.93-7.84,22.29,1.64-7.72,3.57-15.35,5.6-22.95,1-3.81,2.08-7.59,3.12-11.38l3.28-11.34,3.44-11.28c1.2-3.75,2.35-7.51,3.6-11.24C371.16,257.53,373.71,250.09,376.54,242.73Z"/><path class="cls-2" d="M368.53,266.07c-3.38,3.86-6.65,7.76-9.73,11.8s-6,8.21-8.66,12.52-5.18,8.72-7.48,13.24-4.38,9.18-6.38,13.91a87.52,87.52,0,0,1,5-14.57,103.9,103.9,0,0,1,16.34-26.08A88.74,88.74,0,0,1,368.53,266.07Z"/><path class="cls-2" d="M328.22,348.33l1-61.16c.23-10.19.45-20.38.76-30.58s.68-20.38,1.16-30.57q.43,15.3.4,30.6c0,10.2-.13,20.39-.32,30.59s-.52,20.39-1,30.58S329.2,338.18,328.22,348.33Z"/><polygon class="cls-2" points="38.54 223.68 64.28 203 73.45 227.5 38.54 223.68"/><path class="cls-3" d="M76.62,200.08S73,176.42,67.53,168.92s-23.25-25.5-25.25-23.75S39.58,148.83,40,152a32,32,0,0,0,2,6.9c-7.11-7.45-12.3-17.08-16.37-26.54-1.61-3.72-5.12-10.58-6.43-10.16s-1,3.84-.69,5.82a56.58,56.58,0,0,0,4.83,15.44c-4-7.29-8.24-14.38-12.22-21.67a17.49,17.49,0,0,0-3-4.35c-.38-.36-.94-.71-1.38-.43a1.26,1.26,0,0,0-.41.65,12.75,12.75,0,0,0-.06,6.08,63.34,63.34,0,0,0,4.13,14.12c-2.54-4.59-5.2-9.31-7.74-13.91-.45-.81-1.44-1.75-2.15-1.14a1.48,1.48,0,0,0-.41,1c-.65,4.68,1,9.35,2.82,13.73s3.74,8.75,5.82,13a33.34,33.34,0,0,1-3-4.28c-1-1.5-3-4.23-4.22-3.31s0,5.34.64,7.94c2.46,10.6,9.32,24.34,16.37,32.62,2,2.36,11.29,9.15,13.7,10.32,3.54,1.71,5.72,2,10.73,4.88s6.55,23.2,7.31,26.13l19.9,1Z"/><path class="cls-2" d="M7.17,149.09c1.59,2.1,3.1,4.25,4.66,6.37s3,4.3,4.57,6.4a48.39,48.39,0,0,0,5,5.93,28.06,28.06,0,0,0,6.13,4.59C32,175,37,176.65,41.68,179.25a30.62,30.62,0,0,1,6.45,4.7,17.24,17.24,0,0,1,4.27,6.64,18.26,18.26,0,0,0-4.77-6.1,33.48,33.48,0,0,0-6.5-4.21c-4.63-2.33-9.67-3.95-14.34-6.59a29,29,0,0,1-6.39-4.9,44.28,44.28,0,0,1-5-6.26C12.53,158.13,9.85,153.62,7.17,149.09Z"/><path class="cls-2" d="M42.2,157.59a57.93,57.93,0,0,0,3.59,5.23,48.34,48.34,0,0,0,4.55,4.34,23.43,23.43,0,0,1,2.27,2.39,16.4,16.4,0,0,1,1.77,2.81,14.33,14.33,0,0,1,1.54,6.32,23.33,23.33,0,0,0-2.56-5.75,21.85,21.85,0,0,0-4-4.67,28.05,28.05,0,0,1-4.47-4.74A21.59,21.59,0,0,1,42.2,157.59Z"/><path class="cls-2" d="M19.35,135.8c1.29,2,2.49,4,3.71,6.07l3.64,6.06,3.68,6c1.23,2,2.48,4,3.66,6.1a52.16,52.16,0,0,1-4.63-5.44c-1.43-1.9-2.75-3.89-4-5.92s-2.37-4.12-3.39-6.28A51.49,51.49,0,0,1,19.35,135.8Z"/><path class="cls-2" d="M9.47,135.66c1.65,2.32,3.23,4.67,4.83,7s3.19,4.67,4.82,7,3.26,4.62,4.9,6.92,3.31,4.59,4.92,6.95a73.3,73.3,0,0,1-5.85-6.23c-1.84-2.17-3.56-4.45-5.2-6.78s-3.17-4.74-4.58-7.21A70.69,70.69,0,0,1,9.47,135.66Z"/><path class="cls-6" d="M231.61,206.32l-12.7,252.77s-28.47,12.2-64.51,9.33c-34.78-2.76-43-15-43-15s26.69-78.11,26-88.52-3.91-28.64-3.91-28.64-28.64,62.49-56.63,48.17-38.4-160.78-38.4-160.78,19.32-1.83,27.39-8.07a33.29,33.29,0,0,0,10.69-15.53L97.69,270s17.94-60.85,36.92-68.13S231.61,206.32,231.61,206.32Z"/><path class="cls-2" d="M40.45,246.12a122.55,122.55,0,0,0,13.06-.55,33.81,33.81,0,0,0,6.25-1.37c1-.3,2-.7,3-1.08s2-.85,2.88-1.38a38.26,38.26,0,0,0,5.43-3.4A47.28,47.28,0,0,0,76,234.19a67.32,67.32,0,0,0,8.42-9.95,42.11,42.11,0,0,1-7.3,11,38.82,38.82,0,0,1-10.55,8.23,31.66,31.66,0,0,1-12.91,3.61A58.78,58.78,0,0,1,40.45,246.12Z"/><path class="cls-2" d="M78.62,221.83A2.67,2.67,0,1,1,76,219.17,2.67,2.67,0,0,1,78.62,221.83Z"/><path class="cls-2" d="M89.11,242.73C92,250.09,94.5,257.53,97,265c1.26,3.73,2.41,7.49,3.61,11.24L104,287.53l3.28,11.34c1,3.79,2.14,7.57,3.12,11.38,2,7.6,4,15.23,5.6,22.95-2.84-7.36-5.39-14.81-7.84-22.29-1.25-3.73-2.4-7.49-3.6-11.24l-3.44-11.28-3.28-11.33c-1-3.8-2.13-7.58-3.12-11.38C92.69,258.07,90.76,250.44,89.11,242.73Z"/><path class="cls-2" d="M97.13,266.07a88.74,88.74,0,0,1,10.94,10.82A103.9,103.9,0,0,1,124.41,303a88.44,88.44,0,0,1,5,14.57c-2-4.73-4.08-9.37-6.38-13.91s-4.77-9-7.48-13.24-5.59-8.47-8.66-12.52S100.51,269.93,97.13,266.07Z"/><path class="cls-2" d="M135,343.86q-1.4-13.78-2.55-27.58l-2.27-27.59-2.11-27.61q-1-13.8-1.82-27.64,2,13.73,3.38,27.5c1,9.18,1.8,18.38,2.54,27.59S133.52,307,134,316.17,134.83,334.62,135,343.86Z"/><path class="cls-2" d="M234.47,192c47.42,3.29,52.79,45.51,52.79,45.51l-15.34-4.16,7,16.13-53.43,36.37L188.7,240.64l11.45-8.58L178,228.42S181.94,188.37,234.47,192Z"/><path class="cls-3" d="M211.71,177.8s-.25,10.22-3.57,18.9S201,209.48,201,209.48l26.07,61,37.29-58.71s-7.15-6.89-8.94-14.05-2.3-20.18-2.3-20.18Z"/><line class="cls-7" x1="225.51" y1="285.86" x2="218.42" y2="463.67"/><path class="cls-2" d="M241,326.75c3.22,0,3.23-5,0-5s-3.22,5,0,5Z"/><path class="cls-2" d="M240.47,358.17c3.22,0,3.22-5,0-5s-3.22,5,0,5Z"/><path class="cls-2" d="M238.3,399.87c3.22,0,3.23-5,0-5s-3.22,5,0,5Z"/><path class="cls-2" d="M234.51,433.46c3.22,0,3.23-5,0-5s-3.22,5,0,5Z"/><path class="cls-2" d="M253.78,183.52a51.11,51.11,0,0,1-16.89,2.56c-9.09-.06-18-1.16-25.95-5.51a48.84,48.84,0,0,0,43.18,9.17"/><path class="cls-7" d="M114.75,444.07a95.77,95.77,0,0,0,104.64,1.15c4.8,2.91,10.65,4.8,16.08,6.22a168.38,168.38,0,0,0,105.06-6.84"/><path class="cls-2" d="M340.46,95.23c4-1.62,8-3.17,11.92-4.75l12-4.61c4-1.52,7.9-3.28,12-4.46a87.66,87.66,0,0,1,12.55-2.91l.1.29a88.94,88.94,0,0,1-11.68,5.45c-4,1.6-8.13,2.63-12.21,3.9L352.87,91.9c-4.1,1.2-8.19,2.44-12.31,3.61Z"/><path class="cls-2" d="M342.2,113.88c5.63.53,11.26,1.1,16.9,1.57s11.26,1,16.89,1.43,11.29.58,16.9,1.27,11.22,1.43,16.8,2.63l0,.3a132.59,132.59,0,0,1-17,.06c-5.67-.26-11.27-1.17-16.89-1.88s-11.23-1.5-16.83-2.32-11.19-1.76-16.76-2.77Z"/><path class="cls-2" d="M347.25,137.92c3.08,1.27,6.14,2.57,9.23,3.8s6.15,2.52,9.24,3.73,6.29,2.18,9.26,3.65a63.44,63.44,0,0,1,8.73,5l-.11.28a48.73,48.73,0,0,1-9.78-2.5,79.37,79.37,0,0,1-9.07-4.23q-4.49-2.23-8.91-4.56c-2.92-1.6-5.85-3.2-8.73-4.89Z"/><path class="cls-2" d="M138.29,89.37c-3.87-1.82-7.7-3.72-11.55-5.58l-11.48-5.72c-3.82-1.93-7.76-3.62-11.41-5.86a87.79,87.79,0,0,1-10.62-7.3l.14-.26a89,89,0,0,1,11.91,4.93c3.86,1.84,7.43,4.22,11.12,6.38l11,6.51c3.66,2.21,7.34,4.39,11,6.64Z"/><path class="cls-2" d="M133.65,107.52c-5.66.08-11.33,0-17,0s-11.32-.27-17-.48-11.34-.24-17-.92a134,134,0,0,1-16.8-2.86l0-.3c5.71-.27,11.36-.08,17,.17s11.25,1,16.88,1.52,11.26,1,16.9,1.37,11.28.82,16.92,1.22Z"/><path class="cls-2" d="M124.81,130.39c-3.11,1.21-6.26,2.3-9.41,3.39s-6.35,2.06-9.54,3a77.43,77.43,0,0,1-9.64,2.68,48.74,48.74,0,0,1-10,.86l-.07-.29a62.38,62.38,0,0,1,9.43-3.49c3.18-1,6.48-1.38,9.73-2.08s6.49-1.41,9.73-2.16,6.48-1.49,9.73-2.23Z"/></g></g></g></svg>