<svg width="66" height="66" viewBox="0 0 66 66" fill="none" xmlns="http://www.w3.org/2000/svg">
<rect x="0.279297" y="0.27832" width="64.7686" height="64.7686" rx="14.9466" fill="#202830"/>
<path d="M21.786 30.22C20.85 30.948 19.7407 31.312 18.458 31.312C17.1753 31.312 16.222 30.948 15.598 30.22C14.974 29.492 14.792 28.5387 15.052 27.36L17.366 16.414C17.626 15.2353 18.224 14.2907 19.16 13.58C20.096 12.852 21.1967 12.488 22.462 12.488C23.7273 12.488 24.672 12.852 25.296 13.58C25.9373 14.2907 26.1367 15.2353 25.894 16.414L25.088 20.21H21.812L22.592 16.44C22.6613 16.1453 22.618 15.9113 22.462 15.738C22.3233 15.5647 22.1067 15.478 21.812 15.478C21.1707 15.478 20.7807 15.7987 20.642 16.44L18.328 27.36C18.2587 27.6547 18.2933 27.8887 18.432 28.062C18.5707 28.2353 18.7873 28.322 19.082 28.322C19.7407 28.322 20.1393 28.0013 20.278 27.36L21.136 23.33H24.412L23.554 27.36C23.3113 28.5387 22.722 29.492 21.786 30.22ZM32.0808 12.8C33.2594 12.8 34.1348 13.138 34.7068 13.814C35.2961 14.4727 35.4781 15.3567 35.2528 16.466L34.3948 20.496C34.1348 21.7093 33.4848 22.6453 32.4448 23.304L32.4968 31H29.1948L29.3248 24.058H28.4148L26.9328 31H23.6568L27.5308 12.8H32.0808ZM30.1828 15.79L29.0128 21.25H29.9748C30.2694 21.25 30.5208 21.1633 30.7288 20.99C30.9541 20.8167 31.0928 20.5827 31.1448 20.288L31.9248 16.752C31.9768 16.4573 31.9334 16.2233 31.7948 16.05C31.6561 15.8767 31.4394 15.79 31.1448 15.79H30.1828ZM42.3756 15.79H39.4636L38.4756 20.314H41.1016L40.4776 23.226H37.8776L36.8376 28.01H39.7756L39.1256 31H32.9376L36.8116 12.8H42.9996L42.3756 15.79ZM45.2142 12.8H50.2582L48.5682 31H45.1102L45.6822 26.606H43.7322L42.4322 31H39.1302L45.2142 12.8ZM46.8522 17.558L47.1902 16.05H46.7222L46.4102 17.558L44.5382 23.902H46.0202L46.8522 17.558ZM15.702 45.33L16.378 42.21H20.902L20.252 45.33H15.702ZM28.5718 34.8L27.9478 37.79H26.0758L22.8258 53H19.5498L22.7998 37.79H20.9018L21.5518 34.8H28.5718ZM25.168 53L29.042 34.8H32.318L28.444 53H25.168ZM30.9041 53L32.7501 34.8H36.1821L34.3621 47.852L33.9721 49.75H34.4141L34.8041 47.852L38.5481 34.8H41.8241L35.9221 53H30.9041ZM47.861 37.79H44.949L43.961 42.314H46.587L45.963 45.226H43.363L42.323 50.01H45.261L44.611 53H38.423L42.297 34.8H48.485L47.861 37.79Z" fill="white"/>
</svg>
