<svg width="117" height="117" viewBox="0 0 117 117" fill="none" xmlns="http://www.w3.org/2000/svg">
<rect width="117" height="117" rx="58.5" fill="#FFB0BA"/>
<g clip-path="url(#clip0_1483_724)">
<path d="M57.9998 91.0199C40.0968 91.0199 25.5836 76.5067 25.5836 58.6037C25.5836 40.7007 40.0968 26.1875 57.9998 26.1875C75.9028 26.1875 90.416 40.7007 90.416 58.6037C90.416 76.5067 75.9028 91.0199 57.9998 91.0199Z" fill="#F07281"/>
<path d="M58.0002 26.1875C58.7243 26.1875 59.4421 26.2137 60.1543 26.2605C43.2559 27.3695 29.8921 41.4248 29.8921 58.6037C29.8921 75.7826 43.2559 89.838 60.1543 90.9469C59.4421 90.9937 58.7243 91.0199 58.0002 91.0199C40.0973 91.0199 25.584 76.5068 25.584 58.6037C25.584 40.7006 40.0973 26.1875 58.0002 26.1875Z" fill="#EB5569"/>
<path d="M57.9999 86.9666C42.3354 86.9666 29.6369 74.2681 29.6369 58.6037C29.6369 42.9392 42.3354 30.2407 57.9999 30.2407C73.6643 30.2407 86.3628 42.9392 86.3628 58.6037C86.3628 74.2681 73.6643 86.9666 57.9999 86.9666Z" fill="#EAF6FF"/>
<path d="M57.9998 30.2407C58.6814 30.2407 59.3569 30.2664 60.0264 30.3136C45.3079 31.3529 33.69 43.6208 33.69 58.6038C33.69 73.5868 45.3079 85.8547 60.0264 86.894C59.3568 86.9412 58.6813 86.9669 57.9998 86.9669C42.3354 86.9669 29.6369 74.2684 29.6369 58.6039C29.6369 42.9395 42.3354 30.2407 57.9998 30.2407Z" fill="#C8EFFE"/>
<path d="M58 76.0958C48.3393 76.0958 40.5077 68.2643 40.5077 58.6036C40.5077 48.9429 48.3393 41.1113 58 41.1113C67.6606 41.1113 75.4922 48.9429 75.4922 58.6036C75.4922 68.2643 67.6606 76.0958 58 76.0958Z" fill="#C8EFFE"/>
<path d="M58.0001 41.1113C58.7323 41.1113 59.4536 41.157 60.1621 41.2443C51.5217 42.3095 44.8319 49.675 44.8319 58.6036C44.8319 67.5321 51.5217 74.8976 60.1621 75.9628C59.4536 76.0502 58.7323 76.0958 58.0001 76.0958C48.3393 76.0958 40.5078 68.2643 40.5078 58.6036C40.5078 48.9428 48.3393 41.1113 58.0001 41.1113Z" fill="#99E6FC"/>
<path d="M57.9999 77.1824C68.2443 77.1824 76.5786 68.8481 76.5786 58.6037C76.5786 48.3592 68.2443 40.0249 57.9999 40.0249C47.7554 40.0249 39.4211 48.3592 39.4211 58.6037C39.4211 68.8481 47.7554 77.1824 57.9999 77.1824ZM57.9999 42.1979C67.0459 42.1979 74.4056 49.5576 74.4056 58.6037C74.4056 67.6497 67.0459 75.0094 57.9999 75.0094C48.9538 75.0094 41.5941 67.6497 41.5941 58.6037C41.5941 49.5576 48.9538 42.1979 57.9999 42.1979Z" fill="#62DBFB"/>
<path d="M56.5158 65.2895H59.4844C62.3573 65.2895 64.686 62.9606 64.686 60.0878V57.1192C64.686 54.2463 62.3571 51.9175 59.4844 51.9175H56.5158C53.6429 51.9175 51.3142 54.2464 51.3142 57.1192V60.0877C51.3142 62.9606 53.6431 65.2895 56.5158 65.2895Z" fill="#F07281"/>
<path d="M56.5156 51.9175H59.4841C59.5497 51.9175 59.6146 51.9199 59.6797 51.9224C56.8976 52.0254 54.6736 54.312 54.6736 57.1192V60.0878C54.6736 62.8951 56.8976 65.1816 59.6797 65.2846C59.6146 65.287 59.5497 65.2895 59.4841 65.2895H56.5156C53.6427 65.2895 51.3139 62.9606 51.3139 60.0878V57.1192C51.3139 54.2464 53.6428 51.9175 56.5156 51.9175Z" fill="#EB5569"/>
<path d="M58 33.6164C59.3958 33.6164 60.5273 32.4848 60.5273 31.089V25.0274C60.5273 23.6316 59.3958 22.5 58 22.5C56.6041 22.5 55.4726 23.6316 55.4726 25.0274V31.089C55.4726 32.4848 56.6041 33.6164 58 33.6164Z" fill="#0593FC"/>
<path d="M58 94.5002C59.3958 94.5002 60.5273 93.3686 60.5273 91.9728V85.9112C60.5273 84.5154 59.3958 83.3838 58 83.3838C56.6041 83.3838 55.4726 84.5154 55.4726 85.9112V91.9728C55.4726 93.3686 56.6041 94.5002 58 94.5002Z" fill="#0593FC"/>
<path d="M57.9999 22.5C58.4653 22.5 58.8999 22.6281 59.2744 22.8474C58.5257 23.2862 58.0216 24.0969 58.0216 25.0274V31.0889C58.0216 32.0192 58.5257 32.83 59.2744 33.2689C58.8999 33.4883 58.4653 33.6162 57.9999 33.6162C56.604 33.6162 55.4725 32.4847 55.4725 31.0889V25.0274C55.4725 23.6316 56.604 22.5 57.9999 22.5Z" fill="#0182FC"/>
<path d="M57.9999 83.3838C58.4653 83.3838 58.8999 83.5119 59.2744 83.7312C58.5257 84.17 58.0216 84.9807 58.0216 85.9112V91.9728C58.0216 92.9031 58.5257 93.714 59.2744 94.1528C58.8999 94.3723 58.4653 94.5002 57.9999 94.5002C56.604 94.5002 55.4725 93.3686 55.4725 91.9728V85.9112C55.4725 84.5154 56.604 83.3838 57.9999 83.3838Z" fill="#0182FC"/>
<path d="M33.1162 58.5C33.1162 57.1042 31.9846 55.9727 30.5888 55.9727H24.5272C23.1314 55.9727 21.9998 57.1042 21.9998 58.5C21.9998 59.8959 23.1314 61.0274 24.5272 61.0274H30.5888C31.9846 61.0274 33.1162 59.8959 33.1162 58.5Z" fill="#0593FC"/>
<path d="M94 58.5C94 57.1042 92.8684 55.9727 91.4726 55.9727H85.411C84.0152 55.9727 82.8836 57.1042 82.8836 58.5C82.8836 59.8959 84.0152 61.0274 85.411 61.0274H91.4726C92.8684 61.0274 94 59.8959 94 58.5Z" fill="#0593FC"/>
<path d="M24.5274 55.9727H27.6343C26.2385 55.9727 25.1069 57.1042 25.1069 58.5C25.1069 59.8959 26.2385 61.0274 27.6343 61.0274H24.5274C23.1316 61.0274 22 59.8959 22 58.5C22 57.1042 23.1316 55.9727 24.5274 55.9727Z" fill="#0182FC"/>
<path d="M85.4112 55.9727H88.5181C87.1223 55.9727 85.9907 57.1042 85.9907 58.5C85.9907 59.8959 87.1223 61.0274 88.5181 61.0274H85.4112C84.0154 61.0274 82.8838 59.8959 82.8838 58.5C82.8838 57.1042 84.0154 55.9727 85.4112 55.9727Z" fill="#0182FC"/>
<path d="M55.319 57.5172H56.9132V55.9229C56.9132 55.3229 57.3996 54.8364 57.9998 54.8364C58.5998 54.8364 59.0863 55.3229 59.0863 55.9229V57.5172H60.6806C61.2806 57.5172 61.7671 58.0037 61.7671 58.6038C61.7671 59.2038 61.2806 59.6903 60.6806 59.6903H59.0863V61.2846C59.0863 61.8846 58.5998 62.3711 57.9998 62.3711C57.3996 62.3711 56.9132 61.8846 56.9132 61.2846V59.6903H55.319C54.7188 59.6903 54.2324 59.2038 54.2324 58.6038C54.2324 58.0037 54.7189 57.5172 55.319 57.5172Z" fill="#EAF6FF"/>
<path d="M58.0004 45.8642C58.6004 45.8642 59.0869 45.3778 59.0869 44.7777V39.4161C59.0869 38.8161 58.6004 38.3296 58.0004 38.3296C57.4002 38.3296 56.9139 38.8161 56.9139 39.4161V44.7777C56.9139 45.3778 57.4002 45.8642 58.0004 45.8642Z" fill="#0593FC"/>
<path d="M58.0004 78.9004C58.6004 78.9004 59.0869 78.4139 59.0869 77.8139V72.4522C59.0869 71.8522 58.6004 71.3657 58.0004 71.3657C57.4002 71.3657 56.9139 71.8522 56.9139 72.4522V77.8139C56.9139 78.4139 57.4002 78.9004 58.0004 78.9004Z" fill="#0593FC"/>
<path d="M38.8012 59.7014H44.163C44.7632 59.7014 45.2495 59.2149 45.2495 58.6148C45.2495 58.0148 44.7632 57.5283 44.163 57.5283H38.8012C38.201 57.5283 37.7147 58.0148 37.7147 58.6148C37.7147 59.2149 38.201 59.7014 38.8012 59.7014Z" fill="#0593FC"/>
<path d="M71.8375 59.7014H77.1991C77.7992 59.7014 78.2856 59.2149 78.2856 58.6148C78.2856 58.0148 77.7992 57.5283 77.1991 57.5283H71.8375C71.2375 57.5283 70.751 58.0148 70.751 58.6148C70.751 59.2149 71.2375 59.7014 71.8375 59.7014Z" fill="#0593FC"/>
</g>
<defs>
<clipPath id="clip0_1483_724">
<rect width="72" height="72" fill="white" transform="matrix(-1 0 0 1 94 22.5)"/>
</clipPath>
</defs>
</svg>
