<svg width="65" height="65" viewBox="0 0 65 65" fill="none" xmlns="http://www.w3.org/2000/svg">
<rect width="64.7686" height="64.7686" rx="14.9466" fill="#202830"/>
<path d="M19.696 11.8C20.9093 11.8 21.8107 12.1467 22.4 12.84C23.0067 13.516 23.1887 14.4173 22.946 15.544L20.684 26.256C20.4413 27.3827 19.8693 28.2927 18.968 28.986C18.084 29.662 17.0353 30 15.822 30H11.376L15.25 11.8H19.696ZM19.644 15.752C19.696 15.4573 19.6527 15.2233 19.514 15.05C19.3753 14.8767 19.1587 14.79 18.864 14.79H17.85L15.276 27.01H16.264C16.9053 27.01 17.2953 26.6893 17.434 26.048L19.644 15.752ZM30.1963 14.79H27.2843L26.2963 19.314H28.9223L28.2983 22.226H25.6983L24.6583 27.01H27.5963L26.9463 30H20.7583L24.6323 11.8H30.8203L30.1963 14.79ZM31.501 30.312C30.2357 30.312 29.291 29.948 28.667 29.22C28.043 28.492 27.8523 27.5387 28.095 26.36L28.667 23.656H31.943L31.371 26.36C31.3017 26.6547 31.3363 26.8887 31.475 27.062C31.631 27.2353 31.8563 27.322 32.151 27.322C32.7923 27.322 33.1823 27.0013 33.321 26.36L33.789 24.254C33.8757 23.8727 33.7717 23.5087 33.477 23.162C33.1997 22.8153 32.8357 22.486 32.385 22.174C31.9517 21.862 31.5183 21.524 31.085 21.16C30.669 20.7787 30.3483 20.2847 30.123 19.678C29.8977 19.0713 29.863 18.378 30.019 17.598L30.487 15.414C30.7297 14.2353 31.3103 13.2907 32.229 12.58C33.1477 11.852 34.2397 11.488 35.505 11.488C36.7703 11.488 37.715 11.852 38.339 12.58C38.963 13.2907 39.145 14.2353 38.885 15.414L38.365 17.832H35.089L35.635 15.388C35.6697 15.1107 35.6177 14.894 35.479 14.738C35.3577 14.5647 35.1583 14.478 34.881 14.478C34.2397 14.478 33.867 14.7813 33.763 15.388L33.373 17.208C33.2863 17.6067 33.3817 17.9793 33.659 18.326C33.9537 18.6727 34.3177 19.002 34.751 19.314C35.2017 19.626 35.635 19.964 36.051 20.328C36.4843 20.692 36.8137 21.1773 37.039 21.784C37.2643 22.3907 37.299 23.084 37.143 23.864L36.597 26.36C36.3543 27.5387 35.765 28.492 34.829 29.22C33.893 29.948 32.7837 30.312 31.501 30.312ZM36.5523 30L40.4263 11.8H43.7023L39.8283 30H36.5523ZM12.702 44.33L13.378 41.21H17.902L17.252 44.33H12.702ZM21.099 34.58C22.035 33.852 23.1357 33.488 24.401 33.488C25.6663 33.488 26.611 33.852 27.235 34.58C27.8763 35.2907 28.0757 36.2353 27.833 37.414L27.339 39.754H24.063L24.531 37.44C24.6003 37.1453 24.557 36.9113 24.401 36.738C24.2623 36.5647 24.0457 36.478 23.751 36.478C23.1097 36.478 22.7197 36.7987 22.581 37.44L20.267 48.36C20.1977 48.6547 20.241 48.8887 20.397 49.062C20.553 49.2353 20.7783 49.322 21.073 49.322C21.749 49.322 22.1563 49.0013 22.295 48.36L23.205 44.122H22.165L22.711 41.418H26.975L24.739 52H22.503L22.685 51.038L22.841 50.726H22.529L22.399 51.038C21.8097 51.8873 20.8737 52.312 19.591 52.312C18.551 52.312 17.7797 51.9913 17.277 51.35C16.7917 50.6913 16.6703 49.8247 16.913 48.75L19.305 37.414C19.565 36.2353 20.163 35.2907 21.099 34.58ZM25.6465 52L29.5205 33.8H33.2905L33.3165 42.432L33.1085 44.72H33.5505L33.7585 42.432L35.5785 33.8H38.8545L34.9805 52H31.2365L31.1845 43.368L31.4185 41.08H30.9765L30.7425 43.368L28.9225 52H25.6465ZM45.4063 36.79H42.4943L41.5063 41.314H44.1323L43.5083 44.226H40.9083L39.8683 49.01H42.8063L42.1563 52H35.9683L39.8423 33.8H46.0303L45.4063 36.79ZM51.261 33.8C52.4397 33.8 53.315 34.138 53.887 34.814C54.4763 35.4727 54.6583 36.3567 54.433 37.466L53.575 41.496C53.315 42.7093 52.665 43.6453 51.625 44.304L51.677 52H48.375L48.505 45.058H47.595L46.113 52H42.837L46.711 33.8H51.261ZM49.363 36.79L48.193 42.25H49.155C49.4497 42.25 49.701 42.1633 49.909 41.99C50.1343 41.8167 50.273 41.5827 50.325 41.288L51.105 37.752C51.157 37.4573 51.1137 37.2233 50.975 37.05C50.8363 36.8767 50.6197 36.79 50.325 36.79H49.363Z" fill="white"/>
</svg>
