<svg width="117" height="117" viewBox="0 0 117 117" fill="none" xmlns="http://www.w3.org/2000/svg">
<rect width="117" height="117" rx="58.5" fill="#FFF1C2"/>
<g clip-path="url(#clip0_1483_725)">
<mask id="mask0_1483_725" style="mask-type:luminance" maskUnits="userSpaceOnUse" x="23" y="23" width="70" height="71">
<path d="M23 23.5H93V93.5H23V23.5Z" fill="white"/>
</mask>
<g mask="url(#mask0_1483_725)">
<path d="M58 23.5L37.4922 58.5L58 93.5C77.33 93.5 93 77.83 93 58.5C93 39.17 77.33 23.5 58 23.5Z" fill="#FFD23B"/>
<path d="M23 58.5V93.5H58V23.5C38.67 23.5 23 39.17 23 58.5Z" fill="#FFE17C"/>
<path d="M58 31.8398L44.6699 58.5L58 85.1602C72.7239 85.1602 84.6602 73.2239 84.6602 58.5C84.6602 43.7761 72.7239 31.8398 58 31.8398Z" fill="#FF9259"/>
<path d="M31.3398 58.5C31.3398 73.2239 43.2761 85.1602 58 85.1602V31.8398C43.2761 31.8398 31.3398 43.7761 31.3398 58.5Z" fill="#FFB24A"/>
<path d="M58 44.1445L47.0625 58.5L58 72.8555C68.902 72.8555 78.5811 67.2166 84.6602 58.5C78.5811 49.7834 68.902 44.1445 58 44.1445Z" fill="#FFF7BA"/>
<path d="M31.3398 58.5C37.4189 67.2166 47.098 72.8555 58 72.8555V44.1445C47.098 44.1445 37.4189 49.7834 31.3398 58.5Z" fill="white"/>
<path d="M58 44.1445L50.8223 58.5L58 72.8555C65.9283 72.8555 72.3555 66.4283 72.3555 58.5C72.3555 50.5717 65.9283 44.1445 58 44.1445Z" fill="#09A1E5"/>
<path d="M43.6445 58.5C43.6445 66.4283 50.0717 72.8555 58 72.8555V44.1445C50.0717 44.1445 43.6445 50.5717 43.6445 58.5Z" fill="#3EC3FF"/>
<path d="M58 52.3477L54.9238 58.5L58 64.6523C61.3979 64.6523 64.1523 61.8979 64.1523 58.5C64.1523 55.1021 61.3979 52.3477 58 52.3477Z" fill="#16202D"/>
<path d="M51.8477 58.5C51.8477 61.8979 54.6021 64.6523 58 64.6523V52.3477C54.6021 52.3477 51.8477 55.1021 51.8477 58.5Z" fill="#2D3E53"/>
</g>
</g>
<defs>
<clipPath id="clip0_1483_725">
<rect width="70" height="70" fill="white" transform="translate(23 23.5)"/>
</clipPath>
</defs>
</svg>
