<svg width="117" height="117" viewBox="0 0 117 117" fill="none" xmlns="http://www.w3.org/2000/svg">
<rect width="117" height="117" rx="58.5" fill="#AACFFF"/>
<path d="M58 89.7811V77.1002H52.4669C50.7606 77.1002 49.3713 75.7286 49.3713 74.0443V61.8325H42.1562L49.3713 49.6208H49.3834C49.6638 36.6872 60.8153 26.3885 74.185 27.2788C85.6656 28.0488 94.9769 37.2647 95.7325 48.5982C96.0859 53.9761 94.5625 58.9811 91.7472 63.0477C89.395 66.4285 87.4328 70.0739 86.3238 74.0322C83.9959 82.3097 84.4469 89.7932 84.4469 89.7932H58V89.7811Z" fill="#338CFF"/>
<path d="M58 89.7811V77.1002H63.5331C65.2393 77.1002 66.6287 75.7286 66.6287 74.0443V61.8325H73.8437L66.6287 49.6208H66.6165C66.3362 36.6872 55.1846 26.3885 41.815 27.2788C30.3343 28.0367 21.0231 37.2527 20.2675 48.5861C19.914 53.9641 21.4375 58.9691 24.2528 63.0357C26.605 66.4164 28.5671 70.0619 29.6762 74.0202C32.004 82.2977 31.5531 89.7811 31.5531 89.7811H57.9878H58Z" fill="#E6E6E6"/>
<path d="M73.8438 61.8328H66.6288V74.0445C66.6288 75.7409 65.2394 77.1004 63.5331 77.1004H52.4669C50.7606 77.1004 49.3713 75.7409 49.3713 74.0445V61.8328H42.1562L49.3713 49.6211H49.3834C49.5419 42.6189 52.8691 36.4108 58 32.3081C63.1309 36.4108 66.4581 42.6189 66.6166 49.6211H66.6288L73.8438 61.8328Z" fill="#8DB9F3"/>
<path d="M58 48.875C55.27 48.875 53.125 47.2869 53.125 45.2656H55.5625C55.5625 45.7589 56.5131 46.4688 58 46.4688C59.4869 46.4688 60.4375 45.7589 60.4375 45.2656H62.875C62.875 47.2869 60.73 48.875 58 48.875Z" fill="#338CFF"/>
</svg>
