<svg width="700" height="115" viewBox="0 0 700 115" fill="none" xmlns="http://www.w3.org/2000/svg">
<path d="M18.72 0.960018H34.24L29.04 56.96H18.4L20.16 43.44H14.16L10.16 56.96H-5.96046e-08L18.72 0.960018ZM23.76 15.6L24.8 10.96H23.36L22.4 15.6L16.64 35.12H21.2L23.76 15.6ZM31.6894 56.96L43.6094 0.960018H55.2094L55.2894 27.52L54.6494 34.56H56.0094L56.6494 27.52L62.2494 0.960018H72.3294L60.4094 56.96H48.8894L48.7294 30.4L49.4494 23.36H48.0894L47.3694 30.4L41.7694 56.96H31.6894ZM105.339 10.16H96.3788L93.3388 24.08H101.419L99.4988 33.04H91.4988L88.2988 47.76H97.3388L95.3388 56.96H76.2987L88.2188 0.960018H107.259L105.339 10.16ZM99.0331 56.96L110.953 0.960018H122.553L122.633 27.52L121.993 34.56H123.353L123.993 27.52L129.593 0.960018H139.673L127.753 56.96H116.233L116.073 30.4L116.793 23.36H115.433L114.713 30.4L109.113 56.96H99.0331ZM147.113 3.36002C149.993 1.12002 153.379 2.09808e-05 157.273 2.09808e-05C161.166 2.09808e-05 164.073 1.12002 165.993 3.36002C167.966 5.54669 168.579 8.45335 167.833 12.08L166.313 19.28H156.233L157.673 12.16C157.886 11.2534 157.753 10.5334 157.273 10C156.846 9.46669 156.179 9.20002 155.273 9.20002C153.299 9.20002 152.099 10.1867 151.673 12.16L144.553 45.76C144.339 46.6667 144.473 47.3867 144.953 47.92C145.433 48.4534 146.126 48.72 147.033 48.72C149.113 48.72 150.366 47.7334 150.793 45.76L153.593 32.72H150.393L152.073 24.4H165.193L158.313 56.96H151.433L151.993 54L152.473 53.04H151.513L151.113 54C149.299 56.6134 146.419 57.92 142.473 57.92C139.273 57.92 136.899 56.9334 135.353 54.96C133.859 52.9334 133.486 50.2667 134.232 46.96L141.593 12.08C142.393 8.45335 144.233 5.54669 147.113 3.36002ZM162.705 56.96L174.625 0.960018H184.705L172.785 56.96H162.705ZM177.314 56.96L189.234 0.960018H200.834L200.914 27.52L200.274 34.56H201.634L202.274 27.52L207.874 0.960018H217.954L206.034 56.96H194.514L194.354 30.4L195.074 23.36H193.714L192.994 30.4L187.394 56.96H177.314ZM239.714 10.16H230.754L227.714 24.08H235.794L233.874 33.04H225.874L222.674 47.76H231.714L229.714 56.96H210.674L222.594 0.960018H241.634L239.714 10.16ZM262.448 10.16H253.488L250.448 24.08H258.528L256.608 33.04H248.608L245.408 47.76H254.448L252.448 56.96H233.408L245.328 0.960018H264.368L262.448 10.16ZM282.063 0.960018C285.689 0.960018 288.383 2.00002 290.143 4.08002C291.956 6.10669 292.516 8.82669 291.823 12.24L289.183 24.64C288.383 28.3734 286.383 31.2534 283.183 33.28L283.343 56.96H273.183L273.583 35.6H270.783L266.223 56.96H256.142L268.062 0.960018H282.063ZM276.223 10.16L272.623 26.96H275.583C276.489 26.96 277.263 26.6934 277.903 26.16C278.596 25.6267 279.023 24.9067 279.182 24L281.582 13.12C281.743 12.2134 281.609 11.4934 281.183 10.96C280.756 10.4267 280.089 10.16 279.182 10.16H276.223ZM329.469 0.960018L327.549 10.16H321.789L311.789 56.96H301.709L311.709 10.16H305.869L307.869 0.960018H329.469ZM333.236 57.92C329.342 57.92 326.436 56.8 324.516 54.56C322.596 52.32 322.009 49.3867 322.756 45.76L332.356 0.960018H342.436L332.836 45.76C332.622 46.6667 332.729 47.3867 333.156 47.92C333.636 48.4534 334.329 48.72 335.236 48.72C337.209 48.72 338.409 47.7334 338.836 45.76L348.436 0.960018H358.516L348.916 45.76C348.169 49.3867 346.356 52.32 343.476 54.56C340.596 56.8 337.182 57.92 333.236 57.92ZM376.984 0.960018C380.611 0.960018 383.304 2.00002 385.064 4.08002C386.878 6.10669 387.438 8.82669 386.744 12.24L384.104 24.64C383.304 28.3734 381.304 31.2534 378.104 33.28L378.264 56.96H368.104L368.504 35.6H365.704L361.144 56.96H351.064L362.984 0.960018H376.984ZM371.144 10.16L367.544 26.96H370.504C371.411 26.96 372.184 26.6934 372.824 26.16C373.518 25.6267 373.944 24.9067 374.104 24L376.504 13.12C376.664 12.2134 376.531 11.4934 376.104 10.96C375.678 10.4267 375.011 10.16 374.104 10.16H371.144ZM381.221 56.96L393.141 0.960018H404.741L404.821 27.52L404.181 34.56H405.541L406.181 27.52L411.781 0.960018H421.861L409.941 56.96H398.421L398.261 30.4L398.981 23.36H397.621L396.901 30.4L391.301 56.96H381.221ZM443.62 10.16H434.66L431.62 24.08H439.7L437.78 33.04H429.78L426.58 47.76H435.62L433.62 56.96H414.58L426.5 0.960018H445.54L443.62 10.16ZM462.914 0.960018C466.648 0.960018 469.421 2.02669 471.234 4.16002C473.101 6.24002 473.661 9.01335 472.914 12.48L465.954 45.44C465.208 48.9067 463.448 51.7067 460.674 53.84C457.954 55.92 454.728 56.96 450.994 56.96H437.314L449.234 0.960018H462.914ZM462.754 13.12C462.914 12.2134 462.781 11.4934 462.354 10.96C461.928 10.4267 461.261 10.16 460.354 10.16H457.234L449.314 47.76H452.354C454.328 47.76 455.528 46.7734 455.954 44.8L462.754 13.12ZM504.633 0.960018C508.366 0.960018 511.14 2.02669 512.953 4.16002C514.82 6.24002 515.38 9.01335 514.633 12.48L507.673 45.44C506.926 48.9067 505.166 51.7067 502.393 53.84C499.673 55.92 496.446 56.96 492.713 56.96H479.033L490.953 0.960018H504.633ZM504.473 13.12C504.633 12.2134 504.5 11.4934 504.073 10.96C503.646 10.4267 502.98 10.16 502.073 10.16H498.953L491.033 47.76H494.073C496.046 47.76 497.246 46.7734 497.673 44.8L504.473 13.12ZM538.542 10.16H529.582L526.542 24.08H534.622L532.702 33.04H524.702L521.502 47.76H530.542L528.542 56.96H509.502L521.422 0.960018H540.462L538.542 10.16ZM544.156 57.92C540.263 57.92 537.356 56.8 535.436 54.56C533.516 52.32 532.93 49.3867 533.676 45.76L535.436 37.44H545.516L543.756 45.76C543.543 46.6667 543.65 47.3867 544.076 47.92C544.556 48.4534 545.25 48.72 546.156 48.72C548.13 48.72 549.33 47.7334 549.756 45.76L551.196 39.28C551.463 38.1067 551.143 36.9867 550.236 35.92C549.383 34.8534 548.263 33.84 546.876 32.88C545.543 31.92 544.21 30.88 542.876 29.76C541.596 28.5867 540.61 27.0667 539.916 25.2C539.223 23.3334 539.116 21.2 539.596 18.8L541.036 12.08C541.783 8.45335 543.57 5.54669 546.396 3.36002C549.223 1.12002 552.583 2.09808e-05 556.476 2.09808e-05C560.37 2.09808e-05 563.276 1.12002 565.196 3.36002C567.116 5.54669 567.676 8.45335 566.876 12.08L565.276 19.52H555.196L556.876 12C556.983 11.1467 556.823 10.48 556.396 10C556.023 9.46669 555.41 9.20002 554.556 9.20002C552.583 9.20002 551.436 10.1334 551.116 12L549.916 17.6C549.65 18.8267 549.943 19.9734 550.796 21.04C551.703 22.1067 552.823 23.12 554.156 24.08C555.543 25.04 556.876 26.08 558.156 27.2C559.49 28.32 560.503 29.8134 561.196 31.68C561.89 33.5467 561.996 35.68 561.516 38.08L559.836 45.76C559.09 49.3867 557.276 52.32 554.396 54.56C551.516 56.8 548.103 57.92 544.156 57.92ZM561.299 56.96L573.219 0.960018H583.299L571.379 56.96H561.299ZM590.628 3.36002C593.508 1.12002 596.895 2.09808e-05 600.788 2.09808e-05C604.681 2.09808e-05 607.588 1.12002 609.508 3.36002C611.481 5.54669 612.095 8.45335 611.348 12.08L609.828 19.28H599.748L601.188 12.16C601.401 11.2534 601.268 10.5334 600.788 10C600.361 9.46669 599.695 9.20002 598.788 9.20002C596.815 9.20002 595.615 10.1867 595.188 12.16L588.068 45.76C587.855 46.6667 587.988 47.3867 588.468 47.92C588.948 48.4534 589.641 48.72 590.548 48.72C592.628 48.72 593.881 47.7334 594.308 45.76L597.108 32.72H593.908L595.588 24.4H608.708L601.828 56.96H594.948L595.508 54L595.988 53.04H595.028L594.628 54C592.815 56.6134 589.935 57.92 585.988 57.92C582.788 57.92 580.415 56.9334 578.868 54.96C577.375 52.9334 577.001 50.2667 577.748 46.96L585.108 12.08C585.908 8.45335 587.748 5.54669 590.628 3.36002ZM606.221 56.96L618.141 0.960018H629.741L629.821 27.52L629.181 34.56H630.541L631.181 27.52L636.781 0.960018H646.861L634.941 56.96H623.421L623.261 30.4L623.981 23.36H622.621L621.901 30.4L616.301 56.96H606.221ZM668.62 10.16H659.66L656.62 24.08H664.7L662.78 33.04H654.78L651.58 47.76H660.62L658.62 56.96H639.58L651.5 0.960018H670.54L668.62 10.16ZM688.234 0.960018C691.861 0.960018 694.554 2.00002 696.314 4.08002C698.128 6.10669 698.688 8.82669 697.994 12.24L695.354 24.64C694.554 28.3734 692.554 31.2534 689.354 33.28L689.514 56.96H679.354L679.754 35.6H676.954L672.394 56.96H662.314L674.234 0.960018H688.234ZM682.394 10.16L678.794 26.96H681.754C682.661 26.96 683.434 26.6934 684.074 26.16C684.768 25.6267 685.194 24.9067 685.354 24L687.754 13.12C687.914 12.2134 687.781 11.4934 687.354 10.96C686.928 10.4267 686.261 10.16 685.354 10.16H682.394ZM152.799 80.36H145.911L143.559 91.336H149.775L148.599 96.824H142.383L138.743 113.96H132.583L140.927 74.76H153.975L152.799 80.36ZM166.413 74.76C168.915 74.76 170.763 75.4694 171.957 76.888C173.189 78.3067 173.563 80.192 173.077 82.544L171.285 90.944C170.725 93.7814 169.176 95.8907 166.637 97.272L167.085 113.96H160.869L160.645 98.56H158.125L154.821 113.96H148.661L157.005 74.76H166.413ZM166.805 83.048C166.992 82.2267 166.88 81.5734 166.469 81.088C166.096 80.6027 165.499 80.36 164.677 80.36H161.989L159.245 93.24H161.933C162.755 93.24 163.464 92.9974 164.061 92.512C164.659 92.0267 165.032 91.3734 165.181 90.552L166.805 83.048ZM185.007 112.392C183.065 113.885 180.769 114.632 178.119 114.632C175.468 114.632 173.489 113.885 172.183 112.392C170.876 110.861 170.484 108.845 171.007 106.344L176.103 82.32C176.625 79.856 177.857 77.8774 179.799 76.384C181.777 74.8534 184.092 74.088 186.743 74.088C189.393 74.088 191.372 74.8534 192.679 76.384C193.985 77.8774 194.377 79.856 193.855 82.32L188.759 106.344C188.236 108.845 186.985 110.861 185.007 112.392ZM177.447 108.304C177.857 108.789 178.473 109.032 179.295 109.032C180.116 109.032 180.825 108.789 181.423 108.304C182.057 107.819 182.449 107.165 182.599 106.344L187.695 82.376C187.844 81.5547 187.713 80.9014 187.303 80.416C186.929 79.9307 186.332 79.688 185.511 79.688C184.689 79.688 183.98 79.9307 183.383 80.416C182.785 80.9014 182.412 81.5547 182.263 82.376L177.167 106.344C176.98 107.165 177.073 107.819 177.447 108.304ZM190.989 113.96L199.333 74.76H210.533L207.229 102.312L206.053 107.856H207.117L208.293 102.312L216.749 74.76H227.725L219.381 113.96H213.221L219.437 84.672L220.165 81.536H219.157L218.373 84.672L209.245 113.96H201.125L204.429 84.672L204.989 81.536H203.981L203.365 84.672L197.149 113.96H190.989ZM241.869 76.384C243.848 74.8534 246.162 74.088 248.813 74.088C251.464 74.088 253.442 74.8534 254.749 76.384C256.056 77.8774 256.448 79.856 255.925 82.32L254.917 87.248H248.757L249.765 82.376C249.914 81.5547 249.784 80.9014 249.373 80.416C249 79.9307 248.402 79.688 247.581 79.688C246.76 79.688 246.05 79.9307 245.453 80.416C244.856 80.9014 244.482 81.5547 244.333 82.376L239.237 106.344C239.088 107.165 239.2 107.819 239.573 108.304C239.984 108.789 240.6 109.032 241.421 109.032C242.28 109.032 243.008 108.789 243.605 108.304C244.24 107.819 244.632 107.165 244.781 106.344L246.853 96.6H244.053L245.117 91.504H253.965L249.205 113.96H245.005L245.453 111.832L245.733 111.216H245.117L244.781 111.832C243.512 113.699 241.477 114.632 238.677 114.632C236.474 114.632 234.85 113.941 233.805 112.56C232.76 111.141 232.48 109.293 232.965 107.016L238.173 82.32C238.696 79.856 239.928 77.8774 241.869 76.384ZM268.514 112.392C266.573 113.885 264.277 114.632 261.626 114.632C258.976 114.632 256.997 113.885 255.69 112.392C254.384 110.861 253.992 108.845 254.514 106.344L259.61 82.32C260.133 79.856 261.365 77.8774 263.306 76.384C265.285 74.8534 267.6 74.088 270.25 74.088C272.901 74.088 274.88 74.8534 276.186 76.384C277.493 77.8774 277.885 79.856 277.362 82.32L272.266 106.344C271.744 108.845 270.493 110.861 268.514 112.392ZM260.954 108.304C261.365 108.789 261.981 109.032 262.802 109.032C263.624 109.032 264.333 108.789 264.93 108.304C265.565 107.819 265.957 107.165 266.106 106.344L271.202 82.376C271.352 81.5547 271.221 80.9014 270.81 80.416C270.437 79.9307 269.84 79.688 269.018 79.688C268.197 79.688 267.488 79.9307 266.89 80.416C266.293 80.9014 265.92 81.5547 265.77 82.376L260.674 106.344C260.488 107.165 260.581 107.819 260.954 108.304ZM292.081 74.76C294.62 74.76 296.505 75.488 297.737 76.944C299.007 78.4 299.38 80.3227 298.857 82.712L293.929 106.008C293.407 108.397 292.212 110.32 290.345 111.776C288.479 113.232 286.276 113.96 283.737 113.96H274.497L282.841 74.76H292.081ZM292.641 83.048C292.828 82.2267 292.716 81.5734 292.305 81.088C291.932 80.6027 291.335 80.36 290.513 80.36H287.769L281.833 108.36H284.577C285.399 108.36 286.108 108.117 286.705 107.632C287.303 107.147 287.676 106.493 287.825 105.672L292.641 83.048ZM303.553 74.76H309.713L308.313 81.368L304.729 87.08H300.753L303.441 82.264H301.929L303.553 74.76ZM319.417 112.392C317.438 113.885 315.123 114.632 312.473 114.632C309.822 114.632 307.843 113.885 306.537 112.392C305.267 110.861 304.894 108.845 305.417 106.344L306.649 100.464H312.809L311.577 106.344C311.39 107.165 311.483 107.819 311.857 108.304C312.267 108.789 312.883 109.032 313.705 109.032C314.526 109.032 315.235 108.789 315.833 108.304C316.43 107.819 316.803 107.165 316.953 106.344L318.017 101.64C318.203 100.707 317.979 99.848 317.345 99.064C316.747 98.28 315.945 97.552 314.937 96.88C313.966 96.1707 312.995 95.424 312.025 94.64C311.091 93.8187 310.363 92.7734 309.841 91.504C309.355 90.1974 309.281 88.704 309.617 87.024L310.625 82.32C311.147 79.856 312.361 77.8774 314.265 76.384C316.206 74.8534 318.483 74.088 321.097 74.088C323.747 74.088 325.707 74.8534 326.977 76.384C328.283 77.8774 328.675 79.856 328.153 82.32L327.033 87.584H320.873L321.993 82.264C322.142 81.5174 322.03 80.9014 321.657 80.416C321.283 79.9307 320.705 79.688 319.921 79.688C319.137 79.688 318.465 79.9307 317.905 80.416C317.345 80.864 316.99 81.48 316.841 82.264L315.945 86.296C315.758 87.2294 315.963 88.1067 316.561 88.928C317.195 89.712 317.998 90.4587 318.969 91.168C319.939 91.84 320.891 92.568 321.825 93.352C322.795 94.136 323.523 95.1814 324.009 96.488C324.531 97.7947 324.625 99.288 324.289 100.968L323.113 106.344C322.627 108.845 321.395 110.861 319.417 112.392ZM348.522 112.392C346.581 113.885 344.285 114.632 341.634 114.632C338.984 114.632 337.005 113.885 335.698 112.392C334.392 110.861 334 108.845 334.522 106.344L339.618 82.32C340.141 79.856 341.373 77.8774 343.314 76.384C345.293 74.8534 347.608 74.088 350.258 74.088C352.909 74.088 354.888 74.8534 356.194 76.384C357.501 77.8774 357.893 79.856 357.37 82.32L352.274 106.344C351.752 108.845 350.501 110.861 348.522 112.392ZM340.962 108.304C341.373 108.789 341.989 109.032 342.81 109.032C343.632 109.032 344.341 108.789 344.938 108.304C345.573 107.819 345.965 107.165 346.114 106.344L351.21 82.376C351.36 81.5547 351.229 80.9014 350.818 80.416C350.445 79.9307 349.848 79.688 349.026 79.688C348.205 79.688 347.496 79.9307 346.898 80.416C346.301 80.9014 345.928 81.5547 345.778 82.376L340.682 106.344C340.496 107.165 340.589 107.819 340.962 108.304ZM357.204 113.96L361.18 74.76H367.62L363.756 103.992L363.084 107.184H364.092L364.764 103.992L373.332 74.76H381.844L377.924 103.992L377.252 107.184H378.316L378.988 103.992L387.556 74.76H393.716L381.004 113.96H371.988L375.404 86.632L376.692 80.864H375.628L374.34 86.632L366.164 113.96H357.204ZM388.193 113.96L396.537 74.76H404.041L404.321 96.488L403.929 100.8H404.937L405.329 96.488L409.921 74.76H416.081L407.737 113.96H400.289L399.953 92.232L400.401 87.92H399.393L398.945 92.232L394.353 113.96H388.193ZM435.421 112.392C433.479 113.885 431.183 114.632 428.533 114.632C425.882 114.632 423.903 113.885 422.597 112.392C421.29 110.861 420.898 108.845 421.421 106.344L426.517 82.32C427.039 79.856 428.271 77.8774 430.213 76.384C432.191 74.8534 434.506 74.088 437.157 74.088C439.807 74.088 441.786 74.8534 443.093 76.384C444.399 77.8774 444.791 79.856 444.269 82.32L442.589 90.216H436.429L438.109 82.376C438.258 81.5547 438.127 80.9014 437.717 80.416C437.343 79.9307 436.746 79.688 435.925 79.688C435.103 79.688 434.394 79.9307 433.797 80.416C433.199 80.9014 432.826 81.5547 432.677 82.376L427.581 106.344C427.394 107.165 427.487 107.819 427.861 108.304C428.271 108.789 428.887 109.032 429.709 109.032C430.53 109.032 431.239 108.789 431.837 108.304C432.471 107.819 432.863 107.165 433.013 106.344L434.805 97.944H440.965L439.173 106.344C438.65 108.845 437.399 110.861 435.421 112.392ZM456.694 112.392C454.753 113.885 452.457 114.632 449.806 114.632C447.155 114.632 445.177 113.885 443.87 112.392C442.563 110.861 442.171 108.845 442.694 106.344L447.79 82.32C448.313 79.856 449.545 77.8774 451.486 76.384C453.465 74.8534 455.779 74.088 458.43 74.088C461.081 74.088 463.059 74.8534 464.366 76.384C465.673 77.8774 466.065 79.856 465.542 82.32L460.446 106.344C459.923 108.845 458.673 110.861 456.694 112.392ZM449.134 108.304C449.545 108.789 450.161 109.032 450.982 109.032C451.803 109.032 452.513 108.789 453.11 108.304C453.745 107.819 454.137 107.165 454.286 106.344L459.382 82.376C459.531 81.5547 459.401 80.9014 458.99 80.416C458.617 79.9307 458.019 79.688 457.198 79.688C456.377 79.688 455.667 79.9307 455.07 80.416C454.473 80.9014 454.099 81.5547 453.95 82.376L448.854 106.344C448.667 107.165 448.761 107.819 449.134 108.304ZM478.133 112.392C476.192 113.885 473.896 114.632 471.245 114.632C468.594 114.632 466.616 113.885 465.309 112.392C464.002 110.861 463.61 108.845 464.133 106.344L470.909 74.76H477.069L470.293 106.344C470.144 107.165 470.256 107.819 470.629 108.304C471.04 108.789 471.656 109.032 472.477 109.032C473.298 109.032 474.008 108.789 474.605 108.304C475.202 107.819 475.576 107.165 475.725 106.344L482.501 74.76H488.661L481.885 106.344C481.362 108.845 480.112 110.861 478.133 112.392ZM484.224 113.96L492.568 74.76H500.072L500.352 96.488L499.96 100.8H500.968L501.36 96.488L505.952 74.76H512.112L503.768 113.96H496.32L495.984 92.232L496.432 87.92H495.424L494.976 92.232L490.384 113.96H484.224ZM529.634 74.76L528.458 80.36H524.034L516.922 113.96H510.762L517.874 80.36H513.506L514.738 74.76H529.634ZM541.679 74.76C544.18 74.76 546.028 75.4694 547.223 76.888C548.455 78.3067 548.828 80.192 548.343 82.544L546.551 90.944C545.991 93.7814 544.442 95.8907 541.903 97.272L542.351 113.96H536.135L535.911 98.56H533.391L530.087 113.96H523.927L532.271 74.76H541.679ZM542.071 83.048C542.258 82.2267 542.146 81.5734 541.735 81.088C541.362 80.6027 540.764 80.36 539.943 80.36H537.255L534.511 93.24H537.199C538.02 93.24 538.73 92.9974 539.327 92.512C539.924 92.0267 540.298 91.3734 540.447 90.552L542.071 83.048ZM570.031 74.76L558.271 99.568L555.191 113.96H549.031L552.111 99.512L550.879 74.76H557.375L557.095 88.536L556.311 92.344H557.375L558.159 88.536L563.815 74.76H570.031Z" fill="url(#paint0_linear_1526_228)"/>
<defs>
<linearGradient id="paint0_linear_1526_228" x1="-21.3047" y1="3.75454" x2="717.23" y2="116.932" gradientUnits="userSpaceOnUse">
<stop stop-color="white"/>
<stop offset="1" stop-color="#999999"/>
</linearGradient>
</defs>
</svg>
