<svg width="129" height="88" viewBox="0 0 129 88" fill="none" xmlns="http://www.w3.org/2000/svg">
<path d="M94.1681 19.7745L94.7144 18.9369L94.1681 19.7745ZM0.453907 10.0773C-0.00869088 9.77563 -0.139107 9.15604 0.1626 8.69345L5.07921 1.15509C5.38092 0.692495 6.0005 0.562069 6.46309 0.86378C6.92568 1.16548 7.05611 1.78507 6.7544 2.24767L2.38408 8.94844L9.08485 13.3188C9.54745 13.6205 9.67787 14.24 9.37616 14.7026C9.07445 15.1652 8.45487 15.2957 7.99227 14.9939L0.453907 10.0773ZM127.901 87.7846C126.901 87.7578 126.901 87.7578 126.901 87.7579C126.901 87.7579 126.901 87.7579 126.901 87.758C126.901 87.758 126.901 87.758 126.901 87.758C126.901 87.7581 126.901 87.7581 126.901 87.758C126.901 87.758 126.901 87.7577 126.901 87.7573C126.901 87.7564 126.901 87.7549 126.901 87.7527C126.901 87.7483 126.901 87.7411 126.902 87.7314C126.902 87.7118 126.902 87.6815 126.903 87.6409C126.904 87.5595 126.905 87.4365 126.906 87.2738C126.906 86.9484 126.902 86.4645 126.885 85.8384L127.885 85.8112L128.884 85.784C128.902 86.4299 128.906 86.9327 128.906 87.276C128.905 87.4477 128.904 87.5795 128.903 87.6694C128.902 87.7143 128.902 87.7488 128.901 87.7726C128.901 87.7844 128.901 87.7936 128.901 87.8001C128.9 87.8033 128.9 87.8059 128.9 87.8078C128.9 87.8087 128.9 87.8095 128.9 87.8101C128.9 87.8104 128.9 87.8106 128.9 87.8108C128.9 87.811 128.9 87.811 128.9 87.8111C128.9 87.8112 128.9 87.8112 128.9 87.8113C128.9 87.8113 128.9 87.8114 127.901 87.7846ZM127.673 81.872L126.676 81.9493C126.587 80.7953 126.463 79.4944 126.293 78.0698L127.286 77.951L128.279 77.8323C128.453 79.2862 128.579 80.6147 128.67 81.7948L127.673 81.872ZM126.738 74.0335L125.751 74.1915C125.554 72.963 125.325 71.6745 125.057 70.3361L126.037 70.1396L127.018 69.9431C127.291 71.3083 127.525 72.6225 127.726 73.8756L126.738 74.0335ZM125.186 66.2905L124.214 66.5257C123.915 65.2905 123.584 64.0248 123.215 62.735L124.177 62.4604L125.138 62.1857C125.515 63.5028 125.853 64.7949 126.158 66.0554L125.186 66.2905ZM123.015 58.6923L122.066 59.0072C121.663 57.7931 121.227 56.5644 120.755 55.3259L121.689 54.9697L122.624 54.6136C123.107 55.8804 123.552 57.1367 123.964 58.3775L123.015 58.6923ZM120.196 51.3043L119.278 51.703C118.767 50.5273 118.222 49.3474 117.641 48.1674L118.538 47.7254L119.435 47.2834C120.031 48.493 120.589 49.7018 121.113 50.9057L120.196 51.3043ZM116.705 44.2276L115.831 44.7138C115.206 43.5898 114.546 42.4695 113.848 41.3563L114.695 40.8253L115.543 40.2943C116.259 41.4377 116.937 42.588 117.579 43.7414L116.705 44.2276ZM112.507 37.533L111.689 38.109C110.949 37.0579 110.172 36.0167 109.358 34.9884L110.142 34.3676L110.926 33.7468C111.764 34.805 112.562 35.8762 113.324 36.9569L112.507 37.533ZM107.604 31.3447L106.857 32.0094C106.004 31.0508 105.115 30.1069 104.188 29.1804L104.895 28.4732L105.602 27.7659C106.557 28.7205 107.473 29.6928 108.351 30.68L107.604 31.3447ZM102.021 25.7657L101.357 26.5135C100.399 25.6629 99.4049 24.8307 98.3734 24.0192L98.9916 23.2332L99.6099 22.4473C100.673 23.2835 101.698 24.1412 102.685 25.0178L102.021 25.7657ZM95.817 20.8848L95.2463 21.7059C94.7138 21.3359 94.1724 20.9712 93.6219 20.6121L94.1681 19.7745L94.7144 18.9369C95.2815 19.3067 95.8392 19.6824 96.3877 20.0637L95.817 20.8848ZM94.1681 19.7745L93.6219 20.6121C93.0738 20.2546 92.5197 19.9058 91.96 19.5655L92.4796 18.7111L92.9991 17.8566C93.5765 18.2077 94.1484 18.5677 94.7144 18.9369L94.1681 19.7745ZM89.0077 16.742L88.5404 17.6261C87.3827 17.0141 86.2051 16.4344 85.0101 15.8856L85.4275 14.9768L85.8449 14.0681C87.0723 14.6319 88.2833 15.2279 89.475 15.8579L89.0077 16.742ZM81.7576 13.4058L81.3875 14.3348C80.1683 13.8492 78.9346 13.3926 77.6887 12.9637L78.0142 12.0182L78.3398 11.0726C79.6144 11.5115 80.8779 11.979 82.1276 12.4768L81.7576 13.4058ZM74.2113 10.8025L73.9275 11.7614C72.6654 11.3878 71.3939 11.0403 70.1155 10.7173L70.3604 9.7478L70.6054 8.77825C71.9088 9.1075 73.2062 9.46213 74.4952 9.84366L74.2113 10.8025ZM66.4714 8.84322L66.2628 9.82122C64.9712 9.54574 63.6753 9.29357 62.3775 9.06328L62.5523 8.07867L62.727 7.09405C64.0465 7.3282 65.365 7.58475 66.68 7.86521L66.4714 8.84322ZM58.6098 7.44477L58.4667 8.43448C57.1548 8.24477 55.8437 8.07593 54.536 7.92647L54.6496 6.93294L54.7631 5.93941C56.0897 6.09104 57.4206 6.26241 58.7529 6.45507L58.6098 7.44477ZM50.6763 6.53537L50.5904 7.53168C49.2643 7.4174 47.9445 7.32178 46.634 7.24324L46.6939 6.24503L46.7537 5.24682C48.0809 5.32636 49.418 5.42323 50.7621 5.53906L50.6763 6.53537ZM42.7059 6.05563L42.6706 7.055C41.3342 7.00782 40.0108 6.97725 38.7036 6.9615L38.7156 5.96157L38.7276 4.96164C40.0498 4.97758 41.3887 5.0085 42.7412 5.05625L42.7059 6.05563ZM34.7265 5.95791L34.7365 6.95786C33.3898 6.97138 32.065 6.99948 30.7655 7.04002L30.7344 6.04051L30.7032 5.041C32.0161 5.00003 33.3551 4.97163 34.7164 4.95796L34.7265 5.95791ZM26.7367 6.20634L26.7883 7.205C25.4279 7.27527 24.1029 7.35779 22.8179 7.44974L22.7465 6.45229L22.6752 5.45484C23.9728 5.36198 25.311 5.27864 26.6851 5.20767L26.7367 6.20634ZM18.7756 6.77532L18.8663 7.7712C17.4823 7.8973 16.1592 8.03206 14.9047 8.17109L14.7945 7.17717L14.6844 6.18326C15.9513 6.04286 17.2873 5.90679 18.6848 5.77945L18.7756 6.77532ZM10.843 7.65462L10.9729 8.64615C9.5172 8.83685 8.19836 9.02641 7.03434 9.20445L6.88314 8.21595L6.73195 7.22745C7.90939 7.04735 9.24244 6.85575 10.7131 6.6631L10.843 7.65462ZM2.92529 8.8722L3.10276 9.85632C2.48322 9.96805 2.00691 10.059 1.68656 10.1218C1.52637 10.1532 1.40519 10.1775 1.3246 10.1939C1.28431 10.2021 1.25416 10.2083 1.23435 10.2124C1.22445 10.2145 1.21713 10.216 1.21243 10.217C1.21008 10.2175 1.20838 10.2178 1.20734 10.2181C1.20682 10.2182 1.20646 10.2182 1.20627 10.2183C1.20616 10.2183 1.20612 10.2183 1.2061 10.2183C1.2061 10.2183 1.2061 10.2183 1.20612 10.2183C1.20612 10.2183 1.20614 10.2183 1.20614 10.2183C1.20616 10.2183 1.20618 10.2183 1.0002 9.23974C0.794211 8.26119 0.794235 8.26118 0.794273 8.26118C0.794279 8.26117 0.794317 8.26116 0.79434 8.26116C0.794399 8.26115 0.794465 8.26113 0.794545 8.26112C0.794693 8.26109 0.794885 8.26105 0.795117 8.261C0.795582 8.2609 0.796213 8.26077 0.797001 8.2606C0.798599 8.26027 0.80084 8.25979 0.803748 8.25919C0.809548 8.25798 0.817976 8.25623 0.828989 8.25395C0.851018 8.24939 0.883406 8.24272 0.925978 8.23406C1.01111 8.21674 1.13694 8.19146 1.30186 8.15914C1.63168 8.09449 2.11793 8.00167 2.74782 7.88808L2.92529 8.8722ZM94.1681 19.7745L94.7144 18.9369L94.1681 19.7745ZM0.453907 10.0773C-0.00869088 9.77563 -0.139107 9.15604 0.1626 8.69345L5.07921 1.15509C5.38092 0.692495 6.0005 0.562069 6.46309 0.86378C6.92568 1.16548 7.05611 1.78507 6.7544 2.24767L2.38408 8.94844L9.08485 13.3188C9.54745 13.6205 9.67787 14.24 9.37616 14.7026C9.07445 15.1652 8.45487 15.2957 7.99227 14.9939L0.453907 10.0773ZM127.901 87.7846C126.901 87.7578 126.901 87.7578 126.901 87.7579C126.901 87.7579 126.901 87.7579 126.901 87.758C126.901 87.758 126.901 87.758 126.901 87.758C126.901 87.7581 126.901 87.7581 126.901 87.758C126.901 87.758 126.901 87.7577 126.901 87.7573C126.901 87.7564 126.901 87.7549 126.901 87.7527C126.901 87.7483 126.901 87.7411 126.902 87.7314C126.902 87.7118 126.902 87.6815 126.903 87.6409C126.904 87.5595 126.905 87.4365 126.906 87.2738C126.906 86.9484 126.902 86.4645 126.885 85.8384L127.885 85.8112L128.884 85.784C128.902 86.4299 128.906 86.9327 128.906 87.276C128.905 87.4477 128.904 87.5795 128.903 87.6694C128.902 87.7143 128.902 87.7488 128.901 87.7726C128.901 87.7844 128.901 87.7936 128.901 87.8001C128.9 87.8033 128.9 87.8059 128.9 87.8078C128.9 87.8087 128.9 87.8095 128.9 87.8101C128.9 87.8104 128.9 87.8106 128.9 87.8108C128.9 87.811 128.9 87.811 128.9 87.8111C128.9 87.8112 128.9 87.8112 128.9 87.8113C128.9 87.8113 128.9 87.8114 127.901 87.7846ZM127.673 81.872L126.676 81.9493C126.587 80.7953 126.463 79.4944 126.293 78.0698L127.286 77.951L128.279 77.8323C128.453 79.2862 128.579 80.6147 128.67 81.7948L127.673 81.872ZM126.738 74.0335L125.751 74.1915C125.554 72.963 125.325 71.6745 125.057 70.3361L126.037 70.1396L127.018 69.9431C127.291 71.3083 127.525 72.6225 127.726 73.8756L126.738 74.0335ZM125.186 66.2905L124.214 66.5257C123.915 65.2905 123.584 64.0248 123.215 62.735L124.177 62.4604L125.138 62.1857C125.515 63.5028 125.853 64.7949 126.158 66.0554L125.186 66.2905ZM123.015 58.6923L122.066 59.0072C121.663 57.7931 121.227 56.5644 120.755 55.3259L121.689 54.9697L122.624 54.6136C123.107 55.8804 123.552 57.1367 123.964 58.3775L123.015 58.6923ZM120.196 51.3043L119.278 51.703C118.767 50.5273 118.222 49.3474 117.641 48.1674L118.538 47.7254L119.435 47.2834C120.031 48.493 120.589 49.7018 121.113 50.9057L120.196 51.3043ZM116.705 44.2276L115.831 44.7138C115.206 43.5898 114.546 42.4695 113.848 41.3563L114.695 40.8253L115.543 40.2943C116.259 41.4377 116.937 42.588 117.579 43.7414L116.705 44.2276ZM112.507 37.533L111.689 38.109C110.949 37.0579 110.172 36.0167 109.358 34.9884L110.142 34.3676L110.926 33.7468C111.764 34.805 112.562 35.8762 113.324 36.9569L112.507 37.533ZM107.604 31.3447L106.857 32.0094C106.004 31.0508 105.115 30.1069 104.188 29.1804L104.895 28.4732L105.602 27.7659C106.557 28.7205 107.473 29.6928 108.351 30.68L107.604 31.3447ZM102.021 25.7657L101.357 26.5135C100.399 25.6629 99.4049 24.8307 98.3734 24.0192L98.9916 23.2332L99.6099 22.4473C100.673 23.2835 101.698 24.1412 102.685 25.0178L102.021 25.7657ZM95.817 20.8848L95.2463 21.7059C94.7138 21.3359 94.1724 20.9712 93.6219 20.6121L94.1681 19.7745L94.7144 18.9369C95.2815 19.3067 95.8392 19.6824 96.3877 20.0637L95.817 20.8848ZM94.1681 19.7745L93.6219 20.6121C93.0738 20.2546 92.5197 19.9058 91.96 19.5655L92.4796 18.7111L92.9991 17.8566C93.5765 18.2077 94.1484 18.5677 94.7144 18.9369L94.1681 19.7745ZM89.0077 16.742L88.5404 17.6261C87.3827 17.0141 86.2051 16.4344 85.0101 15.8856L85.4275 14.9768L85.8449 14.0681C87.0723 14.6319 88.2833 15.2279 89.475 15.8579L89.0077 16.742ZM81.7576 13.4058L81.3875 14.3348C80.1683 13.8492 78.9346 13.3926 77.6887 12.9637L78.0142 12.0182L78.3398 11.0726C79.6144 11.5115 80.8779 11.979 82.1276 12.4768L81.7576 13.4058ZM74.2113 10.8025L73.9275 11.7614C72.6654 11.3878 71.3939 11.0403 70.1155 10.7173L70.3604 9.7478L70.6054 8.77825C71.9088 9.1075 73.2062 9.46213 74.4952 9.84366L74.2113 10.8025ZM66.4714 8.84322L66.2628 9.82122C64.9712 9.54574 63.6753 9.29357 62.3775 9.06328L62.5523 8.07867L62.727 7.09405C64.0465 7.3282 65.365 7.58475 66.68 7.86521L66.4714 8.84322ZM58.6098 7.44477L58.4667 8.43448C57.1548 8.24477 55.8437 8.07593 54.536 7.92647L54.6496 6.93294L54.7631 5.93941C56.0897 6.09104 57.4206 6.26241 58.7529 6.45507L58.6098 7.44477ZM50.6763 6.53537L50.5904 7.53168C49.2643 7.4174 47.9445 7.32178 46.634 7.24324L46.6939 6.24503L46.7537 5.24682C48.0809 5.32636 49.418 5.42323 50.7621 5.53906L50.6763 6.53537ZM42.7059 6.05563L42.6706 7.055C41.3342 7.00782 40.0108 6.97725 38.7036 6.9615L38.7156 5.96157L38.7276 4.96164C40.0498 4.97758 41.3887 5.0085 42.7412 5.05625L42.7059 6.05563ZM34.7265 5.95791L34.7365 6.95786C33.3898 6.97138 32.065 6.99948 30.7655 7.04002L30.7344 6.04051L30.7032 5.041C32.0161 5.00003 33.3551 4.97163 34.7164 4.95796L34.7265 5.95791ZM26.7367 6.20634L26.7883 7.205C25.4279 7.27527 24.1029 7.35779 22.8179 7.44974L22.7465 6.45229L22.6752 5.45484C23.9728 5.36198 25.311 5.27864 26.6851 5.20767L26.7367 6.20634ZM18.7756 6.77532L18.8663 7.7712C17.4823 7.8973 16.1592 8.03206 14.9047 8.17109L14.7945 7.17717L14.6844 6.18326C15.9513 6.04286 17.2873 5.90679 18.6848 5.77945L18.7756 6.77532ZM10.843 7.65462L10.9729 8.64615C9.5172 8.83685 8.19836 9.02641 7.03434 9.20445L6.88314 8.21595L6.73195 7.22745C7.90939 7.04735 9.24244 6.85575 10.7131 6.6631L10.843 7.65462ZM2.92529 8.8722L3.10276 9.85632C2.48322 9.96805 2.00691 10.059 1.68656 10.1218C1.52637 10.1532 1.40519 10.1775 1.3246 10.1939C1.28431 10.2021 1.25416 10.2083 1.23435 10.2124C1.22445 10.2145 1.21713 10.216 1.21243 10.217C1.21008 10.2175 1.20838 10.2178 1.20734 10.2181C1.20682 10.2182 1.20646 10.2182 1.20627 10.2183C1.20616 10.2183 1.20612 10.2183 1.2061 10.2183C1.2061 10.2183 1.2061 10.2183 1.20612 10.2183C1.20612 10.2183 1.20614 10.2183 1.20614 10.2183C1.20616 10.2183 1.20618 10.2183 1.0002 9.23974C0.794211 8.26119 0.794235 8.26118 0.794273 8.26118C0.794279 8.26117 0.794317 8.26116 0.79434 8.26116C0.794399 8.26115 0.794465 8.26113 0.794545 8.26112C0.794693 8.26109 0.794885 8.26105 0.795117 8.261C0.795582 8.2609 0.796213 8.26077 0.797001 8.2606C0.798599 8.26027 0.80084 8.25979 0.803748 8.25919C0.809548 8.25798 0.817976 8.25623 0.828989 8.25395C0.851018 8.24939 0.883406 8.24272 0.925978 8.23406C1.01111 8.21674 1.13694 8.19146 1.30186 8.15914C1.63168 8.09449 2.11793 8.00167 2.74782 7.88808L2.92529 8.8722Z" fill="white"/>
</svg>
