<svg width="117" height="117" viewBox="0 0 117 117" fill="none" xmlns="http://www.w3.org/2000/svg">
<rect width="117" height="117" rx="58.5" fill="#E7F0FF"/>
<g clip-path="url(#clip0_1483_726)">
<path d="M72.0531 50.6921L62.4813 62.2766L32.7582 91.9995L24 83.2412L53.723 53.5182L66.132 44.502L72.0531 50.6921Z" fill="#EEF4FF"/>
<path d="M28.375 87.6157L70.6691 45.3216L75.0475 49.7001L32.7535 91.9942L28.375 87.6157Z" fill="#D9E6FC"/>
<path d="M75.0599 49.7001L62.4814 62.2766L53.7241 53.5193L66.3006 40.9409L75.0599 49.7001Z" fill="#FF7B4A"/>
<path d="M75.0596 49.6999L62.4812 62.2764L58.1021 57.8973L70.6794 45.3198L75.0596 49.6999Z" fill="#F23F56"/>
<path d="M57.268 38.6062L48.4726 43.417L43.6619 52.2124L38.8511 43.417L30.0557 38.6062L38.8511 33.7954L43.6619 25L48.4726 33.7954L57.268 38.6062Z" fill="#FFDC40"/>
<path d="M90.9998 36.4979L83.5668 40.5629L79.5018 47.9959L75.4368 40.5629L68.0039 36.4979L75.4368 32.4329L79.5018 25L83.5668 32.4329L90.9998 36.4979Z" fill="#FFDC40"/>
<path d="M57.2678 38.6062L48.4724 43.417L43.6616 52.2124V25L48.4724 33.7954L57.2678 38.6062Z" fill="#FABE2C"/>
<path d="M90.9999 36.4979L83.5669 40.5629L79.502 47.9959V25L83.5669 32.4329L90.9999 36.4979Z" fill="#FABE2C"/>
<path d="M90.9998 67.0677L83.5668 71.1327L79.5018 78.5657L75.4368 71.1327L68.0039 67.0677L75.4368 63.0028L79.5018 55.5698L83.5668 63.0028L90.9998 67.0677Z" fill="#FFDC40"/>
<path d="M90.9999 67.0677L83.5669 71.1327L79.502 78.5657V55.5698L83.5669 63.0028L90.9999 67.0677Z" fill="#FABE2C"/>
</g>
<defs>
<clipPath id="clip0_1483_726">
<rect width="67" height="67" fill="white" transform="translate(24 25)"/>
</clipPath>
</defs>
</svg>
