<svg width="129" height="88" viewBox="0 0 129 88" fill="none" xmlns="http://www.w3.org/2000/svg">
<path d="M34.785 19.7745L34.2387 18.9369L34.785 19.7745ZM128.499 10.0773C128.962 9.77563 129.092 9.15604 128.791 8.69345L123.874 1.15509C123.572 0.692495 122.953 0.562069 122.49 0.86378C122.027 1.16548 121.897 1.78507 122.199 2.24767L126.569 8.94844L119.868 13.3188C119.406 13.6205 119.275 14.24 119.577 14.7026C119.879 15.1652 120.498 15.2957 120.961 14.9939L128.499 10.0773ZM1.05254 87.7846C2.05218 87.7578 2.05219 87.7578 2.05219 87.7579C2.05219 87.7579 2.05219 87.7579 2.05219 87.758C2.05219 87.758 2.05219 87.758 2.05219 87.758C2.05219 87.7581 2.05219 87.7581 2.05219 87.758C2.05219 87.758 2.05218 87.7577 2.05217 87.7573C2.05215 87.7564 2.05211 87.7549 2.05206 87.7527C2.05195 87.7483 2.05179 87.7411 2.05159 87.7314C2.05119 87.7118 2.05063 87.6815 2.05005 87.6409C2.04888 87.5595 2.04765 87.4365 2.04747 87.2738C2.04711 86.9484 2.05095 86.4645 2.06798 85.8384L1.06835 85.8112L0.0687181 85.784C0.0511507 86.4299 0.0470892 86.9327 0.0474728 87.276C0.0476629 87.4477 0.0489657 87.5795 0.0502479 87.6694C0.0508898 87.7143 0.0515252 87.7488 0.0520154 87.7726C0.0522594 87.7844 0.0524671 87.7936 0.0526197 87.8001C0.0526981 87.8033 0.0527607 87.8059 0.0528077 87.8078C0.0528322 87.8087 0.0528508 87.8095 0.0528676 87.8101C0.0528739 87.8104 0.0528823 87.8106 0.0528867 87.8108C0.05289 87.811 0.0528916 87.811 0.0528939 87.8111C0.0528961 87.8112 0.0528965 87.8112 0.0528976 87.8113C0.0528993 87.8113 0.0529001 87.8114 1.05254 87.7846ZM1.27968 81.872L2.27669 81.9493C2.36612 80.7953 2.48969 79.4944 2.66004 78.0698L1.66711 77.951L0.674187 77.8323C0.500339 79.2862 0.374114 80.6147 0.282673 81.7948L1.27968 81.872ZM2.21475 74.0335L3.2022 74.1915C3.3987 72.963 3.62832 71.6745 3.89658 70.3361L2.91608 70.1396L1.93558 69.9431C1.66194 71.3083 1.42773 72.6225 1.2273 73.8756L2.21475 74.0335ZM3.76685 66.2905L4.7388 66.5257C5.03766 65.2905 5.36948 64.0248 5.73787 62.735L4.77632 62.4604L3.81477 62.1857C3.4386 63.5028 3.09987 64.7949 2.79489 66.0554L3.76685 66.2905ZM5.93832 58.6923L6.88746 59.0072C7.29019 57.7931 7.72623 56.5644 8.19831 55.3259L7.2639 54.9697L6.32948 54.6136C5.84658 55.8804 5.40076 57.1367 4.98918 58.3775L5.93832 58.6923ZM8.75755 51.3043L9.67465 51.703C10.1857 50.5273 10.7308 49.3474 11.3123 48.1674L10.4152 47.7254L9.51823 47.2834C8.92225 48.493 8.36377 49.7018 7.84046 50.9057L8.75755 51.3043ZM12.2479 44.2276L13.1217 44.7138C13.7471 43.5898 14.4076 42.4695 15.1052 41.3563L14.2578 40.8253L13.4104 40.2943C12.6939 41.4377 12.0157 42.588 11.374 43.7414L12.2479 44.2276ZM16.4464 37.533L17.2638 38.109C18.0046 37.0579 18.7812 36.0167 19.5955 34.9884L18.8115 34.3676L18.0275 33.7468C17.1896 34.805 16.3907 35.8762 15.629 36.9569L16.4464 37.533ZM21.349 31.3447L22.0961 32.0094C22.949 31.0508 23.8381 30.1069 24.7649 29.1804L24.058 28.4732L23.351 27.7659C22.3961 28.7205 21.4802 29.6928 20.6019 30.68L21.349 31.3447ZM26.9318 25.7657L27.5957 26.5135C28.5539 25.6629 29.5482 24.8307 30.5798 24.0192L29.9615 23.2332L29.3433 22.4473C28.2802 23.2835 27.2555 24.1412 26.268 25.0178L26.9318 25.7657ZM33.1361 20.8848L33.7069 21.7059C34.2393 21.3359 34.7807 20.9712 35.3313 20.6121L34.785 19.7745L34.2387 18.9369C33.6716 19.3067 33.1139 19.6824 32.5654 20.0637L33.1361 20.8848ZM34.785 19.7745L35.3313 20.6121C35.8793 20.2546 36.4334 19.9058 36.9931 19.5655L36.4736 18.7111L35.954 17.8566C35.3766 18.2077 34.8047 18.5677 34.2387 18.9369L34.785 19.7745ZM39.9454 16.742L40.4127 17.6261C41.5704 17.0141 42.748 16.4344 43.943 15.8856L43.5256 14.9768L43.1083 14.0681C41.8808 14.6319 40.6698 15.2279 39.4781 15.8579L39.9454 16.742ZM47.1955 13.4058L47.5656 14.3348C48.7848 13.8492 50.0186 13.3926 51.2644 12.9637L50.9389 12.0182L50.6133 11.0726C49.3387 11.5115 48.0752 11.979 46.8255 12.4768L47.1955 13.4058ZM54.7418 10.8025L55.0257 11.7614C56.2877 11.3878 57.5592 11.0403 58.8376 10.7173L58.5927 9.7478L58.3478 8.77825C57.0443 9.1075 55.7469 9.46213 54.458 9.84366L54.7418 10.8025ZM62.4817 8.84322L62.6903 9.82122C63.9819 9.54574 65.2779 9.29357 66.5756 9.06328L66.4008 8.07867L66.2261 7.09405C64.9067 7.3282 63.5881 7.58475 62.2731 7.86521L62.4817 8.84322ZM70.3433 7.44477L70.4864 8.43448C71.7984 8.24477 73.1095 8.07593 74.4171 7.92647L74.3035 6.93294L74.19 5.93941C72.8634 6.09104 71.5326 6.26241 70.2002 6.45507L70.3433 7.44477ZM78.2769 6.53537L78.3627 7.53168C79.6889 7.4174 81.0086 7.32178 82.3191 7.24324L82.2593 6.24503L82.1994 5.24682C80.8722 5.32636 79.5351 5.42323 78.191 5.53906L78.2769 6.53537ZM86.2472 6.05563L86.2825 7.055C87.6189 7.00782 88.9423 6.97725 90.2496 6.9615L90.2375 5.96157L90.2255 4.96164C88.9033 4.97758 87.5644 5.0085 86.212 5.05625L86.2472 6.05563ZM94.2267 5.95791L94.2166 6.95786C95.5633 6.97138 96.8882 6.99948 98.1876 7.04002L98.2188 6.04051L98.2499 5.041C96.937 5.00003 95.598 4.97163 94.2367 4.95796L94.2267 5.95791ZM102.216 6.20634L102.165 7.205C103.525 7.27527 104.85 7.35779 106.135 7.44974L106.207 6.45229L106.278 5.45484C104.98 5.36198 103.642 5.27864 102.268 5.20767L102.216 6.20634ZM110.178 6.77532L110.087 7.7712C111.471 7.8973 112.794 8.03206 114.048 8.17109L114.159 7.17717L114.269 6.18326C113.002 6.04286 111.666 5.90679 110.268 5.77945L110.178 6.77532ZM118.11 7.65462L117.98 8.64615C119.436 8.83685 120.755 9.02641 121.919 9.20445L122.07 8.21595L122.221 7.22745C121.044 7.04735 119.711 6.85575 118.24 6.6631L118.11 7.65462ZM126.028 8.8722L125.85 9.85632C126.47 9.96805 126.946 10.059 127.267 10.1218C127.427 10.1532 127.548 10.1775 127.629 10.1939C127.669 10.2021 127.699 10.2083 127.719 10.2124C127.729 10.2145 127.736 10.216 127.741 10.217C127.743 10.2175 127.745 10.2178 127.746 10.2181C127.746 10.2182 127.747 10.2182 127.747 10.2183C127.747 10.2183 127.747 10.2183 127.747 10.2183C127.747 10.2183 127.747 10.2183 127.747 10.2183C127.747 10.2183 127.747 10.2183 127.747 10.2183C127.747 10.2183 127.747 10.2183 127.953 9.23974C128.159 8.26119 128.159 8.26118 128.159 8.26118C128.159 8.26117 128.159 8.26116 128.159 8.26116C128.159 8.26115 128.159 8.26113 128.159 8.26112C128.158 8.26109 128.158 8.26105 128.158 8.261C128.158 8.2609 128.157 8.26077 128.156 8.2606C128.155 8.26027 128.152 8.25979 128.149 8.25919C128.144 8.25798 128.135 8.25623 128.124 8.25395C128.102 8.24939 128.07 8.24272 128.027 8.23406C127.942 8.21674 127.816 8.19146 127.651 8.15914C127.321 8.09449 126.835 8.00167 126.205 7.88808L126.028 8.8722ZM34.785 19.7745L34.2387 18.9369L34.785 19.7745ZM128.499 10.0773C128.962 9.77563 129.092 9.15604 128.791 8.69345L123.874 1.15509C123.572 0.692495 122.953 0.562069 122.49 0.86378C122.027 1.16548 121.897 1.78507 122.199 2.24767L126.569 8.94844L119.868 13.3188C119.406 13.6205 119.275 14.24 119.577 14.7026C119.879 15.1652 120.498 15.2957 120.961 14.9939L128.499 10.0773ZM1.05254 87.7846C2.05218 87.7578 2.05219 87.7578 2.05219 87.7579C2.05219 87.7579 2.05219 87.7579 2.05219 87.758C2.05219 87.758 2.05219 87.758 2.05219 87.758C2.05219 87.7581 2.05219 87.7581 2.05219 87.758C2.05219 87.758 2.05218 87.7577 2.05217 87.7573C2.05215 87.7564 2.05211 87.7549 2.05206 87.7527C2.05195 87.7483 2.05179 87.7411 2.05159 87.7314C2.05119 87.7118 2.05063 87.6815 2.05005 87.6409C2.04888 87.5595 2.04765 87.4365 2.04747 87.2738C2.04711 86.9484 2.05095 86.4645 2.06798 85.8384L1.06835 85.8112L0.0687181 85.784C0.0511507 86.4299 0.0470892 86.9327 0.0474728 87.276C0.0476629 87.4477 0.0489657 87.5795 0.0502479 87.6694C0.0508898 87.7143 0.0515252 87.7488 0.0520154 87.7726C0.0522594 87.7844 0.0524671 87.7936 0.0526197 87.8001C0.0526981 87.8033 0.0527607 87.8059 0.0528077 87.8078C0.0528322 87.8087 0.0528508 87.8095 0.0528676 87.8101C0.0528739 87.8104 0.0528823 87.8106 0.0528867 87.8108C0.05289 87.811 0.0528916 87.811 0.0528939 87.8111C0.0528961 87.8112 0.0528965 87.8112 0.0528976 87.8113C0.0528993 87.8113 0.0529001 87.8114 1.05254 87.7846ZM1.27968 81.872L2.27669 81.9493C2.36612 80.7953 2.48969 79.4944 2.66004 78.0698L1.66711 77.951L0.674187 77.8323C0.500339 79.2862 0.374114 80.6147 0.282673 81.7948L1.27968 81.872ZM2.21475 74.0335L3.2022 74.1915C3.3987 72.963 3.62832 71.6745 3.89658 70.3361L2.91608 70.1396L1.93558 69.9431C1.66194 71.3083 1.42773 72.6225 1.2273 73.8756L2.21475 74.0335ZM3.76685 66.2905L4.7388 66.5257C5.03766 65.2905 5.36948 64.0248 5.73787 62.735L4.77632 62.4604L3.81477 62.1857C3.4386 63.5028 3.09987 64.7949 2.79489 66.0554L3.76685 66.2905ZM5.93832 58.6923L6.88746 59.0072C7.29019 57.7931 7.72623 56.5644 8.19831 55.3259L7.2639 54.9697L6.32948 54.6136C5.84658 55.8804 5.40076 57.1367 4.98918 58.3775L5.93832 58.6923ZM8.75755 51.3043L9.67465 51.703C10.1857 50.5273 10.7308 49.3474 11.3123 48.1674L10.4152 47.7254L9.51823 47.2834C8.92225 48.493 8.36377 49.7018 7.84046 50.9057L8.75755 51.3043ZM12.2479 44.2276L13.1217 44.7138C13.7471 43.5898 14.4076 42.4695 15.1052 41.3563L14.2578 40.8253L13.4104 40.2943C12.6939 41.4377 12.0157 42.588 11.374 43.7414L12.2479 44.2276ZM16.4464 37.533L17.2638 38.109C18.0046 37.0579 18.7812 36.0167 19.5955 34.9884L18.8115 34.3676L18.0275 33.7468C17.1896 34.805 16.3907 35.8762 15.629 36.9569L16.4464 37.533ZM21.349 31.3447L22.0961 32.0094C22.949 31.0508 23.8381 30.1069 24.7649 29.1804L24.058 28.4732L23.351 27.7659C22.3961 28.7205 21.4802 29.6928 20.6019 30.68L21.349 31.3447ZM26.9318 25.7657L27.5957 26.5135C28.5539 25.6629 29.5482 24.8307 30.5798 24.0192L29.9615 23.2332L29.3433 22.4473C28.2802 23.2835 27.2555 24.1412 26.268 25.0178L26.9318 25.7657ZM33.1361 20.8848L33.7069 21.7059C34.2393 21.3359 34.7807 20.9712 35.3313 20.6121L34.785 19.7745L34.2387 18.9369C33.6716 19.3067 33.1139 19.6824 32.5654 20.0637L33.1361 20.8848ZM34.785 19.7745L35.3313 20.6121C35.8793 20.2546 36.4334 19.9058 36.9931 19.5655L36.4736 18.7111L35.954 17.8566C35.3766 18.2077 34.8047 18.5677 34.2387 18.9369L34.785 19.7745ZM39.9454 16.742L40.4127 17.6261C41.5704 17.0141 42.748 16.4344 43.943 15.8856L43.5256 14.9768L43.1083 14.0681C41.8808 14.6319 40.6698 15.2279 39.4781 15.8579L39.9454 16.742ZM47.1955 13.4058L47.5656 14.3348C48.7848 13.8492 50.0186 13.3926 51.2644 12.9637L50.9389 12.0182L50.6133 11.0726C49.3387 11.5115 48.0752 11.979 46.8255 12.4768L47.1955 13.4058ZM54.7418 10.8025L55.0257 11.7614C56.2877 11.3878 57.5592 11.0403 58.8376 10.7173L58.5927 9.7478L58.3478 8.77825C57.0443 9.1075 55.7469 9.46213 54.458 9.84366L54.7418 10.8025ZM62.4817 8.84322L62.6903 9.82122C63.9819 9.54574 65.2779 9.29357 66.5756 9.06328L66.4008 8.07867L66.2261 7.09405C64.9067 7.3282 63.5881 7.58475 62.2731 7.86521L62.4817 8.84322ZM70.3433 7.44477L70.4864 8.43448C71.7984 8.24477 73.1095 8.07593 74.4171 7.92647L74.3035 6.93294L74.19 5.93941C72.8634 6.09104 71.5326 6.26241 70.2002 6.45507L70.3433 7.44477ZM78.2769 6.53537L78.3627 7.53168C79.6889 7.4174 81.0086 7.32178 82.3191 7.24324L82.2593 6.24503L82.1994 5.24682C80.8722 5.32636 79.5351 5.42323 78.191 5.53906L78.2769 6.53537ZM86.2472 6.05563L86.2825 7.055C87.6189 7.00782 88.9423 6.97725 90.2496 6.9615L90.2375 5.96157L90.2255 4.96164C88.9033 4.97758 87.5644 5.0085 86.212 5.05625L86.2472 6.05563ZM94.2267 5.95791L94.2166 6.95786C95.5633 6.97138 96.8882 6.99948 98.1876 7.04002L98.2188 6.04051L98.2499 5.041C96.937 5.00003 95.598 4.97163 94.2367 4.95796L94.2267 5.95791ZM102.216 6.20634L102.165 7.205C103.525 7.27527 104.85 7.35779 106.135 7.44974L106.207 6.45229L106.278 5.45484C104.98 5.36198 103.642 5.27864 102.268 5.20767L102.216 6.20634ZM110.178 6.77532L110.087 7.7712C111.471 7.8973 112.794 8.03206 114.048 8.17109L114.159 7.17717L114.269 6.18326C113.002 6.04286 111.666 5.90679 110.268 5.77945L110.178 6.77532ZM118.11 7.65462L117.98 8.64615C119.436 8.83685 120.755 9.02641 121.919 9.20445L122.07 8.21595L122.221 7.22745C121.044 7.04735 119.711 6.85575 118.24 6.6631L118.11 7.65462ZM126.028 8.8722L125.85 9.85632C126.47 9.96805 126.946 10.059 127.267 10.1218C127.427 10.1532 127.548 10.1775 127.629 10.1939C127.669 10.2021 127.699 10.2083 127.719 10.2124C127.729 10.2145 127.736 10.216 127.741 10.217C127.743 10.2175 127.745 10.2178 127.746 10.2181C127.746 10.2182 127.747 10.2182 127.747 10.2183C127.747 10.2183 127.747 10.2183 127.747 10.2183C127.747 10.2183 127.747 10.2183 127.747 10.2183C127.747 10.2183 127.747 10.2183 127.747 10.2183C127.747 10.2183 127.747 10.2183 127.953 9.23974C128.159 8.26119 128.159 8.26118 128.159 8.26118C128.159 8.26117 128.159 8.26116 128.159 8.26116C128.159 8.26115 128.159 8.26113 128.159 8.26112C128.158 8.26109 128.158 8.26105 128.158 8.261C128.158 8.2609 128.157 8.26077 128.156 8.2606C128.155 8.26027 128.152 8.25979 128.149 8.25919C128.144 8.25798 128.135 8.25623 128.124 8.25395C128.102 8.24939 128.07 8.24272 128.027 8.23406C127.942 8.21674 127.816 8.19146 127.651 8.15914C127.321 8.09449 126.835 8.00167 126.205 7.88808L126.028 8.8722Z" fill="white"/>
</svg>
