<svg width="35" height="35" viewBox="0 0 35 35" fill="none" xmlns="http://www.w3.org/2000/svg">
<path d="M2 14.4415C2 7.01796 8.01797 1 15.4415 1V1V19.5678C15.4415 26.9913 9.42353 33.0093 2 33.0093V33.0093V14.4415Z" fill="#4A3AFF"/>
<path d="M17.3926 8.304C17.3926 4.27012 20.6627 1 24.6966 1V1C28.7305 1 32.0006 4.27011 32.0006 8.304V8.7257C32.0006 12.7596 28.7305 16.0297 24.6966 16.0297V16.0297C20.6627 16.0297 17.3926 12.7596 17.3926 8.7257V8.304Z" fill="#4CBFFF"/>
<path d="M17.3926 25.2835C17.3926 21.2496 20.6627 17.9795 24.6966 17.9795V17.9795C28.7305 17.9795 32.0006 21.2496 32.0006 25.2835V25.7052C32.0006 29.7391 28.7305 33.0092 24.6966 33.0092V33.0092C20.6627 33.0092 17.3926 29.7391 17.3926 25.7052V25.2835Z" fill="#0074E8"/>
</svg>
