<svg width="90" height="90" viewBox="0 0 90 90" fill="none" xmlns="http://www.w3.org/2000/svg">
<rect width="90" height="90" rx="17" fill="#FA0F00"/>
<g clip-path="url(#clip0_1014_208)">
<path d="M24.3334 13.8H65.6668C71.9334 13.8 77 18.8667 77 25.1334V64.8668C77 71.1334 71.9334 76.2002 65.6666 76.2002H24.3334C18.0666 76.2001 13 71.1334 13 64.8667V25.1334C13 18.8667 18.0666 13.8 24.3334 13.8Z" fill="#FA0F00"/>
<path d="M64.4665 49.9334C61.5065 46.7868 53.3199 48.0668 51.3999 48.3868C48.5732 45.6402 46.5999 42.3868 45.9332 41.1868C46.9999 38.1468 47.6932 34.9202 47.7999 31.7468C47.7999 28.8668 46.6532 25.7734 43.4532 25.7734C42.3332 25.8001 41.3199 26.4134 40.7599 27.3468C39.3999 29.6934 39.9332 34.5468 42.1199 39.4534C40.8399 43.0534 38.9999 48.2534 36.5732 52.4668C33.2932 53.7734 26.3332 56.9734 25.6666 60.5202C25.4532 61.5602 25.8266 62.6268 26.6266 63.3468C27.4 64.0402 28.4132 64.3868 29.4532 64.3602C33.6399 64.3602 37.8266 58.5468 40.6532 53.5602C43.0266 52.7336 46.8132 51.6402 50.6266 50.9468C55.0532 54.8134 58.9999 55.4001 60.9999 55.4001C63.7199 55.4001 64.7332 54.2267 65.1065 53.2401C65.5065 52.1201 65.2665 50.8401 64.4665 49.9334ZM61.5865 51.9601C61.4531 52.7334 60.4665 53.5067 58.6265 53.1067C56.4931 52.5733 54.4931 51.5601 52.8131 50.1733C54.2531 49.9333 57.6131 49.6133 59.9865 50.0667C60.8399 50.2267 61.8265 50.7067 61.5865 51.9601ZM42.4932 28.3601C42.6799 28.0134 43.0266 27.7734 43.4266 27.7734C44.44 27.7734 44.6532 29.0001 44.6532 30.0134C44.5199 32.4401 43.9866 34.9201 43.3199 37.1334C41.6132 32.6001 41.8532 29.4534 42.4932 28.3601ZM42.2532 50.5201C43.1599 48.7334 44.4399 45.4801 44.8932 44.1734C45.9066 45.8534 47.6132 47.9601 48.5199 48.9201C48.5465 48.8934 45.0532 49.6134 42.2532 50.5201ZM35.5599 55.1067C32.8665 59.4267 30.2265 62.1467 28.6799 62.1467C28.4399 62.1467 28.1732 62.0667 27.9865 61.9067C27.6931 61.6667 27.5599 61.2933 27.6399 60.9201C27.9332 59.3734 30.9999 57.1334 35.5599 55.1067Z" fill="white"/>
</g>
<defs>
<clipPath id="clip0_1014_208">
<rect width="64" height="64" fill="white" transform="translate(13 13)"/>
</clipPath>
</defs>
</svg>
