<svg width="90" height="90" viewBox="0 0 90 90" fill="none" xmlns="http://www.w3.org/2000/svg">
<rect width="90" height="90" rx="17" fill="#00005B"/>
<g clip-path="url(#clip0_1014_217)">
<path d="M22.5729 9.88745H68.427C75.3709 9.88745 81 15.5166 81 22.4603V66.5395C81 73.4833 75.3709 79.1125 68.427 79.1125H22.5729C15.6291 79.1123 10 73.4833 10 66.5395V22.4603C10 15.5165 15.6291 9.88745 22.5729 9.88745Z" fill="#00005B"/>
<path d="M38.5232 51.3041H27.5207L25.2822 58.2713C25.2194 58.5329 24.9794 58.7128 24.7106 58.6999H19.138C18.8203 58.6999 18.7091 58.5253 18.8046 58.176L28.3304 30.8549C28.4257 30.5692 28.5209 30.2898 28.6162 29.9244C28.741 29.289 28.8047 28.6431 28.8067 27.9955C28.7838 27.8343 28.8958 27.685 29.0571 27.6621C29.0846 27.6582 29.1125 27.6582 29.1401 27.6621H36.7132C36.9349 27.6621 37.062 27.7415 37.0943 27.9003L47.9061 58.2236C48.0013 58.5413 47.9061 58.7002 47.6203 58.6999H41.4285C41.2084 58.7243 41.0045 58.5817 40.9522 58.3665L38.5232 51.3041ZM32.998 33.0935H32.9503L29.2353 45.4295H36.7608L32.998 33.0935Z" fill="#9999FF"/>
<path d="M65.4336 48.5923H56.0507C56.1656 49.5207 56.474 50.4147 56.9557 51.2165C57.4884 52.0105 58.2416 52.6313 59.1228 53.0026C60.317 53.5193 61.6086 53.7724 62.9094 53.7447C63.9414 53.7249 64.9697 53.612 65.9815 53.4074C66.8864 53.2853 67.7733 53.054 68.6229 52.7189C68.7813 52.5925 68.861 52.6714 68.861 52.9571V57.4818C68.8689 57.6051 68.8443 57.7283 68.7895 57.8391C68.735 57.9258 68.6617 57.999 68.5752 58.0535C67.633 58.4708 66.6413 58.7662 65.6244 58.9326C64.2428 59.1921 62.8386 59.3117 61.4331 59.2898C59.1781 59.2898 57.2887 58.9406 55.7651 58.242C54.3248 57.6075 53.0526 56.6452 52.0501 55.4319C51.1136 54.2887 50.4171 52.9685 50.002 51.5502C49.591 50.1502 49.3825 48.6987 49.3829 47.2398C49.3784 45.6467 49.6277 44.063 50.1211 42.5484C50.5964 41.0708 51.3479 39.697 52.3359 38.4999C54.5131 35.8619 57.5095 34.7625 60.8615 34.7625C63.75 34.7625 66.713 35.7191 68.5774 38.0235C69.3576 39.0304 69.9542 40.1671 70.3396 41.3813C70.7149 42.5514 70.9076 43.7723 70.9112 45.0012C70.9112 45.6999 70.8874 46.335 70.8397 46.9064C70.7921 47.4778 70.7525 47.8907 70.7207 48.1447C70.6951 48.3621 70.5108 48.5258 70.2921 48.5258C70.1016 48.5258 69.7761 48.5496 69.3158 48.5972C68.8551 48.6447 68.2836 48.6765 67.6012 48.6924C66.9175 48.7085 66.1957 48.5923 65.4336 48.5923ZM56.0507 44.2534H62.2901C63.0522 44.2534 63.6158 44.2455 63.981 44.2295C64.2252 44.2051 64.4612 44.1269 64.6718 44.0006V43.7148C64.6622 43.3422 64.598 42.9732 64.4813 42.6194C63.9531 40.9492 62.3739 39.8379 60.6234 39.9046C58.9855 39.8056 57.444 40.6837 56.694 42.143C56.3673 42.8074 56.1502 43.52 56.0507 44.2534Z" fill="#9999FF"/>
</g>
<defs>
<clipPath id="clip0_1014_217">
<rect width="71" height="71" fill="white" transform="translate(10 9)"/>
</clipPath>
</defs>
</svg>
