<svg width="90" height="90" viewBox="0 0 90 90" fill="none" xmlns="http://www.w3.org/2000/svg">
<rect width="90" height="90" rx="17" fill="#390000"/>
<g clip-path="url(#clip0_1014_194)">
<path d="M20.4584 7.94995H69.5418C76.9834 7.94995 83 13.9666 83 21.4083V68.5917C83 76.0333 76.9834 82.0501 69.5416 82.0501H20.4584C13.0166 82.05 7 76.0333 7 68.5916V21.4083C7 13.9666 13.0166 7.94995 20.4584 7.94995Z" fill="#390000"/>
<path d="M43.8278 52.41H32.0478L29.6412 59.8516C29.5778 60.1366 29.3246 60.3266 29.0396 60.295H23.0862C22.7378 60.295 22.6428 60.105 22.7378 59.725L32.9344 30.37C33.0294 30.0534 33.1244 29.705 33.2511 29.325C33.3777 28.66 33.4411 27.9634 33.4411 27.2666C33.4094 27.1082 33.5361 26.95 33.6944 26.9182H33.7894H41.8961C42.1494 26.9182 42.2761 27.0132 42.3077 27.1716L53.8661 59.7882C53.9611 60.1366 53.8661 60.2948 53.5494 60.2948H46.9311C46.7094 60.3264 46.4877 60.1682 46.4244 59.9464L43.8278 52.41ZM33.8844 45.9816H41.9278L37.8744 32.7766L33.8844 45.9816Z" fill="#FF9A00"/>
<path d="M60.7699 32.3333C59.7249 32.3649 58.7115 31.9533 57.9515 31.2249C57.2231 30.4333 56.8431 29.3883 56.8749 28.3115C56.8433 27.2349 57.2549 26.2215 58.0149 25.4931C58.7749 24.7648 59.7883 24.3848 60.8333 24.3848C62.0683 24.3848 63.0183 24.7648 63.7149 25.4931C64.4115 26.2531 64.7915 27.2665 64.7599 28.3115C64.7915 29.3881 64.4115 30.4331 63.6515 31.2249C62.9233 31.9849 61.8465 32.3965 60.7699 32.3333Z" fill="#FF9A00"/>
<path d="M57.2227 59.8199V35.4365C57.2227 35.1199 57.3493 34.9932 57.6343 34.9932H63.9043C64.1893 34.9932 64.3159 35.1515 64.3159 35.4365V59.8199C64.3159 60.1683 64.1893 60.3265 63.9043 60.3265H57.6977C57.3809 60.3265 57.2227 60.1365 57.2227 59.8199Z" fill="#FF9A00"/>
</g>
<defs>
<clipPath id="clip0_1014_194">
<rect width="76" height="76" fill="white" transform="translate(7 7)"/>
</clipPath>
</defs>
</svg>
