<svg width="172" height="44" viewBox="0 0 172 44" fill="none" xmlns="http://www.w3.org/2000/svg">
<path opacity="0.5" d="M5.824 14C5.33867 14.1013 4.85867 14.1413 4.384 14.12C3.91467 14.0987 3.49333 13.9973 3.12 13.816C2.752 13.6347 2.472 13.352 2.28 12.968C2.12533 12.648 2.04 12.3253 2.024 12C2.01333 11.6693 2.008 11.2933 2.008 10.872V2.96H3.176V10.824C3.176 11.1867 3.17867 11.4907 3.184 11.736C3.19467 11.976 3.25067 12.1893 3.352 12.376C3.544 12.7333 3.848 12.9467 4.264 13.016C4.68533 13.0853 5.20533 13.0693 5.824 12.968V14ZM0.16 6.368V5.36H5.824V6.368H0.16ZM13.4462 14V9.592C13.4462 9.112 13.4009 8.672 13.3103 8.272C13.2196 7.86667 13.0729 7.51467 12.8703 7.216C12.6729 6.912 12.4143 6.67733 12.0943 6.512C11.7796 6.34667 11.3956 6.264 10.9423 6.264C10.5263 6.264 10.1583 6.336 9.83825 6.48C9.52358 6.624 9.25692 6.832 9.03825 7.104C8.82492 7.37067 8.66225 7.696 8.55025 8.08C8.43825 8.464 8.38225 8.90133 8.38225 9.392L7.55025 9.208C7.55025 8.32267 7.70492 7.57867 8.01425 6.976C8.32358 6.37333 8.75025 5.91733 9.29425 5.608C9.83825 5.29867 10.4623 5.144 11.1663 5.144C11.6836 5.144 12.1343 5.224 12.5182 5.384C12.9076 5.544 13.2356 5.76 13.5023 6.032C13.7743 6.304 13.9929 6.616 14.1583 6.968C14.3236 7.31467 14.4436 7.68533 14.5182 8.08C14.5929 8.46933 14.6303 8.85867 14.6303 9.248V14H13.4462ZM7.19825 14V2.48H8.26225V8.984H8.38225V14H7.19825ZM20.0422 14.24C19.1996 14.24 18.4689 14.0533 17.8502 13.68C17.2369 13.3067 16.7596 12.7813 16.4182 12.104C16.0769 11.4267 15.9062 10.632 15.9062 9.72C15.9062 8.776 16.0742 7.96 16.4102 7.272C16.7462 6.584 17.2182 6.05333 17.8262 5.68C18.4396 5.30667 19.1622 5.12 19.9942 5.12C20.8476 5.12 21.5756 5.31733 22.1782 5.712C22.7809 6.10133 23.2369 6.66133 23.5463 7.392C23.8556 8.12267 23.9969 8.99467 23.9703 10.008H22.7702V9.592C22.7489 8.472 22.5062 7.62667 22.0423 7.056C21.5836 6.48533 20.9116 6.2 20.0262 6.2C19.0982 6.2 18.3862 6.50133 17.8902 7.104C17.3996 7.70667 17.1542 8.56533 17.1542 9.68C17.1542 10.768 17.3996 11.6133 17.8902 12.216C18.3862 12.8133 19.0876 13.112 19.9942 13.112C20.6129 13.112 21.1516 12.9707 21.6102 12.688C22.0743 12.4 22.4396 11.9867 22.7063 11.448L23.8022 11.872C23.4609 12.624 22.9569 13.208 22.2902 13.624C21.6289 14.0347 20.8796 14.24 20.0422 14.24ZM16.7382 10.008V9.024H23.3383V10.008H16.7382ZM38.6128 14L38.6207 8.328C38.6207 7.66133 38.4341 7.13867 38.0608 6.76C37.6927 6.376 37.2234 6.184 36.6528 6.184C36.3274 6.184 36.0101 6.25867 35.7007 6.408C35.3914 6.55733 35.1354 6.79733 34.9327 7.128C34.7354 7.45867 34.6367 7.89067 34.6367 8.424L33.9407 8.224C33.9247 7.60533 34.0447 7.064 34.3007 6.6C34.5621 6.136 34.9194 5.776 35.3727 5.52C35.8314 5.25867 36.3487 5.128 36.9247 5.128C37.7941 5.128 38.4901 5.39733 39.0127 5.936C39.5354 6.46933 39.7968 7.192 39.7968 8.104L39.7887 14H38.6128ZM28.3007 14V5.36H29.3567V7.488H29.4847V14H28.3007ZM33.4687 14L33.4767 8.408C33.4767 7.72 33.2927 7.17867 32.9247 6.784C32.5621 6.384 32.0821 6.184 31.4847 6.184C30.8874 6.184 30.4047 6.38933 30.0367 6.8C29.6687 7.20533 29.4847 7.74667 29.4847 8.424L28.7807 8.04C28.7807 7.48533 28.9114 6.98933 29.1727 6.552C29.4341 6.10933 29.7914 5.76267 30.2447 5.512C30.6981 5.256 31.2127 5.128 31.7887 5.128C32.3381 5.128 32.8261 5.24533 33.2527 5.48C33.6847 5.71467 34.0234 6.056 34.2687 6.504C34.5141 6.952 34.6367 7.496 34.6367 8.136L34.6287 14H33.4687ZM41.7113 3.72V2.4H42.8873V3.72H41.7113ZM41.7113 14V5.36H42.8873V14H41.7113ZM48.1896 14.232C47.1763 14.232 46.3416 14.0133 45.6856 13.576C45.035 13.1387 44.635 12.5307 44.4856 11.752L45.6856 11.552C45.8136 12.0427 46.1043 12.4347 46.5576 12.728C47.0163 13.016 47.5816 13.16 48.2536 13.16C48.9096 13.16 49.427 13.024 49.8056 12.752C50.1843 12.4747 50.3736 12.0987 50.3736 11.624C50.3736 11.3573 50.3123 11.1413 50.1896 10.976C50.0723 10.8053 49.8296 10.648 49.4616 10.504C49.0936 10.36 48.5443 10.1893 47.8136 9.992C47.0296 9.77867 46.4163 9.56533 45.9736 9.352C45.531 9.13867 45.2163 8.89333 45.0296 8.616C44.843 8.33333 44.7496 7.98933 44.7496 7.584C44.7496 7.09333 44.8883 6.664 45.1656 6.296C45.443 5.92267 45.827 5.63467 46.3176 5.432C46.8083 5.224 47.379 5.12 48.0296 5.12C48.6803 5.12 49.2616 5.22667 49.7736 5.44C50.291 5.648 50.707 5.94133 51.0216 6.32C51.3363 6.69867 51.523 7.13867 51.5816 7.64L50.3816 7.856C50.3016 7.34933 50.0483 6.94933 49.6216 6.656C49.2003 6.35733 48.6643 6.20267 48.0136 6.192C47.4003 6.176 46.9016 6.29333 46.5176 6.544C46.1336 6.78933 45.9416 7.11733 45.9416 7.528C45.9416 7.75733 46.011 7.95467 46.1496 8.12C46.2883 8.28 46.539 8.432 46.9016 8.576C47.2696 8.72 47.7923 8.87733 48.4696 9.048C49.2643 9.25067 49.8883 9.464 50.3416 9.688C50.795 9.912 51.1176 10.176 51.3096 10.48C51.5016 10.784 51.5976 11.16 51.5976 11.608C51.5976 12.424 51.2936 13.0667 50.6856 13.536C50.083 14 49.251 14.232 48.1896 14.232ZM56.2759 14.232C55.2625 14.232 54.4279 14.0133 53.7719 13.576C53.1212 13.1387 52.7212 12.5307 52.5719 11.752L53.7719 11.552C53.8999 12.0427 54.1905 12.4347 54.6439 12.728C55.1025 13.016 55.6679 13.16 56.3399 13.16C56.9959 13.16 57.5132 13.024 57.8919 12.752C58.2705 12.4747 58.4599 12.0987 58.4599 11.624C58.4599 11.3573 58.3985 11.1413 58.2759 10.976C58.1585 10.8053 57.9159 10.648 57.5479 10.504C57.1799 10.36 56.6305 10.1893 55.8999 9.992C55.1159 9.77867 54.5025 9.56533 54.0599 9.352C53.6172 9.13867 53.3025 8.89333 53.1159 8.616C52.9292 8.33333 52.8359 7.98933 52.8359 7.584C52.8359 7.09333 52.9745 6.664 53.2519 6.296C53.5292 5.92267 53.9132 5.63467 54.4039 5.432C54.8945 5.224 55.4652 5.12 56.1159 5.12C56.7665 5.12 57.3479 5.22667 57.8599 5.44C58.3772 5.648 58.7932 5.94133 59.1079 6.32C59.4225 6.69867 59.6092 7.13867 59.6679 7.64L58.4679 7.856C58.3879 7.34933 58.1345 6.94933 57.7079 6.656C57.2865 6.35733 56.7505 6.20267 56.0999 6.192C55.4865 6.176 54.9879 6.29333 54.6039 6.544C54.2199 6.78933 54.0279 7.11733 54.0279 7.528C54.0279 7.75733 54.0972 7.95467 54.2359 8.12C54.3745 8.28 54.6252 8.432 54.9879 8.576C55.3559 8.72 55.8785 8.87733 56.5559 9.048C57.3505 9.25067 57.9745 9.464 58.4279 9.688C58.8812 9.912 59.2039 10.176 59.3959 10.48C59.5879 10.784 59.6839 11.16 59.6839 11.608C59.6839 12.424 59.3799 13.0667 58.7719 13.536C58.1692 14 57.3372 14.232 56.2759 14.232ZM61.2981 3.72V2.4H62.4741V3.72H61.2981ZM61.2981 14V5.36H62.4741V14H61.2981ZM68.1605 14.24C67.3018 14.24 66.5685 14.0453 65.9605 13.656C65.3525 13.2667 64.8858 12.728 64.5605 12.04C64.2352 11.352 64.0725 10.5627 64.0725 9.672C64.0725 8.76533 64.2378 7.97067 64.5685 7.288C64.8992 6.60533 65.3685 6.07467 65.9765 5.696C66.5898 5.312 67.3178 5.12 68.1605 5.12C69.0245 5.12 69.7605 5.31467 70.3685 5.704C70.9818 6.088 71.4485 6.624 71.7685 7.312C72.0938 7.99467 72.2565 8.78133 72.2565 9.672C72.2565 10.5787 72.0938 11.376 71.7685 12.064C71.4432 12.7467 70.9738 13.28 70.3605 13.664C69.7472 14.048 69.0138 14.24 68.1605 14.24ZM68.1605 13.112C69.1205 13.112 69.8352 12.7947 70.3045 12.16C70.7738 11.52 71.0085 10.6907 71.0085 9.672C71.0085 8.62667 70.7712 7.79467 70.2965 7.176C69.8272 6.55733 69.1152 6.248 68.1605 6.248C67.5152 6.248 66.9818 6.39467 66.5605 6.688C66.1445 6.976 65.8325 7.37867 65.6245 7.896C65.4218 8.408 65.3205 9 65.3205 9.672C65.3205 10.712 65.5605 11.5467 66.0405 12.176C66.5205 12.8 67.2272 13.112 68.1605 13.112ZM79.9413 14V9.592C79.9413 9.112 79.8959 8.672 79.8053 8.272C79.7146 7.86667 79.5679 7.51467 79.3653 7.216C79.1679 6.912 78.9093 6.67733 78.5893 6.512C78.2746 6.34667 77.8906 6.264 77.4373 6.264C77.0213 6.264 76.6533 6.336 76.3333 6.48C76.0186 6.624 75.7519 6.832 75.5333 7.104C75.3199 7.37067 75.1573 7.696 75.0453 8.08C74.9333 8.464 74.8773 8.90133 74.8773 9.392L74.0453 9.208C74.0453 8.32267 74.1999 7.57867 74.5093 6.976C74.8186 6.37333 75.2453 5.91733 75.7893 5.608C76.3333 5.29867 76.9573 5.144 77.6613 5.144C78.1786 5.144 78.6293 5.224 79.0133 5.384C79.4026 5.544 79.7306 5.76 79.9973 6.032C80.2693 6.304 80.4879 6.616 80.6533 6.968C80.8186 7.31467 80.9386 7.68533 81.0133 8.08C81.0879 8.46933 81.1253 8.85867 81.1253 9.248V14H79.9413ZM73.6933 14V5.36H74.7573V7.488H74.8773V14H73.6933ZM89.6444 14.24C88.8497 14.24 88.1777 14.04 87.6284 13.64C87.079 13.2347 86.663 12.688 86.3804 12C86.0977 11.3067 85.9564 10.5307 85.9564 9.672C85.9564 8.79733 86.0977 8.01867 86.3804 7.336C86.6684 6.648 87.0897 6.10667 87.6444 5.712C88.199 5.31733 88.8817 5.12 89.6924 5.12C90.4817 5.12 91.159 5.32 91.7244 5.72C92.2897 6.12 92.7217 6.664 93.0204 7.352C93.3244 8.04 93.4764 8.81333 93.4764 9.672C93.4764 10.536 93.3244 11.312 93.0204 12C92.7164 12.688 92.279 13.2347 91.7084 13.64C91.1377 14.04 90.4497 14.24 89.6444 14.24ZM85.7564 17.84V5.36H86.8124V11.864H86.9404V17.84H85.7564ZM89.5244 13.144C90.127 13.144 90.6284 12.992 91.0284 12.688C91.4284 12.384 91.727 11.9707 91.9244 11.448C92.127 10.92 92.2284 10.328 92.2284 9.672C92.2284 9.02133 92.1297 8.43467 91.9324 7.912C91.735 7.38933 91.4337 6.976 91.0284 6.672C90.6284 6.368 90.119 6.216 89.5004 6.216C88.8977 6.216 88.3964 6.36267 87.9964 6.656C87.6017 6.94933 87.3057 7.35733 87.1084 7.88C86.911 8.39733 86.8124 8.99467 86.8124 9.672C86.8124 10.3387 86.911 10.936 87.1084 11.464C87.3057 11.9867 87.6044 12.3973 88.0044 12.696C88.4044 12.9947 88.911 13.144 89.5244 13.144ZM98.5211 14.24C97.6625 14.24 96.9291 14.0453 96.3211 13.656C95.7131 13.2667 95.2465 12.728 94.9211 12.04C94.5958 11.352 94.4331 10.5627 94.4331 9.672C94.4331 8.76533 94.5985 7.97067 94.9291 7.288C95.2598 6.60533 95.7291 6.07467 96.3371 5.696C96.9505 5.312 97.6785 5.12 98.5211 5.12C99.3851 5.12 100.121 5.31467 100.729 5.704C101.342 6.088 101.809 6.624 102.129 7.312C102.454 7.99467 102.617 8.78133 102.617 9.672C102.617 10.5787 102.454 11.376 102.129 12.064C101.804 12.7467 101.334 13.28 100.721 13.664C100.108 14.048 99.3745 14.24 98.5211 14.24ZM98.5211 13.112C99.4811 13.112 100.196 12.7947 100.665 12.16C101.134 11.52 101.369 10.6907 101.369 9.672C101.369 8.62667 101.132 7.79467 100.657 7.176C100.188 6.55733 99.4758 6.248 98.5211 6.248C97.8758 6.248 97.3425 6.39467 96.9211 6.688C96.5051 6.976 96.1931 7.37867 95.9851 7.896C95.7825 8.408 95.6811 9 95.6811 9.672C95.6811 10.712 95.9211 11.5467 96.4011 12.176C96.8811 12.8 97.5878 13.112 98.5211 13.112ZM104.062 14V5.36H105.118V7.44L104.91 7.168C105.006 6.912 105.131 6.67733 105.286 6.464C105.441 6.24533 105.609 6.06667 105.79 5.928C106.014 5.73067 106.275 5.58133 106.574 5.48C106.873 5.37333 107.174 5.312 107.478 5.296C107.782 5.27467 108.059 5.296 108.31 5.36V6.464C107.995 6.384 107.651 6.36533 107.278 6.408C106.905 6.45067 106.561 6.6 106.246 6.856C105.958 7.08 105.742 7.34933 105.598 7.664C105.454 7.97333 105.358 8.304 105.31 8.656C105.262 9.00267 105.238 9.34667 105.238 9.688V14H104.062ZM114.211 14C113.726 14.1013 113.246 14.1413 112.771 14.12C112.302 14.0987 111.881 13.9973 111.507 13.816C111.139 13.6347 110.859 13.352 110.667 12.968C110.513 12.648 110.427 12.3253 110.411 12C110.401 11.6693 110.395 11.2933 110.395 10.872V2.96H111.563V10.824C111.563 11.1867 111.566 11.4907 111.571 11.736C111.582 11.976 111.638 12.1893 111.739 12.376C111.931 12.7333 112.235 12.9467 112.651 13.016C113.073 13.0853 113.593 13.0693 114.211 12.968V14ZM108.547 6.368V5.36H114.211V6.368H108.547ZM116.45 14V4.72C116.45 4.496 116.46 4.27467 116.482 4.056C116.508 3.83733 116.559 3.62933 116.634 3.432C116.708 3.22933 116.826 3.04267 116.986 2.872C117.162 2.68 117.354 2.54133 117.562 2.456C117.77 2.36533 117.986 2.30667 118.21 2.28C118.439 2.25333 118.663 2.24 118.882 2.24H119.986V3.232H118.962C118.514 3.232 118.178 3.34133 117.954 3.56C117.735 3.77867 117.626 4.12267 117.626 4.592V14H116.45ZM114.954 6.368V5.36H119.986V6.368H114.954ZM124.241 14.24C123.382 14.24 122.649 14.0453 122.041 13.656C121.433 13.2667 120.966 12.728 120.641 12.04C120.316 11.352 120.153 10.5627 120.153 9.672C120.153 8.76533 120.318 7.97067 120.649 7.288C120.98 6.60533 121.449 6.07467 122.057 5.696C122.67 5.312 123.398 5.12 124.241 5.12C125.105 5.12 125.841 5.31467 126.449 5.704C127.062 6.088 127.529 6.624 127.849 7.312C128.174 7.99467 128.337 8.78133 128.337 9.672C128.337 10.5787 128.174 11.376 127.849 12.064C127.524 12.7467 127.054 13.28 126.441 13.664C125.828 14.048 125.094 14.24 124.241 14.24ZM124.241 13.112C125.201 13.112 125.916 12.7947 126.385 12.16C126.854 11.52 127.089 10.6907 127.089 9.672C127.089 8.62667 126.852 7.79467 126.377 7.176C125.908 6.55733 125.196 6.248 124.241 6.248C123.596 6.248 123.062 6.39467 122.641 6.688C122.225 6.976 121.913 7.37867 121.705 7.896C121.502 8.408 121.401 9 121.401 9.672C121.401 10.712 121.641 11.5467 122.121 12.176C122.601 12.8 123.308 13.112 124.241 13.112ZM129.942 14V2.24H131.118V14H129.942ZM133.356 3.72V2.4H134.532V3.72H133.356ZM133.356 14V5.36H134.532V14H133.356ZM140.219 14.24C139.36 14.24 138.627 14.0453 138.019 13.656C137.411 13.2667 136.944 12.728 136.619 12.04C136.293 11.352 136.131 10.5627 136.131 9.672C136.131 8.76533 136.296 7.97067 136.627 7.288C136.957 6.60533 137.427 6.07467 138.035 5.696C138.648 5.312 139.376 5.12 140.219 5.12C141.083 5.12 141.819 5.31467 142.427 5.704C143.04 6.088 143.507 6.624 143.827 7.312C144.152 7.99467 144.315 8.78133 144.315 9.672C144.315 10.5787 144.152 11.376 143.827 12.064C143.501 12.7467 143.032 13.28 142.419 13.664C141.805 14.048 141.072 14.24 140.219 14.24ZM140.219 13.112C141.179 13.112 141.893 12.7947 142.363 12.16C142.832 11.52 143.067 10.6907 143.067 9.672C143.067 8.62667 142.829 7.79467 142.355 7.176C141.885 6.55733 141.173 6.248 140.219 6.248C139.573 6.248 139.04 6.39467 138.619 6.688C138.203 6.976 137.891 7.37867 137.683 7.896C137.48 8.408 137.379 9 137.379 9.672C137.379 10.712 137.619 11.5467 138.099 12.176C138.579 12.8 139.285 13.112 140.219 13.112ZM152.523 14.24C151.728 14.24 151.056 14.04 150.507 13.64C149.957 13.2347 149.541 12.688 149.259 12C148.976 11.3067 148.835 10.5307 148.835 9.672C148.835 8.79733 148.976 8.01867 149.259 7.336C149.547 6.648 149.968 6.10667 150.523 5.712C151.077 5.31733 151.76 5.12 152.571 5.12C153.36 5.12 154.037 5.32 154.603 5.72C155.168 6.12 155.6 6.664 155.899 7.352C156.203 8.04 156.355 8.81333 156.355 9.672C156.355 10.536 156.203 11.312 155.899 12C155.595 12.688 155.157 13.2347 154.587 13.64C154.016 14.04 153.328 14.24 152.523 14.24ZM148.635 14V2.48H149.819V7.496H149.691V14H148.635ZM152.403 13.144C153.005 13.144 153.507 12.992 153.907 12.688C154.307 12.384 154.605 11.9707 154.803 11.448C155.005 10.92 155.107 10.328 155.107 9.672C155.107 9.02133 155.008 8.43467 154.811 7.912C154.613 7.38933 154.312 6.976 153.907 6.672C153.507 6.368 152.997 6.216 152.379 6.216C151.776 6.216 151.275 6.36267 150.875 6.656C150.48 6.94933 150.184 7.35733 149.987 7.88C149.789 8.39733 149.691 8.99467 149.691 9.672C149.691 10.3387 149.789 10.936 149.987 11.464C150.184 11.9867 150.483 12.3973 150.883 12.696C151.283 12.9947 151.789 13.144 152.403 13.144ZM158.601 17.84L160.273 13.304L160.297 14.648L156.513 5.36H157.761L160.865 13.128H160.353L163.217 5.36H164.417L159.777 17.84H158.601Z" fill="black"/>
<path d="M12.264 41V33.86C12.264 33.5147 12.2453 33.076 12.208 32.544C12.1707 32.0027 12.054 31.4613 11.858 30.92C11.662 30.3787 11.34 29.926 10.892 29.562C10.4533 29.198 9.828 29.016 9.016 29.016C8.68933 29.016 8.33933 29.0673 7.966 29.17C7.59267 29.2727 7.24267 29.4733 6.916 29.772C6.58933 30.0613 6.31867 30.4907 6.104 31.06C5.89867 31.6293 5.796 32.3853 5.796 33.328L3.612 32.292C3.612 31.0973 3.85467 29.9773 4.34 28.932C4.82533 27.8867 5.55333 27.042 6.524 26.398C7.504 25.754 8.736 25.432 10.22 25.432C11.4053 25.432 12.3713 25.6327 13.118 26.034C13.8647 26.4353 14.4433 26.944 14.854 27.56C15.274 28.176 15.5727 28.82 15.75 29.492C15.9273 30.1547 16.0347 30.7613 16.072 31.312C16.1093 31.8627 16.128 32.264 16.128 32.516V41H12.264ZM1.932 41V25.88H5.32V30.892H5.796V41H1.932ZM18.9208 23.78V20.42H22.7288V23.78H18.9208ZM18.9208 41V25.88H22.7288V41H18.9208ZM25.7779 41L25.8059 20.84H29.6699V33.16L34.7939 25.88H39.4979L34.0379 33.44L39.8619 41H34.9059L29.6699 33.72V41H25.7779ZM50.4392 41V33.86C50.4392 33.5147 50.4205 33.076 50.3832 32.544C50.3458 32.0027 50.2292 31.4613 50.0332 30.92C49.8372 30.3787 49.5152 29.926 49.0672 29.562C48.6285 29.198 48.0032 29.016 47.1912 29.016C46.8645 29.016 46.5145 29.0673 46.1412 29.17C45.7678 29.2727 45.4178 29.4733 45.0912 29.772C44.7645 30.0613 44.4938 30.4907 44.2792 31.06C44.0738 31.6293 43.9712 32.3853 43.9712 33.328L41.7872 32.292C41.7872 31.0973 42.0298 29.9773 42.5152 28.932C43.0005 27.8867 43.7285 27.042 44.6992 26.398C45.6792 25.754 46.9112 25.432 48.3952 25.432C49.5805 25.432 50.5465 25.6327 51.2932 26.034C52.0398 26.4353 52.6185 26.944 53.0292 27.56C53.4492 28.176 53.7478 28.82 53.9252 29.492C54.1025 30.1547 54.2098 30.7613 54.2472 31.312C54.2845 31.8627 54.3032 32.264 54.3032 32.516V41H50.4392ZM40.1072 41V20.84H43.4952V31.2H43.9712V41H40.1072ZM57.0959 23.78V20.42H60.9039V23.78H57.0959ZM57.0959 41V25.88H60.9039V41H57.0959ZM64.2611 41V20.42H68.0691V41H64.2611ZM93.8317 41V32.068C93.8317 31.0693 93.5937 30.2947 93.1177 29.744C92.6511 29.184 92.0024 28.904 91.1717 28.904C90.6397 28.904 90.1777 29.03 89.7857 29.282C89.3937 29.5247 89.0857 29.87 88.8617 30.318C88.6471 30.7567 88.5397 31.2653 88.5397 31.844L86.9437 30.78C86.9437 29.744 87.1864 28.8293 87.6717 28.036C88.1664 27.2427 88.8244 26.6267 89.6457 26.188C90.4764 25.74 91.3957 25.516 92.4037 25.516C94.1304 25.516 95.4324 26.0293 96.3097 27.056C97.1964 28.0733 97.6397 29.408 97.6397 31.06V41H93.8317ZM75.6037 41V25.88H78.9637V30.892H79.4397V41H75.6037ZM84.7317 41V32.068C84.7317 31.0693 84.4937 30.2947 84.0177 29.744C83.5511 29.184 82.9024 28.904 82.0717 28.904C81.2784 28.904 80.6391 29.1793 80.1537 29.73C79.6777 30.2713 79.4397 30.976 79.4397 31.844L77.8437 30.724C77.8437 29.7347 78.0911 28.848 78.5857 28.064C79.0804 27.28 79.7431 26.6593 80.5737 26.202C81.4137 25.7447 82.3517 25.516 83.3877 25.516C84.5731 25.516 85.5437 25.768 86.2997 26.272C87.0651 26.776 87.6297 27.448 87.9937 28.288C88.3577 29.128 88.5397 30.052 88.5397 31.06V41H84.7317ZM106.691 41.42C105.169 41.42 103.835 41.0793 102.687 40.398C101.539 39.7167 100.643 38.7787 99.9987 37.584C99.3641 36.38 99.0467 34.9987 99.0467 33.44C99.0467 31.8627 99.3734 30.4767 100.027 29.282C100.68 28.078 101.581 27.14 102.729 26.468C103.877 25.796 105.197 25.46 106.691 25.46C108.212 25.46 109.547 25.8007 110.695 26.482C111.852 27.1633 112.753 28.106 113.397 29.31C114.041 30.5047 114.363 31.8813 114.363 33.44C114.363 35.008 114.036 36.394 113.383 37.598C112.739 38.7927 111.838 39.7307 110.681 40.412C109.533 41.084 108.203 41.42 106.691 41.42ZM106.691 37.864C107.913 37.864 108.823 37.4533 109.421 36.632C110.027 35.8013 110.331 34.7373 110.331 33.44C110.331 32.096 110.023 31.0227 109.407 30.22C108.8 29.4173 107.895 29.016 106.691 29.016C105.86 29.016 105.179 29.2027 104.647 29.576C104.115 29.9493 103.718 30.4673 103.457 31.13C103.205 31.7927 103.079 32.5627 103.079 33.44C103.079 34.7933 103.382 35.8713 103.989 36.674C104.605 37.4673 105.505 37.864 106.691 37.864ZM126.625 41V33.86C126.625 33.5147 126.607 33.076 126.569 32.544C126.532 32.0027 126.415 31.4613 126.219 30.92C126.023 30.3787 125.701 29.926 125.253 29.562C124.815 29.198 124.189 29.016 123.377 29.016C123.051 29.016 122.701 29.0673 122.327 29.17C121.954 29.2727 121.604 29.4733 121.277 29.772C120.951 30.0613 120.68 30.4907 120.465 31.06C120.26 31.6293 120.157 32.3853 120.157 33.328L117.973 32.292C117.973 31.0973 118.216 29.9773 118.701 28.932C119.187 27.8867 119.915 27.042 120.885 26.398C121.865 25.754 123.097 25.432 124.581 25.432C125.767 25.432 126.733 25.6327 127.479 26.034C128.226 26.4353 128.805 26.944 129.215 27.56C129.635 28.176 129.934 28.82 130.111 29.492C130.289 30.1547 130.396 30.7613 130.433 31.312C130.471 31.8627 130.489 32.264 130.489 32.516V41H126.625ZM116.293 41V20.84H119.681V31.2H120.157V41H116.293ZM137.202 41.42C136.12 41.42 135.2 41.2147 134.444 40.804C133.698 40.384 133.128 39.8287 132.736 39.138C132.354 38.438 132.162 37.668 132.162 36.828C132.162 36.128 132.27 35.4887 132.484 34.91C132.699 34.3313 133.044 33.8227 133.52 33.384C134.006 32.936 134.654 32.5627 135.466 32.264C136.026 32.0587 136.694 31.8767 137.468 31.718C138.243 31.5593 139.12 31.41 140.1 31.27C141.08 31.1207 142.158 30.9573 143.334 30.78L141.962 31.536C141.962 30.64 141.748 29.982 141.318 29.562C140.889 29.142 140.17 28.932 139.162 28.932C138.602 28.932 138.019 29.0673 137.412 29.338C136.806 29.6087 136.381 30.0893 136.138 30.78L132.694 29.688C133.077 28.4373 133.796 27.42 134.85 26.636C135.905 25.852 137.342 25.46 139.162 25.46C140.497 25.46 141.682 25.6653 142.718 26.076C143.754 26.4867 144.538 27.196 145.07 28.204C145.369 28.764 145.546 29.324 145.602 29.884C145.658 30.444 145.686 31.0693 145.686 31.76V41H142.354V37.892L142.83 38.536C142.093 39.5533 141.295 40.2907 140.436 40.748C139.587 41.196 138.509 41.42 137.202 41.42ZM138.014 38.424C138.714 38.424 139.302 38.3027 139.778 38.06C140.264 37.808 140.646 37.5233 140.926 37.206C141.216 36.8887 141.412 36.6227 141.514 36.408C141.71 35.9973 141.822 35.5213 141.85 34.98C141.888 34.4293 141.906 33.972 141.906 33.608L143.026 33.888C141.897 34.0747 140.982 34.2333 140.282 34.364C139.582 34.4853 139.018 34.5973 138.588 34.7C138.159 34.8027 137.781 34.9147 137.454 35.036C137.081 35.1853 136.778 35.3487 136.544 35.526C136.32 35.694 136.152 35.8807 136.04 36.086C135.938 36.2913 135.886 36.52 135.886 36.772C135.886 37.1173 135.97 37.416 136.138 37.668C136.316 37.9107 136.563 38.0973 136.88 38.228C137.198 38.3587 137.576 38.424 138.014 38.424ZM158.51 41V33.86C158.51 33.5147 158.492 33.076 158.454 32.544C158.417 32.0027 158.3 31.4613 158.104 30.92C157.908 30.3787 157.586 29.926 157.138 29.562C156.7 29.198 156.074 29.016 155.262 29.016C154.936 29.016 154.586 29.0673 154.212 29.17C153.839 29.2727 153.489 29.4733 153.162 29.772C152.836 30.0613 152.565 30.4907 152.35 31.06C152.145 31.6293 152.042 32.3853 152.042 33.328L149.858 32.292C149.858 31.0973 150.101 29.9773 150.586 28.932C151.072 27.8867 151.8 27.042 152.77 26.398C153.75 25.754 154.982 25.432 156.466 25.432C157.652 25.432 158.618 25.6327 159.364 26.034C160.111 26.4353 160.69 26.944 161.1 27.56C161.52 28.176 161.819 28.82 161.996 29.492C162.174 30.1547 162.281 30.7613 162.318 31.312C162.356 31.8627 162.374 32.264 162.374 32.516V41H158.51ZM148.178 41V25.88H151.566V30.892H152.042V41H148.178ZM165.503 41V37.192H169.311V41H165.503Z" fill="#0E100F"/>
</svg>
