<svg width="90" height="90" viewBox="0 0 90 90" fill="none" xmlns="http://www.w3.org/2000/svg">
<rect width="90" height="90" rx="17" fill="#264DE4"/>
<g clip-path="url(#clip0_1014_144)">
<path d="M69 17.3635L64.6271 66.5306L44.9706 71.9999L25.3683 66.5383L21 17.3635H69Z" fill="#264DE4"/>
<path d="M60.8834 63.3998L64.6203 21.3843H45V67.8194L60.8834 63.3998Z" fill="#2965F1"/>
<path d="M31.0137 39.6226L31.5522 45.6536H44.9995V39.6226H31.0137Z" fill="#EBEBEB"/>
<path d="M44.9996 27.4155H44.9788H29.9316L30.4779 33.4467H44.9996V27.4155Z" fill="#EBEBEB"/>
<path d="M44.999 61.5608V55.2859L44.9727 55.2929L38.2803 53.4793L37.8525 48.6692H34.6005H31.8203L32.6622 58.1389L44.9714 61.5685L44.999 61.5608Z" fill="#EBEBEB"/>
<path d="M52.3781 45.6536L51.6805 53.4755L44.9785 55.291V61.5656L57.2975 58.1389L57.3879 57.12L58.7999 41.2421L58.9466 39.6226L60.0314 27.4155H44.9785V33.4467H53.4459L52.8992 39.6226H44.9785V45.6536H52.3781Z" fill="white"/>
</g>
<defs>
<clipPath id="clip0_1014_144">
<rect width="48" height="55" fill="white" transform="translate(21 17)"/>
</clipPath>
</defs>
</svg>
