<svg width="90" height="90" viewBox="0 0 90 90" fill="none" xmlns="http://www.w3.org/2000/svg">
<rect width="90" height="90" rx="17" fill="black"/>
<g clip-path="url(#clip0_1014_157)">
<path d="M37.2523 69.0001C41.8053 69.0001 45.5006 65.3414 45.5006 60.8334V52.6667H37.2523C32.6992 52.6667 29.0039 56.3254 29.0039 60.8334C29.0039 65.3414 32.6992 69.0001 37.2523 69.0001Z" fill="#0ACF83"/>
<path d="M29.0039 44.4999C29.0039 39.9919 32.6992 36.3333 37.2523 36.3333H45.5006V52.6666H37.2523C32.6992 52.6666 29.0039 49.0079 29.0039 44.4999Z" fill="#A259FF"/>
<path d="M29.0039 28.1667C29.0039 23.6587 32.6992 20 37.2523 20H45.5006V36.3333H37.2523C32.6992 36.3333 29.0039 32.6747 29.0039 28.1667Z" fill="#F24E1E"/>
<path d="M45.5 20H53.7484C58.3014 20 61.9967 23.6587 61.9967 28.1667C61.9967 32.6747 58.3014 36.3333 53.7484 36.3333H45.5V20Z" fill="#FF7262"/>
<path d="M61.9967 44.4999C61.9967 49.0079 58.3014 52.6666 53.7484 52.6666C49.1953 52.6666 45.5 49.0079 45.5 44.4999C45.5 39.9919 49.1953 36.3333 53.7484 36.3333C58.3014 36.3333 61.9967 39.9919 61.9967 44.4999Z" fill="#1ABCFE"/>
</g>
<defs>
<clipPath id="clip0_1014_157">
<rect width="33" height="49" fill="white" transform="translate(29 20)"/>
</clipPath>
</defs>
</svg>
