<svg width="90" height="90" viewBox="0 0 90 90" fill="none" xmlns="http://www.w3.org/2000/svg">
<rect width="90" height="90" rx="17" fill="#54001A"/>
<path d="M19.1667 6H70.8334C78.6667 6 85 12.3333 85 20.1667V69.8334C85 77.6667 78.6667 84.0002 70.8333 84.0002H19.1667C11.3333 84 5 77.6667 5 69.8333V20.1667C5 12.3333 11.3333 6 19.1667 6Z" fill="#54001A"/>
<path d="M34.0661 26.4V60.6C34.0661 60.9667 33.8994 61.1333 33.5994 61.1333H27.0661C26.7661 61.1333 26.6328 60.9666 26.6328 60.6V26.4C26.6328 26.1 26.7995 25.9667 27.0995 25.9667H33.5995C33.7995 25.9334 33.9995 26.0667 34.0328 26.3C34.0661 26.3333 34.0661 26.3667 34.0661 26.4Z" fill="#FF3068"/>
<path d="M53.267 61.6667C50.8002 61.7 48.3337 61.2 46.1002 60.1667C44.0002 59.2 42.267 57.6 41.067 55.6334C39.8337 53.6001 39.2337 51.0667 39.2337 48.0334C39.2004 45.5667 39.8337 43.1334 41.067 41.0001C42.3337 38.8334 44.167 37.0334 46.367 35.8334C48.7002 34.5334 51.5002 33.9001 54.8002 33.9001C54.967 33.9001 55.2002 33.9001 55.5002 33.9334C55.8002 33.9667 56.1335 33.9667 56.5335 34.0001V23.4669C56.5335 23.2336 56.6335 23.1001 56.8668 23.1001H63.6335C63.8002 23.0669 63.9335 23.2001 63.9668 23.3334V23.4001V55.1334C63.9668 55.7334 64.0001 56.4001 64.0335 57.1334C64.1002 57.8334 64.1335 58.5001 64.1668 59.0667C64.1668 59.3 64.0668 59.5 63.8335 59.6C62.1002 60.3333 60.2668 60.8667 58.4002 61.2C56.7335 61.5 55.0002 61.6667 53.267 61.6667ZM56.5335 55V40.3333C56.2335 40.2665 55.9335 40.2 55.6335 40.1665C55.2668 40.1333 54.9002 40.0998 54.5335 40.0998C53.2335 40.0998 51.9335 40.3665 50.7668 40.9665C49.6335 41.5333 48.6668 42.3665 47.9335 43.4333C47.2002 44.5 46.8335 45.9333 46.8335 47.6665C46.8002 48.8333 47.0002 49.9998 47.4002 51.0998C47.7335 51.9998 48.2335 52.7998 48.9002 53.4665C49.5335 54.0665 50.3002 54.5333 51.167 54.7998C52.067 55.0998 53.0002 55.2331 53.9337 55.2331C54.4337 55.2331 54.9004 55.1998 55.3337 55.1664C55.767 55.2 56.1669 55.1333 56.5335 55Z" fill="#FF3068"/>
</svg>
