<svg width="90" height="90" viewBox="0 0 90 90" fill="none" xmlns="http://www.w3.org/2000/svg">
<rect width="90" height="90" rx="17" fill="black"/>
<g clip-path="url(#clip0_1014_252)">
<path d="M56.2096 38.0605H67.5315V40.2756H63.0403V51.9286H60.7945V40.2756H56.2096V38.0605ZM37.5895 38.0605V40.2756H28.5142V43.8389H35.8125V46.0539H28.5142V49.7135H37.5895V51.9287H26.2686V40.2756H26.2676V38.0605H37.5895ZM43.2428 38.0663H40.3039L50.8303 51.9343H53.7778L48.5139 45.005L53.7693 38.0768L50.8303 38.0817L47.0425 43.0682L43.2428 38.0663ZM46.2585 47.9724L44.7868 46.0327L40.2955 51.945H43.2428L46.2585 47.9724Z" fill="white"/>
<path fill-rule="evenodd" clip-rule="evenodd" d="M26.3476 51.9287L15.807 38.0549H13V51.9229H15.2456V41.0193L23.5265 51.9287H26.3476Z" fill="white"/>
<path d="M68.0365 51.844C67.9584 51.8453 67.8808 51.8299 67.8084 51.7988C67.7359 51.7677 67.6702 51.7214 67.615 51.6628C67.4979 51.542 67.4399 51.3958 67.4414 51.2225C67.4399 51.0541 67.4979 50.9095 67.615 50.7886C67.6702 50.73 67.7359 50.6837 67.8084 50.6526C67.8808 50.6215 67.9584 50.6061 68.0365 50.6075C68.1947 50.6075 68.3331 50.6678 68.4503 50.7886C68.569 50.9093 68.6283 51.0541 68.6299 51.2225C68.6296 51.333 68.6006 51.4413 68.5461 51.5355C68.4927 51.6286 68.4178 51.7057 68.3285 51.7597C68.2403 51.8156 68.1393 51.8447 68.0365 51.844ZM71.8694 46.0016H72.8645V50.0656C72.863 50.4389 72.7868 50.7584 72.6378 51.027C72.4872 51.2956 72.2787 51.5005 72.0109 51.6451C71.7446 51.7882 71.4327 51.8614 71.0781 51.8614C70.754 51.8614 70.4634 51.7994 70.2048 51.6785C69.9461 51.5579 69.7407 51.3767 69.5901 51.1382C69.4378 50.8998 69.3632 50.6026 69.3632 50.2467H70.36C70.3615 50.4023 70.395 50.5375 70.4588 50.6503C70.5217 50.7619 70.6136 50.8518 70.7236 50.9093C70.8376 50.9698 70.9686 51 71.1161 51C71.2759 51 71.4129 50.9651 71.5239 50.8934C71.6349 50.8234 71.7202 50.7185 71.7796 50.5788C71.8373 50.4406 71.8679 50.2689 71.8694 50.0656V46.0016ZM76.959 47.591C76.9347 47.3446 76.8282 47.1523 76.6426 47.0157C76.4553 46.8776 76.2135 46.809 75.9167 46.809C75.7083 46.809 75.5288 46.8424 75.3797 46.9076C75.2305 46.9744 75.1149 47.0633 75.0357 47.1762C74.9567 47.289 74.9171 47.4177 74.914 47.5623C74.914 47.6832 74.9413 47.7879 74.9946 47.8753C75.0479 47.9645 75.1194 48.0392 75.2122 48.0995C75.3077 48.1633 75.4098 48.2151 75.5166 48.2538C75.6291 48.295 75.7418 48.33 75.8543 48.3587L76.3732 48.4937C76.5799 48.5435 76.7821 48.6127 76.9773 48.7004C77.165 48.7827 77.3407 48.8929 77.4991 49.0277C77.6512 49.1575 77.7757 49.32 77.8644 49.5044C77.9541 49.6905 77.9998 49.9082 77.9998 50.1593C77.9998 50.4978 77.9177 50.7949 77.7517 51.0525C77.5859 51.3083 77.347 51.5086 77.0336 51.6532C76.7216 51.7962 76.3443 51.8693 75.9 51.8693C75.4709 51.8693 75.0966 51.7994 74.7817 51.6595C74.4652 51.5213 74.2186 51.3178 74.0406 51.0509C73.8626 50.7839 73.7667 50.4581 73.753 50.0752H74.7391C74.7528 50.2752 74.8137 50.4422 74.9171 50.5772C75.022 50.7106 75.1589 50.8093 75.3264 50.8761C75.4953 50.9411 75.6839 50.9745 75.8924 50.9745C76.11 50.9745 76.3017 50.9395 76.4675 50.8713C76.6318 50.803 76.7612 50.7075 76.8541 50.5835C76.9484 50.4611 76.9956 50.3167 76.9971 50.1512C76.9956 50.0003 76.9529 49.8748 76.8707 49.7761C76.7871 49.6777 76.6714 49.595 76.5238 49.5284C76.3549 49.4545 76.181 49.3944 76.0035 49.3488L75.3736 49.1802C74.9186 49.0578 74.5579 48.8719 74.2946 48.6224C74.03 48.3728 73.899 48.0423 73.899 47.6274C73.899 47.2874 73.9873 46.9886 74.1655 46.7328C74.3418 46.4769 74.5838 46.2781 74.8897 46.1368C75.1971 45.9938 75.544 45.9238 75.9304 45.9238C76.323 45.9238 76.6668 45.9938 76.9636 46.1368C77.2602 46.2783 77.4932 46.4754 77.6619 46.7265C77.8309 46.9776 77.9191 47.2651 77.9238 47.591H76.959Z" fill="white"/>
</g>
<defs>
<clipPath id="clip0_1014_252">
<rect width="65" height="14" fill="white" transform="translate(13 38)"/>
</clipPath>
</defs>
</svg>
