<svg width="90" height="90" viewBox="0 0 90 90" fill="none" xmlns="http://www.w3.org/2000/svg">
<rect width="90" height="90" rx="17" fill="#7A2F1B"/>
<g clip-path="url(#clip0_1014_281)">
<path d="M48.9429 17.875C41.8186 17.896 34.9921 20.7605 29.9544 25.8429C24.9167 30.9253 22.0774 37.8124 22.0566 45L56.1197 52.2404L48.9429 17.875Z" fill="#ED6C47"/>
<path d="M48.9434 17.875C56.0677 17.896 62.8942 20.7605 67.9319 25.8429C72.9696 30.9253 75.8089 37.8124 75.8297 45L62.3865 54.2186L48.9434 45V17.875Z" fill="#FF8F6B"/>
<path d="M48.9429 72.125C56.0672 72.104 62.8938 69.2395 67.9315 64.1571C72.9691 59.0747 75.8085 52.1876 75.8292 45H22.0566C22.0774 52.1876 24.9167 59.0747 29.9544 64.1571C34.9921 69.2395 41.8186 72.104 48.9429 72.125Z" fill="#D35230"/>
<path opacity="0.1" d="M46.3825 27.5625H28.407C24.0171 32.7809 21.7589 39.4885 22.0906 46.3248C22.4222 53.1611 25.3189 59.6141 30.1931 64.375H46.3825C47.0611 64.3735 47.7116 64.1009 48.1916 63.617C48.6717 63.133 48.9423 62.477 48.9443 61.7923V30.1452C48.9423 29.4605 48.6717 28.8045 48.1916 28.3205C47.7116 27.8366 47.0611 27.564 46.3825 27.5625Z" fill="black"/>
<path opacity="0.2" d="M44.4614 29.5H26.9354C22.9767 35.1667 21.3355 42.1549 22.3531 49.0112C23.3707 55.8674 26.9688 62.0641 32.3991 66.3125H44.4633C45.1416 66.3105 45.7916 66.0377 46.2713 65.5538C46.7509 65.0699 47.0213 64.4142 47.0233 63.7298V32.0827C47.0213 31.398 46.7506 30.742 46.2706 30.258C45.7905 29.7741 45.1401 29.5015 44.4614 29.5Z" fill="black"/>
<path opacity="0.2" d="M44.4612 29.5H26.9351C23.5253 34.3774 21.8193 40.2601 22.0856 46.2226C22.3519 52.1852 24.5754 57.8892 28.4062 62.4375H44.4631C45.1414 62.4355 45.7914 62.1627 46.271 61.6788C46.7507 61.1949 47.021 60.5392 47.023 59.8548V32.0827C47.021 31.398 46.7504 30.742 46.2703 30.258C45.7903 29.7741 45.1398 29.5015 44.4612 29.5Z" fill="black"/>
<path opacity="0.2" d="M42.5407 29.5H26.9351C23.5253 34.3774 21.8193 40.2601 22.0856 46.2226C22.3519 52.1852 24.5754 57.8892 28.4062 62.4375H42.5426C43.221 62.4355 43.8709 62.1627 44.3506 61.6788C44.8302 61.1949 45.1006 60.5392 45.1026 59.8548V32.0827C45.1006 31.398 44.8299 30.742 44.3499 30.258C43.8698 29.7741 43.2194 29.5015 42.5407 29.5Z" fill="black"/>
<path d="M16.935 29.5H42.5422C43.2212 29.5 43.8723 29.7721 44.3524 30.2565C44.8325 30.7408 45.1022 31.3977 45.1022 32.0827V57.9173C45.1022 58.6023 44.8325 59.2592 44.3524 59.7435C43.8723 60.2279 43.2212 60.5 42.5422 60.5H16.935C16.256 60.5 15.6049 60.2279 15.1248 59.7435C14.6447 59.2592 14.375 58.6023 14.375 57.9173V32.0827C14.375 31.3977 14.6447 30.7408 15.1248 30.2565C15.6049 29.7721 16.256 29.5 16.935 29.5Z" fill="#C43E1C"/>
<path d="M29.7327 35.3124C31.6237 35.184 33.4986 35.7367 35.0235 36.8721C35.649 37.4352 36.1393 38.1344 36.4574 38.9168C36.7754 39.6993 36.9129 40.5445 36.8595 41.3884C36.8804 42.4843 36.563 43.5595 35.9511 44.4652C35.3283 45.4661 34.4319 46.2641 33.37 46.7631C32.1559 47.3318 30.829 47.6128 29.4907 47.5846H25.8226V54.6874H22.0566V35.3124H29.7327ZM25.8207 44.3858H29.0605C30.0877 44.462 31.1071 44.1559 31.9258 43.5255C32.2512 43.3144 32.5132 43.0177 32.6838 42.6674C32.8543 42.3171 32.9269 41.9265 32.8937 41.5376C32.8937 39.3948 31.6563 38.3233 29.1815 38.3233H25.8207V44.3858Z" fill="#F9F7F7"/>
</g>
<defs>
<clipPath id="clip0_1014_281">
<rect width="62" height="62" fill="white" transform="translate(14 14)"/>
</clipPath>
</defs>
</svg>
