<svg width="90" height="90" viewBox="0 0 90 90" fill="none" xmlns="http://www.w3.org/2000/svg">
<rect width="90" height="90" rx="17" fill="#00005B"/>
<g clip-path="url(#clip0_1014_300)">
<path d="M20.4583 7.94995H69.5417C76.9834 7.94995 83 13.9666 83 21.4083V68.5917C83 76.0334 76.9834 82.05 69.5417 82.05H20.4583C13.0166 82.05 7 76.0332 7 68.5917V21.4083C7 13.9666 13.0166 7.94995 20.4583 7.94995Z" fill="#00005B"/>
<path d="M35.1839 26.7917C37.7805 26.7917 39.9338 27.1084 41.7071 27.7733C44.685 28.89 47.134 30.9482 48.2623 33.9801C48.7372 35.3101 48.9906 36.6718 48.9906 38.0968C48.9906 42.7657 46.5272 47.0307 41.9923 48.7052C39.8389 49.4968 37.464 49.7818 34.8673 49.7818C34.1073 49.7818 33.6006 49.7818 33.284 49.7501C32.9673 49.7185 32.524 49.7185 31.9224 49.7185V59.8836C31.954 60.1052 31.7958 60.2952 31.574 60.3269C31.5424 60.3269 31.5106 60.3269 31.4474 60.3269H25.4308C25.1774 60.3269 25.0508 60.2003 25.0508 59.9153V27.33C25.0508 27.1084 25.1458 26.9816 25.3674 26.9816C25.9058 26.9816 26.4124 26.9816 27.1407 26.95L35.1839 26.7917ZM31.9538 33.0934V43.7334C32.3972 43.765 32.8088 43.7968 33.1888 43.7968H34.8671C36.1021 43.7968 37.3371 43.6068 38.5087 43.2268C40.7764 42.4913 42.0871 40.6463 42.0871 38.2869C42.0871 36.3108 41.0426 34.3843 39.1422 33.6635C37.9706 33.1885 36.7039 32.9985 35.4055 33.0301C34.5822 33.0301 33.8538 33.0301 33.2522 33.0617C32.6188 33.03 32.1755 33.0617 31.9538 33.0934Z" fill="#9999FF"/>
<path d="M53.4241 34.93H58.9657C59.2823 34.93 59.5357 35.1516 59.6307 35.4366C59.7257 35.69 59.7891 35.9432 59.8207 36.2282C59.8841 36.5448 59.9473 36.8932 59.9791 37.2098C60.0107 37.5582 60.0424 37.9382 60.0424 38.3498C60.9924 37.2414 62.1324 36.323 63.4307 35.6264C64.8875 34.8031 66.5658 34.3915 68.2441 34.3915C68.4658 34.3599 68.6558 34.5181 68.6875 34.7399V34.8665V41.0415C68.6875 41.2948 68.5291 41.3898 68.1809 41.3898C67.0409 41.3582 65.8692 41.4532 64.7609 41.7064C63.8425 41.8964 62.9559 42.1814 62.1008 42.5614C61.4992 42.8464 60.9292 43.2264 60.4858 43.733V59.883C60.4858 60.1996 60.3592 60.3264 60.0742 60.3264H53.8358C53.5825 60.358 53.3608 60.1998 53.3292 59.9464C53.3292 59.9148 53.3292 59.8514 53.3292 59.8198V42.2764C53.3292 41.5164 53.3292 40.7247 53.2976 39.9015C53.266 39.0781 53.266 38.2548 53.2342 37.4315C53.2342 36.7032 53.1708 36.0066 53.1076 35.2782C53.076 35.1198 53.171 34.9616 53.3292 34.9298C53.3291 34.8982 53.3923 34.8982 53.4241 34.93Z" fill="#9999FF"/>
</g>
<defs>
<clipPath id="clip0_1014_300">
<rect width="76" height="76" fill="white" transform="translate(7 7)"/>
</clipPath>
</defs>
</svg>
