<svg width="90" height="90" viewBox="0 0 90 90" fill="none" xmlns="http://www.w3.org/2000/svg">
<rect width="90" height="90" rx="17" fill="#001834"/>
<g clip-path="url(#clip0_1014_273)">
<path d="M20.4584 7.94995H69.5418C76.9834 7.94995 83 13.9666 83 21.4083V68.5917C83 76.0333 76.9834 82.0501 69.5416 82.0501H20.4584C13.0166 82.05 7 76.0333 7 68.5916V21.4083C7 13.9666 13.0166 7.94995 20.4584 7.94995Z" fill="#001834"/>
<path d="M24.0996 59.9149V27.3299C24.0996 27.1083 24.1946 26.9815 24.4162 26.9815C24.9546 26.9815 25.4612 26.9815 26.1896 26.9499C26.9496 26.9183 27.7412 26.9183 28.5962 26.8865C29.4512 26.8547 30.3696 26.8549 31.3512 26.8231C32.3328 26.7915 33.2828 26.7915 34.2328 26.7915C36.8295 26.7915 38.9828 27.1081 40.7562 27.7731C42.3396 28.3115 43.7962 29.1981 44.9996 30.3697C46.013 31.3831 46.8046 32.6181 47.3112 33.9797C47.7862 35.3097 48.0396 36.6714 48.0396 38.0964C48.0396 40.8197 47.4062 43.068 46.1396 44.8414C44.873 46.6147 43.0996 47.9447 41.0412 48.7047C38.8878 49.4964 36.5128 49.7814 33.9162 49.7814C33.1562 49.7814 32.6496 49.7814 32.3328 49.7497C32.0162 49.7181 31.5728 49.7181 30.9712 49.7181V59.8831C31.0028 60.1047 30.8446 60.2947 30.6228 60.3265C30.5912 60.3265 30.5595 60.3265 30.4962 60.3265H24.4796C24.2262 60.3265 24.0996 60.1999 24.0996 59.9149ZM31.003 33.0933V43.7333C31.4464 43.7649 31.858 43.7967 32.238 43.7967H33.9164C36.103 43.7967 38.6284 43.2828 40.1546 41.5484C41.4681 40.0557 41.4718 37.0956 40.408 35.4684C39.1451 33.5368 36.6196 32.9772 34.4546 33.03C33.6312 33.03 32.903 33.03 32.3012 33.0617C31.668 33.0299 31.2246 33.0615 31.003 33.0933Z" fill="#00A9FF"/>
<path d="M67.7995 41.8014C66.8495 41.2948 65.8361 40.9464 64.7595 40.7248C63.5879 40.4714 62.4161 40.3132 61.2128 40.3132C60.5795 40.2815 59.9145 40.3765 59.3129 40.5348C58.9012 40.6298 58.5528 40.8514 58.3312 41.1682C58.1728 41.4215 58.0778 41.7382 58.0778 42.0232C58.0778 42.3082 58.2045 42.5932 58.3945 42.8465C58.6795 43.1949 59.0595 43.4799 59.4711 43.7015C60.1995 44.0815 60.9595 44.4299 61.7195 44.7465C63.4295 45.3165 65.0761 46.1082 66.5961 47.0582C67.6411 47.7232 68.4961 48.6098 69.0977 49.6865C69.6043 50.6999 69.8577 51.8082 69.8261 52.9482C69.8577 54.4365 69.4145 55.9248 68.5911 57.1598C67.7045 58.4264 66.4695 59.4082 65.0445 59.9782C63.4929 60.6432 61.5929 60.9915 59.3129 60.9915C57.8562 60.9915 56.4312 60.8649 55.0062 60.5799C53.8978 60.3899 52.7896 60.0415 51.7762 59.5665C51.5546 59.4399 51.3962 59.2182 51.4279 58.9649V53.4549C51.4279 53.3599 51.4595 53.2333 51.5545 53.1699C51.6495 53.1065 51.7445 53.1383 51.8395 53.2015C53.0745 53.9299 54.3728 54.4365 55.7661 54.7532C56.9695 55.0698 58.2361 55.2282 59.5027 55.2282C60.7061 55.2282 61.5611 55.0698 62.1311 54.7848C62.6377 54.5632 62.9861 54.0248 62.9861 53.4548C62.9861 53.0114 62.7327 52.5998 62.2261 52.1882C61.7195 51.7765 60.6745 51.3015 59.1227 50.6998C57.5077 50.1298 56.0193 49.3698 54.6261 48.4198C53.6445 47.7232 52.8211 46.8048 52.2195 45.7282C51.7129 44.7148 51.4595 43.6065 51.4911 42.4982C51.4911 41.1365 51.8711 39.8382 52.5677 38.6665C53.3593 37.3999 54.5311 36.3865 55.8927 35.7532C57.3811 34.9932 59.2493 34.6448 61.4977 34.6448C62.7961 34.6448 64.1261 34.7398 65.4243 34.9298C66.3743 35.0564 67.2927 35.3098 68.1477 35.6582C68.2743 35.6898 68.4011 35.8165 68.4643 35.9432C68.4959 36.0698 68.5277 36.1965 68.5277 36.3232V41.4848C68.5277 41.6114 68.4643 41.7382 68.3693 41.8014C68.0845 41.8648 67.9261 41.8648 67.7995 41.8014Z" fill="#00A9FF"/>
</g>
<defs>
<clipPath id="clip0_1014_273">
<rect width="76" height="76" fill="white" transform="translate(7 7)"/>
</clipPath>
</defs>
</svg>
