<svg width="90" height="90" viewBox="0 0 90 90" fill="none" xmlns="http://www.w3.org/2000/svg">
<rect width="90" height="90" rx="17" fill="black"/>
<g clip-path="url(#clip0_1014_362)">
<path d="M45.5005 50.2101C48.7002 50.2101 51.294 47.6536 51.294 44.5C51.294 41.3463 48.7002 38.7898 45.5005 38.7898C42.3009 38.7898 39.707 41.3463 39.707 44.5C39.707 47.6536 42.3009 50.2101 45.5005 50.2101Z" fill="#61DAFB"/>
<path d="M45.4991 56.1988C62.6679 56.1988 76.586 50.961 76.586 44.4999C76.586 38.0388 62.6679 32.801 45.4991 32.801C28.3302 32.801 14.4121 38.0388 14.4121 44.4999C14.4121 50.961 28.3302 56.1988 45.4991 56.1988Z" stroke="#61DAFB"/>
<path d="M35.2192 50.3493C43.8036 65.0042 55.3649 74.2654 61.042 71.0349C66.7191 67.8043 64.3623 53.3053 55.7779 38.6505C47.1934 23.9956 35.6322 14.7344 29.955 17.9649C24.2779 21.1955 26.6347 35.6945 35.2192 50.3493Z" stroke="#61DAFB"/>
<path d="M35.2201 38.6505C26.6357 53.3054 24.2788 67.8044 29.956 71.035C35.6331 74.2655 47.1944 65.0043 55.7788 50.3494C64.3632 35.6946 66.72 21.1956 61.0429 17.965C55.3658 14.7344 43.8045 23.9957 35.2201 38.6505Z" stroke="#61DAFB"/>
</g>
<defs>
<clipPath id="clip0_1014_362">
<rect width="65" height="57" fill="white" transform="translate(13 16)"/>
</clipPath>
</defs>
</svg>
