<svg width="106" height="36" viewBox="0 0 106 36" fill="none" xmlns="http://www.w3.org/2000/svg">
<path d="M96.7832 36.0001V27.1943H105.589V36.0001H96.7832Z" fill="white"/>
<path d="M80.7233 35.9999V15.3453C80.7233 13.0359 80.173 11.2446 79.0722 9.97119C77.9931 8.67622 76.4931 8.02874 74.5722 8.02874C73.342 8.02874 72.2737 8.32011 71.3672 8.90284C70.4607 9.46399 69.7485 10.2626 69.2305 11.2985C68.7341 12.3129 68.4859 13.4892 68.4859 14.8273L64.7953 12.3669C64.7953 9.97119 65.3564 7.85608 66.4787 6.02155C67.6226 4.18702 69.1442 2.76256 71.0435 1.74817C72.9643 0.712199 75.0902 0.194214 77.4212 0.194214C81.414 0.194214 84.4248 1.38126 86.4535 3.75536C88.5039 6.10788 89.5291 9.19421 89.5291 13.0143V35.9999H80.7233ZM38.5723 35.9999V1.03594H46.342V12.6259H47.4428V35.9999H38.5723ZM59.6802 35.9999V15.3453C59.6802 13.0359 59.1298 11.2446 58.0291 9.97119C56.95 8.67622 55.45 8.02874 53.5291 8.02874C51.6946 8.02874 50.2161 8.66543 49.0938 9.93881C47.9931 11.1906 47.4428 12.8201 47.4428 14.8273L43.7521 12.2374C43.7521 9.9496 44.3241 7.89925 45.4679 6.0863C46.6118 4.27335 48.1442 2.8381 50.0651 1.78054C52.0075 0.722991 54.1766 0.194214 56.5723 0.194214C59.3133 0.194214 61.5579 0.776948 63.3061 1.94241C65.0758 3.10788 66.3816 4.66184 67.2233 6.60428C68.0651 8.54673 68.4859 10.6834 68.4859 13.0143V35.9999H59.6802Z" fill="white"/>
<path d="M23.8921 36V19.4892C23.8921 18.6906 23.8489 17.6762 23.7626 16.446C23.6762 15.1942 23.4065 13.9424 22.9532 12.6906C22.5 11.4388 21.7554 10.3921 20.7194 9.55035C19.705 8.70863 18.259 8.28776 16.3813 8.28776C15.6259 8.28776 14.8165 8.40647 13.9532 8.64388C13.0899 8.88129 12.2806 9.34532 11.5252 10.036C10.7698 10.705 10.1439 11.6978 9.64747 13.0144C9.17266 14.3309 8.93525 16.0791 8.93525 18.259L3.88489 15.8633C3.88489 13.1007 4.44604 10.5108 5.56834 8.09352C6.69064 5.67626 8.3741 3.72302 10.6187 2.23381C12.8849 0.744603 15.7338 0 19.1655 0C21.9065 0 24.1403 0.464029 25.8669 1.39209C27.5935 2.32014 28.9316 3.4964 29.8813 4.92086C30.8525 6.34532 31.5431 7.83453 31.9532 9.38848C32.3633 10.9209 32.6115 12.3237 32.6978 13.5971C32.7841 14.8705 32.8273 15.7986 32.8273 16.3813V36H23.8921ZM0 36V1.03597H7.83453V12.6259H8.93525V36H0Z" fill="white"/>
</svg>
