<svg width="106" height="36" viewBox="0 0 106 36" fill="none" xmlns="http://www.w3.org/2000/svg">
<path d="M96.7832 36V27.1942H105.589V36H96.7832Z" fill="black"/>
<path d="M80.7252 36V15.3453C80.7252 13.036 80.1749 11.2446 79.0742 9.97124C77.995 8.67628 76.495 8.02879 74.5742 8.02879C73.344 8.02879 72.2756 8.32016 71.3691 8.90289C70.4627 9.46404 69.7504 10.2626 69.2324 11.2986C68.736 12.313 68.4878 13.4892 68.4878 14.8273L64.7972 12.3669C64.7972 9.97124 65.3583 7.85613 66.4806 6.0216C67.6245 4.18707 69.1461 2.76262 71.0454 1.74823C72.9662 0.712259 75.0922 0.194275 77.4231 0.194275C81.4159 0.194275 84.4267 1.38132 86.4554 3.75542C88.5058 6.10793 89.531 9.19426 89.531 13.0144V36H80.7252ZM38.5742 36V1.036H46.344V12.6259H47.4447V36H38.5742ZM59.6821 36V15.3453C59.6821 13.036 59.1317 11.2446 58.031 9.97124C56.9519 8.67628 55.4519 8.02879 53.531 8.02879C51.6965 8.02879 50.2181 8.66548 49.0958 9.93886C47.9951 11.1907 47.4447 12.8202 47.4447 14.8273L43.7541 12.2374C43.7541 9.94966 44.326 7.8993 45.4699 6.08635C46.6138 4.27341 48.1461 2.83816 50.067 1.7806C52.0094 0.723051 54.1785 0.194275 56.5742 0.194275C59.3152 0.194275 61.5598 0.777008 63.308 1.94247C65.0778 3.10794 66.3835 4.66189 67.2253 6.60434C68.067 8.54678 68.4878 10.6835 68.4878 13.0144V36H59.6821Z" fill="black"/>
<path d="M23.892 35.9999V19.4892C23.892 18.6906 23.8489 17.6762 23.7626 16.446C23.6762 15.1942 23.4064 13.9424 22.9532 12.6906C22.5 11.4388 21.7554 10.3921 20.7194 9.55035C19.705 8.70862 18.259 8.28776 16.3813 8.28776C15.6259 8.28776 14.8165 8.40646 13.9532 8.64387C13.0899 8.88128 12.2806 9.34531 11.5252 10.036C10.7698 10.705 10.1439 11.6978 9.64747 13.0144C9.17265 14.3309 8.93524 16.0791 8.93524 18.259L3.88489 15.8633C3.88489 13.1007 4.44604 10.5108 5.56834 8.09351C6.69064 5.67625 8.37409 3.72302 10.6187 2.23381C12.8849 0.744602 15.7338 0 19.1654 0C21.9064 0 24.1402 0.464029 25.8669 1.39209C27.5935 2.32014 28.9316 3.4964 29.8812 4.92086C30.8525 6.34531 31.5431 7.83452 31.9532 9.38848C32.3633 10.9208 32.6115 12.3237 32.6978 13.5971C32.7841 14.8705 32.8273 15.7985 32.8273 16.3813V35.9999H23.892ZM0 35.9999V1.03597H7.83452V12.6259H8.93524V35.9999H0Z" fill="black"/>
</svg>
