<svg width="90" height="90" viewBox="0 0 90 90" fill="none" xmlns="http://www.w3.org/2000/svg">
<rect width="90" height="90" rx="17" fill="#FEEEB7"/>
<g clip-path="url(#clip0_1014_323)">
<path d="M28.8468 19.7441L45.4405 18L62.0343 19.7441L74.8811 36.8896L45.4405 70.9737L16 36.8896L28.8468 19.7441Z" fill="#FDB300"/>
<path d="M27.9249 36.8896L45.4406 70.9737L16 36.8896H27.9249Z" fill="#EA6C00"/>
<path d="M62.956 36.8896L45.4403 70.9737L74.8809 36.8896H62.956Z" fill="#EA6C00"/>
<path d="M27.9258 36.8896H62.9571L45.4414 70.9737L27.9258 36.8896Z" fill="#FDAD00"/>
<path d="M45.4414 18L28.8476 19.7441L27.9258 36.8896L45.4414 18Z" fill="#FDD231"/>
<path d="M45.4414 18L62.0352 19.7441L62.957 36.8896L45.4414 18Z" fill="#FDD231"/>
<path d="M74.8809 36.8896L62.034 19.7441L62.956 36.8896H74.8809Z" fill="#FDAD00"/>
<path d="M16 36.8896L28.8467 19.7441L27.9249 36.8896H16Z" fill="#FDAD00"/>
<path d="M45.4414 18L27.9258 36.8896H62.9571L45.4414 18Z" fill="#FEEEB7"/>
</g>
<defs>
<clipPath id="clip0_1014_323">
<rect width="59" height="53" fill="white" transform="translate(16 18)"/>
</clipPath>
</defs>
</svg>
