<svg width="90" height="90" viewBox="0 0 90 90" fill="none" xmlns="http://www.w3.org/2000/svg">
<rect width="90" height="90" rx="17" fill="#470137"/>
<g clip-path="url(#clip0_1014_384)">
<path d="M21.2812 9H69.7188C77.0625 9 83 14.8462 83 22.0769V67.9231C83 75.1538 77.0625 81 69.7188 81H21.2812C13.9375 81 8 75.1538 8 67.9231V22.0769C8 14.8462 13.9375 9 21.2812 9Z" fill="#470137"/>
<path d="M47.438 27.923L38.063 43.1537L48.063 59.3076C48.1255 59.4307 48.1568 59.5537 48.1255 59.6768C48.0943 59.7999 47.9693 59.7076 47.7818 59.7383H40.6255C40.1255 59.7383 39.7818 59.7076 39.563 59.3999C38.9068 58.1076 38.2193 56.846 37.563 55.5537C36.9068 54.2922 36.188 52.9999 35.438 51.6768C34.688 50.3537 33.938 49.0307 33.188 47.6768H33.1255C32.4693 48.9999 31.7505 50.323 31.0318 51.646C30.313 52.9691 29.5943 54.2922 28.9068 55.5845C28.188 56.8768 27.4693 58.1999 26.7505 59.4614C26.6255 59.7691 26.3755 59.7999 26.0318 59.7999H19.1568C19.0318 59.7999 18.938 59.8614 18.938 59.7076C18.9068 59.5845 18.938 59.4614 19.0005 59.3691L28.7193 43.6768L19.2505 27.8922C19.1568 27.7691 19.1255 27.646 19.188 27.5845C19.2505 27.4922 19.3755 27.4614 19.5005 27.4614H26.5943C26.7505 27.4614 26.9068 27.4922 27.0318 27.523C27.1568 27.5845 27.2505 27.6768 27.3443 27.7999C27.938 29.123 28.6255 30.446 29.3443 31.7691C30.0943 33.0922 30.813 34.3845 31.5943 35.6768C32.3443 36.9691 33.0318 38.2614 33.688 39.5845H33.7505C34.4068 38.2307 35.0943 36.9076 35.7818 35.6153C36.4693 34.323 37.188 33.0307 37.9068 31.7383C38.6255 30.446 39.313 29.123 40.0005 27.8614C40.0318 27.7383 40.0943 27.6153 40.188 27.5537C40.313 27.4922 40.438 27.4614 40.5943 27.4922H47.188C47.3443 27.4614 47.5005 27.5537 47.5318 27.7076C47.563 27.7383 47.5005 27.8614 47.438 27.923Z" fill="#FF61F6"/>
<path d="M61.8762 60.3846C59.5637 60.4153 57.2512 59.9538 55.1574 59C53.1887 58.1076 51.5637 56.6307 50.4387 54.8153C49.2824 52.9384 48.7199 50.6 48.7199 47.8C48.6887 45.523 49.2824 43.2769 50.4387 41.3076C51.6262 39.3076 53.3449 37.6461 55.4074 36.5384C57.5949 35.3384 60.2199 34.7538 63.3137 34.7538C63.4699 34.7538 63.6887 34.7538 63.9699 34.7846C64.2512 34.8153 64.5637 34.8153 64.9387 34.8461V25.123C64.9387 24.9076 65.0324 24.7846 65.2512 24.7846H71.5949C71.7512 24.7538 71.8762 24.8769 71.9074 25C71.9074 25.0307 71.9074 25.0615 71.9074 25.0615V54.3538C71.9074 54.9076 71.9387 55.523 71.9699 56.2C72.0324 56.8461 72.0637 57.4615 72.0949 57.9846C72.0949 58.2 72.0012 58.3846 71.7824 58.4769C70.1574 59.1538 68.4387 59.6461 66.6887 59.9538C65.0949 60.2307 63.5012 60.3846 61.8762 60.3846ZM64.9387 54.2307V40.6923C64.6574 40.6307 64.3762 40.5692 64.0949 40.5384C63.7512 40.5076 63.4074 40.4769 63.0637 40.4769C61.8449 40.4769 60.6262 40.723 59.5324 41.2769C58.4699 41.8 57.5637 42.5692 56.8762 43.5538C56.1887 44.5384 55.8449 45.8615 55.8449 47.4615C55.8137 48.5384 56.0012 49.6153 56.3762 50.6307C56.6887 51.4615 57.1574 52.2 57.7824 52.8153C58.3762 53.3692 59.0949 53.8 59.9074 54.0461C60.7512 54.323 61.6262 54.4461 62.5012 54.4461C62.9699 54.4461 63.4074 54.4153 63.8137 54.3846C64.2199 54.4153 64.5637 54.3538 64.9387 54.2307Z" fill="#FF61F6"/>
</g>
<defs>
<clipPath id="clip0_1014_384">
<rect width="75" height="72" fill="white" transform="translate(8 9)"/>
</clipPath>
</defs>
</svg>
